<?xml version="1.0" encoding="UTF-8" standalone="no"?>
<svg
   xmlns:dc="http://purl.org/dc/elements/1.1/"
   xmlns:cc="http://creativecommons.org/ns#"
   xmlns:rdf="http://www.w3.org/1999/02/22-rdf-syntax-ns#"
   xmlns:svg="http://www.w3.org/2000/svg"
   xmlns="http://www.w3.org/2000/svg"
   id="svg44"
   xml:space="preserve"
   enable-background="new -7.65 -13.389 162 176"
   viewBox="-7.65 -13.389 162 176"
   height="176px"
   width="162px"
   y="0px"
   x="0px"
   version="1.1"><metadata
   id="metadata48"><rdf:RDF><cc:Work
       rdf:about=""><dc:format>image/svg+xml</dc:format><dc:type
         rdf:resource="http://purl.org/dc/dcmitype/StillImage" /><dc:title></dc:title></cc:Work></rdf:RDF></metadata>
<defs
   id="defs2">
</defs>
<path
   id="path4"
   transform="translate(-7.65,-13.389)"
   d="M 113.79102 14.890625 C 113.55629 14.894249 113.27497 15.019764 112.97852 15.28125 C 112.58261 15.630922 112.15819 16.224094 111.77344 17.089844 C 110.12244 20.090844 108.00444 21.400187 108.02344 23.617188 C 108.77844 24.876188 102.39711 26.723922 104.41211 30.669922 C 102.98411 32.432922 99.627313 34.699344 100.82031 37.402344 C 100.21431 38.728344 95.932297 41.835438 97.779297 44.773438 C 93.750297 47.460437 93.990797 48.108406 94.841797 50.566406 C 94.780854 50.605512 94.721157 50.657954 94.660156 50.699219 C 94.44118 50.847049 94.221186 50.998864 94.005859 51.171875 C 93.950308 51.216656 93.898744 51.26815 93.84375 51.314453 C 93.617923 51.503894 93.396766 51.700067 93.185547 51.912109 C 93.153526 51.944386 93.125319 51.97898 93.09375 52.011719 C 92.873503 52.239159 92.665144 52.474121 92.472656 52.720703 C 92.428969 52.77687 92.393501 52.835594 92.351562 52.892578 C 92.181372 53.123009 92.024996 53.356525 91.888672 53.597656 C 91.876634 53.618961 91.859399 53.638787 91.847656 53.660156 C 91.828165 53.636986 91.808534 53.607718 91.789062 53.583984 C 91.62306 53.381974 91.460577 53.158384 91.298828 52.916016 C 91.225922 52.806673 91.155283 52.685723 91.083984 52.568359 C 90.963377 52.36985 90.84468 52.160525 90.730469 51.939453 C 90.662016 51.806922 90.594809 51.673686 90.529297 51.533203 C 90.388052 51.230209 90.254874 50.909485 90.130859 50.570312 C 90.106193 50.502877 90.076605 50.44384 90.052734 50.375 C 89.911537 49.967578 89.790358 49.527778 89.681641 49.072266 C 89.646437 48.924808 89.617186 48.769562 89.585938 48.617188 C 89.515303 48.272519 89.456393 47.914205 89.408203 47.544922 C 89.379469 47.324616 89.347981 47.107781 89.328125 46.878906 C 89.321832 46.806439 89.315907 46.733471 89.310547 46.660156 C 89.27997 46.241236 89.261479 45.811351 89.263672 45.365234 C 89.263672 44.955859 89.164816 44.653725 88.998047 44.451172 C 88.915005 44.350312 88.814761 44.275133 88.699219 44.222656 C 88.699219 44.222656 88.697266 44.222656 88.697266 44.222656 C 88.581678 44.17041 88.450742 44.140625 88.308594 44.134766 C 88.166244 44.129121 88.008738 44.146682 87.845703 44.185547 C 87.682464 44.224625 87.51007 44.287421 87.332031 44.369141 C 87.153833 44.451056 86.968342 44.553108 86.78125 44.675781 C 86.594044 44.798627 86.401115 44.943765 86.210938 45.105469 C 86.020686 45.267318 85.829867 45.449644 85.642578 45.648438 C 84.329268 47.04295 83.162109 49.321516 83.162109 52.150391 C 83.162109 52.474365 83.137123 52.775734 83.109375 53.074219 C 83.088646 53.267207 83.064364 53.456399 83.035156 53.640625 C 83.032461 53.657801 83.030129 53.67432 83.027344 53.691406 C 82.992471 53.695424 82.951179 53.702892 82.916016 53.707031 C 82.61452 53.742531 82.284593 53.791121 81.960938 53.835938 C 81.62879 53.88187 81.289773 53.930035 80.933594 53.986328 C 80.617939 54.036288 80.294237 54.089883 79.958984 54.148438 C 79.514161 54.226012 79.045163 54.31458 78.564453 54.408203 C 78.234076 54.472598 77.91226 54.533139 77.564453 54.605469 C 76.790182 54.766414 75.976729 54.945283 75.111328 55.148438 C 75.054005 55.161894 75.004996 55.171898 74.947266 55.185547 C 74.910524 55.210909 74.891632 55.248562 74.865234 55.28125 C 74.854456 55.296103 74.836945 55.307979 74.828125 55.324219 C 74.799458 55.370973 74.782318 55.424762 74.769531 55.482422 C 74.763907 55.461386 74.755494 55.443039 74.75 55.421875 C 74.698099 55.223318 74.649075 55.019779 74.609375 54.810547 C 74.603892 54.780906 74.597002 54.752514 74.591797 54.722656 C 74.546988 54.472321 74.512448 54.215781 74.490234 53.949219 C 74.453953 53.712951 74.402021 53.468757 74.337891 53.220703 C 74.337891 53.220703 74.337891 53.21875 74.337891 53.21875 C 74.144937 52.473142 73.831325 51.690248 73.439453 50.96875 C 73.439453 50.96875 73.439453 50.966797 73.439453 50.966797 C 73.047191 50.244875 72.574844 49.585573 72.0625 49.083984 C 71.891719 48.916788 71.717328 48.766859 71.539062 48.638672 C 70.826 48.125922 70.06525 47.953531 69.349609 48.355469 C 69.349609 48.355469 69.347656 48.357422 69.347656 48.357422 C 68.990614 48.558565 68.644919 48.902221 68.322266 49.417969 C 68.322266 49.417969 68.320312 49.419922 68.320312 49.419922 C 68.241698 49.545585 68.169464 49.714857 68.09375 49.861328 C 68.014122 50.015499 67.931503 50.148024 67.855469 50.326172 C 67.855469 50.326172 67.855469 50.328125 67.855469 50.328125 C 67.816621 50.419194 67.781972 50.541149 67.744141 50.638672 C 67.637266 50.914053 67.529611 51.18678 67.431641 51.515625 C 66.360121 54.055254 65.63683 55.913228 65.097656 57.445312 C 64.980494 57.522739 64.83909 57.618635 64.361328 57.914062 C 64.361328 57.914062 64.359375 57.914062 64.359375 57.914062 C 64.032383 58.116575 63.730228 58.374337 63.435547 58.673828 C 62.403006 59.72363 61.446268 61.303835 59.707031 62.972656 C 59.210355 63.449151 58.650092 63.933709 58.005859 64.414062 C 57.361587 64.894445 56.630624 65.372395 55.798828 65.835938 C 55.383035 66.067566 54.940819 66.297944 54.470703 66.521484 C 54.000555 66.74504 53.500167 66.964852 52.970703 67.177734 C 52.44107 67.390607 51.879112 67.597266 51.285156 67.796875 C 50.081031 68.2015 48.740094 68.576143 47.240234 68.910156 C 46.740884 69.02136 46.220732 69.128673 45.685547 69.230469 C 45.15024 69.332248 44.596113 69.429907 44.023438 69.521484 C 43.450726 69.613067 42.855752 69.698707 42.244141 69.779297 C 41.020056 69.94052 39.715217 70.078963 38.326172 70.191406 C 28.756172 70.964406 10.439891 87.506062 9.2128906 103.28906 C 8.9298906 107.25306 9.5225937 117.02661 12.808594 125.59961 C 12.810594 125.60561 12.8105 125.61314 12.8125 125.61914 C 12.8275 125.66114 12.845328 125.69923 12.861328 125.74023 C 12.913328 125.87423 12.964578 126.00767 13.017578 126.13867 C 13.297578 126.85667 13.596109 127.54417 13.912109 128.20117 C 15.797109 132.22917 18.371703 135.79003 21.845703 138.08203 C 22.269124 138.41209 22.679011 138.70939 23.076172 138.98438 C 23.204132 139.07302 23.320785 139.1454 23.445312 139.22852 C 23.673942 139.38111 23.895837 139.52952 24.111328 139.66406 C 24.71091 140.03841 25.241677 140.33819 25.708984 140.58203 C 25.793777 140.62638 25.857913 140.65887 25.9375 140.69922 C 26.027704 140.74495 26.135513 140.80497 26.21875 140.8457 C 26.260022 140.91382 26.309642 140.98436 26.351562 141.05273 C 26.632734 141.51136 26.929342 141.97371 27.240234 142.44141 C 27.338129 142.58869 27.434255 142.73494 27.535156 142.88281 C 27.871933 143.37638 28.224732 143.8705 28.595703 144.36719 C 28.662429 144.45654 28.723163 144.54541 28.791016 144.63477 C 29.229299 145.21182 29.693431 145.78732 30.179688 146.35938 C 30.293999 146.49389 30.416182 146.62581 30.533203 146.75977 C 30.918203 147.20038 31.317598 147.63643 31.732422 148.06836 C 31.886723 148.22905 32.04267 148.38776 32.201172 148.54688 C 32.626927 148.97425 33.068799 149.39332 33.525391 149.80664 C 33.700979 149.96562 33.870552 150.12671 34.050781 150.2832 C 34.157889 150.37619 34.266241 150.4685 34.375 150.56055 C 34.792991 150.91439 35.22135 151.2613 35.664062 151.59961 C 35.721842 151.64376 35.777732 151.68856 35.835938 151.73242 C 36.327875 152.10314 36.838557 152.46255 37.361328 152.81055 C 37.466096 152.88027 37.571712 152.94885 37.677734 153.01758 C 38.756145 153.71681 39.899762 154.3621 41.111328 154.94141 C 41.238828 155.00236 41.367083 155.06165 41.496094 155.12109 C 42.095482 155.39731 42.707413 155.66093 43.339844 155.90234 C 43.412918 155.93023 43.48898 155.95502 43.5625 155.98242 C 44.150911 156.20174 44.755737 156.40354 45.373047 156.58984 C 45.507657 156.63046 45.641344 156.67197 45.777344 156.71094 C 46.457209 156.90577 47.152155 157.08101 47.867188 157.23242 C 48.304551 157.32502 48.746534 157.41302 49.197266 157.48828 C 49.32503 157.50962 49.457091 157.52502 49.585938 157.54492 C 49.933417 157.59858 50.283269 157.64649 50.638672 157.68945 C 50.850298 157.71505 51.06484 157.73807 51.279297 157.75977 C 51.570786 157.78924 51.865358 157.81383 52.162109 157.83594 C 52.390223 157.85294 52.618365 157.87026 52.849609 157.88281 C 53.220868 157.90295 53.597179 157.91548 53.976562 157.92383 C 54.113457 157.92684 54.246806 157.93605 54.384766 157.9375 C 54.903826 157.94294 55.432555 157.93334 55.966797 157.91602 C 56.1506 157.91005 56.337822 157.89935 56.523438 157.89062 C 56.910418 157.87243 57.300408 157.84884 57.695312 157.81836 C 57.903252 157.80231 58.112115 157.78515 58.322266 157.76562 C 58.715013 157.72913 59.113153 157.68366 59.513672 157.63477 C 59.702171 157.61175 59.887894 157.59222 60.078125 157.56641 C 60.665617 157.48671 61.261095 157.39611 61.865234 157.28906 C 61.990902 157.26679 62.119701 157.23832 62.246094 157.21484 C 62.721159 157.1266 63.200173 157.02946 63.685547 156.92383 C 63.915202 156.87384 64.146927 156.82153 64.378906 156.76758 C 64.812722 156.6667 65.251369 156.55838 65.693359 156.44336 C 65.902881 156.38882 66.110896 156.33511 66.322266 156.27734 C 66.971122 156.10004 67.626568 155.91156 68.292969 155.70312 C 69.425319 155.38193 70.54197 155.09375 71.642578 154.83789 C 76.047346 153.81403 80.199014 153.30147 84.091797 153.18555 C 85.064993 153.15657 86.021916 153.15082 86.962891 153.16992 C 87.903865 153.18902 88.827664 153.2312 89.736328 153.29492 C 89.736328 153.29492 89.738281 153.29492 89.738281 153.29492 C 90.646266 153.35862 91.53843 153.44403 92.414062 153.54883 C 92.414062 153.54883 92.416016 153.54883 92.416016 153.54883 C 93.291607 153.65365 94.150988 153.77943 94.994141 153.92188 C 94.994141 153.92188 94.996094 153.92188 94.996094 153.92188 C 95.839207 154.06435 96.665977 154.2257 97.476562 154.40234 C 97.476562 154.40234 97.478516 154.40234 97.478516 154.40234 C 98.289064 154.57901 99.083395 154.77115 99.861328 154.97852 C 100.64049 155.18618 101.40208 155.40758 102.14844 155.64258 C 102.89422 155.8774 103.623 156.12612 104.33594 156.38477 C 105.76244 156.90222 107.12153 157.46266 108.41602 158.05469 C 109.063 158.35058 109.69277 158.65357 110.30664 158.96289 C 110.92106 159.27246 111.51845 159.5867 112.09961 159.90625 C 112.68029 160.22553 113.24363 160.54922 113.79102 160.875 C 113.79102 160.875 113.79297 160.875 113.79297 160.875 C 114.33984 161.20049 114.86926 161.52891 115.38281 161.85742 C 115.38281 161.85742 115.38477 161.85742 115.38477 161.85742 C 115.89828 162.18593 116.39489 162.51763 116.875 162.8457 C 116.875 162.8457 116.87695 162.8457 116.87695 162.8457 C 117.83752 163.50213 118.73034 164.15515 119.55664 164.78906 C 119.55664 164.78906 119.55859 164.78906 119.55859 164.78906 C 120.38479 165.42293 121.14275 166.03939 121.83398 166.62305 C 121.83398 166.62305 121.83594 166.62305 121.83594 166.62305 C 122.52704 167.20662 123.14963 167.75799 123.70508 168.26367 C 123.70508 168.26367 123.70703 168.26367 123.70703 168.26367 C 124.26232 168.76922 124.74902 169.23087 125.16797 169.63086 C 125.16797 169.63086 125.16992 169.63086 125.16992 169.63086 C 125.58863 170.03063 125.93896 170.37209 126.2207 170.63867 C 126.2207 170.63867 126.22266 170.63867 126.22266 170.63867 C 126.50395 170.9048 126.71556 171.09762 126.85938 171.20312 C 126.85938 171.20312 126.86133 171.20312 126.86133 171.20312 C 126.96695 171.30962 127.0573 171.38281 127.13281 171.41992 C 127.13281 171.41992 127.13477 171.41992 127.13477 171.41992 C 127.20979 171.4568 127.27099 171.46 127.31641 171.43164 C 128.54717 170.63875 118.76887 146.16469 99.167969 131.05859 C 98.442009 130.49911 97.704025 129.95203 96.951172 129.41992 C 95.445465 128.35571 93.886 127.35058 92.273438 126.41602 C 91.796781 126.15595 91.343243 125.89048 90.914062 125.61914 C 90.485352 125.3481 90.080632 125.07042 89.697266 124.78906 C 89.697266 124.78906 89.695312 124.78906 89.695312 124.78906 C 89.311999 124.50769 88.951327 124.22045 88.611328 123.92969 C 88.611328 123.92969 88.609375 123.92969 88.609375 123.92969 C 88.269046 123.6386 87.951296 123.34254 87.652344 123.04297 C 79.28271 114.65608 86.731604 103.12967 87.689453 98.699219 C 87.691048 98.700334 87.880307 98.83345 88.230469 99.041016 C 88.230469 99.041016 88.232422 99.041016 88.232422 99.041016 C 88.40824 99.145235 88.622694 99.268127 88.875 99.402344 C 89.127306 99.536561 89.415148 99.680605 89.736328 99.830078 C 89.736328 99.830078 89.738281 99.830078 89.738281 99.830078 C 90.059461 99.979551 90.412483 100.13322 90.794922 100.2832 C 91.177361 100.43319 91.587354 100.58104 92.023438 100.7168 C 92.023438 100.7168 92.025391 100.7168 92.025391 100.7168 C 92.460964 100.85235 92.920867 100.97734 93.402344 101.08398 C 93.402344 101.08398 93.404297 101.08398 93.404297 101.08398 C 93.885857 101.19059 94.388328 101.2788 94.908203 101.3418 C 95.949244 101.46809 97.059913 101.49243 98.208984 101.35547 C 98.496245 101.32118 98.786495 101.27605 99.078125 101.2207 C 99.952464 101.05477 100.84568 100.78876 101.74219 100.40039 C 102.04121 100.2708 102.34104 100.12873 102.64062 99.970703 C 103.53899 99.496839 104.43791 98.889619 105.32422 98.126953 C 105.61978 97.872571 105.91471 97.600734 106.20703 97.310547 C 107.08435 96.439772 107.94444 95.40419 108.77539 94.177734 C 109.27564 94.306609 109.76546 94.413886 110.24609 94.501953 C 110.72673 94.59002 111.19711 94.659967 111.66016 94.712891 C 111.66016 94.712891 111.66211 94.712891 111.66211 94.712891 C 112.12448 94.765693 112.57853 94.802759 113.02539 94.826172 C 113.47288 94.849654 113.91564 94.859711 114.34961 94.859375 C 114.78291 94.858977 115.21097 94.846612 115.63281 94.828125 C 116.05465 94.809639 116.47236 94.784841 116.88477 94.753906 C 117.71083 94.69191 118.52183 94.609188 119.32227 94.53125 C 120.12204 94.453381 120.91466 94.378597 121.70508 94.330078 C 122.09996 94.30586 122.49699 94.28772 122.89258 94.279297 C 124.08129 94.253986 125.27617 94.313963 126.50781 94.533203 C 126.91836 94.606283 127.33257 94.697011 127.75195 94.808594 C 127.75195 94.808594 127.75391 94.808594 127.75391 94.808594 C 128.17272 94.920078 128.59574 95.051499 129.02539 95.207031 C 129.02539 95.207031 129.02734 95.207031 129.02734 95.207031 C 129.55022 95.436156 130.28194 95.620139 131.15039 95.746094 C 131.58462 95.809071 132.05178 95.857676 132.54492 95.890625 C 133.03805 95.923622 133.55805 95.941265 134.0918 95.941406 C 135.15868 95.94152 136.28902 95.872675 137.4082 95.724609 C 137.96749 95.650617 138.52537 95.556626 139.07031 95.441406 C 140.43416 95.152906 141.72531 94.729997 142.79883 94.152344 C 143.22774 93.921548 143.62207 93.666648 143.97266 93.384766 C 144.1481 93.243632 144.31246 93.095871 144.46484 92.941406 C 145.9895 91.396717 146.30467 89.176064 144.26172 86.103516 C 144.77483 85.768597 145.23182 85.488816 145.64062 85.248047 C 146.04917 85.00746 146.41138 84.804633 146.73633 84.625 C 147.38648 84.265599 147.89076 83.993798 148.33008 83.679688 C 148.33008 83.679688 148.33203 83.679688 148.33203 83.679688 C 148.55138 83.522687 148.75347 83.353608 148.95117 83.158203 C 148.95117 83.158203 148.95312 83.158203 148.95312 83.158203 C 149.54732 82.570906 150.09033 81.735 150.86133 80.203125 C 151.55107 77.109302 150.82943 75.535302 150.00586 74.458984 C 150.00586 74.458984 150.00586 74.457031 150.00586 74.457031 C 149.51148 73.811223 148.97986 73.345641 148.69336 72.837891 C 148.48836 69.687891 145.85217 68.471891 142.70117 70.712891 C 135.48217 69.415891 128.39539 70.026422 124.90039 69.732422 C 117.23839 68.659422 110.85938 64.603516 110.85938 64.603516 C 111.79138 63.364516 111.34533 60.687906 105.36133 60.503906 C 104.9504 60.368595 104.53733 60.216392 104.12305 60.056641 C 104.12305 60.056641 104.12109 60.056641 104.12109 60.056641 C 103.84172 59.948893 103.56248 59.83315 103.2832 59.71875 C 103.14769 59.663219 103.01221 59.611162 102.87695 59.554688 C 102.051 59.209989 101.2323 58.850788 100.43555 58.525391 C 100.4336 58.524594 100.43164 58.524234 100.42969 58.523438 C 100.57862 58.210017 100.63279 57.861553 100.63672 57.511719 C 100.63913 57.352444 100.63105 57.195908 100.61523 57.042969 C 100.60419 56.93985 100.59267 56.848879 100.57617 56.751953 C 100.56674 56.69461 100.55762 56.650185 100.54688 56.595703 C 100.49534 56.33976 100.46668 56.228313 100.41602 56.070312 C 100.3499 55.847081 100.29688 55.6875 100.29688 55.6875 C 100.44906 55.6455 100.59421 55.593791 100.73047 55.533203 C 100.86613 55.472785 100.99503 55.403187 101.11523 55.326172 C 101.23541 55.24908 101.34805 55.164121 101.45312 55.072266 C 102.82412 53.87373 102.92453 51.495453 102.14453 49.978516 C 102.53278 49.989016 102.86553 49.923389 103.14844 49.796875 C 103.28928 49.73374 103.41974 49.655747 103.53711 49.564453 C 103.65447 49.473025 103.75983 49.36768 103.85547 49.251953 C 103.85547 49.251953 103.85742 49.251953 103.85742 49.251953 C 105.00872 47.858875 104.64987 44.844906 104.32812 43.597656 C 104.63181 43.482381 104.90473 43.336078 105.14453 43.164062 C 105.26419 43.078147 105.37618 42.984888 105.48047 42.886719 C 105.79442 42.591192 106.03941 42.243155 106.2207 41.859375 C 106.34157 41.603521 106.43441 41.331234 106.5 41.048828 C 106.76237 39.919203 106.5958 38.61775 106.0918 37.46875 C 106.27471 37.426883 106.44799 37.374954 106.60938 37.3125 C 106.77068 37.24998 106.92346 37.176975 107.06445 37.095703 C 107.34683 36.932741 107.58867 36.733064 107.79688 36.505859 C 107.79688 36.505859 107.79883 36.505859 107.79883 36.505859 C 107.90311 36.392066 107.99842 36.269719 108.08594 36.142578 C 108.34848 35.761154 108.53805 35.323797 108.67188 34.855469 C 109.02875 33.606594 108.98683 32.138875 108.86133 30.921875 C 109.23908 30.900875 109.56404 30.799551 109.8418 30.636719 C 109.98015 30.555467 110.10633 30.457348 110.22266 30.347656 C 110.22266 30.347656 110.22461 30.347656 110.22461 30.347656 C 110.34132 30.237607 110.44655 30.114602 110.54297 29.980469 C 110.63939 29.846336 110.72667 29.700542 110.80469 29.546875 C 111.19479 28.778542 111.36607 27.794346 111.4375 26.878906 C 111.52321 25.780379 111.46484 24.780594 111.46484 24.371094 C 111.79034 24.161219 112.0649 23.942648 112.29883 23.714844 C 112.29883 23.714844 112.30078 23.714844 112.30078 23.714844 C 113.00258 23.03143 113.32778 22.270156 113.5 21.441406 C 113.55741 21.165156 113.59762 20.880461 113.62891 20.589844 C 113.72278 19.717992 113.73725 18.783953 113.89062 17.798828 C 114.09125 17.392578 114.23133 17.022869 114.32227 16.693359 C 114.36773 16.528604 114.40059 16.374531 114.42188 16.230469 C 114.50703 15.654222 114.40658 15.247911 114.19141 15.042969 C 114.13802 14.992122 114.07827 14.951301 114.01172 14.925781 C 114.01172 14.925781 114.00977 14.925781 114.00977 14.925781 C 113.94319 14.900488 113.8686 14.889661 113.79102 14.890625 z M 75.763672 57.853516 C 76.037311 58.257522 76.308044 58.602234 76.564453 58.931641 C 76.653335 59.046038 76.737892 59.173514 76.816406 59.271484 C 76.816406 59.271484 76.818359 59.273438 76.818359 59.273438 C 77.126734 59.658313 77.34375 59.90625 77.34375 59.90625 C 77.343031 59.905601 77.125567 59.69982 76.855469 59.392578 C 76.816055 59.347531 76.771196 59.291079 76.728516 59.240234 C 76.614605 59.103771 76.491566 58.945771 76.361328 58.769531 C 76.313496 58.704937 76.265913 58.636206 76.216797 58.566406 C 76.077622 58.367984 75.93492 58.14081 75.792969 57.902344 C 75.78329 57.886067 75.773335 57.869975 75.763672 57.853516 z M 78.390625 59.492188 C 78.393385 59.505069 78.397495 59.521733 78.400391 59.535156 C 78.362615 59.551295 78.313611 59.578865 78.277344 59.59375 C 78.315547 59.56056 78.351337 59.531475 78.390625 59.492188 z " />



















</svg>