solid OpenSCAD_Model
  facet normal 0 0 -1
    outer loop
      vertex 0 95 -5
      vertex 60 87 -5
      vertex 10 87 -5
    endloop
  endfacet
  facet normal 0 0 -1
    outer loop
      vertex 80 95 -5
      vertex 12 0 -5
      vertex 60 87 -5
    endloop
  endfacet
  facet normal -0 -0 -1
    outer loop
      vertex 8 5 -5
      vertex 12 0 -5
      vertex 5 5 -5
    endloop
  endfacet
  facet normal 0 0 -1
    outer loop
      vertex 0 95 -5
      vertex 5 5 -5
      vertex 0 0 -5
    endloop
  endfacet
  facet normal 0 -0 -1
    outer loop
      vertex 5 5 -5
      vertex 12 0 -5
      vertex 0 0 -5
    endloop
  endfacet
  facet normal 0 0 -1
    outer loop
      vertex 0 95 -5
      vertex 10 87 -5
      vertex 5 5 -5
    endloop
  endfacet
  facet normal 0 0 -1
    outer loop
      vertex 0 95 -5
      vertex 80 95 -5
      vertex 60 87 -5
    endloop
  endfacet
  facet normal 0 0 -1
    outer loop
      vertex 60 87 -5
      vertex 12 0 -5
      vertex 8 5 -5
    endloop
  endfacet
  facet normal 0 -0 1
    outer loop
      vertex 10 87 5
      vertex 60 87 5
      vertex 0 95 5
    endloop
  endfacet
  facet normal -0 0 1
    outer loop
      vertex 60 87 5
      vertex 12 0 5
      vertex 80 95 5
    endloop
  endfacet
  facet normal -0 0 1
    outer loop
      vertex 5 5 5
      vertex 12 0 5
      vertex 8 5 5
    endloop
  endfacet
  facet normal 0 0 1
    outer loop
      vertex 0 0 5
      vertex 5 5 5
      vertex 0 95 5
    endloop
  endfacet
  facet normal 0 0 1
    outer loop
      vertex 0 0 5
      vertex 12 0 5
      vertex 5 5 5
    endloop
  endfacet
  facet normal 0 -0 1
    outer loop
      vertex 5 5 5
      vertex 10 87 5
      vertex 0 95 5
    endloop
  endfacet
  facet normal 0 -0 1
    outer loop
      vertex 60 87 5
      vertex 80 95 5
      vertex 0 95 5
    endloop
  endfacet
  facet normal -0 0 1
    outer loop
      vertex 8 5 5
      vertex 12 0 5
      vertex 60 87 5
    endloop
  endfacet
  facet normal 0 1 0
    outer loop
      vertex 0 95 -5
      vertex 80 95 5
      vertex 80 95 -5
    endloop
  endfacet
  facet normal 0 1 0
    outer loop
      vertex 0 95 -5
      vertex 0 95 5
      vertex 80 95 5
    endloop
  endfacet
  facet normal -1 0 0
    outer loop
      vertex 0 0 -5
      vertex 0 95 5
      vertex 0 95 -5
    endloop
  endfacet
  facet normal -1 0 0
    outer loop
      vertex 0 0 -5
      vertex 0 0 5
      vertex 0 95 5
    endloop
  endfacet
  facet normal 0 -1 0
    outer loop
      vertex 12 0 -5
      vertex 0 0 5
      vertex 0 0 -5
    endloop
  endfacet
  facet normal 0 -1 0
    outer loop
      vertex 12 0 -5
      vertex 12 0 5
      vertex 0 0 5
    endloop
  endfacet
  facet normal 0.813155 -0.582048 0
    outer loop
      vertex 80 95 -5
      vertex 12 0 5
      vertex 12 0 -5
    endloop
  endfacet
  facet normal 0.813155 -0.582048 0
    outer loop
      vertex 80 95 -5
      vertex 80 95 5
      vertex 12 0 5
    endloop
  endfacet
  facet normal 0.998146 -0.0608626 0
    outer loop
      vertex 10 87 -5
      vertex 10 87 5
      vertex 5 5 -5
    endloop
  endfacet
  facet normal 0.998146 -0.0608626 0
    outer loop
      vertex 5 5 5
      vertex 5 5 -5
      vertex 10 87 5
    endloop
  endfacet
  facet normal 0 -1 0
    outer loop
      vertex 60 87 -5
      vertex 60 87 5
      vertex 10 87 -5
    endloop
  endfacet
  facet normal 0 -1 0
    outer loop
      vertex 10 87 5
      vertex 10 87 -5
      vertex 60 87 5
    endloop
  endfacet
  facet normal -0.844509 0.535542 0
    outer loop
      vertex 8 5 -5
      vertex 8 5 5
      vertex 60 87 -5
    endloop
  endfacet
  facet normal -0.844509 0.535542 0
    outer loop
      vertex 60 87 5
      vertex 60 87 -5
      vertex 8 5 5
    endloop
  endfacet
  facet normal 0 1 0
    outer loop
      vertex 5 5 -5
      vertex 5 5 5
      vertex 8 5 -5
    endloop
  endfacet
  facet normal 0 1 0
    outer loop
      vertex 8 5 5
      vertex 8 5 -5
      vertex 5 5 5
    endloop
  endfacet
endsolid OpenSCAD_Model
