solid OpenSCAD_Model
  facet normal 0 0 -1
    outer loop
      vertex 4.55273 -7.76367 0
      vertex 6.06543 -6.64941 0
      vertex 10.5439 -17.8711 0
    endloop
  endfacet
  facet normal 0 0 -1
    outer loop
      vertex 6.06543 -6.64941 0
      vertex 18.749 4.92188 0
      vertex 14.0293 -15.2891 0
    endloop
  endfacet
  facet normal 0 0 -1
    outer loop
      vertex 6.06543 -6.64941 0
      vertex 14.0293 -15.2891 0
      vertex 10.5439 -17.8711 0
    endloop
  endfacet
  facet normal -0 0 -1
    outer loop
      vertex 28.5049 1.26074 0
      vertex 28.4248 -0.56543 0
      vertex 28.0166 3.02344 0
    endloop
  endfacet
  facet normal 0 0 -1
    outer loop
      vertex 26.6475 -3.70996 0
      vertex 28.4248 -0.56543 0
      vertex 27.7852 -2.27832 0
    endloop
  endfacet
  facet normal -0 -0 -1
    outer loop
      vertex 28.0166 3.02344 0
      vertex 28.4248 -0.56543 0
      vertex 27.0078 4.54883 0
    endloop
  endfacet
  facet normal 0 -0 -1
    outer loop
      vertex 27.0078 4.54883 0
      vertex 28.4248 -0.56543 0
      vertex 26.6475 -3.70996 0
    endloop
  endfacet
  facet normal 0 0 -1
    outer loop
      vertex 25.5781 5.68848 0
      vertex 22.0391 6.41309 0
      vertex 23.8662 6.33105 0
    endloop
  endfacet
  facet normal -0 -0 -1
    outer loop
      vertex 25.5781 5.68848 0
      vertex 27.0078 4.54883 0
      vertex 22.0391 6.41309 0
    endloop
  endfacet
  facet normal 0 0 -1
    outer loop
      vertex 22.0391 6.41309 0
      vertex 27.0078 4.54883 0
      vertex 26.6475 -3.70996 0
    endloop
  endfacet
  facet normal 0 0 -1
    outer loop
      vertex 20.2764 5.92773 0
      vertex 22.0391 6.41309 0
      vertex 26.6475 -3.70996 0
    endloop
  endfacet
  facet normal 0 0 -1
    outer loop
      vertex 18.749 4.92188 0
      vertex 20.2764 5.92773 0
      vertex 26.6475 -3.70996 0
    endloop
  endfacet
  facet normal -0 0 -1
    outer loop
      vertex 12.1377 13.123 0
      vertex 7.47168 4.8877 0
      vertex 11.1289 14.6494 0
    endloop
  endfacet
  facet normal 0 0 -1
    outer loop
      vertex 14.0293 -15.2891 0
      vertex 18.749 4.92188 0
      vertex 26.6475 -3.70996 0
    endloop
  endfacet
  facet normal 0 0 -1
    outer loop
      vertex 4.55273 -7.76367 0
      vertex 10.5439 -17.8711 0
      vertex 6.59766 -19.6729 0
    endloop
  endfacet
  facet normal 0 0 -1
    outer loop
      vertex 2.84277 -8.53906 0
      vertex 4.55273 -7.76367 0
      vertex 6.59766 -19.6729 0
    endloop
  endfacet
  facet normal 0 0 -1
    outer loop
      vertex 2.36328 -20.6152 0
      vertex 2.84277 -8.53906 0
      vertex 6.59766 -19.6729 0
    endloop
  endfacet
  facet normal 0 0 -1
    outer loop
      vertex 2.36328 -20.6152 0
      vertex 1.00781 -8.94336 0
      vertex 2.84277 -8.53906 0
    endloop
  endfacet
  facet normal -0 0 -1
    outer loop
      vertex 2.36328 -20.6152 0
      vertex -1.97461 -20.6553 0
      vertex 1.00781 -8.94336 0
    endloop
  endfacet
  facet normal 0 0 -1
    outer loop
      vertex 1.00781 -8.94336 0
      vertex -1.97461 -20.6553 0
      vertex -0.870117 -8.95801 0
    endloop
  endfacet
  facet normal -0 0 -1
    outer loop
      vertex -0.870117 -8.95801 0
      vertex -6.22559 -19.7939 0
      vertex -2.71094 -8.58203 0
    endloop
  endfacet
  facet normal -0 0 -1
    outer loop
      vertex 10.7627 6.38477 0
      vertex 7.47168 4.8877 0
      vertex 12.5449 9.53027 0
    endloop
  endfacet
  facet normal 0 0 -1
    outer loop
      vertex -10.2051 -18.0664 0
      vertex -13.7383 -15.5498 0
      vertex -4.43359 -7.83203 0
    endloop
  endfacet
  facet normal 0 0 -1
    outer loop
      vertex -16.6719 -12.3535 0
      vertex -7.23242 -5.35742 0
      vertex -5.96289 -6.74121 0
    endloop
  endfacet
  facet normal 0 -0 -1
    outer loop
      vertex -8.78418 -1.95801 0
      vertex -8.18652 -3.73926 0
      vertex -18.876 -8.61719 0
    endloop
  endfacet
  facet normal 0 0 -1
    outer loop
      vertex -9 -0.0917969 0
      vertex -20.2549 -4.50488 0
      vertex -20.749 -0.195312 0
    endloop
  endfacet
  facet normal 0 0 -1
    outer loop
      vertex -8.82227 1.77832 0
      vertex -9 -0.0917969 0
      vertex -20.749 -0.195312 0
    endloop
  endfacet
  facet normal -0 0 -1
    outer loop
      vertex 12.5449 9.53027 0
      vertex 7.47168 4.8877 0
      vertex 12.1377 13.123 0
    endloop
  endfacet
  facet normal 0 -0 -1
    outer loop
      vertex -20.3359 4.12305 0
      vertex -8.82227 1.77832 0
      vertex -20.749 -0.195312 0
    endloop
  endfacet
  facet normal 0 0 -1
    outer loop
      vertex -14.0293 15.2891 0
      vertex -1.37012 10.9766 0
      vertex -6.09961 6.61816 0
    endloop
  endfacet
  facet normal 0 0 -1
    outer loop
      vertex -3.66406 30.8125 0
      vertex -12.2949 22.9131 0
      vertex -14.2598 25.5586 0
    endloop
  endfacet
  facet normal -0 0 -1
    outer loop
      vertex -4.18652 36.0889 0
      vertex -4.7959 34.3096 0
      vertex -15.8857 38.2949 0
    endloop
  endfacet
  facet normal 0 0 -1
    outer loop
      vertex -10.4648 46.3984 0
      vertex -7.69336 48.1816 0
      vertex -2.89453 37.4551 0
    endloop
  endfacet
  facet normal 0 0 -1
    outer loop
      vertex 0.727539 38.0791 0
      vertex 1.92773 49.7559 0
      vertex 5.12305 48.9492 0
    endloop
  endfacet
  facet normal 0 -0 -1
    outer loop
      vertex 15.4111 36.9648 0
      vertex 15.7246 33.6836 0
      vertex 4.02344 33.9248 0
    endloop
  endfacet
  facet normal 0 0 -1
    outer loop
      vertex 3.92969 5.61035 0
      vertex 7.47168 4.8877 0
      vertex 5.64355 4.96777 0
    endloop
  endfacet
  facet normal 0 0 -1
    outer loop
      vertex 10.7627 6.38477 0
      vertex 9.23633 5.375 0
      vertex 7.47168 4.8877 0
    endloop
  endfacet
  facet normal 0 0 -1
    outer loop
      vertex 12.5449 9.53027 0
      vertex 12.1377 13.123 0
      vertex 12.626 11.3584 0
    endloop
  endfacet
  facet normal 0 0 -1
    outer loop
      vertex 12.5449 9.53027 0
      vertex 11.9033 7.81641 0
      vertex 10.7627 6.38477 0
    endloop
  endfacet
  facet normal 0 0 -1
    outer loop
      vertex 11.1289 14.6494 0
      vertex 7.47168 4.8877 0
      vertex 3.92969 5.61035 0
    endloop
  endfacet
  facet normal 0 0 -1
    outer loop
      vertex 2.49805 6.75 0
      vertex 11.1289 14.6494 0
      vertex 3.92969 5.61035 0
    endloop
  endfacet
  facet normal 0 0 -1
    outer loop
      vertex 2.49805 6.75 0
      vertex -1.37012 10.9766 0
      vertex 11.1289 14.6494 0
    endloop
  endfacet
  facet normal -0 0 -1
    outer loop
      vertex 11.1289 14.6494 0
      vertex -1.37012 10.9766 0
      vertex 7.2334 18.9062 0
    endloop
  endfacet
  facet normal 0 0 -1
    outer loop
      vertex 3.67578 32.0762 0
      vertex 4.02344 33.9248 0
      vertex 15.3643 30.4082 0
    endloop
  endfacet
  facet normal -0 0 -1
    outer loop
      vertex 14.4375 40.1133 0
      vertex 3.57227 35.751 0
      vertex 12.8447 42.998 0
    endloop
  endfacet
  facet normal -0 0 -1
    outer loop
      vertex 10.6982 45.498 0
      vertex 2.40332 37.2236 0
      vertex 8.08789 47.5107 0
    endloop
  endfacet
  facet normal -0 0 -1
    outer loop
      vertex 8.08789 47.5107 0
      vertex 0.727539 38.0791 0
      vertex 5.12305 48.9492 0
    endloop
  endfacet
  facet normal 0 0 -1
    outer loop
      vertex 0.727539 38.0791 0
      vertex -1.15137 38.1611 0
      vertex 1.92773 49.7559 0
    endloop
  endfacet
  facet normal -0 0 -1
    outer loop
      vertex 12.8447 42.998 0
      vertex 2.40332 37.2236 0
      vertex 10.6982 45.498 0
    endloop
  endfacet
  facet normal 0 0 -1
    outer loop
      vertex -1.15137 38.1611 0
      vertex -7.69336 48.1816 0
      vertex -4.61719 49.3633 0
    endloop
  endfacet
  facet normal 0 0 -1
    outer loop
      vertex -1.15137 38.1611 0
      vertex -4.61719 49.3633 0
      vertex -1.36523 49.8965 0
    endloop
  endfacet
  facet normal 0 0 -1
    outer loop
      vertex -14.6484 41.3496 0
      vertex -12.8164 44.0889 0
      vertex -4.18652 36.0889 0
    endloop
  endfacet
  facet normal -0 0 -1
    outer loop
      vertex -4.7959 34.3096 0
      vertex -16.3955 31.7578 0
      vertex -16.4766 35.0527 0
    endloop
  endfacet
  facet normal 0 -0 -1
    outer loop
      vertex -4.7959 34.3096 0
      vertex -4.61035 32.4375 0
      vertex -16.3955 31.7578 0
    endloop
  endfacet
  facet normal 0 0 -1
    outer loop
      vertex -16.3955 31.7578 0
      vertex -4.61035 32.4375 0
      vertex -15.6465 28.5488 0
    endloop
  endfacet
  facet normal 0 0 -1
    outer loop
      vertex -15.6465 28.5488 0
      vertex -4.61035 32.4375 0
      vertex -14.2598 25.5586 0
    endloop
  endfacet
  facet normal 0 -0 -1
    outer loop
      vertex -4.61035 32.4375 0
      vertex -3.66406 30.8125 0
      vertex -14.2598 25.5586 0
    endloop
  endfacet
  facet normal 0 0 -1
    outer loop
      vertex -12.2949 22.9131 0
      vertex -3.66406 30.8125 0
      vertex -0.672852 27.5439 0
    endloop
  endfacet
  facet normal 0 0 -1
    outer loop
      vertex -9.29395 19.6338 0
      vertex -12.2949 22.9131 0
      vertex -0.672852 27.5439 0
    endloop
  endfacet
  facet normal 0 0 -1
    outer loop
      vertex -16.9014 12.0381 0
      vertex -14.0293 15.2891 0
      vertex -6.09961 6.61816 0
    endloop
  endfacet
  facet normal -0 0 -1
    outer loop
      vertex -7.33984 5.20801 0
      vertex -8.26172 3.57031 0
      vertex -19.0342 8.26074 0
    endloop
  endfacet
  facet normal 0 -0 -1
    outer loop
      vertex -19.0342 8.26074 0
      vertex -8.26172 3.57031 0
      vertex -20.3359 4.12305 0
    endloop
  endfacet
  facet normal 0 0 -1
    outer loop
      vertex -7.33984 5.20801 0
      vertex -19.0342 8.26074 0
      vertex -16.9014 12.0381 0
    endloop
  endfacet
  facet normal 0 0 -1
    outer loop
      vertex -7.33984 5.20801 0
      vertex -16.9014 12.0381 0
      vertex -6.09961 6.61816 0
    endloop
  endfacet
  facet normal 0 0 -1
    outer loop
      vertex 7.2334 18.9062 0
      vertex -9.29395 19.6338 0
      vertex -0.672852 27.5439 0
    endloop
  endfacet
  facet normal -0 0 -1
    outer loop
      vertex 10.5283 21.9434 0
      vertex 7.2334 18.9062 0
      vertex -0.672852 27.5439 0
    endloop
  endfacet
  facet normal 0 0 -1
    outer loop
      vertex -14.0293 15.2891 0
      vertex -9.29395 19.6338 0
      vertex -1.37012 10.9766 0
    endloop
  endfacet
  facet normal 0 0 -1
    outer loop
      vertex -9.29395 19.6338 0
      vertex 7.2334 18.9062 0
      vertex -1.37012 10.9766 0
    endloop
  endfacet
  facet normal 0 0 -1
    outer loop
      vertex -20.3359 4.12305 0
      vertex -8.26172 3.57031 0
      vertex -8.82227 1.77832 0
    endloop
  endfacet
  facet normal 0 -0 -1
    outer loop
      vertex -9 -0.0917969 0
      vertex -8.78418 -1.95801 0
      vertex -20.2549 -4.50488 0
    endloop
  endfacet
  facet normal 0 0 -1
    outer loop
      vertex -20.2549 -4.50488 0
      vertex -8.78418 -1.95801 0
      vertex -18.876 -8.61719 0
    endloop
  endfacet
  facet normal 0 0 -1
    outer loop
      vertex -18.876 -8.61719 0
      vertex -8.18652 -3.73926 0
      vertex -7.23242 -5.35742 0
    endloop
  endfacet
  facet normal 0 0 -1
    outer loop
      vertex -16.6719 -12.3535 0
      vertex -18.876 -8.61719 0
      vertex -7.23242 -5.35742 0
    endloop
  endfacet
  facet normal 0 0 -1
    outer loop
      vertex -13.7383 -15.5498 0
      vertex -16.6719 -12.3535 0
      vertex -5.96289 -6.74121 0
    endloop
  endfacet
  facet normal -0 0 -1
    outer loop
      vertex -4.43359 -7.83203 0
      vertex -13.7383 -15.5498 0
      vertex -5.96289 -6.74121 0
    endloop
  endfacet
  facet normal -0 0 -1
    outer loop
      vertex -2.71094 -8.58203 0
      vertex -10.2051 -18.0664 0
      vertex -4.43359 -7.83203 0
    endloop
  endfacet
  facet normal 0 0 -1
    outer loop
      vertex -2.71094 -8.58203 0
      vertex -6.22559 -19.7939 0
      vertex -10.2051 -18.0664 0
    endloop
  endfacet
  facet normal 0 0 -1
    outer loop
      vertex -0.870117 -8.95801 0
      vertex -1.97461 -20.6553 0
      vertex -6.22559 -19.7939 0
    endloop
  endfacet
  facet normal 0 0 -1
    outer loop
      vertex 3.67578 32.0762 0
      vertex 14.3457 27.2734 0
      vertex 12.7109 24.4121 0
    endloop
  endfacet
  facet normal -0 0 -1
    outer loop
      vertex -2.89453 37.4551 0
      vertex -4.18652 36.0889 0
      vertex -12.8164 44.0889 0
    endloop
  endfacet
  facet normal 0 -0 -1
    outer loop
      vertex -15.8857 38.2949 0
      vertex -4.7959 34.3096 0
      vertex -16.4766 35.0527 0
    endloop
  endfacet
  facet normal 0 -0 -1
    outer loop
      vertex -14.6484 41.3496 0
      vertex -4.18652 36.0889 0
      vertex -15.8857 38.2949 0
    endloop
  endfacet
  facet normal 0 -0 -1
    outer loop
      vertex -10.4648 46.3984 0
      vertex -2.89453 37.4551 0
      vertex -12.8164 44.0889 0
    endloop
  endfacet
  facet normal 0 0 -1
    outer loop
      vertex -2.89453 37.4551 0
      vertex -7.69336 48.1816 0
      vertex -1.15137 38.1611 0
    endloop
  endfacet
  facet normal 0 0 -1
    outer loop
      vertex -1.15137 38.1611 0
      vertex -1.36523 49.8965 0
      vertex 1.92773 49.7559 0
    endloop
  endfacet
  facet normal 0 0 -1
    outer loop
      vertex 8.08789 47.5107 0
      vertex 2.40332 37.2236 0
      vertex 0.727539 38.0791 0
    endloop
  endfacet
  facet normal 0 0 -1
    outer loop
      vertex 12.8447 42.998 0
      vertex 3.57227 35.751 0
      vertex 2.40332 37.2236 0
    endloop
  endfacet
  facet normal 0 0 -1
    outer loop
      vertex 3.57227 35.751 0
      vertex 15.4111 36.9648 0
      vertex 4.02344 33.9248 0
    endloop
  endfacet
  facet normal 0 -0 -1
    outer loop
      vertex 14.4375 40.1133 0
      vertex 15.4111 36.9648 0
      vertex 3.57227 35.751 0
    endloop
  endfacet
  facet normal -0 0 -1
    outer loop
      vertex 15.7246 33.6836 0
      vertex 15.3643 30.4082 0
      vertex 4.02344 33.9248 0
    endloop
  endfacet
  facet normal -0 0 -1
    outer loop
      vertex 15.3643 30.4082 0
      vertex 14.3457 27.2734 0
      vertex 3.67578 32.0762 0
    endloop
  endfacet
  facet normal 0 -0 -1
    outer loop
      vertex 3.67578 32.0762 0
      vertex 12.7109 24.4121 0
      vertex 2.5918 30.54 0
    endloop
  endfacet
  facet normal 0 0 -1
    outer loop
      vertex -0.672852 27.5439 0
      vertex 2.5918 30.54 0
      vertex 10.5283 21.9434 0
    endloop
  endfacet
  facet normal 0 0 -1
    outer loop
      vertex 2.5918 30.54 0
      vertex 12.7109 24.4121 0
      vertex 10.5283 21.9434 0
    endloop
  endfacet
  facet normal 0 0 1
    outer loop
      vertex 10.5439 -17.8711 2
      vertex 6.06543 -6.64941 2
      vertex 4.55273 -7.76367 2
    endloop
  endfacet
  facet normal 0 -0 1
    outer loop
      vertex 14.0293 -15.2891 2
      vertex 18.749 4.92188 2
      vertex 6.06543 -6.64941 2
    endloop
  endfacet
  facet normal 0 -0 1
    outer loop
      vertex 10.5439 -17.8711 2
      vertex 14.0293 -15.2891 2
      vertex 6.06543 -6.64941 2
    endloop
  endfacet
  facet normal 0 0 1
    outer loop
      vertex 28.0166 3.02344 2
      vertex 28.4248 -0.56543 2
      vertex 28.5049 1.26074 2
    endloop
  endfacet
  facet normal 0 -0 1
    outer loop
      vertex 27.7852 -2.27832 2
      vertex 28.4248 -0.56543 2
      vertex 26.6475 -3.70996 2
    endloop
  endfacet
  facet normal 0 0 1
    outer loop
      vertex 27.0078 4.54883 2
      vertex 28.4248 -0.56543 2
      vertex 28.0166 3.02344 2
    endloop
  endfacet
  facet normal 0 0 1
    outer loop
      vertex 26.6475 -3.70996 2
      vertex 28.4248 -0.56543 2
      vertex 27.0078 4.54883 2
    endloop
  endfacet
  facet normal 0 0 1
    outer loop
      vertex 23.8662 6.33105 2
      vertex 22.0391 6.41309 2
      vertex 25.5781 5.68848 2
    endloop
  endfacet
  facet normal 0 0 1
    outer loop
      vertex 22.0391 6.41309 2
      vertex 27.0078 4.54883 2
      vertex 25.5781 5.68848 2
    endloop
  endfacet
  facet normal 0 -0 1
    outer loop
      vertex 26.6475 -3.70996 2
      vertex 27.0078 4.54883 2
      vertex 22.0391 6.41309 2
    endloop
  endfacet
  facet normal 0 0 1
    outer loop
      vertex 26.6475 -3.70996 2
      vertex 22.0391 6.41309 2
      vertex 20.2764 5.92773 2
    endloop
  endfacet
  facet normal 0 0 1
    outer loop
      vertex 26.6475 -3.70996 2
      vertex 20.2764 5.92773 2
      vertex 18.749 4.92188 2
    endloop
  endfacet
  facet normal 0 0 1
    outer loop
      vertex 11.1289 14.6494 2
      vertex 7.47168 4.8877 2
      vertex 12.1377 13.123 2
    endloop
  endfacet
  facet normal 0 0 1
    outer loop
      vertex 26.6475 -3.70996 2
      vertex 18.749 4.92188 2
      vertex 14.0293 -15.2891 2
    endloop
  endfacet
  facet normal 0 -0 1
    outer loop
      vertex 6.59766 -19.6729 2
      vertex 10.5439 -17.8711 2
      vertex 4.55273 -7.76367 2
    endloop
  endfacet
  facet normal 0 0 1
    outer loop
      vertex 6.59766 -19.6729 2
      vertex 4.55273 -7.76367 2
      vertex 2.84277 -8.53906 2
    endloop
  endfacet
  facet normal 0 0 1
    outer loop
      vertex 6.59766 -19.6729 2
      vertex 2.84277 -8.53906 2
      vertex 2.36328 -20.6152 2
    endloop
  endfacet
  facet normal 0 0 1
    outer loop
      vertex 2.84277 -8.53906 2
      vertex 1.00781 -8.94336 2
      vertex 2.36328 -20.6152 2
    endloop
  endfacet
  facet normal 0 0 1
    outer loop
      vertex 1.00781 -8.94336 2
      vertex -1.97461 -20.6553 2
      vertex 2.36328 -20.6152 2
    endloop
  endfacet
  facet normal -0 0 1
    outer loop
      vertex -0.870117 -8.95801 2
      vertex -1.97461 -20.6553 2
      vertex 1.00781 -8.94336 2
    endloop
  endfacet
  facet normal 0 0 1
    outer loop
      vertex -2.71094 -8.58203 2
      vertex -6.22559 -19.7939 2
      vertex -0.870117 -8.95801 2
    endloop
  endfacet
  facet normal 0 0 1
    outer loop
      vertex 12.5449 9.53027 2
      vertex 7.47168 4.8877 2
      vertex 10.7627 6.38477 2
    endloop
  endfacet
  facet normal 0 0 1
    outer loop
      vertex -4.43359 -7.83203 2
      vertex -13.7383 -15.5498 2
      vertex -10.2051 -18.0664 2
    endloop
  endfacet
  facet normal 0 0 1
    outer loop
      vertex -5.96289 -6.74121 2
      vertex -7.23242 -5.35742 2
      vertex -16.6719 -12.3535 2
    endloop
  endfacet
  facet normal 0 0 1
    outer loop
      vertex -18.876 -8.61719 2
      vertex -8.18652 -3.73926 2
      vertex -8.78418 -1.95801 2
    endloop
  endfacet
  facet normal -0 0 1
    outer loop
      vertex -20.749 -0.195312 2
      vertex -20.2549 -4.50488 2
      vertex -9 -0.0917969 2
    endloop
  endfacet
  facet normal 0 0 1
    outer loop
      vertex -20.749 -0.195312 2
      vertex -9 -0.0917969 2
      vertex -8.82227 1.77832 2
    endloop
  endfacet
  facet normal 0 0 1
    outer loop
      vertex 12.1377 13.123 2
      vertex 7.47168 4.8877 2
      vertex 12.5449 9.53027 2
    endloop
  endfacet
  facet normal 0 0 1
    outer loop
      vertex -20.749 -0.195312 2
      vertex -8.82227 1.77832 2
      vertex -20.3359 4.12305 2
    endloop
  endfacet
  facet normal 0 -0 1
    outer loop
      vertex -6.09961 6.61816 2
      vertex -1.37012 10.9766 2
      vertex -14.0293 15.2891 2
    endloop
  endfacet
  facet normal -0 0 1
    outer loop
      vertex -14.2598 25.5586 2
      vertex -12.2949 22.9131 2
      vertex -3.66406 30.8125 2
    endloop
  endfacet
  facet normal 0 0 1
    outer loop
      vertex -15.8857 38.2949 2
      vertex -4.7959 34.3096 2
      vertex -4.18652 36.0889 2
    endloop
  endfacet
  facet normal 0 0 1
    outer loop
      vertex -2.89453 37.4551 2
      vertex -7.69336 48.1816 2
      vertex -10.4648 46.3984 2
    endloop
  endfacet
  facet normal 0 0 1
    outer loop
      vertex 5.12305 48.9492 2
      vertex 1.92773 49.7559 2
      vertex 0.727539 38.0791 2
    endloop
  endfacet
  facet normal -0 0 1
    outer loop
      vertex 4.02344 33.9248 2
      vertex 15.7246 33.6836 2
      vertex 15.4111 36.9648 2
    endloop
  endfacet
  facet normal -0 -0 1
    outer loop
      vertex 5.64355 4.96777 2
      vertex 7.47168 4.8877 2
      vertex 3.92969 5.61035 2
    endloop
  endfacet
  facet normal 0 0 1
    outer loop
      vertex 7.47168 4.8877 2
      vertex 9.23633 5.375 2
      vertex 10.7627 6.38477 2
    endloop
  endfacet
  facet normal 0 0 1
    outer loop
      vertex 12.626 11.3584 2
      vertex 12.1377 13.123 2
      vertex 12.5449 9.53027 2
    endloop
  endfacet
  facet normal 0 0 1
    outer loop
      vertex 10.7627 6.38477 2
      vertex 11.9033 7.81641 2
      vertex 12.5449 9.53027 2
    endloop
  endfacet
  facet normal -0 0 1
    outer loop
      vertex 3.92969 5.61035 2
      vertex 7.47168 4.8877 2
      vertex 11.1289 14.6494 2
    endloop
  endfacet
  facet normal 0 -0 1
    outer loop
      vertex 3.92969 5.61035 2
      vertex 11.1289 14.6494 2
      vertex 2.49805 6.75 2
    endloop
  endfacet
  facet normal 0 0 1
    outer loop
      vertex 11.1289 14.6494 2
      vertex -1.37012 10.9766 2
      vertex 2.49805 6.75 2
    endloop
  endfacet
  facet normal 0 0 1
    outer loop
      vertex 7.2334 18.9062 2
      vertex -1.37012 10.9766 2
      vertex 11.1289 14.6494 2
    endloop
  endfacet
  facet normal 0 0 1
    outer loop
      vertex 15.3643 30.4082 2
      vertex 4.02344 33.9248 2
      vertex 3.67578 32.0762 2
    endloop
  endfacet
  facet normal 0 0 1
    outer loop
      vertex 12.8447 42.998 2
      vertex 3.57227 35.751 2
      vertex 14.4375 40.1133 2
    endloop
  endfacet
  facet normal 0 0 1
    outer loop
      vertex 8.08789 47.5107 2
      vertex 2.40332 37.2236 2
      vertex 10.6982 45.498 2
    endloop
  endfacet
  facet normal 0 0 1
    outer loop
      vertex 5.12305 48.9492 2
      vertex 0.727539 38.0791 2
      vertex 8.08789 47.5107 2
    endloop
  endfacet
  facet normal 0 0 1
    outer loop
      vertex 1.92773 49.7559 2
      vertex -1.15137 38.1611 2
      vertex 0.727539 38.0791 2
    endloop
  endfacet
  facet normal 0 0 1
    outer loop
      vertex 10.6982 45.498 2
      vertex 2.40332 37.2236 2
      vertex 12.8447 42.998 2
    endloop
  endfacet
  facet normal 0 0 1
    outer loop
      vertex -4.61719 49.3633 2
      vertex -7.69336 48.1816 2
      vertex -1.15137 38.1611 2
    endloop
  endfacet
  facet normal 0 0 1
    outer loop
      vertex -1.36523 49.8965 2
      vertex -4.61719 49.3633 2
      vertex -1.15137 38.1611 2
    endloop
  endfacet
  facet normal 0 0 1
    outer loop
      vertex -4.18652 36.0889 2
      vertex -12.8164 44.0889 2
      vertex -14.6484 41.3496 2
    endloop
  endfacet
  facet normal 0 0 1
    outer loop
      vertex -16.4766 35.0527 2
      vertex -16.3955 31.7578 2
      vertex -4.7959 34.3096 2
    endloop
  endfacet
  facet normal 0 0 1
    outer loop
      vertex -16.3955 31.7578 2
      vertex -4.61035 32.4375 2
      vertex -4.7959 34.3096 2
    endloop
  endfacet
  facet normal 0 -0 1
    outer loop
      vertex -15.6465 28.5488 2
      vertex -4.61035 32.4375 2
      vertex -16.3955 31.7578 2
    endloop
  endfacet
  facet normal 0 -0 1
    outer loop
      vertex -14.2598 25.5586 2
      vertex -4.61035 32.4375 2
      vertex -15.6465 28.5488 2
    endloop
  endfacet
  facet normal 0 0 1
    outer loop
      vertex -14.2598 25.5586 2
      vertex -3.66406 30.8125 2
      vertex -4.61035 32.4375 2
    endloop
  endfacet
  facet normal 0 0 1
    outer loop
      vertex -0.672852 27.5439 2
      vertex -3.66406 30.8125 2
      vertex -12.2949 22.9131 2
    endloop
  endfacet
  facet normal 0 0 1
    outer loop
      vertex -0.672852 27.5439 2
      vertex -12.2949 22.9131 2
      vertex -9.29395 19.6338 2
    endloop
  endfacet
  facet normal 0 0 1
    outer loop
      vertex -6.09961 6.61816 2
      vertex -14.0293 15.2891 2
      vertex -16.9014 12.0381 2
    endloop
  endfacet
  facet normal 0 0 1
    outer loop
      vertex -19.0342 8.26074 2
      vertex -8.26172 3.57031 2
      vertex -7.33984 5.20801 2
    endloop
  endfacet
  facet normal -0 0 1
    outer loop
      vertex -20.3359 4.12305 2
      vertex -8.26172 3.57031 2
      vertex -19.0342 8.26074 2
    endloop
  endfacet
  facet normal 0 0 1
    outer loop
      vertex -16.9014 12.0381 2
      vertex -19.0342 8.26074 2
      vertex -7.33984 5.20801 2
    endloop
  endfacet
  facet normal 0 0 1
    outer loop
      vertex -6.09961 6.61816 2
      vertex -16.9014 12.0381 2
      vertex -7.33984 5.20801 2
    endloop
  endfacet
  facet normal 0 0 1
    outer loop
      vertex -0.672852 27.5439 2
      vertex -9.29395 19.6338 2
      vertex 7.2334 18.9062 2
    endloop
  endfacet
  facet normal 0 0 1
    outer loop
      vertex -0.672852 27.5439 2
      vertex 7.2334 18.9062 2
      vertex 10.5283 21.9434 2
    endloop
  endfacet
  facet normal 0 0 1
    outer loop
      vertex -1.37012 10.9766 2
      vertex -9.29395 19.6338 2
      vertex -14.0293 15.2891 2
    endloop
  endfacet
  facet normal 0 -0 1
    outer loop
      vertex -1.37012 10.9766 2
      vertex 7.2334 18.9062 2
      vertex -9.29395 19.6338 2
    endloop
  endfacet
  facet normal 0 -0 1
    outer loop
      vertex -8.82227 1.77832 2
      vertex -8.26172 3.57031 2
      vertex -20.3359 4.12305 2
    endloop
  endfacet
  facet normal 0 0 1
    outer loop
      vertex -20.2549 -4.50488 2
      vertex -8.78418 -1.95801 2
      vertex -9 -0.0917969 2
    endloop
  endfacet
  facet normal 0 -0 1
    outer loop
      vertex -18.876 -8.61719 2
      vertex -8.78418 -1.95801 2
      vertex -20.2549 -4.50488 2
    endloop
  endfacet
  facet normal 0 0 1
    outer loop
      vertex -7.23242 -5.35742 2
      vertex -8.18652 -3.73926 2
      vertex -18.876 -8.61719 2
    endloop
  endfacet
  facet normal 0 0 1
    outer loop
      vertex -7.23242 -5.35742 2
      vertex -18.876 -8.61719 2
      vertex -16.6719 -12.3535 2
    endloop
  endfacet
  facet normal 0 0 1
    outer loop
      vertex -5.96289 -6.74121 2
      vertex -16.6719 -12.3535 2
      vertex -13.7383 -15.5498 2
    endloop
  endfacet
  facet normal 0 0 1
    outer loop
      vertex -5.96289 -6.74121 2
      vertex -13.7383 -15.5498 2
      vertex -4.43359 -7.83203 2
    endloop
  endfacet
  facet normal 0 0 1
    outer loop
      vertex -4.43359 -7.83203 2
      vertex -10.2051 -18.0664 2
      vertex -2.71094 -8.58203 2
    endloop
  endfacet
  facet normal -0 0 1
    outer loop
      vertex -10.2051 -18.0664 2
      vertex -6.22559 -19.7939 2
      vertex -2.71094 -8.58203 2
    endloop
  endfacet
  facet normal -0 0 1
    outer loop
      vertex -6.22559 -19.7939 2
      vertex -1.97461 -20.6553 2
      vertex -0.870117 -8.95801 2
    endloop
  endfacet
  facet normal 0 -0 1
    outer loop
      vertex 12.7109 24.4121 2
      vertex 14.3457 27.2734 2
      vertex 3.67578 32.0762 2
    endloop
  endfacet
  facet normal 0 0 1
    outer loop
      vertex -12.8164 44.0889 2
      vertex -4.18652 36.0889 2
      vertex -2.89453 37.4551 2
    endloop
  endfacet
  facet normal -0 0 1
    outer loop
      vertex -16.4766 35.0527 2
      vertex -4.7959 34.3096 2
      vertex -15.8857 38.2949 2
    endloop
  endfacet
  facet normal -0 0 1
    outer loop
      vertex -15.8857 38.2949 2
      vertex -4.18652 36.0889 2
      vertex -14.6484 41.3496 2
    endloop
  endfacet
  facet normal -0 0 1
    outer loop
      vertex -12.8164 44.0889 2
      vertex -2.89453 37.4551 2
      vertex -10.4648 46.3984 2
    endloop
  endfacet
  facet normal 0 0 1
    outer loop
      vertex -1.15137 38.1611 2
      vertex -7.69336 48.1816 2
      vertex -2.89453 37.4551 2
    endloop
  endfacet
  facet normal 0 0 1
    outer loop
      vertex 1.92773 49.7559 2
      vertex -1.36523 49.8965 2
      vertex -1.15137 38.1611 2
    endloop
  endfacet
  facet normal -0 0 1
    outer loop
      vertex 0.727539 38.0791 2
      vertex 2.40332 37.2236 2
      vertex 8.08789 47.5107 2
    endloop
  endfacet
  facet normal -0 0 1
    outer loop
      vertex 2.40332 37.2236 2
      vertex 3.57227 35.751 2
      vertex 12.8447 42.998 2
    endloop
  endfacet
  facet normal 0 -0 1
    outer loop
      vertex 4.02344 33.9248 2
      vertex 15.4111 36.9648 2
      vertex 3.57227 35.751 2
    endloop
  endfacet
  facet normal 0 0 1
    outer loop
      vertex 3.57227 35.751 2
      vertex 15.4111 36.9648 2
      vertex 14.4375 40.1133 2
    endloop
  endfacet
  facet normal 0 0 1
    outer loop
      vertex 4.02344 33.9248 2
      vertex 15.3643 30.4082 2
      vertex 15.7246 33.6836 2
    endloop
  endfacet
  facet normal 0 0 1
    outer loop
      vertex 3.67578 32.0762 2
      vertex 14.3457 27.2734 2
      vertex 15.3643 30.4082 2
    endloop
  endfacet
  facet normal -0 0 1
    outer loop
      vertex 2.5918 30.54 2
      vertex 12.7109 24.4121 2
      vertex 3.67578 32.0762 2
    endloop
  endfacet
  facet normal 0 0 1
    outer loop
      vertex 10.5283 21.9434 2
      vertex 2.5918 30.54 2
      vertex -0.672852 27.5439 2
    endloop
  endfacet
  facet normal 0 -0 1
    outer loop
      vertex 10.5283 21.9434 2
      vertex 12.7109 24.4121 2
      vertex 2.5918 30.54 2
    endloop
  endfacet
  facet normal 0.21724 -0.976118 0
    outer loop
      vertex 6.59766 -19.6729 0
      vertex 2.36328 -20.6152 2
      vertex 2.36328 -20.6152 0
    endloop
  endfacet
  facet normal 0.21724 -0.976118 0
    outer loop
      vertex 6.59766 -19.6729 0
      vertex 6.59766 -19.6729 2
      vertex 2.36328 -20.6152 2
    endloop
  endfacet
  facet normal 0.415329 -0.909671 0
    outer loop
      vertex 10.5439 -17.8711 0
      vertex 6.59766 -19.6729 2
      vertex 6.59766 -19.6729 0
    endloop
  endfacet
  facet normal 0.415329 -0.909671 0
    outer loop
      vertex 10.5439 -17.8711 0
      vertex 10.5439 -17.8711 2
      vertex 6.59766 -19.6729 2
    endloop
  endfacet
  facet normal 0.595271 -0.803525 0
    outer loop
      vertex 14.0293 -15.2891 0
      vertex 10.5439 -17.8711 2
      vertex 10.5439 -17.8711 0
    endloop
  endfacet
  facet normal 0.595271 -0.803525 0
    outer loop
      vertex 14.0293 -15.2891 0
      vertex 14.0293 -15.2891 2
      vertex 10.5439 -17.8711 2
    endloop
  endfacet
  facet normal 0.67612 -0.736792 0
    outer loop
      vertex 26.6475 -3.70996 0
      vertex 14.0293 -15.2891 2
      vertex 14.0293 -15.2891 0
    endloop
  endfacet
  facet normal 0.67612 -0.736792 0
    outer loop
      vertex 26.6475 -3.70996 0
      vertex 26.6475 -3.70996 2
      vertex 14.0293 -15.2891 2
    endloop
  endfacet
  facet normal 0.782897 -0.622152 0
    outer loop
      vertex 27.7852 -2.27832 0
      vertex 26.6475 -3.70996 2
      vertex 26.6475 -3.70996 0
    endloop
  endfacet
  facet normal 0.782897 -0.622152 0
    outer loop
      vertex 27.7852 -2.27832 0
      vertex 27.7852 -2.27832 2
      vertex 26.6475 -3.70996 2
    endloop
  endfacet
  facet normal 0.936811 -0.349835 0
    outer loop
      vertex 28.4248 -0.56543 0
      vertex 27.7852 -2.27832 2
      vertex 27.7852 -2.27832 0
    endloop
  endfacet
  facet normal 0.936811 -0.349835 0
    outer loop
      vertex 28.4248 -0.56543 0
      vertex 28.4248 -0.56543 2
      vertex 27.7852 -2.27832 2
    endloop
  endfacet
  facet normal 0.99904 -0.0438082 0
    outer loop
      vertex 28.5049 1.26074 0
      vertex 28.4248 -0.56543 2
      vertex 28.4248 -0.56543 0
    endloop
  endfacet
  facet normal 0.99904 -0.0438082 0
    outer loop
      vertex 28.5049 1.26074 0
      vertex 28.5049 1.26074 2
      vertex 28.4248 -0.56543 2
    endloop
  endfacet
  facet normal 0.963709 0.266955 0
    outer loop
      vertex 28.0166 3.02344 0
      vertex 28.5049 1.26074 2
      vertex 28.5049 1.26074 0
    endloop
  endfacet
  facet normal 0.963709 0.266955 -0
    outer loop
      vertex 28.0166 3.02344 0
      vertex 28.0166 3.02344 2
      vertex 28.5049 1.26074 2
    endloop
  endfacet
  facet normal 0.834098 0.551616 0
    outer loop
      vertex 27.0078 4.54883 0
      vertex 28.0166 3.02344 2
      vertex 28.0166 3.02344 0
    endloop
  endfacet
  facet normal 0.834098 0.551616 -0
    outer loop
      vertex 27.0078 4.54883 0
      vertex 27.0078 4.54883 2
      vertex 28.0166 3.02344 2
    endloop
  endfacet
  facet normal 0.623326 0.781962 0
    outer loop
      vertex 25.5781 5.68848 0
      vertex 27.0078 4.54883 2
      vertex 27.0078 4.54883 0
    endloop
  endfacet
  facet normal 0.623326 0.781962 -0
    outer loop
      vertex 25.5781 5.68848 0
      vertex 25.5781 5.68848 2
      vertex 27.0078 4.54883 2
    endloop
  endfacet
  facet normal 0.351416 0.936219 0
    outer loop
      vertex 23.8662 6.33105 0
      vertex 25.5781 5.68848 2
      vertex 25.5781 5.68848 0
    endloop
  endfacet
  facet normal 0.351416 0.936219 -0
    outer loop
      vertex 23.8662 6.33105 0
      vertex 23.8662 6.33105 2
      vertex 25.5781 5.68848 2
    endloop
  endfacet
  facet normal 0.0448506 0.998994 0
    outer loop
      vertex 22.0391 6.41309 0
      vertex 23.8662 6.33105 2
      vertex 23.8662 6.33105 0
    endloop
  endfacet
  facet normal 0.0448506 0.998994 -0
    outer loop
      vertex 22.0391 6.41309 0
      vertex 22.0391 6.41309 2
      vertex 23.8662 6.33105 2
    endloop
  endfacet
  facet normal -0.265467 0.96412 0
    outer loop
      vertex 20.2764 5.92773 0
      vertex 22.0391 6.41309 2
      vertex 22.0391 6.41309 0
    endloop
  endfacet
  facet normal -0.265467 0.96412 0
    outer loop
      vertex 20.2764 5.92773 0
      vertex 20.2764 5.92773 2
      vertex 22.0391 6.41309 2
    endloop
  endfacet
  facet normal -0.550009 0.835159 0
    outer loop
      vertex 18.749 4.92188 0
      vertex 20.2764 5.92773 2
      vertex 20.2764 5.92773 0
    endloop
  endfacet
  facet normal -0.550009 0.835159 0
    outer loop
      vertex 18.749 4.92188 0
      vertex 18.749 4.92188 2
      vertex 20.2764 5.92773 2
    endloop
  endfacet
  facet normal -0.673971 0.738758 0
    outer loop
      vertex 6.06543 -6.64941 0
      vertex 18.749 4.92188 2
      vertex 18.749 4.92188 0
    endloop
  endfacet
  facet normal -0.673971 0.738758 0
    outer loop
      vertex 6.06543 -6.64941 0
      vertex 6.06543 -6.64941 2
      vertex 18.749 4.92188 2
    endloop
  endfacet
  facet normal -0.593075 0.805147 0
    outer loop
      vertex 4.55273 -7.76367 0
      vertex 6.06543 -6.64941 2
      vertex 6.06543 -6.64941 0
    endloop
  endfacet
  facet normal -0.593075 0.805147 0
    outer loop
      vertex 4.55273 -7.76367 0
      vertex 4.55273 -7.76367 2
      vertex 6.06543 -6.64941 2
    endloop
  endfacet
  facet normal -0.41298 0.91074 0
    outer loop
      vertex 2.84277 -8.53906 0
      vertex 4.55273 -7.76367 2
      vertex 4.55273 -7.76367 0
    endloop
  endfacet
  facet normal -0.41298 0.91074 0
    outer loop
      vertex 2.84277 -8.53906 0
      vertex 2.84277 -8.53906 2
      vertex 4.55273 -7.76367 2
    endloop
  endfacet
  facet normal -0.215169 0.976577 0
    outer loop
      vertex 1.00781 -8.94336 0
      vertex 2.84277 -8.53906 2
      vertex 2.84277 -8.53906 0
    endloop
  endfacet
  facet normal -0.215169 0.976577 0
    outer loop
      vertex 1.00781 -8.94336 0
      vertex 1.00781 -8.94336 2
      vertex 2.84277 -8.53906 2
    endloop
  endfacet
  facet normal -0.00780007 0.99997 0
    outer loop
      vertex -0.870117 -8.95801 0
      vertex 1.00781 -8.94336 2
      vertex 1.00781 -8.94336 0
    endloop
  endfacet
  facet normal -0.00780007 0.99997 0
    outer loop
      vertex -0.870117 -8.95801 0
      vertex -0.870117 -8.95801 2
      vertex 1.00781 -8.94336 2
    endloop
  endfacet
  facet normal 0.200113 0.979773 0
    outer loop
      vertex -2.71094 -8.58203 0
      vertex -0.870117 -8.95801 2
      vertex -0.870117 -8.95801 0
    endloop
  endfacet
  facet normal 0.200113 0.979773 -0
    outer loop
      vertex -2.71094 -8.58203 0
      vertex -2.71094 -8.58203 2
      vertex -0.870117 -8.95801 2
    endloop
  endfacet
  facet normal 0.399182 0.916872 0
    outer loop
      vertex -4.43359 -7.83203 0
      vertex -2.71094 -8.58203 2
      vertex -2.71094 -8.58203 0
    endloop
  endfacet
  facet normal 0.399182 0.916872 -0
    outer loop
      vertex -4.43359 -7.83203 0
      vertex -4.43359 -7.83203 2
      vertex -2.71094 -8.58203 2
    endloop
  endfacet
  facet normal 0.580697 0.81412 0
    outer loop
      vertex -5.96289 -6.74121 0
      vertex -4.43359 -7.83203 2
      vertex -4.43359 -7.83203 0
    endloop
  endfacet
  facet normal 0.580697 0.81412 -0
    outer loop
      vertex -5.96289 -6.74121 0
      vertex -5.96289 -6.74121 2
      vertex -4.43359 -7.83203 2
    endloop
  endfacet
  facet normal 0.736873 0.676031 0
    outer loop
      vertex -7.23242 -5.35742 0
      vertex -5.96289 -6.74121 2
      vertex -5.96289 -6.74121 0
    endloop
  endfacet
  facet normal 0.736873 0.676031 -0
    outer loop
      vertex -7.23242 -5.35742 0
      vertex -7.23242 -5.35742 2
      vertex -5.96289 -6.74121 2
    endloop
  endfacet
  facet normal 0.861413 0.507906 0
    outer loop
      vertex -8.18652 -3.73926 0
      vertex -7.23242 -5.35742 2
      vertex -7.23242 -5.35742 0
    endloop
  endfacet
  facet normal 0.861413 0.507906 -0
    outer loop
      vertex -8.18652 -3.73926 0
      vertex -8.18652 -3.73926 2
      vertex -7.23242 -5.35742 2
    endloop
  endfacet
  facet normal 0.948058 0.318098 0
    outer loop
      vertex -8.78418 -1.95801 0
      vertex -8.18652 -3.73926 2
      vertex -8.18652 -3.73926 0
    endloop
  endfacet
  facet normal 0.948058 0.318098 -0
    outer loop
      vertex -8.78418 -1.95801 0
      vertex -8.78418 -1.95801 2
      vertex -8.18652 -3.73926 2
    endloop
  endfacet
  facet normal 0.993379 0.114881 0
    outer loop
      vertex -9 -0.0917969 0
      vertex -8.78418 -1.95801 2
      vertex -8.78418 -1.95801 0
    endloop
  endfacet
  facet normal 0.993379 0.114881 -0
    outer loop
      vertex -9 -0.0917969 0
      vertex -9 -0.0917969 2
      vertex -8.78418 -1.95801 2
    endloop
  endfacet
  facet normal 0.995514 -0.0946128 0
    outer loop
      vertex -8.82227 1.77832 0
      vertex -9 -0.0917969 2
      vertex -9 -0.0917969 0
    endloop
  endfacet
  facet normal 0.995514 -0.0946128 0
    outer loop
      vertex -8.82227 1.77832 0
      vertex -8.82227 1.77832 2
      vertex -9 -0.0917969 2
    endloop
  endfacet
  facet normal 0.954397 -0.298542 0
    outer loop
      vertex -8.26172 3.57031 0
      vertex -8.82227 1.77832 2
      vertex -8.82227 1.77832 0
    endloop
  endfacet
  facet normal 0.954397 -0.298542 0
    outer loop
      vertex -8.26172 3.57031 0
      vertex -8.26172 3.57031 2
      vertex -8.82227 1.77832 2
    endloop
  endfacet
  facet normal 0.871423 -0.490533 0
    outer loop
      vertex -7.33984 5.20801 0
      vertex -8.26172 3.57031 2
      vertex -8.26172 3.57031 0
    endloop
  endfacet
  facet normal 0.871423 -0.490533 0
    outer loop
      vertex -7.33984 5.20801 0
      vertex -7.33984 5.20801 2
      vertex -8.26172 3.57031 2
    endloop
  endfacet
  facet normal 0.750899 -0.660417 0
    outer loop
      vertex -6.09961 6.61816 0
      vertex -7.33984 5.20801 2
      vertex -7.33984 5.20801 0
    endloop
  endfacet
  facet normal 0.750899 -0.660417 0
    outer loop
      vertex -6.09961 6.61816 0
      vertex -6.09961 6.61816 2
      vertex -7.33984 5.20801 2
    endloop
  endfacet
  facet normal 0.677668 -0.735368 0
    outer loop
      vertex -1.37012 10.9766 0
      vertex -6.09961 6.61816 2
      vertex -6.09961 6.61816 0
    endloop
  endfacet
  facet normal 0.677668 -0.735368 0
    outer loop
      vertex -1.37012 10.9766 0
      vertex -1.37012 10.9766 2
      vertex -6.09961 6.61816 2
    endloop
  endfacet
  facet normal -0.737692 -0.675138 0
    outer loop
      vertex 2.49805 6.75 0
      vertex -1.37012 10.9766 2
      vertex -1.37012 10.9766 0
    endloop
  endfacet
  facet normal -0.737692 -0.675138 0
    outer loop
      vertex 2.49805 6.75 0
      vertex 2.49805 6.75 2
      vertex -1.37012 10.9766 2
    endloop
  endfacet
  facet normal -0.622806 -0.782376 0
    outer loop
      vertex 3.92969 5.61035 0
      vertex 2.49805 6.75 2
      vertex 2.49805 6.75 0
    endloop
  endfacet
  facet normal -0.622806 -0.782376 0
    outer loop
      vertex 3.92969 5.61035 0
      vertex 3.92969 5.61035 2
      vertex 2.49805 6.75 2
    endloop
  endfacet
  facet normal -0.351065 -0.936351 0
    outer loop
      vertex 5.64355 4.96777 0
      vertex 3.92969 5.61035 2
      vertex 3.92969 5.61035 0
    endloop
  endfacet
  facet normal -0.351065 -0.936351 0
    outer loop
      vertex 5.64355 4.96777 0
      vertex 5.64355 4.96777 2
      vertex 3.92969 5.61035 2
    endloop
  endfacet
  facet normal -0.0437615 -0.999042 0
    outer loop
      vertex 7.47168 4.8877 0
      vertex 5.64355 4.96777 2
      vertex 5.64355 4.96777 0
    endloop
  endfacet
  facet normal -0.0437615 -0.999042 0
    outer loop
      vertex 7.47168 4.8877 0
      vertex 7.47168 4.8877 2
      vertex 5.64355 4.96777 2
    endloop
  endfacet
  facet normal 0.266185 -0.963922 0
    outer loop
      vertex 9.23633 5.375 0
      vertex 7.47168 4.8877 2
      vertex 7.47168 4.8877 0
    endloop
  endfacet
  facet normal 0.266185 -0.963922 0
    outer loop
      vertex 9.23633 5.375 0
      vertex 9.23633 5.375 2
      vertex 7.47168 4.8877 2
    endloop
  endfacet
  facet normal 0.551741 -0.834015 0
    outer loop
      vertex 10.7627 6.38477 0
      vertex 9.23633 5.375 2
      vertex 9.23633 5.375 0
    endloop
  endfacet
  facet normal 0.551741 -0.834015 0
    outer loop
      vertex 10.7627 6.38477 0
      vertex 10.7627 6.38477 2
      vertex 9.23633 5.375 2
    endloop
  endfacet
  facet normal 0.782116 -0.623132 0
    outer loop
      vertex 11.9033 7.81641 0
      vertex 10.7627 6.38477 2
      vertex 10.7627 6.38477 0
    endloop
  endfacet
  facet normal 0.782116 -0.623132 0
    outer loop
      vertex 11.9033 7.81641 0
      vertex 11.9033 7.81641 2
      vertex 10.7627 6.38477 2
    endloop
  endfacet
  facet normal 0.936526 -0.350597 0
    outer loop
      vertex 12.5449 9.53027 0
      vertex 11.9033 7.81641 2
      vertex 11.9033 7.81641 0
    endloop
  endfacet
  facet normal 0.936526 -0.350597 0
    outer loop
      vertex 12.5449 9.53027 0
      vertex 12.5449 9.53027 2
      vertex 11.9033 7.81641 2
    endloop
  endfacet
  facet normal 0.999019 -0.0442941 0
    outer loop
      vertex 12.626 11.3584 0
      vertex 12.5449 9.53027 2
      vertex 12.5449 9.53027 0
    endloop
  endfacet
  facet normal 0.999019 -0.0442941 0
    outer loop
      vertex 12.626 11.3584 0
      vertex 12.626 11.3584 2
      vertex 12.5449 9.53027 2
    endloop
  endfacet
  facet normal 0.963785 0.266681 0
    outer loop
      vertex 12.1377 13.123 0
      vertex 12.626 11.3584 2
      vertex 12.626 11.3584 0
    endloop
  endfacet
  facet normal 0.963785 0.266681 -0
    outer loop
      vertex 12.1377 13.123 0
      vertex 12.1377 13.123 2
      vertex 12.626 11.3584 2
    endloop
  endfacet
  facet normal 0.834261 0.55137 0
    outer loop
      vertex 11.1289 14.6494 0
      vertex 12.1377 13.123 2
      vertex 12.1377 13.123 0
    endloop
  endfacet
  facet normal 0.834261 0.55137 -0
    outer loop
      vertex 11.1289 14.6494 0
      vertex 11.1289 14.6494 2
      vertex 12.1377 13.123 2
    endloop
  endfacet
  facet normal 0.737723 0.675104 0
    outer loop
      vertex 7.2334 18.9062 0
      vertex 11.1289 14.6494 2
      vertex 11.1289 14.6494 0
    endloop
  endfacet
  facet normal 0.737723 0.675104 -0
    outer loop
      vertex 7.2334 18.9062 0
      vertex 7.2334 18.9062 2
      vertex 11.1289 14.6494 2
    endloop
  endfacet
  facet normal 0.677755 -0.735288 0
    outer loop
      vertex 10.5283 21.9434 0
      vertex 7.2334 18.9062 2
      vertex 7.2334 18.9062 0
    endloop
  endfacet
  facet normal 0.677755 -0.735288 0
    outer loop
      vertex 10.5283 21.9434 0
      vertex 10.5283 21.9434 2
      vertex 7.2334 18.9062 2
    endloop
  endfacet
  facet normal 0.749189 -0.662356 0
    outer loop
      vertex 12.7109 24.4121 0
      vertex 10.5283 21.9434 2
      vertex 10.5283 21.9434 0
    endloop
  endfacet
  facet normal 0.749189 -0.662356 0
    outer loop
      vertex 12.7109 24.4121 0
      vertex 12.7109 24.4121 2
      vertex 10.5283 21.9434 2
    endloop
  endfacet
  facet normal 0.86828 -0.496075 0
    outer loop
      vertex 14.3457 27.2734 0
      vertex 12.7109 24.4121 2
      vertex 12.7109 24.4121 0
    endloop
  endfacet
  facet normal 0.86828 -0.496075 0
    outer loop
      vertex 14.3457 27.2734 0
      vertex 14.3457 27.2734 2
      vertex 12.7109 24.4121 2
    endloop
  endfacet
  facet normal 0.951056 -0.309019 0
    outer loop
      vertex 15.3643 30.4082 0
      vertex 14.3457 27.2734 2
      vertex 14.3457 27.2734 0
    endloop
  endfacet
  facet normal 0.951056 -0.309019 0
    outer loop
      vertex 15.3643 30.4082 0
      vertex 15.3643 30.4082 2
      vertex 14.3457 27.2734 2
    endloop
  endfacet
  facet normal 0.994002 -0.109358 0
    outer loop
      vertex 15.7246 33.6836 0
      vertex 15.3643 30.4082 2
      vertex 15.3643 30.4082 0
    endloop
  endfacet
  facet normal 0.994002 -0.109358 0
    outer loop
      vertex 15.7246 33.6836 0
      vertex 15.7246 33.6836 2
      vertex 15.3643 30.4082 2
    endloop
  endfacet
  facet normal 0.995467 0.0951027 0
    outer loop
      vertex 15.4111 36.9648 0
      vertex 15.7246 33.6836 2
      vertex 15.7246 33.6836 0
    endloop
  endfacet
  facet normal 0.995467 0.0951027 -0
    outer loop
      vertex 15.4111 36.9648 0
      vertex 15.4111 36.9648 2
      vertex 15.7246 33.6836 2
    endloop
  endfacet
  facet normal 0.955362 0.295439 0
    outer loop
      vertex 14.4375 40.1133 0
      vertex 15.4111 36.9648 2
      vertex 15.4111 36.9648 0
    endloop
  endfacet
  facet normal 0.955362 0.295439 -0
    outer loop
      vertex 14.4375 40.1133 0
      vertex 14.4375 40.1133 2
      vertex 15.4111 36.9648 2
    endloop
  endfacet
  facet normal 0.875426 0.483352 0
    outer loop
      vertex 12.8447 42.998 0
      vertex 14.4375 40.1133 2
      vertex 14.4375 40.1133 0
    endloop
  endfacet
  facet normal 0.875426 0.483352 -0
    outer loop
      vertex 12.8447 42.998 0
      vertex 12.8447 42.998 2
      vertex 14.4375 40.1133 2
    endloop
  endfacet
  facet normal 0.758712 0.651426 0
    outer loop
      vertex 10.6982 45.498 0
      vertex 12.8447 42.998 2
      vertex 12.8447 42.998 0
    endloop
  endfacet
  facet normal 0.758712 0.651426 -0
    outer loop
      vertex 10.6982 45.498 0
      vertex 10.6982 45.498 2
      vertex 12.8447 42.998 2
    endloop
  endfacet
  facet normal 0.610612 0.79193 0
    outer loop
      vertex 8.08789 47.5107 0
      vertex 10.6982 45.498 2
      vertex 10.6982 45.498 0
    endloop
  endfacet
  facet normal 0.610612 0.79193 -0
    outer loop
      vertex 8.08789 47.5107 0
      vertex 8.08789 47.5107 2
      vertex 10.6982 45.498 2
    endloop
  endfacet
  facet normal 0.436513 0.899698 0
    outer loop
      vertex 5.12305 48.9492 0
      vertex 8.08789 47.5107 2
      vertex 8.08789 47.5107 0
    endloop
  endfacet
  facet normal 0.436513 0.899698 -0
    outer loop
      vertex 5.12305 48.9492 0
      vertex 5.12305 48.9492 2
      vertex 8.08789 47.5107 2
    endloop
  endfacet
  facet normal 0.244766 0.969582 0
    outer loop
      vertex 1.92773 49.7559 0
      vertex 5.12305 48.9492 2
      vertex 5.12305 48.9492 0
    endloop
  endfacet
  facet normal 0.244766 0.969582 -0
    outer loop
      vertex 1.92773 49.7559 0
      vertex 1.92773 49.7559 2
      vertex 5.12305 48.9492 2
    endloop
  endfacet
  facet normal 0.0426657 0.999089 0
    outer loop
      vertex -1.36523 49.8965 0
      vertex 1.92773 49.7559 2
      vertex 1.92773 49.7559 0
    endloop
  endfacet
  facet normal 0.0426657 0.999089 -0
    outer loop
      vertex -1.36523 49.8965 0
      vertex -1.36523 49.8965 2
      vertex 1.92773 49.7559 2
    endloop
  endfacet
  facet normal -0.161803 0.986823 0
    outer loop
      vertex -4.61719 49.3633 0
      vertex -1.36523 49.8965 2
      vertex -1.36523 49.8965 0
    endloop
  endfacet
  facet normal -0.161803 0.986823 0
    outer loop
      vertex -4.61719 49.3633 0
      vertex -4.61719 49.3633 2
      vertex -1.36523 49.8965 2
    endloop
  endfacet
  facet normal -0.358582 0.933498 0
    outer loop
      vertex -7.69336 48.1816 0
      vertex -4.61719 49.3633 2
      vertex -4.61719 49.3633 0
    endloop
  endfacet
  facet normal -0.358582 0.933498 0
    outer loop
      vertex -7.69336 48.1816 0
      vertex -7.69336 48.1816 2
      vertex -4.61719 49.3633 2
    endloop
  endfacet
  facet normal -0.541087 0.840967 0
    outer loop
      vertex -10.4648 46.3984 0
      vertex -7.69336 48.1816 2
      vertex -7.69336 48.1816 0
    endloop
  endfacet
  facet normal -0.541087 0.840967 0
    outer loop
      vertex -10.4648 46.3984 0
      vertex -10.4648 46.3984 2
      vertex -7.69336 48.1816 2
    endloop
  endfacet
  facet normal -0.700708 0.713448 0
    outer loop
      vertex -12.8164 44.0889 0
      vertex -10.4648 46.3984 2
      vertex -10.4648 46.3984 0
    endloop
  endfacet
  facet normal -0.700708 0.713448 0
    outer loop
      vertex -12.8164 44.0889 0
      vertex -12.8164 44.0889 2
      vertex -10.4648 46.3984 2
    endloop
  endfacet
  facet normal -0.831229 0.555931 0
    outer loop
      vertex -14.6484 41.3496 0
      vertex -12.8164 44.0889 2
      vertex -12.8164 44.0889 0
    endloop
  endfacet
  facet normal -0.831229 0.555931 0
    outer loop
      vertex -14.6484 41.3496 0
      vertex -14.6484 41.3496 2
      vertex -12.8164 44.0889 2
    endloop
  endfacet
  facet normal -0.926854 0.375423 0
    outer loop
      vertex -15.8857 38.2949 0
      vertex -14.6484 41.3496 2
      vertex -14.6484 41.3496 0
    endloop
  endfacet
  facet normal -0.926854 0.375423 0
    outer loop
      vertex -15.8857 38.2949 0
      vertex -15.8857 38.2949 2
      vertex -14.6484 41.3496 2
    endloop
  endfacet
  facet normal -0.983799 0.179277 0
    outer loop
      vertex -16.4766 35.0527 0
      vertex -15.8857 38.2949 2
      vertex -15.8857 38.2949 0
    endloop
  endfacet
  facet normal -0.983799 0.179277 0
    outer loop
      vertex -16.4766 35.0527 0
      vertex -16.4766 35.0527 2
      vertex -15.8857 38.2949 2
    endloop
  endfacet
  facet normal -0.999698 -0.0245924 0
    outer loop
      vertex -16.3955 31.7578 0
      vertex -16.4766 35.0527 2
      vertex -16.4766 35.0527 0
    endloop
  endfacet
  facet normal -0.999698 -0.0245924 0
    outer loop
      vertex -16.3955 31.7578 0
      vertex -16.3955 31.7578 2
      vertex -16.4766 35.0527 2
    endloop
  endfacet
  facet normal -0.973824 -0.227305 0
    outer loop
      vertex -15.6465 28.5488 0
      vertex -16.3955 31.7578 2
      vertex -16.3955 31.7578 0
    endloop
  endfacet
  facet normal -0.973824 -0.227305 0
    outer loop
      vertex -15.6465 28.5488 0
      vertex -15.6465 28.5488 2
      vertex -16.3955 31.7578 2
    endloop
  endfacet
  facet normal -0.907195 -0.420711 0
    outer loop
      vertex -14.2598 25.5586 0
      vertex -15.6465 28.5488 2
      vertex -15.6465 28.5488 0
    endloop
  endfacet
  facet normal -0.907195 -0.420711 0
    outer loop
      vertex -14.2598 25.5586 0
      vertex -14.2598 25.5586 2
      vertex -15.6465 28.5488 2
    endloop
  endfacet
  facet normal -0.802801 -0.596248 0
    outer loop
      vertex -12.2949 22.9131 0
      vertex -14.2598 25.5586 2
      vertex -14.2598 25.5586 0
    endloop
  endfacet
  facet normal -0.802801 -0.596248 0
    outer loop
      vertex -12.2949 22.9131 0
      vertex -12.2949 22.9131 2
      vertex -14.2598 25.5586 2
    endloop
  endfacet
  facet normal -0.737719 -0.675108 0
    outer loop
      vertex -9.29395 19.6338 0
      vertex -12.2949 22.9131 2
      vertex -12.2949 22.9131 0
    endloop
  endfacet
  facet normal -0.737719 -0.675108 0
    outer loop
      vertex -9.29395 19.6338 0
      vertex -9.29395 19.6338 2
      vertex -12.2949 22.9131 2
    endloop
  endfacet
  facet normal -0.676062 0.736845 0
    outer loop
      vertex -14.0293 15.2891 0
      vertex -9.29395 19.6338 2
      vertex -9.29395 19.6338 0
    endloop
  endfacet
  facet normal -0.676062 0.736845 0
    outer loop
      vertex -14.0293 15.2891 0
      vertex -14.0293 15.2891 2
      vertex -9.29395 19.6338 2
    endloop
  endfacet
  facet normal -0.74943 0.662083 0
    outer loop
      vertex -16.9014 12.0381 0
      vertex -14.0293 15.2891 2
      vertex -14.0293 15.2891 0
    endloop
  endfacet
  facet normal -0.74943 0.662083 0
    outer loop
      vertex -16.9014 12.0381 0
      vertex -16.9014 12.0381 2
      vertex -14.0293 15.2891 2
    endloop
  endfacet
  facet normal -0.870781 0.491671 0
    outer loop
      vertex -19.0342 8.26074 0
      vertex -16.9014 12.0381 2
      vertex -16.9014 12.0381 0
    endloop
  endfacet
  facet normal -0.870781 0.491671 0
    outer loop
      vertex -19.0342 8.26074 0
      vertex -19.0342 8.26074 2
      vertex -16.9014 12.0381 2
    endloop
  endfacet
  facet normal -0.953905 0.300108 0
    outer loop
      vertex -20.3359 4.12305 0
      vertex -19.0342 8.26074 2
      vertex -19.0342 8.26074 0
    endloop
  endfacet
  facet normal -0.953905 0.300108 0
    outer loop
      vertex -20.3359 4.12305 0
      vertex -20.3359 4.12305 2
      vertex -19.0342 8.26074 2
    endloop
  endfacet
  facet normal -0.995456 0.0952234 0
    outer loop
      vertex -20.749 -0.195312 0
      vertex -20.3359 4.12305 2
      vertex -20.3359 4.12305 0
    endloop
  endfacet
  facet normal -0.995456 0.0952234 0
    outer loop
      vertex -20.749 -0.195312 0
      vertex -20.749 -0.195312 2
      vertex -20.3359 4.12305 2
    endloop
  endfacet
  facet normal -0.993491 -0.113915 0
    outer loop
      vertex -20.2549 -4.50488 0
      vertex -20.749 -0.195312 2
      vertex -20.749 -0.195312 0
    endloop
  endfacet
  facet normal -0.993491 -0.113915 0
    outer loop
      vertex -20.2549 -4.50488 0
      vertex -20.2549 -4.50488 2
      vertex -20.749 -0.195312 2
    endloop
  endfacet
  facet normal -0.948119 -0.317916 0
    outer loop
      vertex -18.876 -8.61719 0
      vertex -20.2549 -4.50488 2
      vertex -20.2549 -4.50488 0
    endloop
  endfacet
  facet normal -0.948119 -0.317916 0
    outer loop
      vertex -18.876 -8.61719 0
      vertex -18.876 -8.61719 2
      vertex -20.2549 -4.50488 2
    endloop
  endfacet
  facet normal -0.861303 -0.508092 0
    outer loop
      vertex -16.6719 -12.3535 0
      vertex -18.876 -8.61719 2
      vertex -18.876 -8.61719 0
    endloop
  endfacet
  facet normal -0.861303 -0.508092 0
    outer loop
      vertex -16.6719 -12.3535 0
      vertex -16.6719 -12.3535 2
      vertex -18.876 -8.61719 2
    endloop
  endfacet
  facet normal -0.736734 -0.676183 0
    outer loop
      vertex -13.7383 -15.5498 0
      vertex -16.6719 -12.3535 2
      vertex -16.6719 -12.3535 0
    endloop
  endfacet
  facet normal -0.736734 -0.676183 0
    outer loop
      vertex -13.7383 -15.5498 0
      vertex -13.7383 -15.5498 2
      vertex -16.6719 -12.3535 2
    endloop
  endfacet
  facet normal -0.580152 -0.814509 0
    outer loop
      vertex -10.2051 -18.0664 0
      vertex -13.7383 -15.5498 2
      vertex -13.7383 -15.5498 0
    endloop
  endfacet
  facet normal -0.580152 -0.814509 0
    outer loop
      vertex -10.2051 -18.0664 0
      vertex -10.2051 -18.0664 2
      vertex -13.7383 -15.5498 2
    endloop
  endfacet
  facet normal -0.398207 -0.917295 0
    outer loop
      vertex -6.22559 -19.7939 0
      vertex -10.2051 -18.0664 2
      vertex -10.2051 -18.0664 0
    endloop
  endfacet
  facet normal -0.398207 -0.917295 0
    outer loop
      vertex -6.22559 -19.7939 0
      vertex -6.22559 -19.7939 2
      vertex -10.2051 -18.0664 2
    endloop
  endfacet
  facet normal -0.198584 -0.980084 0
    outer loop
      vertex -1.97461 -20.6553 0
      vertex -6.22559 -19.7939 2
      vertex -6.22559 -19.7939 0
    endloop
  endfacet
  facet normal -0.198584 -0.980084 0
    outer loop
      vertex -1.97461 -20.6553 0
      vertex -1.97461 -20.6553 2
      vertex -6.22559 -19.7939 2
    endloop
  endfacet
  facet normal 0.00922968 -0.999957 0
    outer loop
      vertex 2.36328 -20.6152 0
      vertex -1.97461 -20.6553 2
      vertex -1.97461 -20.6553 0
    endloop
  endfacet
  facet normal 0.00922968 -0.999957 0
    outer loop
      vertex 2.36328 -20.6152 0
      vertex 2.36328 -20.6152 2
      vertex -1.97461 -20.6553 2
    endloop
  endfacet
  facet normal 0.864155 0.503225 -0
    outer loop
      vertex -4.61035 32.4375 0
      vertex -4.61035 32.4375 2
      vertex -3.66406 30.8125 0
    endloop
  endfacet
  facet normal 0.864155 0.503225 0
    outer loop
      vertex -3.66406 30.8125 2
      vertex -3.66406 30.8125 0
      vertex -4.61035 32.4375 2
    endloop
  endfacet
  facet normal 0.995124 0.0986299 -0
    outer loop
      vertex -4.7959 34.3096 0
      vertex -4.7959 34.3096 2
      vertex -4.61035 32.4375 0
    endloop
  endfacet
  facet normal 0.995124 0.0986299 0
    outer loop
      vertex -4.61035 32.4375 2
      vertex -4.61035 32.4375 0
      vertex -4.7959 34.3096 2
    endloop
  endfacet
  facet normal 0.946055 -0.324006 0
    outer loop
      vertex -4.18652 36.0889 0
      vertex -4.18652 36.0889 2
      vertex -4.7959 34.3096 0
    endloop
  endfacet
  facet normal 0.946055 -0.324006 0
    outer loop
      vertex -4.7959 34.3096 2
      vertex -4.7959 34.3096 0
      vertex -4.18652 36.0889 2
    endloop
  endfacet
  facet normal 0.726567 -0.687096 0
    outer loop
      vertex -2.89453 37.4551 0
      vertex -2.89453 37.4551 2
      vertex -4.18652 36.0889 0
    endloop
  endfacet
  facet normal 0.726567 -0.687096 0
    outer loop
      vertex -4.18652 36.0889 2
      vertex -4.18652 36.0889 0
      vertex -2.89453 37.4551 2
    endloop
  endfacet
  facet normal 0.375416 -0.926856 0
    outer loop
      vertex -1.15137 38.1611 0
      vertex -1.15137 38.1611 2
      vertex -2.89453 37.4551 0
    endloop
  endfacet
  facet normal 0.375416 -0.926856 0
    outer loop
      vertex -2.89453 37.4551 2
      vertex -2.89453 37.4551 0
      vertex -1.15137 38.1611 2
    endloop
  endfacet
  facet normal -0.0436175 -0.999048 0
    outer loop
      vertex 0.727539 38.0791 0
      vertex 0.727539 38.0791 2
      vertex -1.15137 38.1611 0
    endloop
  endfacet
  facet normal -0.0436175 -0.999048 -0
    outer loop
      vertex -1.15137 38.1611 2
      vertex -1.15137 38.1611 0
      vertex 0.727539 38.0791 2
    endloop
  endfacet
  facet normal -0.454672 -0.890659 0
    outer loop
      vertex 2.40332 37.2236 0
      vertex 2.40332 37.2236 2
      vertex 0.727539 38.0791 0
    endloop
  endfacet
  facet normal -0.454672 -0.890659 -0
    outer loop
      vertex 0.727539 38.0791 2
      vertex 0.727539 38.0791 0
      vertex 2.40332 37.2236 2
    endloop
  endfacet
  facet normal -0.783245 -0.621713 0
    outer loop
      vertex 3.57227 35.751 0
      vertex 3.57227 35.751 2
      vertex 2.40332 37.2236 0
    endloop
  endfacet
  facet normal -0.783245 -0.621713 -0
    outer loop
      vertex 2.40332 37.2236 2
      vertex 2.40332 37.2236 0
      vertex 3.57227 35.751 2
    endloop
  endfacet
  facet normal -0.970811 -0.239847 0
    outer loop
      vertex 4.02344 33.9248 0
      vertex 4.02344 33.9248 2
      vertex 3.57227 35.751 0
    endloop
  endfacet
  facet normal -0.970811 -0.239847 -0
    outer loop
      vertex 3.57227 35.751 2
      vertex 3.57227 35.751 0
      vertex 4.02344 33.9248 2
    endloop
  endfacet
  facet normal -0.982772 0.184821 0
    outer loop
      vertex 3.67578 32.0762 0
      vertex 3.67578 32.0762 2
      vertex 4.02344 33.9248 0
    endloop
  endfacet
  facet normal -0.982772 0.184821 0
    outer loop
      vertex 4.02344 33.9248 2
      vertex 4.02344 33.9248 0
      vertex 3.67578 32.0762 2
    endloop
  endfacet
  facet normal -0.817054 0.576561 0
    outer loop
      vertex 2.5918 30.54 0
      vertex 2.5918 30.54 2
      vertex 3.67578 32.0762 0
    endloop
  endfacet
  facet normal -0.817054 0.576561 0
    outer loop
      vertex 3.67578 32.0762 2
      vertex 3.67578 32.0762 0
      vertex 2.5918 30.54 2
    endloop
  endfacet
  facet normal -0.676154 0.736761 0
    outer loop
      vertex -0.672852 27.5439 0
      vertex -0.672852 27.5439 2
      vertex 2.5918 30.54 0
    endloop
  endfacet
  facet normal -0.676154 0.736761 0
    outer loop
      vertex 2.5918 30.54 2
      vertex 2.5918 30.54 0
      vertex -0.672852 27.5439 2
    endloop
  endfacet
  facet normal 0.737712 0.675116 -0
    outer loop
      vertex -3.66406 30.8125 0
      vertex -3.66406 30.8125 2
      vertex -0.672852 27.5439 0
    endloop
  endfacet
  facet normal 0.737712 0.675116 0
    outer loop
      vertex -0.672852 27.5439 2
      vertex -0.672852 27.5439 0
      vertex -3.66406 30.8125 2
    endloop
  endfacet
endsolid OpenSCAD_Model
