solid OpenSCAD_Model
  facet normal 0 0 -1
    outer loop
      vertex 2.27637 -3.88184 0
      vertex 3.03271 -3.32471 0
      vertex 5.27197 -8.93555 0
    endloop
  endfacet
  facet normal 0 0 -1
    outer loop
      vertex 3.03271 -3.32471 0
      vertex 9.37451 2.46094 0
      vertex 7.01465 -7.64453 0
    endloop
  endfacet
  facet normal 0 0 -1
    outer loop
      vertex 3.03271 -3.32471 0
      vertex 7.01465 -7.64453 0
      vertex 5.27197 -8.93555 0
    endloop
  endfacet
  facet normal -0 0 -1
    outer loop
      vertex 14.2524 0.630371 0
      vertex 14.2124 -0.282715 0
      vertex 14.0083 1.51172 0
    endloop
  endfacet
  facet normal 0 0 -1
    outer loop
      vertex 13.3237 -1.85498 0
      vertex 14.2124 -0.282715 0
      vertex 13.8926 -1.13916 0
    endloop
  endfacet
  facet normal -0 -0 -1
    outer loop
      vertex 14.0083 1.51172 0
      vertex 14.2124 -0.282715 0
      vertex 13.5039 2.27441 0
    endloop
  endfacet
  facet normal 0 -0 -1
    outer loop
      vertex 13.5039 2.27441 0
      vertex 14.2124 -0.282715 0
      vertex 13.3237 -1.85498 0
    endloop
  endfacet
  facet normal 0 0 -1
    outer loop
      vertex 12.7891 2.84424 0
      vertex 11.0195 3.20654 0
      vertex 11.9331 3.16553 0
    endloop
  endfacet
  facet normal -0 -0 -1
    outer loop
      vertex 12.7891 2.84424 0
      vertex 13.5039 2.27441 0
      vertex 11.0195 3.20654 0
    endloop
  endfacet
  facet normal 0 0 -1
    outer loop
      vertex 11.0195 3.20654 0
      vertex 13.5039 2.27441 0
      vertex 13.3237 -1.85498 0
    endloop
  endfacet
  facet normal 0 0 -1
    outer loop
      vertex 10.1382 2.96387 0
      vertex 11.0195 3.20654 0
      vertex 13.3237 -1.85498 0
    endloop
  endfacet
  facet normal 0 0 -1
    outer loop
      vertex 9.37451 2.46094 0
      vertex 10.1382 2.96387 0
      vertex 13.3237 -1.85498 0
    endloop
  endfacet
  facet normal -0 0 -1
    outer loop
      vertex 6.06885 6.56152 0
      vertex 3.73584 2.44385 0
      vertex 5.56445 7.32471 0
    endloop
  endfacet
  facet normal 0 0 -1
    outer loop
      vertex 7.01465 -7.64453 0
      vertex 9.37451 2.46094 0
      vertex 13.3237 -1.85498 0
    endloop
  endfacet
  facet normal 0 0 -1
    outer loop
      vertex 2.27637 -3.88184 0
      vertex 5.27197 -8.93555 0
      vertex 3.29883 -9.83643 0
    endloop
  endfacet
  facet normal 0 0 -1
    outer loop
      vertex 1.42139 -4.26953 0
      vertex 2.27637 -3.88184 0
      vertex 3.29883 -9.83643 0
    endloop
  endfacet
  facet normal 0 0 -1
    outer loop
      vertex 1.18164 -10.3076 0
      vertex 1.42139 -4.26953 0
      vertex 3.29883 -9.83643 0
    endloop
  endfacet
  facet normal 0 0 -1
    outer loop
      vertex 1.18164 -10.3076 0
      vertex 0.503906 -4.47168 0
      vertex 1.42139 -4.26953 0
    endloop
  endfacet
  facet normal -0 0 -1
    outer loop
      vertex 1.18164 -10.3076 0
      vertex -0.987305 -10.3276 0
      vertex 0.503906 -4.47168 0
    endloop
  endfacet
  facet normal 0 0 -1
    outer loop
      vertex 0.503906 -4.47168 0
      vertex -0.987305 -10.3276 0
      vertex -0.435059 -4.479 0
    endloop
  endfacet
  facet normal -0 0 -1
    outer loop
      vertex -0.435059 -4.479 0
      vertex -3.11279 -9.89697 0
      vertex -1.35547 -4.29102 0
    endloop
  endfacet
  facet normal -0 0 -1
    outer loop
      vertex 5.38135 3.19238 0
      vertex 3.73584 2.44385 0
      vertex 6.27246 4.76514 0
    endloop
  endfacet
  facet normal 0 0 -1
    outer loop
      vertex -5.10254 -9.0332 0
      vertex -6.86914 -7.7749 0
      vertex -2.2168 -3.91602 0
    endloop
  endfacet
  facet normal 0 0 -1
    outer loop
      vertex -8.33594 -6.17676 0
      vertex -3.61621 -2.67871 0
      vertex -2.98145 -3.37061 0
    endloop
  endfacet
  facet normal 0 -0 -1
    outer loop
      vertex -4.39209 -0.979004 0
      vertex -4.09326 -1.86963 0
      vertex -9.43799 -4.30859 0
    endloop
  endfacet
  facet normal 0 0 -1
    outer loop
      vertex -4.5 -0.0458984 0
      vertex -10.1274 -2.25244 0
      vertex -10.3745 -0.0976562 0
    endloop
  endfacet
  facet normal 0 0 -1
    outer loop
      vertex -4.41113 0.88916 0
      vertex -4.5 -0.0458984 0
      vertex -10.3745 -0.0976562 0
    endloop
  endfacet
  facet normal -0 0 -1
    outer loop
      vertex 6.27246 4.76514 0
      vertex 3.73584 2.44385 0
      vertex 6.06885 6.56152 0
    endloop
  endfacet
  facet normal 0 -0 -1
    outer loop
      vertex -10.168 2.06152 0
      vertex -4.41113 0.88916 0
      vertex -10.3745 -0.0976562 0
    endloop
  endfacet
  facet normal 0 0 -1
    outer loop
      vertex -7.01465 7.64453 0
      vertex -0.685059 5.48828 0
      vertex -3.0498 3.30908 0
    endloop
  endfacet
  facet normal 0 0 -1
    outer loop
      vertex -1.83203 15.4062 0
      vertex -6.14746 11.4565 0
      vertex -7.12988 12.7793 0
    endloop
  endfacet
  facet normal -0 0 -1
    outer loop
      vertex -2.09326 18.0444 0
      vertex -2.39795 17.1548 0
      vertex -7.94287 19.1475 0
    endloop
  endfacet
  facet normal 0 0 -1
    outer loop
      vertex -5.23242 23.1992 0
      vertex -3.84668 24.0908 0
      vertex -1.44727 18.7275 0
    endloop
  endfacet
  facet normal 0 0 -1
    outer loop
      vertex 0.36377 19.0396 0
      vertex 0.963867 24.8779 0
      vertex 2.56152 24.4746 0
    endloop
  endfacet
  facet normal 0 -0 -1
    outer loop
      vertex 7.70557 18.4824 0
      vertex 7.8623 16.8418 0
      vertex 2.01172 16.9624 0
    endloop
  endfacet
  facet normal 0 0 -1
    outer loop
      vertex 1.96484 2.80518 0
      vertex 3.73584 2.44385 0
      vertex 2.82178 2.48389 0
    endloop
  endfacet
  facet normal 0 0 -1
    outer loop
      vertex 5.38135 3.19238 0
      vertex 4.61816 2.6875 0
      vertex 3.73584 2.44385 0
    endloop
  endfacet
  facet normal 0 0 -1
    outer loop
      vertex 6.27246 4.76514 0
      vertex 6.06885 6.56152 0
      vertex 6.31299 5.6792 0
    endloop
  endfacet
  facet normal 0 0 -1
    outer loop
      vertex 6.27246 4.76514 0
      vertex 5.95166 3.9082 0
      vertex 5.38135 3.19238 0
    endloop
  endfacet
  facet normal 0 0 -1
    outer loop
      vertex 5.56445 7.32471 0
      vertex 3.73584 2.44385 0
      vertex 1.96484 2.80518 0
    endloop
  endfacet
  facet normal 0 0 -1
    outer loop
      vertex 1.24902 3.375 0
      vertex 5.56445 7.32471 0
      vertex 1.96484 2.80518 0
    endloop
  endfacet
  facet normal 0 0 -1
    outer loop
      vertex 1.24902 3.375 0
      vertex -0.685059 5.48828 0
      vertex 5.56445 7.32471 0
    endloop
  endfacet
  facet normal -0 0 -1
    outer loop
      vertex 5.56445 7.32471 0
      vertex -0.685059 5.48828 0
      vertex 3.6167 9.45312 0
    endloop
  endfacet
  facet normal 0 0 -1
    outer loop
      vertex 1.83789 16.0381 0
      vertex 2.01172 16.9624 0
      vertex 7.68213 15.2041 0
    endloop
  endfacet
  facet normal -0 0 -1
    outer loop
      vertex 7.21875 20.0566 0
      vertex 1.78613 17.8755 0
      vertex 6.42236 21.499 0
    endloop
  endfacet
  facet normal -0 0 -1
    outer loop
      vertex 5.34912 22.749 0
      vertex 1.20166 18.6118 0
      vertex 4.04395 23.7554 0
    endloop
  endfacet
  facet normal -0 0 -1
    outer loop
      vertex 4.04395 23.7554 0
      vertex 0.36377 19.0396 0
      vertex 2.56152 24.4746 0
    endloop
  endfacet
  facet normal 0 0 -1
    outer loop
      vertex 0.36377 19.0396 0
      vertex -0.575684 19.0806 0
      vertex 0.963867 24.8779 0
    endloop
  endfacet
  facet normal -0 0 -1
    outer loop
      vertex 6.42236 21.499 0
      vertex 1.20166 18.6118 0
      vertex 5.34912 22.749 0
    endloop
  endfacet
  facet normal 0 0 -1
    outer loop
      vertex -0.575684 19.0806 0
      vertex -3.84668 24.0908 0
      vertex -2.30859 24.6816 0
    endloop
  endfacet
  facet normal 0 0 -1
    outer loop
      vertex -0.575684 19.0806 0
      vertex -2.30859 24.6816 0
      vertex -0.682617 24.9482 0
    endloop
  endfacet
  facet normal 0 0 -1
    outer loop
      vertex -7.32422 20.6748 0
      vertex -6.4082 22.0444 0
      vertex -2.09326 18.0444 0
    endloop
  endfacet
  facet normal -0 0 -1
    outer loop
      vertex -2.39795 17.1548 0
      vertex -8.19775 15.8789 0
      vertex -8.23828 17.5264 0
    endloop
  endfacet
  facet normal 0 -0 -1
    outer loop
      vertex -2.39795 17.1548 0
      vertex -2.30518 16.2188 0
      vertex -8.19775 15.8789 0
    endloop
  endfacet
  facet normal 0 0 -1
    outer loop
      vertex -8.19775 15.8789 0
      vertex -2.30518 16.2188 0
      vertex -7.82324 14.2744 0
    endloop
  endfacet
  facet normal 0 0 -1
    outer loop
      vertex -7.82324 14.2744 0
      vertex -2.30518 16.2188 0
      vertex -7.12988 12.7793 0
    endloop
  endfacet
  facet normal 0 -0 -1
    outer loop
      vertex -2.30518 16.2188 0
      vertex -1.83203 15.4062 0
      vertex -7.12988 12.7793 0
    endloop
  endfacet
  facet normal 0 0 -1
    outer loop
      vertex -6.14746 11.4565 0
      vertex -1.83203 15.4062 0
      vertex -0.336426 13.772 0
    endloop
  endfacet
  facet normal 0 0 -1
    outer loop
      vertex -4.64697 9.81689 0
      vertex -6.14746 11.4565 0
      vertex -0.336426 13.772 0
    endloop
  endfacet
  facet normal 0 0 -1
    outer loop
      vertex -8.45068 6.01904 0
      vertex -7.01465 7.64453 0
      vertex -3.0498 3.30908 0
    endloop
  endfacet
  facet normal -0 0 -1
    outer loop
      vertex -3.66992 2.604 0
      vertex -4.13086 1.78516 0
      vertex -9.51709 4.13037 0
    endloop
  endfacet
  facet normal 0 -0 -1
    outer loop
      vertex -9.51709 4.13037 0
      vertex -4.13086 1.78516 0
      vertex -10.168 2.06152 0
    endloop
  endfacet
  facet normal 0 0 -1
    outer loop
      vertex -3.66992 2.604 0
      vertex -9.51709 4.13037 0
      vertex -8.45068 6.01904 0
    endloop
  endfacet
  facet normal 0 0 -1
    outer loop
      vertex -3.66992 2.604 0
      vertex -8.45068 6.01904 0
      vertex -3.0498 3.30908 0
    endloop
  endfacet
  facet normal 0 0 -1
    outer loop
      vertex 3.6167 9.45312 0
      vertex -4.64697 9.81689 0
      vertex -0.336426 13.772 0
    endloop
  endfacet
  facet normal -0 0 -1
    outer loop
      vertex 5.26416 10.9717 0
      vertex 3.6167 9.45312 0
      vertex -0.336426 13.772 0
    endloop
  endfacet
  facet normal 0 0 -1
    outer loop
      vertex -7.01465 7.64453 0
      vertex -4.64697 9.81689 0
      vertex -0.685059 5.48828 0
    endloop
  endfacet
  facet normal 0 0 -1
    outer loop
      vertex -4.64697 9.81689 0
      vertex 3.6167 9.45312 0
      vertex -0.685059 5.48828 0
    endloop
  endfacet
  facet normal 0 0 -1
    outer loop
      vertex -10.168 2.06152 0
      vertex -4.13086 1.78516 0
      vertex -4.41113 0.88916 0
    endloop
  endfacet
  facet normal 0 -0 -1
    outer loop
      vertex -4.5 -0.0458984 0
      vertex -4.39209 -0.979004 0
      vertex -10.1274 -2.25244 0
    endloop
  endfacet
  facet normal 0 0 -1
    outer loop
      vertex -10.1274 -2.25244 0
      vertex -4.39209 -0.979004 0
      vertex -9.43799 -4.30859 0
    endloop
  endfacet
  facet normal 0 0 -1
    outer loop
      vertex -9.43799 -4.30859 0
      vertex -4.09326 -1.86963 0
      vertex -3.61621 -2.67871 0
    endloop
  endfacet
  facet normal 0 0 -1
    outer loop
      vertex -8.33594 -6.17676 0
      vertex -9.43799 -4.30859 0
      vertex -3.61621 -2.67871 0
    endloop
  endfacet
  facet normal 0 0 -1
    outer loop
      vertex -6.86914 -7.7749 0
      vertex -8.33594 -6.17676 0
      vertex -2.98145 -3.37061 0
    endloop
  endfacet
  facet normal -0 0 -1
    outer loop
      vertex -2.2168 -3.91602 0
      vertex -6.86914 -7.7749 0
      vertex -2.98145 -3.37061 0
    endloop
  endfacet
  facet normal -0 0 -1
    outer loop
      vertex -1.35547 -4.29102 0
      vertex -5.10254 -9.0332 0
      vertex -2.2168 -3.91602 0
    endloop
  endfacet
  facet normal 0 0 -1
    outer loop
      vertex -1.35547 -4.29102 0
      vertex -3.11279 -9.89697 0
      vertex -5.10254 -9.0332 0
    endloop
  endfacet
  facet normal 0 0 -1
    outer loop
      vertex -0.435059 -4.479 0
      vertex -0.987305 -10.3276 0
      vertex -3.11279 -9.89697 0
    endloop
  endfacet
  facet normal 0 0 -1
    outer loop
      vertex 1.83789 16.0381 0
      vertex 7.17285 13.6367 0
      vertex 6.35547 12.2061 0
    endloop
  endfacet
  facet normal -0 0 -1
    outer loop
      vertex -1.44727 18.7275 0
      vertex -2.09326 18.0444 0
      vertex -6.4082 22.0444 0
    endloop
  endfacet
  facet normal 0 -0 -1
    outer loop
      vertex -7.94287 19.1475 0
      vertex -2.39795 17.1548 0
      vertex -8.23828 17.5264 0
    endloop
  endfacet
  facet normal 0 -0 -1
    outer loop
      vertex -7.32422 20.6748 0
      vertex -2.09326 18.0444 0
      vertex -7.94287 19.1475 0
    endloop
  endfacet
  facet normal 0 -0 -1
    outer loop
      vertex -5.23242 23.1992 0
      vertex -1.44727 18.7275 0
      vertex -6.4082 22.0444 0
    endloop
  endfacet
  facet normal 0 0 -1
    outer loop
      vertex -1.44727 18.7275 0
      vertex -3.84668 24.0908 0
      vertex -0.575684 19.0806 0
    endloop
  endfacet
  facet normal 0 0 -1
    outer loop
      vertex -0.575684 19.0806 0
      vertex -0.682617 24.9482 0
      vertex 0.963867 24.8779 0
    endloop
  endfacet
  facet normal 0 0 -1
    outer loop
      vertex 4.04395 23.7554 0
      vertex 1.20166 18.6118 0
      vertex 0.36377 19.0396 0
    endloop
  endfacet
  facet normal 0 0 -1
    outer loop
      vertex 6.42236 21.499 0
      vertex 1.78613 17.8755 0
      vertex 1.20166 18.6118 0
    endloop
  endfacet
  facet normal 0 0 -1
    outer loop
      vertex 1.78613 17.8755 0
      vertex 7.70557 18.4824 0
      vertex 2.01172 16.9624 0
    endloop
  endfacet
  facet normal 0 -0 -1
    outer loop
      vertex 7.21875 20.0566 0
      vertex 7.70557 18.4824 0
      vertex 1.78613 17.8755 0
    endloop
  endfacet
  facet normal -0 0 -1
    outer loop
      vertex 7.8623 16.8418 0
      vertex 7.68213 15.2041 0
      vertex 2.01172 16.9624 0
    endloop
  endfacet
  facet normal -0 0 -1
    outer loop
      vertex 7.68213 15.2041 0
      vertex 7.17285 13.6367 0
      vertex 1.83789 16.0381 0
    endloop
  endfacet
  facet normal 0 -0 -1
    outer loop
      vertex 1.83789 16.0381 0
      vertex 6.35547 12.2061 0
      vertex 1.2959 15.27 0
    endloop
  endfacet
  facet normal 0 0 -1
    outer loop
      vertex -0.336426 13.772 0
      vertex 1.2959 15.27 0
      vertex 5.26416 10.9717 0
    endloop
  endfacet
  facet normal 0 0 -1
    outer loop
      vertex 1.2959 15.27 0
      vertex 6.35547 12.2061 0
      vertex 5.26416 10.9717 0
    endloop
  endfacet
  facet normal 0 0 1
    outer loop
      vertex 5.27197 -8.93555 2
      vertex 3.03271 -3.32471 2
      vertex 2.27637 -3.88184 2
    endloop
  endfacet
  facet normal 0 -0 1
    outer loop
      vertex 7.01465 -7.64453 2
      vertex 9.37451 2.46094 2
      vertex 3.03271 -3.32471 2
    endloop
  endfacet
  facet normal 0 -0 1
    outer loop
      vertex 5.27197 -8.93555 2
      vertex 7.01465 -7.64453 2
      vertex 3.03271 -3.32471 2
    endloop
  endfacet
  facet normal 0 0 1
    outer loop
      vertex 14.0083 1.51172 2
      vertex 14.2124 -0.282715 2
      vertex 14.2524 0.630371 2
    endloop
  endfacet
  facet normal 0 -0 1
    outer loop
      vertex 13.8926 -1.13916 2
      vertex 14.2124 -0.282715 2
      vertex 13.3237 -1.85498 2
    endloop
  endfacet
  facet normal 0 0 1
    outer loop
      vertex 13.5039 2.27441 2
      vertex 14.2124 -0.282715 2
      vertex 14.0083 1.51172 2
    endloop
  endfacet
  facet normal 0 0 1
    outer loop
      vertex 13.3237 -1.85498 2
      vertex 14.2124 -0.282715 2
      vertex 13.5039 2.27441 2
    endloop
  endfacet
  facet normal 0 0 1
    outer loop
      vertex 11.9331 3.16553 2
      vertex 11.0195 3.20654 2
      vertex 12.7891 2.84424 2
    endloop
  endfacet
  facet normal 0 0 1
    outer loop
      vertex 11.0195 3.20654 2
      vertex 13.5039 2.27441 2
      vertex 12.7891 2.84424 2
    endloop
  endfacet
  facet normal 0 -0 1
    outer loop
      vertex 13.3237 -1.85498 2
      vertex 13.5039 2.27441 2
      vertex 11.0195 3.20654 2
    endloop
  endfacet
  facet normal 0 0 1
    outer loop
      vertex 13.3237 -1.85498 2
      vertex 11.0195 3.20654 2
      vertex 10.1382 2.96387 2
    endloop
  endfacet
  facet normal 0 0 1
    outer loop
      vertex 13.3237 -1.85498 2
      vertex 10.1382 2.96387 2
      vertex 9.37451 2.46094 2
    endloop
  endfacet
  facet normal 0 0 1
    outer loop
      vertex 5.56445 7.32471 2
      vertex 3.73584 2.44385 2
      vertex 6.06885 6.56152 2
    endloop
  endfacet
  facet normal 0 0 1
    outer loop
      vertex 13.3237 -1.85498 2
      vertex 9.37451 2.46094 2
      vertex 7.01465 -7.64453 2
    endloop
  endfacet
  facet normal 0 -0 1
    outer loop
      vertex 3.29883 -9.83643 2
      vertex 5.27197 -8.93555 2
      vertex 2.27637 -3.88184 2
    endloop
  endfacet
  facet normal 0 0 1
    outer loop
      vertex 3.29883 -9.83643 2
      vertex 2.27637 -3.88184 2
      vertex 1.42139 -4.26953 2
    endloop
  endfacet
  facet normal 0 0 1
    outer loop
      vertex 3.29883 -9.83643 2
      vertex 1.42139 -4.26953 2
      vertex 1.18164 -10.3076 2
    endloop
  endfacet
  facet normal 0 0 1
    outer loop
      vertex 1.42139 -4.26953 2
      vertex 0.503906 -4.47168 2
      vertex 1.18164 -10.3076 2
    endloop
  endfacet
  facet normal 0 0 1
    outer loop
      vertex 0.503906 -4.47168 2
      vertex -0.987305 -10.3276 2
      vertex 1.18164 -10.3076 2
    endloop
  endfacet
  facet normal -0 0 1
    outer loop
      vertex -0.435059 -4.479 2
      vertex -0.987305 -10.3276 2
      vertex 0.503906 -4.47168 2
    endloop
  endfacet
  facet normal 0 0 1
    outer loop
      vertex -1.35547 -4.29102 2
      vertex -3.11279 -9.89697 2
      vertex -0.435059 -4.479 2
    endloop
  endfacet
  facet normal 0 0 1
    outer loop
      vertex 6.27246 4.76514 2
      vertex 3.73584 2.44385 2
      vertex 5.38135 3.19238 2
    endloop
  endfacet
  facet normal 0 0 1
    outer loop
      vertex -2.2168 -3.91602 2
      vertex -6.86914 -7.7749 2
      vertex -5.10254 -9.0332 2
    endloop
  endfacet
  facet normal 0 0 1
    outer loop
      vertex -2.98145 -3.37061 2
      vertex -3.61621 -2.67871 2
      vertex -8.33594 -6.17676 2
    endloop
  endfacet
  facet normal 0 0 1
    outer loop
      vertex -9.43799 -4.30859 2
      vertex -4.09326 -1.86963 2
      vertex -4.39209 -0.979004 2
    endloop
  endfacet
  facet normal -0 0 1
    outer loop
      vertex -10.3745 -0.0976562 2
      vertex -10.1274 -2.25244 2
      vertex -4.5 -0.0458984 2
    endloop
  endfacet
  facet normal 0 0 1
    outer loop
      vertex -10.3745 -0.0976562 2
      vertex -4.5 -0.0458984 2
      vertex -4.41113 0.88916 2
    endloop
  endfacet
  facet normal 0 0 1
    outer loop
      vertex 6.06885 6.56152 2
      vertex 3.73584 2.44385 2
      vertex 6.27246 4.76514 2
    endloop
  endfacet
  facet normal 0 0 1
    outer loop
      vertex -10.3745 -0.0976562 2
      vertex -4.41113 0.88916 2
      vertex -10.168 2.06152 2
    endloop
  endfacet
  facet normal 0 -0 1
    outer loop
      vertex -3.0498 3.30908 2
      vertex -0.685059 5.48828 2
      vertex -7.01465 7.64453 2
    endloop
  endfacet
  facet normal -0 0 1
    outer loop
      vertex -7.12988 12.7793 2
      vertex -6.14746 11.4565 2
      vertex -1.83203 15.4062 2
    endloop
  endfacet
  facet normal 0 0 1
    outer loop
      vertex -7.94287 19.1475 2
      vertex -2.39795 17.1548 2
      vertex -2.09326 18.0444 2
    endloop
  endfacet
  facet normal 0 0 1
    outer loop
      vertex -1.44727 18.7275 2
      vertex -3.84668 24.0908 2
      vertex -5.23242 23.1992 2
    endloop
  endfacet
  facet normal 0 0 1
    outer loop
      vertex 2.56152 24.4746 2
      vertex 0.963867 24.8779 2
      vertex 0.36377 19.0396 2
    endloop
  endfacet
  facet normal -0 0 1
    outer loop
      vertex 2.01172 16.9624 2
      vertex 7.8623 16.8418 2
      vertex 7.70557 18.4824 2
    endloop
  endfacet
  facet normal -0 -0 1
    outer loop
      vertex 2.82178 2.48389 2
      vertex 3.73584 2.44385 2
      vertex 1.96484 2.80518 2
    endloop
  endfacet
  facet normal 0 0 1
    outer loop
      vertex 3.73584 2.44385 2
      vertex 4.61816 2.6875 2
      vertex 5.38135 3.19238 2
    endloop
  endfacet
  facet normal 0 0 1
    outer loop
      vertex 6.31299 5.6792 2
      vertex 6.06885 6.56152 2
      vertex 6.27246 4.76514 2
    endloop
  endfacet
  facet normal 0 0 1
    outer loop
      vertex 5.38135 3.19238 2
      vertex 5.95166 3.9082 2
      vertex 6.27246 4.76514 2
    endloop
  endfacet
  facet normal -0 0 1
    outer loop
      vertex 1.96484 2.80518 2
      vertex 3.73584 2.44385 2
      vertex 5.56445 7.32471 2
    endloop
  endfacet
  facet normal 0 -0 1
    outer loop
      vertex 1.96484 2.80518 2
      vertex 5.56445 7.32471 2
      vertex 1.24902 3.375 2
    endloop
  endfacet
  facet normal 0 0 1
    outer loop
      vertex 5.56445 7.32471 2
      vertex -0.685059 5.48828 2
      vertex 1.24902 3.375 2
    endloop
  endfacet
  facet normal 0 0 1
    outer loop
      vertex 3.6167 9.45312 2
      vertex -0.685059 5.48828 2
      vertex 5.56445 7.32471 2
    endloop
  endfacet
  facet normal 0 0 1
    outer loop
      vertex 7.68213 15.2041 2
      vertex 2.01172 16.9624 2
      vertex 1.83789 16.0381 2
    endloop
  endfacet
  facet normal 0 0 1
    outer loop
      vertex 6.42236 21.499 2
      vertex 1.78613 17.8755 2
      vertex 7.21875 20.0566 2
    endloop
  endfacet
  facet normal 0 0 1
    outer loop
      vertex 4.04395 23.7554 2
      vertex 1.20166 18.6118 2
      vertex 5.34912 22.749 2
    endloop
  endfacet
  facet normal 0 0 1
    outer loop
      vertex 2.56152 24.4746 2
      vertex 0.36377 19.0396 2
      vertex 4.04395 23.7554 2
    endloop
  endfacet
  facet normal 0 0 1
    outer loop
      vertex 0.963867 24.8779 2
      vertex -0.575684 19.0806 2
      vertex 0.36377 19.0396 2
    endloop
  endfacet
  facet normal 0 0 1
    outer loop
      vertex 5.34912 22.749 2
      vertex 1.20166 18.6118 2
      vertex 6.42236 21.499 2
    endloop
  endfacet
  facet normal 0 0 1
    outer loop
      vertex -2.30859 24.6816 2
      vertex -3.84668 24.0908 2
      vertex -0.575684 19.0806 2
    endloop
  endfacet
  facet normal 0 0 1
    outer loop
      vertex -0.682617 24.9482 2
      vertex -2.30859 24.6816 2
      vertex -0.575684 19.0806 2
    endloop
  endfacet
  facet normal 0 0 1
    outer loop
      vertex -2.09326 18.0444 2
      vertex -6.4082 22.0444 2
      vertex -7.32422 20.6748 2
    endloop
  endfacet
  facet normal 0 0 1
    outer loop
      vertex -8.23828 17.5264 2
      vertex -8.19775 15.8789 2
      vertex -2.39795 17.1548 2
    endloop
  endfacet
  facet normal 0 0 1
    outer loop
      vertex -8.19775 15.8789 2
      vertex -2.30518 16.2188 2
      vertex -2.39795 17.1548 2
    endloop
  endfacet
  facet normal 0 -0 1
    outer loop
      vertex -7.82324 14.2744 2
      vertex -2.30518 16.2188 2
      vertex -8.19775 15.8789 2
    endloop
  endfacet
  facet normal 0 -0 1
    outer loop
      vertex -7.12988 12.7793 2
      vertex -2.30518 16.2188 2
      vertex -7.82324 14.2744 2
    endloop
  endfacet
  facet normal 0 0 1
    outer loop
      vertex -7.12988 12.7793 2
      vertex -1.83203 15.4062 2
      vertex -2.30518 16.2188 2
    endloop
  endfacet
  facet normal 0 0 1
    outer loop
      vertex -0.336426 13.772 2
      vertex -1.83203 15.4062 2
      vertex -6.14746 11.4565 2
    endloop
  endfacet
  facet normal 0 0 1
    outer loop
      vertex -0.336426 13.772 2
      vertex -6.14746 11.4565 2
      vertex -4.64697 9.81689 2
    endloop
  endfacet
  facet normal 0 0 1
    outer loop
      vertex -3.0498 3.30908 2
      vertex -7.01465 7.64453 2
      vertex -8.45068 6.01904 2
    endloop
  endfacet
  facet normal 0 0 1
    outer loop
      vertex -9.51709 4.13037 2
      vertex -4.13086 1.78516 2
      vertex -3.66992 2.604 2
    endloop
  endfacet
  facet normal -0 0 1
    outer loop
      vertex -10.168 2.06152 2
      vertex -4.13086 1.78516 2
      vertex -9.51709 4.13037 2
    endloop
  endfacet
  facet normal 0 0 1
    outer loop
      vertex -8.45068 6.01904 2
      vertex -9.51709 4.13037 2
      vertex -3.66992 2.604 2
    endloop
  endfacet
  facet normal 0 0 1
    outer loop
      vertex -3.0498 3.30908 2
      vertex -8.45068 6.01904 2
      vertex -3.66992 2.604 2
    endloop
  endfacet
  facet normal 0 0 1
    outer loop
      vertex -0.336426 13.772 2
      vertex -4.64697 9.81689 2
      vertex 3.6167 9.45312 2
    endloop
  endfacet
  facet normal 0 0 1
    outer loop
      vertex -0.336426 13.772 2
      vertex 3.6167 9.45312 2
      vertex 5.26416 10.9717 2
    endloop
  endfacet
  facet normal 0 0 1
    outer loop
      vertex -0.685059 5.48828 2
      vertex -4.64697 9.81689 2
      vertex -7.01465 7.64453 2
    endloop
  endfacet
  facet normal 0 -0 1
    outer loop
      vertex -0.685059 5.48828 2
      vertex 3.6167 9.45312 2
      vertex -4.64697 9.81689 2
    endloop
  endfacet
  facet normal 0 -0 1
    outer loop
      vertex -4.41113 0.88916 2
      vertex -4.13086 1.78516 2
      vertex -10.168 2.06152 2
    endloop
  endfacet
  facet normal 0 0 1
    outer loop
      vertex -10.1274 -2.25244 2
      vertex -4.39209 -0.979004 2
      vertex -4.5 -0.0458984 2
    endloop
  endfacet
  facet normal 0 -0 1
    outer loop
      vertex -9.43799 -4.30859 2
      vertex -4.39209 -0.979004 2
      vertex -10.1274 -2.25244 2
    endloop
  endfacet
  facet normal 0 0 1
    outer loop
      vertex -3.61621 -2.67871 2
      vertex -4.09326 -1.86963 2
      vertex -9.43799 -4.30859 2
    endloop
  endfacet
  facet normal 0 0 1
    outer loop
      vertex -3.61621 -2.67871 2
      vertex -9.43799 -4.30859 2
      vertex -8.33594 -6.17676 2
    endloop
  endfacet
  facet normal 0 0 1
    outer loop
      vertex -2.98145 -3.37061 2
      vertex -8.33594 -6.17676 2
      vertex -6.86914 -7.7749 2
    endloop
  endfacet
  facet normal 0 0 1
    outer loop
      vertex -2.98145 -3.37061 2
      vertex -6.86914 -7.7749 2
      vertex -2.2168 -3.91602 2
    endloop
  endfacet
  facet normal 0 0 1
    outer loop
      vertex -2.2168 -3.91602 2
      vertex -5.10254 -9.0332 2
      vertex -1.35547 -4.29102 2
    endloop
  endfacet
  facet normal -0 0 1
    outer loop
      vertex -5.10254 -9.0332 2
      vertex -3.11279 -9.89697 2
      vertex -1.35547 -4.29102 2
    endloop
  endfacet
  facet normal -0 0 1
    outer loop
      vertex -3.11279 -9.89697 2
      vertex -0.987305 -10.3276 2
      vertex -0.435059 -4.479 2
    endloop
  endfacet
  facet normal 0 -0 1
    outer loop
      vertex 6.35547 12.2061 2
      vertex 7.17285 13.6367 2
      vertex 1.83789 16.0381 2
    endloop
  endfacet
  facet normal 0 0 1
    outer loop
      vertex -6.4082 22.0444 2
      vertex -2.09326 18.0444 2
      vertex -1.44727 18.7275 2
    endloop
  endfacet
  facet normal -0 0 1
    outer loop
      vertex -8.23828 17.5264 2
      vertex -2.39795 17.1548 2
      vertex -7.94287 19.1475 2
    endloop
  endfacet
  facet normal -0 0 1
    outer loop
      vertex -7.94287 19.1475 2
      vertex -2.09326 18.0444 2
      vertex -7.32422 20.6748 2
    endloop
  endfacet
  facet normal -0 0 1
    outer loop
      vertex -6.4082 22.0444 2
      vertex -1.44727 18.7275 2
      vertex -5.23242 23.1992 2
    endloop
  endfacet
  facet normal 0 0 1
    outer loop
      vertex -0.575684 19.0806 2
      vertex -3.84668 24.0908 2
      vertex -1.44727 18.7275 2
    endloop
  endfacet
  facet normal 0 0 1
    outer loop
      vertex 0.963867 24.8779 2
      vertex -0.682617 24.9482 2
      vertex -0.575684 19.0806 2
    endloop
  endfacet
  facet normal -0 0 1
    outer loop
      vertex 0.36377 19.0396 2
      vertex 1.20166 18.6118 2
      vertex 4.04395 23.7554 2
    endloop
  endfacet
  facet normal -0 0 1
    outer loop
      vertex 1.20166 18.6118 2
      vertex 1.78613 17.8755 2
      vertex 6.42236 21.499 2
    endloop
  endfacet
  facet normal 0 -0 1
    outer loop
      vertex 2.01172 16.9624 2
      vertex 7.70557 18.4824 2
      vertex 1.78613 17.8755 2
    endloop
  endfacet
  facet normal 0 0 1
    outer loop
      vertex 1.78613 17.8755 2
      vertex 7.70557 18.4824 2
      vertex 7.21875 20.0566 2
    endloop
  endfacet
  facet normal 0 0 1
    outer loop
      vertex 2.01172 16.9624 2
      vertex 7.68213 15.2041 2
      vertex 7.8623 16.8418 2
    endloop
  endfacet
  facet normal 0 0 1
    outer loop
      vertex 1.83789 16.0381 2
      vertex 7.17285 13.6367 2
      vertex 7.68213 15.2041 2
    endloop
  endfacet
  facet normal -0 0 1
    outer loop
      vertex 1.2959 15.27 2
      vertex 6.35547 12.2061 2
      vertex 1.83789 16.0381 2
    endloop
  endfacet
  facet normal 0 0 1
    outer loop
      vertex 5.26416 10.9717 2
      vertex 1.2959 15.27 2
      vertex -0.336426 13.772 2
    endloop
  endfacet
  facet normal 0 -0 1
    outer loop
      vertex 5.26416 10.9717 2
      vertex 6.35547 12.2061 2
      vertex 1.2959 15.27 2
    endloop
  endfacet
  facet normal 0.21724 -0.976118 0
    outer loop
      vertex 3.29883 -9.83643 0
      vertex 1.18164 -10.3076 2
      vertex 1.18164 -10.3076 0
    endloop
  endfacet
  facet normal 0.21724 -0.976118 0
    outer loop
      vertex 3.29883 -9.83643 0
      vertex 3.29883 -9.83643 2
      vertex 1.18164 -10.3076 2
    endloop
  endfacet
  facet normal 0.415329 -0.909671 0
    outer loop
      vertex 5.27197 -8.93555 0
      vertex 3.29883 -9.83643 2
      vertex 3.29883 -9.83643 0
    endloop
  endfacet
  facet normal 0.415329 -0.909671 0
    outer loop
      vertex 5.27197 -8.93555 0
      vertex 5.27197 -8.93555 2
      vertex 3.29883 -9.83643 2
    endloop
  endfacet
  facet normal 0.595271 -0.803525 0
    outer loop
      vertex 7.01465 -7.64453 0
      vertex 5.27197 -8.93555 2
      vertex 5.27197 -8.93555 0
    endloop
  endfacet
  facet normal 0.595271 -0.803525 0
    outer loop
      vertex 7.01465 -7.64453 0
      vertex 7.01465 -7.64453 2
      vertex 5.27197 -8.93555 2
    endloop
  endfacet
  facet normal 0.67612 -0.736792 0
    outer loop
      vertex 13.3237 -1.85498 0
      vertex 7.01465 -7.64453 2
      vertex 7.01465 -7.64453 0
    endloop
  endfacet
  facet normal 0.67612 -0.736792 0
    outer loop
      vertex 13.3237 -1.85498 0
      vertex 13.3237 -1.85498 2
      vertex 7.01465 -7.64453 2
    endloop
  endfacet
  facet normal 0.782897 -0.622152 0
    outer loop
      vertex 13.8926 -1.13916 0
      vertex 13.3237 -1.85498 2
      vertex 13.3237 -1.85498 0
    endloop
  endfacet
  facet normal 0.782897 -0.622152 0
    outer loop
      vertex 13.8926 -1.13916 0
      vertex 13.8926 -1.13916 2
      vertex 13.3237 -1.85498 2
    endloop
  endfacet
  facet normal 0.936811 -0.349835 0
    outer loop
      vertex 14.2124 -0.282715 0
      vertex 13.8926 -1.13916 2
      vertex 13.8926 -1.13916 0
    endloop
  endfacet
  facet normal 0.936811 -0.349835 0
    outer loop
      vertex 14.2124 -0.282715 0
      vertex 14.2124 -0.282715 2
      vertex 13.8926 -1.13916 2
    endloop
  endfacet
  facet normal 0.99904 -0.0438082 0
    outer loop
      vertex 14.2524 0.630371 0
      vertex 14.2124 -0.282715 2
      vertex 14.2124 -0.282715 0
    endloop
  endfacet
  facet normal 0.99904 -0.0438082 0
    outer loop
      vertex 14.2524 0.630371 0
      vertex 14.2524 0.630371 2
      vertex 14.2124 -0.282715 2
    endloop
  endfacet
  facet normal 0.963709 0.266955 0
    outer loop
      vertex 14.0083 1.51172 0
      vertex 14.2524 0.630371 2
      vertex 14.2524 0.630371 0
    endloop
  endfacet
  facet normal 0.963709 0.266955 -0
    outer loop
      vertex 14.0083 1.51172 0
      vertex 14.0083 1.51172 2
      vertex 14.2524 0.630371 2
    endloop
  endfacet
  facet normal 0.834098 0.551616 0
    outer loop
      vertex 13.5039 2.27441 0
      vertex 14.0083 1.51172 2
      vertex 14.0083 1.51172 0
    endloop
  endfacet
  facet normal 0.834098 0.551616 -0
    outer loop
      vertex 13.5039 2.27441 0
      vertex 13.5039 2.27441 2
      vertex 14.0083 1.51172 2
    endloop
  endfacet
  facet normal 0.623326 0.781962 0
    outer loop
      vertex 12.7891 2.84424 0
      vertex 13.5039 2.27441 2
      vertex 13.5039 2.27441 0
    endloop
  endfacet
  facet normal 0.623326 0.781962 -0
    outer loop
      vertex 12.7891 2.84424 0
      vertex 12.7891 2.84424 2
      vertex 13.5039 2.27441 2
    endloop
  endfacet
  facet normal 0.351416 0.936219 0
    outer loop
      vertex 11.9331 3.16553 0
      vertex 12.7891 2.84424 2
      vertex 12.7891 2.84424 0
    endloop
  endfacet
  facet normal 0.351416 0.936219 -0
    outer loop
      vertex 11.9331 3.16553 0
      vertex 11.9331 3.16553 2
      vertex 12.7891 2.84424 2
    endloop
  endfacet
  facet normal 0.0448506 0.998994 0
    outer loop
      vertex 11.0195 3.20654 0
      vertex 11.9331 3.16553 2
      vertex 11.9331 3.16553 0
    endloop
  endfacet
  facet normal 0.0448506 0.998994 -0
    outer loop
      vertex 11.0195 3.20654 0
      vertex 11.0195 3.20654 2
      vertex 11.9331 3.16553 2
    endloop
  endfacet
  facet normal -0.265467 0.96412 0
    outer loop
      vertex 10.1382 2.96387 0
      vertex 11.0195 3.20654 2
      vertex 11.0195 3.20654 0
    endloop
  endfacet
  facet normal -0.265467 0.96412 0
    outer loop
      vertex 10.1382 2.96387 0
      vertex 10.1382 2.96387 2
      vertex 11.0195 3.20654 2
    endloop
  endfacet
  facet normal -0.550009 0.835159 0
    outer loop
      vertex 9.37451 2.46094 0
      vertex 10.1382 2.96387 2
      vertex 10.1382 2.96387 0
    endloop
  endfacet
  facet normal -0.550009 0.835159 0
    outer loop
      vertex 9.37451 2.46094 0
      vertex 9.37451 2.46094 2
      vertex 10.1382 2.96387 2
    endloop
  endfacet
  facet normal -0.673971 0.738758 0
    outer loop
      vertex 3.03271 -3.32471 0
      vertex 9.37451 2.46094 2
      vertex 9.37451 2.46094 0
    endloop
  endfacet
  facet normal -0.673971 0.738758 0
    outer loop
      vertex 3.03271 -3.32471 0
      vertex 3.03271 -3.32471 2
      vertex 9.37451 2.46094 2
    endloop
  endfacet
  facet normal -0.593075 0.805147 0
    outer loop
      vertex 2.27637 -3.88184 0
      vertex 3.03271 -3.32471 2
      vertex 3.03271 -3.32471 0
    endloop
  endfacet
  facet normal -0.593075 0.805147 0
    outer loop
      vertex 2.27637 -3.88184 0
      vertex 2.27637 -3.88184 2
      vertex 3.03271 -3.32471 2
    endloop
  endfacet
  facet normal -0.41298 0.91074 0
    outer loop
      vertex 1.42139 -4.26953 0
      vertex 2.27637 -3.88184 2
      vertex 2.27637 -3.88184 0
    endloop
  endfacet
  facet normal -0.41298 0.91074 0
    outer loop
      vertex 1.42139 -4.26953 0
      vertex 1.42139 -4.26953 2
      vertex 2.27637 -3.88184 2
    endloop
  endfacet
  facet normal -0.215169 0.976577 0
    outer loop
      vertex 0.503906 -4.47168 0
      vertex 1.42139 -4.26953 2
      vertex 1.42139 -4.26953 0
    endloop
  endfacet
  facet normal -0.215169 0.976577 0
    outer loop
      vertex 0.503906 -4.47168 0
      vertex 0.503906 -4.47168 2
      vertex 1.42139 -4.26953 2
    endloop
  endfacet
  facet normal -0.00780007 0.99997 0
    outer loop
      vertex -0.435059 -4.479 0
      vertex 0.503906 -4.47168 2
      vertex 0.503906 -4.47168 0
    endloop
  endfacet
  facet normal -0.00780007 0.99997 0
    outer loop
      vertex -0.435059 -4.479 0
      vertex -0.435059 -4.479 2
      vertex 0.503906 -4.47168 2
    endloop
  endfacet
  facet normal 0.200113 0.979773 0
    outer loop
      vertex -1.35547 -4.29102 0
      vertex -0.435059 -4.479 2
      vertex -0.435059 -4.479 0
    endloop
  endfacet
  facet normal 0.200113 0.979773 -0
    outer loop
      vertex -1.35547 -4.29102 0
      vertex -1.35547 -4.29102 2
      vertex -0.435059 -4.479 2
    endloop
  endfacet
  facet normal 0.399182 0.916872 0
    outer loop
      vertex -2.2168 -3.91602 0
      vertex -1.35547 -4.29102 2
      vertex -1.35547 -4.29102 0
    endloop
  endfacet
  facet normal 0.399182 0.916872 -0
    outer loop
      vertex -2.2168 -3.91602 0
      vertex -2.2168 -3.91602 2
      vertex -1.35547 -4.29102 2
    endloop
  endfacet
  facet normal 0.580697 0.81412 0
    outer loop
      vertex -2.98145 -3.37061 0
      vertex -2.2168 -3.91602 2
      vertex -2.2168 -3.91602 0
    endloop
  endfacet
  facet normal 0.580697 0.81412 -0
    outer loop
      vertex -2.98145 -3.37061 0
      vertex -2.98145 -3.37061 2
      vertex -2.2168 -3.91602 2
    endloop
  endfacet
  facet normal 0.736873 0.676031 0
    outer loop
      vertex -3.61621 -2.67871 0
      vertex -2.98145 -3.37061 2
      vertex -2.98145 -3.37061 0
    endloop
  endfacet
  facet normal 0.736873 0.676031 -0
    outer loop
      vertex -3.61621 -2.67871 0
      vertex -3.61621 -2.67871 2
      vertex -2.98145 -3.37061 2
    endloop
  endfacet
  facet normal 0.861413 0.507906 0
    outer loop
      vertex -4.09326 -1.86963 0
      vertex -3.61621 -2.67871 2
      vertex -3.61621 -2.67871 0
    endloop
  endfacet
  facet normal 0.861413 0.507906 -0
    outer loop
      vertex -4.09326 -1.86963 0
      vertex -4.09326 -1.86963 2
      vertex -3.61621 -2.67871 2
    endloop
  endfacet
  facet normal 0.948058 0.318098 0
    outer loop
      vertex -4.39209 -0.979004 0
      vertex -4.09326 -1.86963 2
      vertex -4.09326 -1.86963 0
    endloop
  endfacet
  facet normal 0.948058 0.318098 -0
    outer loop
      vertex -4.39209 -0.979004 0
      vertex -4.39209 -0.979004 2
      vertex -4.09326 -1.86963 2
    endloop
  endfacet
  facet normal 0.993379 0.114881 0
    outer loop
      vertex -4.5 -0.0458984 0
      vertex -4.39209 -0.979004 2
      vertex -4.39209 -0.979004 0
    endloop
  endfacet
  facet normal 0.993379 0.114881 -0
    outer loop
      vertex -4.5 -0.0458984 0
      vertex -4.5 -0.0458984 2
      vertex -4.39209 -0.979004 2
    endloop
  endfacet
  facet normal 0.995514 -0.0946128 0
    outer loop
      vertex -4.41113 0.88916 0
      vertex -4.5 -0.0458984 2
      vertex -4.5 -0.0458984 0
    endloop
  endfacet
  facet normal 0.995514 -0.0946128 0
    outer loop
      vertex -4.41113 0.88916 0
      vertex -4.41113 0.88916 2
      vertex -4.5 -0.0458984 2
    endloop
  endfacet
  facet normal 0.954397 -0.298542 0
    outer loop
      vertex -4.13086 1.78516 0
      vertex -4.41113 0.88916 2
      vertex -4.41113 0.88916 0
    endloop
  endfacet
  facet normal 0.954397 -0.298542 0
    outer loop
      vertex -4.13086 1.78516 0
      vertex -4.13086 1.78516 2
      vertex -4.41113 0.88916 2
    endloop
  endfacet
  facet normal 0.871423 -0.490533 0
    outer loop
      vertex -3.66992 2.604 0
      vertex -4.13086 1.78516 2
      vertex -4.13086 1.78516 0
    endloop
  endfacet
  facet normal 0.871423 -0.490533 0
    outer loop
      vertex -3.66992 2.604 0
      vertex -3.66992 2.604 2
      vertex -4.13086 1.78516 2
    endloop
  endfacet
  facet normal 0.750899 -0.660417 0
    outer loop
      vertex -3.0498 3.30908 0
      vertex -3.66992 2.604 2
      vertex -3.66992 2.604 0
    endloop
  endfacet
  facet normal 0.750899 -0.660417 0
    outer loop
      vertex -3.0498 3.30908 0
      vertex -3.0498 3.30908 2
      vertex -3.66992 2.604 2
    endloop
  endfacet
  facet normal 0.677668 -0.735368 0
    outer loop
      vertex -0.685059 5.48828 0
      vertex -3.0498 3.30908 2
      vertex -3.0498 3.30908 0
    endloop
  endfacet
  facet normal 0.677668 -0.735368 0
    outer loop
      vertex -0.685059 5.48828 0
      vertex -0.685059 5.48828 2
      vertex -3.0498 3.30908 2
    endloop
  endfacet
  facet normal -0.737692 -0.675138 0
    outer loop
      vertex 1.24902 3.375 0
      vertex -0.685059 5.48828 2
      vertex -0.685059 5.48828 0
    endloop
  endfacet
  facet normal -0.737692 -0.675138 0
    outer loop
      vertex 1.24902 3.375 0
      vertex 1.24902 3.375 2
      vertex -0.685059 5.48828 2
    endloop
  endfacet
  facet normal -0.622806 -0.782376 0
    outer loop
      vertex 1.96484 2.80518 0
      vertex 1.24902 3.375 2
      vertex 1.24902 3.375 0
    endloop
  endfacet
  facet normal -0.622806 -0.782376 0
    outer loop
      vertex 1.96484 2.80518 0
      vertex 1.96484 2.80518 2
      vertex 1.24902 3.375 2
    endloop
  endfacet
  facet normal -0.351065 -0.936351 0
    outer loop
      vertex 2.82178 2.48389 0
      vertex 1.96484 2.80518 2
      vertex 1.96484 2.80518 0
    endloop
  endfacet
  facet normal -0.351065 -0.936351 0
    outer loop
      vertex 2.82178 2.48389 0
      vertex 2.82178 2.48389 2
      vertex 1.96484 2.80518 2
    endloop
  endfacet
  facet normal -0.0437615 -0.999042 0
    outer loop
      vertex 3.73584 2.44385 0
      vertex 2.82178 2.48389 2
      vertex 2.82178 2.48389 0
    endloop
  endfacet
  facet normal -0.0437615 -0.999042 0
    outer loop
      vertex 3.73584 2.44385 0
      vertex 3.73584 2.44385 2
      vertex 2.82178 2.48389 2
    endloop
  endfacet
  facet normal 0.266185 -0.963922 0
    outer loop
      vertex 4.61816 2.6875 0
      vertex 3.73584 2.44385 2
      vertex 3.73584 2.44385 0
    endloop
  endfacet
  facet normal 0.266185 -0.963922 0
    outer loop
      vertex 4.61816 2.6875 0
      vertex 4.61816 2.6875 2
      vertex 3.73584 2.44385 2
    endloop
  endfacet
  facet normal 0.551741 -0.834015 0
    outer loop
      vertex 5.38135 3.19238 0
      vertex 4.61816 2.6875 2
      vertex 4.61816 2.6875 0
    endloop
  endfacet
  facet normal 0.551741 -0.834015 0
    outer loop
      vertex 5.38135 3.19238 0
      vertex 5.38135 3.19238 2
      vertex 4.61816 2.6875 2
    endloop
  endfacet
  facet normal 0.782116 -0.623132 0
    outer loop
      vertex 5.95166 3.9082 0
      vertex 5.38135 3.19238 2
      vertex 5.38135 3.19238 0
    endloop
  endfacet
  facet normal 0.782116 -0.623132 0
    outer loop
      vertex 5.95166 3.9082 0
      vertex 5.95166 3.9082 2
      vertex 5.38135 3.19238 2
    endloop
  endfacet
  facet normal 0.936526 -0.350597 0
    outer loop
      vertex 6.27246 4.76514 0
      vertex 5.95166 3.9082 2
      vertex 5.95166 3.9082 0
    endloop
  endfacet
  facet normal 0.936526 -0.350597 0
    outer loop
      vertex 6.27246 4.76514 0
      vertex 6.27246 4.76514 2
      vertex 5.95166 3.9082 2
    endloop
  endfacet
  facet normal 0.999019 -0.0442941 0
    outer loop
      vertex 6.31299 5.6792 0
      vertex 6.27246 4.76514 2
      vertex 6.27246 4.76514 0
    endloop
  endfacet
  facet normal 0.999019 -0.0442941 0
    outer loop
      vertex 6.31299 5.6792 0
      vertex 6.31299 5.6792 2
      vertex 6.27246 4.76514 2
    endloop
  endfacet
  facet normal 0.963785 0.266681 0
    outer loop
      vertex 6.06885 6.56152 0
      vertex 6.31299 5.6792 2
      vertex 6.31299 5.6792 0
    endloop
  endfacet
  facet normal 0.963785 0.266681 -0
    outer loop
      vertex 6.06885 6.56152 0
      vertex 6.06885 6.56152 2
      vertex 6.31299 5.6792 2
    endloop
  endfacet
  facet normal 0.834261 0.55137 0
    outer loop
      vertex 5.56445 7.32471 0
      vertex 6.06885 6.56152 2
      vertex 6.06885 6.56152 0
    endloop
  endfacet
  facet normal 0.834261 0.55137 -0
    outer loop
      vertex 5.56445 7.32471 0
      vertex 5.56445 7.32471 2
      vertex 6.06885 6.56152 2
    endloop
  endfacet
  facet normal 0.737723 0.675104 0
    outer loop
      vertex 3.6167 9.45312 0
      vertex 5.56445 7.32471 2
      vertex 5.56445 7.32471 0
    endloop
  endfacet
  facet normal 0.737723 0.675104 -0
    outer loop
      vertex 3.6167 9.45312 0
      vertex 3.6167 9.45312 2
      vertex 5.56445 7.32471 2
    endloop
  endfacet
  facet normal 0.677755 -0.735288 0
    outer loop
      vertex 5.26416 10.9717 0
      vertex 3.6167 9.45312 2
      vertex 3.6167 9.45312 0
    endloop
  endfacet
  facet normal 0.677755 -0.735288 0
    outer loop
      vertex 5.26416 10.9717 0
      vertex 5.26416 10.9717 2
      vertex 3.6167 9.45312 2
    endloop
  endfacet
  facet normal 0.749189 -0.662356 0
    outer loop
      vertex 6.35547 12.2061 0
      vertex 5.26416 10.9717 2
      vertex 5.26416 10.9717 0
    endloop
  endfacet
  facet normal 0.749189 -0.662356 0
    outer loop
      vertex 6.35547 12.2061 0
      vertex 6.35547 12.2061 2
      vertex 5.26416 10.9717 2
    endloop
  endfacet
  facet normal 0.86828 -0.496075 0
    outer loop
      vertex 7.17285 13.6367 0
      vertex 6.35547 12.2061 2
      vertex 6.35547 12.2061 0
    endloop
  endfacet
  facet normal 0.86828 -0.496075 0
    outer loop
      vertex 7.17285 13.6367 0
      vertex 7.17285 13.6367 2
      vertex 6.35547 12.2061 2
    endloop
  endfacet
  facet normal 0.951056 -0.309019 0
    outer loop
      vertex 7.68213 15.2041 0
      vertex 7.17285 13.6367 2
      vertex 7.17285 13.6367 0
    endloop
  endfacet
  facet normal 0.951056 -0.309019 0
    outer loop
      vertex 7.68213 15.2041 0
      vertex 7.68213 15.2041 2
      vertex 7.17285 13.6367 2
    endloop
  endfacet
  facet normal 0.994002 -0.109358 0
    outer loop
      vertex 7.8623 16.8418 0
      vertex 7.68213 15.2041 2
      vertex 7.68213 15.2041 0
    endloop
  endfacet
  facet normal 0.994002 -0.109358 0
    outer loop
      vertex 7.8623 16.8418 0
      vertex 7.8623 16.8418 2
      vertex 7.68213 15.2041 2
    endloop
  endfacet
  facet normal 0.995467 0.0951027 0
    outer loop
      vertex 7.70557 18.4824 0
      vertex 7.8623 16.8418 2
      vertex 7.8623 16.8418 0
    endloop
  endfacet
  facet normal 0.995467 0.0951027 -0
    outer loop
      vertex 7.70557 18.4824 0
      vertex 7.70557 18.4824 2
      vertex 7.8623 16.8418 2
    endloop
  endfacet
  facet normal 0.955362 0.295439 0
    outer loop
      vertex 7.21875 20.0566 0
      vertex 7.70557 18.4824 2
      vertex 7.70557 18.4824 0
    endloop
  endfacet
  facet normal 0.955362 0.295439 -0
    outer loop
      vertex 7.21875 20.0566 0
      vertex 7.21875 20.0566 2
      vertex 7.70557 18.4824 2
    endloop
  endfacet
  facet normal 0.875426 0.483352 0
    outer loop
      vertex 6.42236 21.499 0
      vertex 7.21875 20.0566 2
      vertex 7.21875 20.0566 0
    endloop
  endfacet
  facet normal 0.875426 0.483352 -0
    outer loop
      vertex 6.42236 21.499 0
      vertex 6.42236 21.499 2
      vertex 7.21875 20.0566 2
    endloop
  endfacet
  facet normal 0.758712 0.651426 0
    outer loop
      vertex 5.34912 22.749 0
      vertex 6.42236 21.499 2
      vertex 6.42236 21.499 0
    endloop
  endfacet
  facet normal 0.758712 0.651426 -0
    outer loop
      vertex 5.34912 22.749 0
      vertex 5.34912 22.749 2
      vertex 6.42236 21.499 2
    endloop
  endfacet
  facet normal 0.610612 0.79193 0
    outer loop
      vertex 4.04395 23.7554 0
      vertex 5.34912 22.749 2
      vertex 5.34912 22.749 0
    endloop
  endfacet
  facet normal 0.610612 0.79193 -0
    outer loop
      vertex 4.04395 23.7554 0
      vertex 4.04395 23.7554 2
      vertex 5.34912 22.749 2
    endloop
  endfacet
  facet normal 0.436513 0.899698 0
    outer loop
      vertex 2.56152 24.4746 0
      vertex 4.04395 23.7554 2
      vertex 4.04395 23.7554 0
    endloop
  endfacet
  facet normal 0.436513 0.899698 -0
    outer loop
      vertex 2.56152 24.4746 0
      vertex 2.56152 24.4746 2
      vertex 4.04395 23.7554 2
    endloop
  endfacet
  facet normal 0.244766 0.969582 0
    outer loop
      vertex 0.963867 24.8779 0
      vertex 2.56152 24.4746 2
      vertex 2.56152 24.4746 0
    endloop
  endfacet
  facet normal 0.244766 0.969582 -0
    outer loop
      vertex 0.963867 24.8779 0
      vertex 0.963867 24.8779 2
      vertex 2.56152 24.4746 2
    endloop
  endfacet
  facet normal 0.0426657 0.999089 0
    outer loop
      vertex -0.682617 24.9482 0
      vertex 0.963867 24.8779 2
      vertex 0.963867 24.8779 0
    endloop
  endfacet
  facet normal 0.0426657 0.999089 -0
    outer loop
      vertex -0.682617 24.9482 0
      vertex -0.682617 24.9482 2
      vertex 0.963867 24.8779 2
    endloop
  endfacet
  facet normal -0.161803 0.986823 0
    outer loop
      vertex -2.30859 24.6816 0
      vertex -0.682617 24.9482 2
      vertex -0.682617 24.9482 0
    endloop
  endfacet
  facet normal -0.161803 0.986823 0
    outer loop
      vertex -2.30859 24.6816 0
      vertex -2.30859 24.6816 2
      vertex -0.682617 24.9482 2
    endloop
  endfacet
  facet normal -0.358582 0.933498 0
    outer loop
      vertex -3.84668 24.0908 0
      vertex -2.30859 24.6816 2
      vertex -2.30859 24.6816 0
    endloop
  endfacet
  facet normal -0.358582 0.933498 0
    outer loop
      vertex -3.84668 24.0908 0
      vertex -3.84668 24.0908 2
      vertex -2.30859 24.6816 2
    endloop
  endfacet
  facet normal -0.541087 0.840967 0
    outer loop
      vertex -5.23242 23.1992 0
      vertex -3.84668 24.0908 2
      vertex -3.84668 24.0908 0
    endloop
  endfacet
  facet normal -0.541087 0.840967 0
    outer loop
      vertex -5.23242 23.1992 0
      vertex -5.23242 23.1992 2
      vertex -3.84668 24.0908 2
    endloop
  endfacet
  facet normal -0.700708 0.713448 0
    outer loop
      vertex -6.4082 22.0444 0
      vertex -5.23242 23.1992 2
      vertex -5.23242 23.1992 0
    endloop
  endfacet
  facet normal -0.700708 0.713448 0
    outer loop
      vertex -6.4082 22.0444 0
      vertex -6.4082 22.0444 2
      vertex -5.23242 23.1992 2
    endloop
  endfacet
  facet normal -0.831229 0.555931 0
    outer loop
      vertex -7.32422 20.6748 0
      vertex -6.4082 22.0444 2
      vertex -6.4082 22.0444 0
    endloop
  endfacet
  facet normal -0.831229 0.555931 0
    outer loop
      vertex -7.32422 20.6748 0
      vertex -7.32422 20.6748 2
      vertex -6.4082 22.0444 2
    endloop
  endfacet
  facet normal -0.926854 0.375423 0
    outer loop
      vertex -7.94287 19.1475 0
      vertex -7.32422 20.6748 2
      vertex -7.32422 20.6748 0
    endloop
  endfacet
  facet normal -0.926854 0.375423 0
    outer loop
      vertex -7.94287 19.1475 0
      vertex -7.94287 19.1475 2
      vertex -7.32422 20.6748 2
    endloop
  endfacet
  facet normal -0.983799 0.179277 0
    outer loop
      vertex -8.23828 17.5264 0
      vertex -7.94287 19.1475 2
      vertex -7.94287 19.1475 0
    endloop
  endfacet
  facet normal -0.983799 0.179277 0
    outer loop
      vertex -8.23828 17.5264 0
      vertex -8.23828 17.5264 2
      vertex -7.94287 19.1475 2
    endloop
  endfacet
  facet normal -0.999698 -0.0245924 0
    outer loop
      vertex -8.19775 15.8789 0
      vertex -8.23828 17.5264 2
      vertex -8.23828 17.5264 0
    endloop
  endfacet
  facet normal -0.999698 -0.0245924 0
    outer loop
      vertex -8.19775 15.8789 0
      vertex -8.19775 15.8789 2
      vertex -8.23828 17.5264 2
    endloop
  endfacet
  facet normal -0.973824 -0.227305 0
    outer loop
      vertex -7.82324 14.2744 0
      vertex -8.19775 15.8789 2
      vertex -8.19775 15.8789 0
    endloop
  endfacet
  facet normal -0.973824 -0.227305 0
    outer loop
      vertex -7.82324 14.2744 0
      vertex -7.82324 14.2744 2
      vertex -8.19775 15.8789 2
    endloop
  endfacet
  facet normal -0.907195 -0.420711 0
    outer loop
      vertex -7.12988 12.7793 0
      vertex -7.82324 14.2744 2
      vertex -7.82324 14.2744 0
    endloop
  endfacet
  facet normal -0.907195 -0.420711 0
    outer loop
      vertex -7.12988 12.7793 0
      vertex -7.12988 12.7793 2
      vertex -7.82324 14.2744 2
    endloop
  endfacet
  facet normal -0.802801 -0.596248 0
    outer loop
      vertex -6.14746 11.4565 0
      vertex -7.12988 12.7793 2
      vertex -7.12988 12.7793 0
    endloop
  endfacet
  facet normal -0.802801 -0.596248 0
    outer loop
      vertex -6.14746 11.4565 0
      vertex -6.14746 11.4565 2
      vertex -7.12988 12.7793 2
    endloop
  endfacet
  facet normal -0.737719 -0.675108 0
    outer loop
      vertex -4.64697 9.81689 0
      vertex -6.14746 11.4565 2
      vertex -6.14746 11.4565 0
    endloop
  endfacet
  facet normal -0.737719 -0.675108 0
    outer loop
      vertex -4.64697 9.81689 0
      vertex -4.64697 9.81689 2
      vertex -6.14746 11.4565 2
    endloop
  endfacet
  facet normal -0.676062 0.736845 0
    outer loop
      vertex -7.01465 7.64453 0
      vertex -4.64697 9.81689 2
      vertex -4.64697 9.81689 0
    endloop
  endfacet
  facet normal -0.676062 0.736845 0
    outer loop
      vertex -7.01465 7.64453 0
      vertex -7.01465 7.64453 2
      vertex -4.64697 9.81689 2
    endloop
  endfacet
  facet normal -0.74943 0.662083 0
    outer loop
      vertex -8.45068 6.01904 0
      vertex -7.01465 7.64453 2
      vertex -7.01465 7.64453 0
    endloop
  endfacet
  facet normal -0.74943 0.662083 0
    outer loop
      vertex -8.45068 6.01904 0
      vertex -8.45068 6.01904 2
      vertex -7.01465 7.64453 2
    endloop
  endfacet
  facet normal -0.870781 0.491671 0
    outer loop
      vertex -9.51709 4.13037 0
      vertex -8.45068 6.01904 2
      vertex -8.45068 6.01904 0
    endloop
  endfacet
  facet normal -0.870781 0.491671 0
    outer loop
      vertex -9.51709 4.13037 0
      vertex -9.51709 4.13037 2
      vertex -8.45068 6.01904 2
    endloop
  endfacet
  facet normal -0.953905 0.300108 0
    outer loop
      vertex -10.168 2.06152 0
      vertex -9.51709 4.13037 2
      vertex -9.51709 4.13037 0
    endloop
  endfacet
  facet normal -0.953905 0.300108 0
    outer loop
      vertex -10.168 2.06152 0
      vertex -10.168 2.06152 2
      vertex -9.51709 4.13037 2
    endloop
  endfacet
  facet normal -0.995456 0.0952234 0
    outer loop
      vertex -10.3745 -0.0976562 0
      vertex -10.168 2.06152 2
      vertex -10.168 2.06152 0
    endloop
  endfacet
  facet normal -0.995456 0.0952234 0
    outer loop
      vertex -10.3745 -0.0976562 0
      vertex -10.3745 -0.0976562 2
      vertex -10.168 2.06152 2
    endloop
  endfacet
  facet normal -0.993491 -0.113915 0
    outer loop
      vertex -10.1274 -2.25244 0
      vertex -10.3745 -0.0976562 2
      vertex -10.3745 -0.0976562 0
    endloop
  endfacet
  facet normal -0.993491 -0.113915 0
    outer loop
      vertex -10.1274 -2.25244 0
      vertex -10.1274 -2.25244 2
      vertex -10.3745 -0.0976562 2
    endloop
  endfacet
  facet normal -0.948119 -0.317916 0
    outer loop
      vertex -9.43799 -4.30859 0
      vertex -10.1274 -2.25244 2
      vertex -10.1274 -2.25244 0
    endloop
  endfacet
  facet normal -0.948119 -0.317916 0
    outer loop
      vertex -9.43799 -4.30859 0
      vertex -9.43799 -4.30859 2
      vertex -10.1274 -2.25244 2
    endloop
  endfacet
  facet normal -0.861303 -0.508092 0
    outer loop
      vertex -8.33594 -6.17676 0
      vertex -9.43799 -4.30859 2
      vertex -9.43799 -4.30859 0
    endloop
  endfacet
  facet normal -0.861303 -0.508092 0
    outer loop
      vertex -8.33594 -6.17676 0
      vertex -8.33594 -6.17676 2
      vertex -9.43799 -4.30859 2
    endloop
  endfacet
  facet normal -0.736734 -0.676183 0
    outer loop
      vertex -6.86914 -7.7749 0
      vertex -8.33594 -6.17676 2
      vertex -8.33594 -6.17676 0
    endloop
  endfacet
  facet normal -0.736734 -0.676183 0
    outer loop
      vertex -6.86914 -7.7749 0
      vertex -6.86914 -7.7749 2
      vertex -8.33594 -6.17676 2
    endloop
  endfacet
  facet normal -0.580152 -0.814509 0
    outer loop
      vertex -5.10254 -9.0332 0
      vertex -6.86914 -7.7749 2
      vertex -6.86914 -7.7749 0
    endloop
  endfacet
  facet normal -0.580152 -0.814509 0
    outer loop
      vertex -5.10254 -9.0332 0
      vertex -5.10254 -9.0332 2
      vertex -6.86914 -7.7749 2
    endloop
  endfacet
  facet normal -0.398207 -0.917295 0
    outer loop
      vertex -3.11279 -9.89697 0
      vertex -5.10254 -9.0332 2
      vertex -5.10254 -9.0332 0
    endloop
  endfacet
  facet normal -0.398207 -0.917295 0
    outer loop
      vertex -3.11279 -9.89697 0
      vertex -3.11279 -9.89697 2
      vertex -5.10254 -9.0332 2
    endloop
  endfacet
  facet normal -0.198584 -0.980084 0
    outer loop
      vertex -0.987305 -10.3276 0
      vertex -3.11279 -9.89697 2
      vertex -3.11279 -9.89697 0
    endloop
  endfacet
  facet normal -0.198584 -0.980084 0
    outer loop
      vertex -0.987305 -10.3276 0
      vertex -0.987305 -10.3276 2
      vertex -3.11279 -9.89697 2
    endloop
  endfacet
  facet normal 0.00922968 -0.999957 0
    outer loop
      vertex 1.18164 -10.3076 0
      vertex -0.987305 -10.3276 2
      vertex -0.987305 -10.3276 0
    endloop
  endfacet
  facet normal 0.00922968 -0.999957 0
    outer loop
      vertex 1.18164 -10.3076 0
      vertex 1.18164 -10.3076 2
      vertex -0.987305 -10.3276 2
    endloop
  endfacet
  facet normal 0.864155 0.503225 -0
    outer loop
      vertex -2.30518 16.2188 0
      vertex -2.30518 16.2188 2
      vertex -1.83203 15.4062 0
    endloop
  endfacet
  facet normal 0.864155 0.503225 0
    outer loop
      vertex -1.83203 15.4062 2
      vertex -1.83203 15.4062 0
      vertex -2.30518 16.2188 2
    endloop
  endfacet
  facet normal 0.995124 0.0986299 -0
    outer loop
      vertex -2.39795 17.1548 0
      vertex -2.39795 17.1548 2
      vertex -2.30518 16.2188 0
    endloop
  endfacet
  facet normal 0.995124 0.0986299 0
    outer loop
      vertex -2.30518 16.2188 2
      vertex -2.30518 16.2188 0
      vertex -2.39795 17.1548 2
    endloop
  endfacet
  facet normal 0.946055 -0.324006 0
    outer loop
      vertex -2.09326 18.0444 0
      vertex -2.09326 18.0444 2
      vertex -2.39795 17.1548 0
    endloop
  endfacet
  facet normal 0.946055 -0.324006 0
    outer loop
      vertex -2.39795 17.1548 2
      vertex -2.39795 17.1548 0
      vertex -2.09326 18.0444 2
    endloop
  endfacet
  facet normal 0.726567 -0.687096 0
    outer loop
      vertex -1.44727 18.7275 0
      vertex -1.44727 18.7275 2
      vertex -2.09326 18.0444 0
    endloop
  endfacet
  facet normal 0.726567 -0.687096 0
    outer loop
      vertex -2.09326 18.0444 2
      vertex -2.09326 18.0444 0
      vertex -1.44727 18.7275 2
    endloop
  endfacet
  facet normal 0.375416 -0.926856 0
    outer loop
      vertex -0.575684 19.0806 0
      vertex -0.575684 19.0806 2
      vertex -1.44727 18.7275 0
    endloop
  endfacet
  facet normal 0.375416 -0.926856 0
    outer loop
      vertex -1.44727 18.7275 2
      vertex -1.44727 18.7275 0
      vertex -0.575684 19.0806 2
    endloop
  endfacet
  facet normal -0.0436175 -0.999048 0
    outer loop
      vertex 0.36377 19.0396 0
      vertex 0.36377 19.0396 2
      vertex -0.575684 19.0806 0
    endloop
  endfacet
  facet normal -0.0436175 -0.999048 -0
    outer loop
      vertex -0.575684 19.0806 2
      vertex -0.575684 19.0806 0
      vertex 0.36377 19.0396 2
    endloop
  endfacet
  facet normal -0.454672 -0.890659 0
    outer loop
      vertex 1.20166 18.6118 0
      vertex 1.20166 18.6118 2
      vertex 0.36377 19.0396 0
    endloop
  endfacet
  facet normal -0.454672 -0.890659 -0
    outer loop
      vertex 0.36377 19.0396 2
      vertex 0.36377 19.0396 0
      vertex 1.20166 18.6118 2
    endloop
  endfacet
  facet normal -0.783245 -0.621713 0
    outer loop
      vertex 1.78613 17.8755 0
      vertex 1.78613 17.8755 2
      vertex 1.20166 18.6118 0
    endloop
  endfacet
  facet normal -0.783245 -0.621713 -0
    outer loop
      vertex 1.20166 18.6118 2
      vertex 1.20166 18.6118 0
      vertex 1.78613 17.8755 2
    endloop
  endfacet
  facet normal -0.970811 -0.239847 0
    outer loop
      vertex 2.01172 16.9624 0
      vertex 2.01172 16.9624 2
      vertex 1.78613 17.8755 0
    endloop
  endfacet
  facet normal -0.970811 -0.239847 -0
    outer loop
      vertex 1.78613 17.8755 2
      vertex 1.78613 17.8755 0
      vertex 2.01172 16.9624 2
    endloop
  endfacet
  facet normal -0.982772 0.184821 0
    outer loop
      vertex 1.83789 16.0381 0
      vertex 1.83789 16.0381 2
      vertex 2.01172 16.9624 0
    endloop
  endfacet
  facet normal -0.982772 0.184821 0
    outer loop
      vertex 2.01172 16.9624 2
      vertex 2.01172 16.9624 0
      vertex 1.83789 16.0381 2
    endloop
  endfacet
  facet normal -0.817054 0.576561 0
    outer loop
      vertex 1.2959 15.27 0
      vertex 1.2959 15.27 2
      vertex 1.83789 16.0381 0
    endloop
  endfacet
  facet normal -0.817054 0.576561 0
    outer loop
      vertex 1.83789 16.0381 2
      vertex 1.83789 16.0381 0
      vertex 1.2959 15.27 2
    endloop
  endfacet
  facet normal -0.676154 0.736761 0
    outer loop
      vertex -0.336426 13.772 0
      vertex -0.336426 13.772 2
      vertex 1.2959 15.27 0
    endloop
  endfacet
  facet normal -0.676154 0.736761 0
    outer loop
      vertex 1.2959 15.27 2
      vertex 1.2959 15.27 0
      vertex -0.336426 13.772 2
    endloop
  endfacet
  facet normal 0.737712 0.675116 -0
    outer loop
      vertex -1.83203 15.4062 0
      vertex -1.83203 15.4062 2
      vertex -0.336426 13.772 0
    endloop
  endfacet
  facet normal 0.737712 0.675116 0
    outer loop
      vertex -0.336426 13.772 2
      vertex -0.336426 13.772 0
      vertex -1.83203 15.4062 2
    endloop
  endfacet
endsolid OpenSCAD_Model
