<svg id="Vrstva_1" data-name="Vrstva 1" xmlns="http://www.w3.org/2000/svg" viewBox="0 0 637.73 562.89"><defs><style>.cls-1{fill:#ea148c;}</style></defs><title>Splneneprani_logo_ruzova_CMYK</title><path class="cls-1" d="M775.85,307.24c-23.52-49.71-95.14-93.12-153.17-92.57-53.71-1.5-100.13,30.4-122,59.27-27.52-34.42-73-59.57-120.63-59.22-58.57-.68-133.13,40.79-156,98.05C204.31,358.84,208.4,420.32,252,496.67c-17,5.27-21.18,41,13.27,57.36-14.9,30.49,20.77,68.67,50.3,64.23-7.93,37.39,39.37,73.24,67.05,52.92-2.47,34,32.52,59.78,56.85,46.38,41.27,36.56,72.16,59.05,74.9,59.94,2.85-.88,25.64-21.88,32.56-28.55,28.94,2.68,39.73-20.35,39.94-41.58,31.91,15.28,60.84-19,53.63-57.14l2.4-2.81c39.29,17,62.6-31,51.12-60.13,1.23-1.58,2.44-2.92,3.65-4.47C738.47,606,766,551,744.94,511.11,793.21,424.86,801.21,356.5,775.85,307.24ZM697.14,576.39c-5.95-1.62-6.52-2.44-11-6.35-27.68-24.1-43.62-37.51-58.11-50,7.85,8.5,31.85,32.73,43.86,45.28,4.91,5.13,6.3,6.78,9.16,13.52,16.18,38.07-11.16,68.9-42.74,57-5.85-2.21-6.66-3.56-11.06-7.67-11.86-11.07-32.36-29.09-57.14-52.47,21.1,23.48,25.84,28.92,42.87,47.5a43.23,43.23,0,0,1,8,11.31c18.76,36.48-2.79,69-33.26,63.72-5.1-.89-4.81-1.44-8.45-4.91-17.07-16.3-38.39-35.66-57.17-52.81,18.19,20.28,26.4,29.41,43.16,47.8,2.57,2.82,3.36,3.62,4.93,7.19,15.92,36.15-27.88,54-63.31,27.56,1.41,4.32,4.74,8.35,7.62,11.35a105.33,105.33,0,0,1-16.27,14c-17.05-12-35.5-26.22-51.67-39.43,13.86-10.52,27.89-18.29,26.69-29.48,1.09-13.18-19-46.59-36.13-45.62-6.76-.16-12.93,3.68-19.2,7.17,13.6-18.29-25.4-76.19-53-57.32,13.88-17.16-20.91-69.78-45.22-61,1.65-11.45-13.22-36.32-28.89-40.41-9.2-1.67-14.84,4.41-28.67,9.61C140,267.23,397,173.09,483.9,285.74c-64.86,61.52-73.34,45-112.61,84.63-28.76,35,9.38,48.23,36.81,47.92,75.43-3.07,119.28-43.58,142.12-64.75,35,26.19,161.85,121.72,180,153.44C755.24,543.44,734.43,586.57,697.14,576.39Z" transform="translate(-212.72 -214.62)"/><path class="cls-1" d="M822.25,274.51c-16.3,0-28.2-12.2-28.2-27.8s11.9-27.8,28.2-27.8,28.2,12.2,28.2,27.8S838.55,274.51,822.25,274.51Zm0-49.6c-12.6,0-21.6,9.6-21.6,21.8s9,21.8,21.6,21.8,21.6-9.6,21.6-21.8S834.85,224.91,822.25,224.91Zm6.3,36.2-4-9.4a3.6,3.6,0,0,0-3.8-2.6h-2.4v12h-6.5v-28.9a25.78,25.78,0,0,1,9.6-1.6c8,0,12.5,3.3,12.5,9.1,0,3.9-2.7,6.4-5.9,7.4v.2a6.54,6.54,0,0,1,3,3.5l4.6,10.3Zm-6.9-25.6a15.48,15.48,0,0,0-3.3.3v8.7h3.1c3.9,0,5.9-1.4,5.9-4.5C827.35,237.11,825.55,235.51,821.65,235.51Z" transform="translate(-212.72 -214.62)"/></svg>