<?xml version="1.0" encoding="UTF-8" standalone="no"?>
<svg
   xmlns:dc="http://purl.org/dc/elements/1.1/"
   xmlns:cc="http://creativecommons.org/ns#"
   xmlns:rdf="http://www.w3.org/1999/02/22-rdf-syntax-ns#"
   xmlns:svg="http://www.w3.org/2000/svg"
   xmlns="http://www.w3.org/2000/svg"
   version="1.1"
   viewBox="0 0 637.73 562.89"
   data-name="Vrstva 1"
   id="Vrstva_1">
  <metadata
     id="metadata15">
    <rdf:RDF>
      <cc:Work
         rdf:about="">
        <dc:format>image/svg+xml</dc:format>
        <dc:type
           rdf:resource="http://purl.org/dc/dcmitype/StillImage" />
        <dc:title>Splneneprani_logo_ruzova_CMYK</dc:title>
      </cc:Work>
    </rdf:RDF>
  </metadata>
  <defs
     id="defs4">
    <style
       id="style2">.cls-1{fill:#ea148c;}</style>
  </defs>
  <title
     id="title6">Splneneprani_logo_ruzova_CMYK</title>
  <path
     style="fill:#ea148c"
     id="path8"
     transform="translate(-212.72,-214.62)"
     d="m 775.85,307.24 c -23.52,-49.71 -95.14,-93.12 -153.17,-92.57 -53.71,-1.5 -100.13,30.4 -122,59.27 -27.52,-34.42 -73,-59.57 -120.63,-59.22 -58.57,-0.68 -133.13,40.79 -156,98.05 -19.74,46.07 -15.65,107.55 27.95,183.9 -17,5.27 -21.18,41 13.27,57.36 -14.9,30.49 20.77,68.67 50.3,64.23 -7.93,37.39 39.37,73.24 67.05,52.92 -2.47,34 32.52,59.78 56.85,46.38 41.27,36.56 72.16,59.05 74.9,59.94 2.85,-0.88 25.64,-21.88 32.56,-28.55 28.94,2.68 39.73,-20.35 39.94,-41.58 31.91,15.28 60.84,-19 53.63,-57.14 l 2.4,-2.81 c 39.29,17 62.6,-31 51.12,-60.13 1.23,-1.58 2.44,-2.92 3.65,-4.47 C 738.47,606 766,551 744.94,511.11 793.21,424.86 801.21,356.5 775.85,307.24 Z"
     class="cls-1" />
</svg>
