solid OpenSCAD_Model
  facet normal -1 0 0
    outer loop
      vertex 0 95.7 -1.6
      vertex 0 95.2 0
      vertex 0 95.7 0
    endloop
  endfacet
  facet normal -1 0 0
    outer loop
      vertex 0 54.2314 53.3087
      vertex 0 95.2 60
      vertex 0 95.2 0
    endloop
  endfacet
  facet normal -1 0 0
    outer loop
      vertex 0 0 -1.6
      vertex 0 95.2 0
      vertex 0 95.7 -1.6
    endloop
  endfacet
  facet normal -1 0 0
    outer loop
      vertex 0 95.2 60
      vertex 0 56.3106 56.9098
      vertex 0 56.7452 58.9547
    endloop
  endfacet
  facet normal -1 0 0
    outer loop
      vertex 0 95.2 60
      vertex 0 55.4603 55
      vertex 0 56.3106 56.9098
    endloop
  endfacet
  facet normal -1 0 0
    outer loop
      vertex 0 95.2 60
      vertex 0 54.2314 53.3087
      vertex 0 55.4603 55
    endloop
  endfacet
  facet normal -1 0 0
    outer loop
      vertex 0 95.2 0
      vertex 0 52.6779 51.9098
      vertex 0 54.2314 53.3087
    endloop
  endfacet
  facet normal -1 0 0
    outer loop
      vertex 0 95.2 0
      vertex 0 50.8674 50.8645
      vertex 0 52.6779 51.9098
    endloop
  endfacet
  facet normal -1 0 0
    outer loop
      vertex 0 95.2 0
      vertex 0 48.8791 50.2185
      vertex 0 50.8674 50.8645
    endloop
  endfacet
  facet normal -1 0 0
    outer loop
      vertex 0 95.2 0
      vertex 0 46.8 50
      vertex 0 48.8791 50.2185
    endloop
  endfacet
  facet normal -1 -0 0
    outer loop
      vertex 0 95.2 0
      vertex 0 0 -1.6
      vertex 0 46.8 50
    endloop
  endfacet
  facet normal -1 -0 0
    outer loop
      vertex 0 46.8 50
      vertex 0 0 -1.6
      vertex 0 44.7209 50.2185
    endloop
  endfacet
  facet normal -1 -0 0
    outer loop
      vertex 0 44.7209 50.2185
      vertex 0 0 -1.6
      vertex 0 42.7326 50.8645
    endloop
  endfacet
  facet normal -1 -0 0
    outer loop
      vertex 0 42.7326 50.8645
      vertex 0 0 -1.6
      vertex 0 40.9221 51.9098
    endloop
  endfacet
  facet normal -1 -0 0
    outer loop
      vertex 0 40.9221 51.9098
      vertex 0 0 -1.6
      vertex 0 39.3686 53.3087
    endloop
  endfacet
  facet normal -1 0 0
    outer loop
      vertex 0 0 60
      vertex 0 39.3686 53.3087
      vertex 0 0 -1.6
    endloop
  endfacet
  facet normal -1 0 0
    outer loop
      vertex 0 39.3686 53.3087
      vertex 0 0 60
      vertex 0 38.1397 55
    endloop
  endfacet
  facet normal -1 0 0
    outer loop
      vertex 0 38.1397 55
      vertex 0 0 60
      vertex 0 37.2894 56.9098
    endloop
  endfacet
  facet normal -1 0 0
    outer loop
      vertex 0 37.2894 56.9098
      vertex 0 0 60
      vertex 0 36.8548 58.9547
    endloop
  endfacet
  facet normal -1 0 0
    outer loop
      vertex 0 36.8548 58.9547
      vertex 0 0 60
      vertex 0 36.8548 60
    endloop
  endfacet
  facet normal -1 -0 0
    outer loop
      vertex 0 95.2 60
      vertex 0 56.7452 58.9547
      vertex 0 56.7452 60
    endloop
  endfacet
  facet normal 0 0 1
    outer loop
      vertex 1.6 36.8548 60
      vertex 0 36.8548 60
      vertex 1.6 1.6 60
    endloop
  endfacet
  facet normal 0 0 1
    outer loop
      vertex 81.2 36.8548 60
      vertex 79.6 36.8548 60
      vertex 81.2 1.6 60
    endloop
  endfacet
  facet normal 0 0 1
    outer loop
      vertex 106.8 36.8548 60
      vertex 105.2 36.8548 60
      vertex 106.8 1.6 60
    endloop
  endfacet
  facet normal 0 0 1
    outer loop
      vertex 114.4 36.8548 60
      vertex 112.8 36.8548 60
      vertex 114.4 1.6 60
    endloop
  endfacet
  facet normal 0 0 1
    outer loop
      vertex 123 36.8548 60
      vertex 121.4 36.8548 60
      vertex 123 1.6 60
    endloop
  endfacet
  facet normal 0 0 1
    outer loop
      vertex 130.6 36.8548 60
      vertex 129 36.8548 60
      vertex 130.6 1.6 60
    endloop
  endfacet
  facet normal 0 0 1
    outer loop
      vertex 144.2 36.8548 60
      vertex 142.6 36.8548 60
      vertex 144.2 1.6 60
    endloop
  endfacet
  facet normal 0 0 1
    outer loop
      vertex 195.8 95.2 60
      vertex 194.2 93.6 60
      vertex 195.8 0 60
    endloop
  endfacet
  facet normal 0 0 1
    outer loop
      vertex 195.8 95.2 60
      vertex 144.2 93.6 60
      vertex 194.2 93.6 60
    endloop
  endfacet
  facet normal 0 0 1
    outer loop
      vertex 144.2 93.6 60
      vertex 142.6 93.6 60
      vertex 144.2 56.7452 60
    endloop
  endfacet
  facet normal 0 0 1
    outer loop
      vertex 195.8 95.2 60
      vertex 142.6 93.6 60
      vertex 144.2 93.6 60
    endloop
  endfacet
  facet normal 0 0 1
    outer loop
      vertex 195.8 95.2 60
      vertex 130.6 93.6 60
      vertex 142.6 93.6 60
    endloop
  endfacet
  facet normal 0 0 1
    outer loop
      vertex 130.6 93.6 60
      vertex 129 93.6 60
      vertex 130.6 56.7452 60
    endloop
  endfacet
  facet normal 0 0 1
    outer loop
      vertex 195.8 95.2 60
      vertex 129 93.6 60
      vertex 130.6 93.6 60
    endloop
  endfacet
  facet normal 0 0 1
    outer loop
      vertex 195.8 95.2 60
      vertex 123 93.6 60
      vertex 129 93.6 60
    endloop
  endfacet
  facet normal 0 0 1
    outer loop
      vertex 123 93.6 60
      vertex 121.4 93.6 60
      vertex 123 56.7452 60
    endloop
  endfacet
  facet normal 0 0 1
    outer loop
      vertex 195.8 95.2 60
      vertex 121.4 93.6 60
      vertex 123 93.6 60
    endloop
  endfacet
  facet normal 0 0 1
    outer loop
      vertex 195.8 95.2 60
      vertex 114.4 93.6 60
      vertex 121.4 93.6 60
    endloop
  endfacet
  facet normal 0 0 1
    outer loop
      vertex 114.4 93.6 60
      vertex 112.8 93.6 60
      vertex 114.4 56.7452 60
    endloop
  endfacet
  facet normal 0 0 1
    outer loop
      vertex 195.8 95.2 60
      vertex 112.8 93.6 60
      vertex 114.4 93.6 60
    endloop
  endfacet
  facet normal 0 0 1
    outer loop
      vertex 195.8 95.2 60
      vertex 106.8 93.6 60
      vertex 112.8 93.6 60
    endloop
  endfacet
  facet normal 0 0 1
    outer loop
      vertex 106.8 93.6 60
      vertex 105.2 93.6 60
      vertex 106.8 56.7452 60
    endloop
  endfacet
  facet normal 0 0 1
    outer loop
      vertex 195.8 95.2 60
      vertex 105.2 93.6 60
      vertex 106.8 93.6 60
    endloop
  endfacet
  facet normal 0 0 1
    outer loop
      vertex 195.8 95.2 60
      vertex 81.2 93.6 60
      vertex 105.2 93.6 60
    endloop
  endfacet
  facet normal 0 0 1
    outer loop
      vertex 81.2 93.6 60
      vertex 79.6 93.6 60
      vertex 81.2 56.7452 60
    endloop
  endfacet
  facet normal 0 0 1
    outer loop
      vertex 195.8 95.2 60
      vertex 79.6 93.6 60
      vertex 81.2 93.6 60
    endloop
  endfacet
  facet normal -0 0 1
    outer loop
      vertex 0 95.2 60
      vertex 79.6 93.6 60
      vertex 195.8 95.2 60
    endloop
  endfacet
  facet normal 0 0 1
    outer loop
      vertex 79.6 93.6 60
      vertex 0 95.2 60
      vertex 1.6 93.6 60
    endloop
  endfacet
  facet normal 0 0 1
    outer loop
      vertex 0 56.7452 60
      vertex 1.6 93.6 60
      vertex 0 95.2 60
    endloop
  endfacet
  facet normal 0 0 1
    outer loop
      vertex 1.6 93.6 60
      vertex 0 56.7452 60
      vertex 1.6 56.7452 60
    endloop
  endfacet
  facet normal -0 0 1
    outer loop
      vertex 194.2 1.6 60
      vertex 195.8 0 60
      vertex 194.2 93.6 60
    endloop
  endfacet
  facet normal -0 0 1
    outer loop
      vertex 144.2 1.6 60
      vertex 195.8 0 60
      vertex 194.2 1.6 60
    endloop
  endfacet
  facet normal 0 0 1
    outer loop
      vertex 142.6 1.6 60
      vertex 144.2 1.6 60
      vertex 142.6 36.8548 60
    endloop
  endfacet
  facet normal -0 0 1
    outer loop
      vertex 142.6 1.6 60
      vertex 195.8 0 60
      vertex 144.2 1.6 60
    endloop
  endfacet
  facet normal -0 0 1
    outer loop
      vertex 130.6 1.6 60
      vertex 195.8 0 60
      vertex 142.6 1.6 60
    endloop
  endfacet
  facet normal 0 0 1
    outer loop
      vertex 129 1.6 60
      vertex 130.6 1.6 60
      vertex 129 36.8548 60
    endloop
  endfacet
  facet normal -0 0 1
    outer loop
      vertex 129 1.6 60
      vertex 195.8 0 60
      vertex 130.6 1.6 60
    endloop
  endfacet
  facet normal -0 0 1
    outer loop
      vertex 123 1.6 60
      vertex 195.8 0 60
      vertex 129 1.6 60
    endloop
  endfacet
  facet normal 0 0 1
    outer loop
      vertex 121.4 1.6 60
      vertex 123 1.6 60
      vertex 121.4 36.8548 60
    endloop
  endfacet
  facet normal -0 0 1
    outer loop
      vertex 121.4 1.6 60
      vertex 195.8 0 60
      vertex 123 1.6 60
    endloop
  endfacet
  facet normal -0 0 1
    outer loop
      vertex 114.4 1.6 60
      vertex 195.8 0 60
      vertex 121.4 1.6 60
    endloop
  endfacet
  facet normal 0 0 1
    outer loop
      vertex 112.8 1.6 60
      vertex 114.4 1.6 60
      vertex 112.8 36.8548 60
    endloop
  endfacet
  facet normal -0 0 1
    outer loop
      vertex 112.8 1.6 60
      vertex 195.8 0 60
      vertex 114.4 1.6 60
    endloop
  endfacet
  facet normal -0 0 1
    outer loop
      vertex 106.8 1.6 60
      vertex 195.8 0 60
      vertex 112.8 1.6 60
    endloop
  endfacet
  facet normal 0 0 1
    outer loop
      vertex 105.2 1.6 60
      vertex 106.8 1.6 60
      vertex 105.2 36.8548 60
    endloop
  endfacet
  facet normal -0 0 1
    outer loop
      vertex 105.2 1.6 60
      vertex 195.8 0 60
      vertex 106.8 1.6 60
    endloop
  endfacet
  facet normal -0 0 1
    outer loop
      vertex 81.2 1.6 60
      vertex 195.8 0 60
      vertex 105.2 1.6 60
    endloop
  endfacet
  facet normal 0 0 1
    outer loop
      vertex 79.6 1.6 60
      vertex 81.2 1.6 60
      vertex 79.6 36.8548 60
    endloop
  endfacet
  facet normal -0 0 1
    outer loop
      vertex 79.6 1.6 60
      vertex 195.8 0 60
      vertex 81.2 1.6 60
    endloop
  endfacet
  facet normal 0 0 1
    outer loop
      vertex 0 0 60
      vertex 79.6 1.6 60
      vertex 1.6 1.6 60
    endloop
  endfacet
  facet normal 0 0 1
    outer loop
      vertex 79.6 1.6 60
      vertex 0 0 60
      vertex 195.8 0 60
    endloop
  endfacet
  facet normal 0 0 1
    outer loop
      vertex 0 0 60
      vertex 1.6 1.6 60
      vertex 0 36.8548 60
    endloop
  endfacet
  facet normal 0 0 1
    outer loop
      vertex 144.2 56.7452 60
      vertex 142.6 93.6 60
      vertex 142.6 56.7452 60
    endloop
  endfacet
  facet normal 0 0 1
    outer loop
      vertex 130.6 56.7452 60
      vertex 129 93.6 60
      vertex 129 56.7452 60
    endloop
  endfacet
  facet normal 0 0 1
    outer loop
      vertex 123 56.7452 60
      vertex 121.4 93.6 60
      vertex 121.4 56.7452 60
    endloop
  endfacet
  facet normal 0 0 1
    outer loop
      vertex 114.4 56.7452 60
      vertex 112.8 93.6 60
      vertex 112.8 56.7452 60
    endloop
  endfacet
  facet normal 0 0 1
    outer loop
      vertex 106.8 56.7452 60
      vertex 105.2 93.6 60
      vertex 105.2 56.7452 60
    endloop
  endfacet
  facet normal 0 0 1
    outer loop
      vertex 81.2 56.7452 60
      vertex 79.6 93.6 60
      vertex 79.6 56.7452 60
    endloop
  endfacet
  facet normal 1 0 0
    outer loop
      vertex 1.6 36.8548 60
      vertex 1.6 1.6 60
      vertex 1.6 36.8548 58.9547
    endloop
  endfacet
  facet normal 1 0 0
    outer loop
      vertex 1.6 56.7452 58.9547
      vertex 1.6 93.6 60
      vertex 1.6 56.7452 60
    endloop
  endfacet
  facet normal 1 0 0
    outer loop
      vertex 1.6 56.3106 56.9098
      vertex 1.6 93.6 60
      vertex 1.6 56.7452 58.9547
    endloop
  endfacet
  facet normal 1 0 0
    outer loop
      vertex 1.6 55.4603 55
      vertex 1.6 93.6 60
      vertex 1.6 56.3106 56.9098
    endloop
  endfacet
  facet normal 1 0 0
    outer loop
      vertex 1.6 54.2314 53.3087
      vertex 1.6 93.6 60
      vertex 1.6 55.4603 55
    endloop
  endfacet
  facet normal 1 0 0
    outer loop
      vertex 1.6 93.6 60
      vertex 1.6 54.2314 53.3087
      vertex 1.6 93.6 0
    endloop
  endfacet
  facet normal 1 -0 0
    outer loop
      vertex 1.6 52.6779 51.9098
      vertex 1.6 93.6 0
      vertex 1.6 54.2314 53.3087
    endloop
  endfacet
  facet normal 1 -0 0
    outer loop
      vertex 1.6 50.8674 50.8645
      vertex 1.6 93.6 0
      vertex 1.6 52.6779 51.9098
    endloop
  endfacet
  facet normal 1 -0 0
    outer loop
      vertex 1.6 48.8791 50.2185
      vertex 1.6 93.6 0
      vertex 1.6 50.8674 50.8645
    endloop
  endfacet
  facet normal 1 -0 0
    outer loop
      vertex 1.6 46.8 50
      vertex 1.6 93.6 0
      vertex 1.6 48.8791 50.2185
    endloop
  endfacet
  facet normal 1 0 0
    outer loop
      vertex 1.6 1.6 0
      vertex 1.6 46.8 50
      vertex 1.6 44.7209 50.2185
    endloop
  endfacet
  facet normal 1 0 0
    outer loop
      vertex 1.6 1.6 0
      vertex 1.6 44.7209 50.2185
      vertex 1.6 42.7326 50.8645
    endloop
  endfacet
  facet normal 1 0 0
    outer loop
      vertex 1.6 1.6 0
      vertex 1.6 42.7326 50.8645
      vertex 1.6 40.9221 51.9098
    endloop
  endfacet
  facet normal 1 0 0
    outer loop
      vertex 1.6 1.6 0
      vertex 1.6 40.9221 51.9098
      vertex 1.6 39.3686 53.3087
    endloop
  endfacet
  facet normal 1 0 0
    outer loop
      vertex 1.6 1.6 60
      vertex 1.6 37.2894 56.9098
      vertex 1.6 36.8548 58.9547
    endloop
  endfacet
  facet normal 1 0 0
    outer loop
      vertex 1.6 1.6 60
      vertex 1.6 38.1397 55
      vertex 1.6 37.2894 56.9098
    endloop
  endfacet
  facet normal 1 0 0
    outer loop
      vertex 1.6 1.6 60
      vertex 1.6 39.3686 53.3087
      vertex 1.6 38.1397 55
    endloop
  endfacet
  facet normal 1 0 0
    outer loop
      vertex 1.6 1.6 0
      vertex 1.6 39.3686 53.3087
      vertex 1.6 1.6 60
    endloop
  endfacet
  facet normal 1 0 0
    outer loop
      vertex 1.6 46.8 50
      vertex 1.6 1.6 0
      vertex 1.6 93.6 0
    endloop
  endfacet
  facet normal 0 -1 0
    outer loop
      vertex 144.2 93.6 0
      vertex 194.2 93.6 60
      vertex 144.2 93.6 60
    endloop
  endfacet
  facet normal 0 -1 -0
    outer loop
      vertex 194.2 93.6 60
      vertex 144.2 93.6 0
      vertex 194.2 93.6 0
    endloop
  endfacet
  facet normal 0 -1 0
    outer loop
      vertex 130.6 93.6 0
      vertex 142.6 93.6 60
      vertex 130.6 93.6 60
    endloop
  endfacet
  facet normal 0 -1 -0
    outer loop
      vertex 142.6 93.6 60
      vertex 130.6 93.6 0
      vertex 142.6 93.6 0
    endloop
  endfacet
  facet normal 0 -1 0
    outer loop
      vertex 123 93.6 0
      vertex 129 93.6 60
      vertex 123 93.6 60
    endloop
  endfacet
  facet normal 0 -1 -0
    outer loop
      vertex 129 93.6 60
      vertex 123 93.6 0
      vertex 129 93.6 0
    endloop
  endfacet
  facet normal 0 -1 0
    outer loop
      vertex 114.4 93.6 0
      vertex 121.4 93.6 60
      vertex 114.4 93.6 60
    endloop
  endfacet
  facet normal 0 -1 -0
    outer loop
      vertex 121.4 93.6 60
      vertex 114.4 93.6 0
      vertex 121.4 93.6 0
    endloop
  endfacet
  facet normal 0 -1 0
    outer loop
      vertex 106.8 93.6 0
      vertex 112.8 93.6 60
      vertex 106.8 93.6 60
    endloop
  endfacet
  facet normal 0 -1 -0
    outer loop
      vertex 112.8 93.6 60
      vertex 106.8 93.6 0
      vertex 112.8 93.6 0
    endloop
  endfacet
  facet normal 0 -1 0
    outer loop
      vertex 81.2 93.6 0
      vertex 105.2 93.6 60
      vertex 81.2 93.6 60
    endloop
  endfacet
  facet normal 0 -1 -0
    outer loop
      vertex 105.2 93.6 60
      vertex 81.2 93.6 0
      vertex 105.2 93.6 0
    endloop
  endfacet
  facet normal 0 -1 0
    outer loop
      vertex 1.6 93.6 0
      vertex 79.6 93.6 60
      vertex 1.6 93.6 60
    endloop
  endfacet
  facet normal 0 -1 -0
    outer loop
      vertex 79.6 93.6 60
      vertex 1.6 93.6 0
      vertex 79.6 93.6 0
    endloop
  endfacet
  facet normal -0 0 1
    outer loop
      vertex 144.2 93.6 0
      vertex 194.2 1.6 0
      vertex 194.2 93.6 0
    endloop
  endfacet
  facet normal 0 0 1
    outer loop
      vertex 194.2 1.6 0
      vertex 144.2 93.6 0
      vertex 144.2 1.6 0
    endloop
  endfacet
  facet normal 0 0 1
    outer loop
      vertex 196.3 95.7 0
      vertex 195.8 95.2 0
      vertex 196.3 0 0
    endloop
  endfacet
  facet normal -0 0 1
    outer loop
      vertex 0 95.7 0
      vertex 195.8 95.2 0
      vertex 196.3 95.7 0
    endloop
  endfacet
  facet normal 0 0 1
    outer loop
      vertex 195.8 95.2 0
      vertex 0 95.7 0
      vertex 0 95.2 0
    endloop
  endfacet
  facet normal 0 0 1
    outer loop
      vertex 196.3 0 0
      vertex 195.8 95.2 0
      vertex 195.8 0 0
    endloop
  endfacet
  facet normal -0 0 1
    outer loop
      vertex 130.6 93.6 0
      vertex 142.6 1.6 0
      vertex 142.6 93.6 0
    endloop
  endfacet
  facet normal 0 0 1
    outer loop
      vertex 142.6 1.6 0
      vertex 130.6 93.6 0
      vertex 130.6 1.6 0
    endloop
  endfacet
  facet normal -0 0 1
    outer loop
      vertex 123 93.6 0
      vertex 129 1.6 0
      vertex 129 93.6 0
    endloop
  endfacet
  facet normal 0 0 1
    outer loop
      vertex 129 1.6 0
      vertex 123 93.6 0
      vertex 123 1.6 0
    endloop
  endfacet
  facet normal -0 0 1
    outer loop
      vertex 114.4 93.6 0
      vertex 121.4 1.6 0
      vertex 121.4 93.6 0
    endloop
  endfacet
  facet normal 0 0 1
    outer loop
      vertex 121.4 1.6 0
      vertex 114.4 93.6 0
      vertex 114.4 1.6 0
    endloop
  endfacet
  facet normal -0 0 1
    outer loop
      vertex 106.8 93.6 0
      vertex 112.8 1.6 0
      vertex 112.8 93.6 0
    endloop
  endfacet
  facet normal 0 0 1
    outer loop
      vertex 112.8 1.6 0
      vertex 106.8 93.6 0
      vertex 106.8 1.6 0
    endloop
  endfacet
  facet normal -0 0 1
    outer loop
      vertex 81.2 93.6 0
      vertex 105.2 1.6 0
      vertex 105.2 93.6 0
    endloop
  endfacet
  facet normal 0 0 1
    outer loop
      vertex 105.2 1.6 0
      vertex 81.2 93.6 0
      vertex 81.2 1.6 0
    endloop
  endfacet
  facet normal -0 0 1
    outer loop
      vertex 1.6 93.6 0
      vertex 79.6 1.6 0
      vertex 79.6 93.6 0
    endloop
  endfacet
  facet normal 0 0 1
    outer loop
      vertex 79.6 1.6 0
      vertex 1.6 93.6 0
      vertex 1.6 1.6 0
    endloop
  endfacet
  facet normal 0 -1 0
    outer loop
      vertex 0 0 60
      vertex 195.8 0 0
      vertex 195.8 0 60
    endloop
  endfacet
  facet normal 0 -1 0
    outer loop
      vertex 0 0 -1.6
      vertex 195.8 0 0
      vertex 0 0 60
    endloop
  endfacet
  facet normal 0 -1 0
    outer loop
      vertex 196.3 0 -1.6
      vertex 195.8 0 0
      vertex 0 0 -1.6
    endloop
  endfacet
  facet normal 0 -1 0
    outer loop
      vertex 195.8 0 0
      vertex 196.3 0 -1.6
      vertex 196.3 0 0
    endloop
  endfacet
  facet normal -1 0 0
    outer loop
      vertex 79.6 54.2314 53.3087
      vertex 79.6 93.6 60
      vertex 79.6 93.6 0
    endloop
  endfacet
  facet normal -1 0 0
    outer loop
      vertex 79.6 93.6 60
      vertex 79.6 56.3106 56.9098
      vertex 79.6 56.7452 58.9547
    endloop
  endfacet
  facet normal -1 0 0
    outer loop
      vertex 79.6 93.6 60
      vertex 79.6 55.4603 55
      vertex 79.6 56.3106 56.9098
    endloop
  endfacet
  facet normal -1 0 0
    outer loop
      vertex 79.6 93.6 60
      vertex 79.6 54.2314 53.3087
      vertex 79.6 55.4603 55
    endloop
  endfacet
  facet normal -1 0 0
    outer loop
      vertex 79.6 93.6 0
      vertex 79.6 52.6779 51.9098
      vertex 79.6 54.2314 53.3087
    endloop
  endfacet
  facet normal -1 0 0
    outer loop
      vertex 79.6 93.6 0
      vertex 79.6 50.8674 50.8645
      vertex 79.6 52.6779 51.9098
    endloop
  endfacet
  facet normal -1 0 0
    outer loop
      vertex 79.6 93.6 0
      vertex 79.6 48.8791 50.2185
      vertex 79.6 50.8674 50.8645
    endloop
  endfacet
  facet normal -1 0 0
    outer loop
      vertex 79.6 93.6 0
      vertex 79.6 46.8 50
      vertex 79.6 48.8791 50.2185
    endloop
  endfacet
  facet normal -1 0 0
    outer loop
      vertex 79.6 1.6 0
      vertex 79.6 46.8 50
      vertex 79.6 93.6 0
    endloop
  endfacet
  facet normal -1 -0 0
    outer loop
      vertex 79.6 46.8 50
      vertex 79.6 1.6 0
      vertex 79.6 44.7209 50.2185
    endloop
  endfacet
  facet normal -1 -0 0
    outer loop
      vertex 79.6 44.7209 50.2185
      vertex 79.6 1.6 0
      vertex 79.6 42.7326 50.8645
    endloop
  endfacet
  facet normal -1 -0 0
    outer loop
      vertex 79.6 42.7326 50.8645
      vertex 79.6 1.6 0
      vertex 79.6 40.9221 51.9098
    endloop
  endfacet
  facet normal -1 -0 0
    outer loop
      vertex 79.6 40.9221 51.9098
      vertex 79.6 1.6 0
      vertex 79.6 39.3686 53.3087
    endloop
  endfacet
  facet normal -1 0 0
    outer loop
      vertex 79.6 1.6 60
      vertex 79.6 39.3686 53.3087
      vertex 79.6 1.6 0
    endloop
  endfacet
  facet normal -1 0 0
    outer loop
      vertex 79.6 39.3686 53.3087
      vertex 79.6 1.6 60
      vertex 79.6 38.1397 55
    endloop
  endfacet
  facet normal -1 0 0
    outer loop
      vertex 79.6 38.1397 55
      vertex 79.6 1.6 60
      vertex 79.6 37.2894 56.9098
    endloop
  endfacet
  facet normal -1 0 0
    outer loop
      vertex 79.6 37.2894 56.9098
      vertex 79.6 1.6 60
      vertex 79.6 36.8548 58.9547
    endloop
  endfacet
  facet normal -1 0 0
    outer loop
      vertex 79.6 36.8548 58.9547
      vertex 79.6 1.6 60
      vertex 79.6 36.8548 60
    endloop
  endfacet
  facet normal -1 -0 0
    outer loop
      vertex 79.6 93.6 60
      vertex 79.6 56.7452 58.9547
      vertex 79.6 56.7452 60
    endloop
  endfacet
  facet normal 1 0 0
    outer loop
      vertex 81.2 36.8548 60
      vertex 81.2 1.6 60
      vertex 81.2 36.8548 58.9547
    endloop
  endfacet
  facet normal 1 0 0
    outer loop
      vertex 81.2 56.7452 58.9547
      vertex 81.2 93.6 60
      vertex 81.2 56.7452 60
    endloop
  endfacet
  facet normal 1 0 0
    outer loop
      vertex 81.2 56.3106 56.9098
      vertex 81.2 93.6 60
      vertex 81.2 56.7452 58.9547
    endloop
  endfacet
  facet normal 1 0 0
    outer loop
      vertex 81.2 55.4603 55
      vertex 81.2 93.6 60
      vertex 81.2 56.3106 56.9098
    endloop
  endfacet
  facet normal 1 0 0
    outer loop
      vertex 81.2 54.2314 53.3087
      vertex 81.2 93.6 60
      vertex 81.2 55.4603 55
    endloop
  endfacet
  facet normal 1 0 0
    outer loop
      vertex 81.2 93.6 60
      vertex 81.2 54.2314 53.3087
      vertex 81.2 93.6 0
    endloop
  endfacet
  facet normal 1 -0 0
    outer loop
      vertex 81.2 52.6779 51.9098
      vertex 81.2 93.6 0
      vertex 81.2 54.2314 53.3087
    endloop
  endfacet
  facet normal 1 -0 0
    outer loop
      vertex 81.2 50.8674 50.8645
      vertex 81.2 93.6 0
      vertex 81.2 52.6779 51.9098
    endloop
  endfacet
  facet normal 1 -0 0
    outer loop
      vertex 81.2 48.8791 50.2185
      vertex 81.2 93.6 0
      vertex 81.2 50.8674 50.8645
    endloop
  endfacet
  facet normal 1 -0 0
    outer loop
      vertex 81.2 46.8 50
      vertex 81.2 93.6 0
      vertex 81.2 48.8791 50.2185
    endloop
  endfacet
  facet normal 1 0 0
    outer loop
      vertex 81.2 1.6 0
      vertex 81.2 46.8 50
      vertex 81.2 44.7209 50.2185
    endloop
  endfacet
  facet normal 1 0 0
    outer loop
      vertex 81.2 1.6 0
      vertex 81.2 44.7209 50.2185
      vertex 81.2 42.7326 50.8645
    endloop
  endfacet
  facet normal 1 0 0
    outer loop
      vertex 81.2 1.6 0
      vertex 81.2 42.7326 50.8645
      vertex 81.2 40.9221 51.9098
    endloop
  endfacet
  facet normal 1 0 0
    outer loop
      vertex 81.2 1.6 0
      vertex 81.2 40.9221 51.9098
      vertex 81.2 39.3686 53.3087
    endloop
  endfacet
  facet normal 1 0 0
    outer loop
      vertex 81.2 1.6 60
      vertex 81.2 37.2894 56.9098
      vertex 81.2 36.8548 58.9547
    endloop
  endfacet
  facet normal 1 0 0
    outer loop
      vertex 81.2 1.6 60
      vertex 81.2 38.1397 55
      vertex 81.2 37.2894 56.9098
    endloop
  endfacet
  facet normal 1 0 0
    outer loop
      vertex 81.2 1.6 60
      vertex 81.2 39.3686 53.3087
      vertex 81.2 38.1397 55
    endloop
  endfacet
  facet normal 1 0 0
    outer loop
      vertex 81.2 1.6 0
      vertex 81.2 39.3686 53.3087
      vertex 81.2 1.6 60
    endloop
  endfacet
  facet normal 1 0 0
    outer loop
      vertex 81.2 46.8 50
      vertex 81.2 1.6 0
      vertex 81.2 93.6 0
    endloop
  endfacet
  facet normal -1 0 0
    outer loop
      vertex 105.2 54.2314 53.3087
      vertex 105.2 93.6 60
      vertex 105.2 93.6 0
    endloop
  endfacet
  facet normal -1 0 0
    outer loop
      vertex 105.2 93.6 60
      vertex 105.2 56.3106 56.9098
      vertex 105.2 56.7452 58.9547
    endloop
  endfacet
  facet normal -1 0 0
    outer loop
      vertex 105.2 93.6 60
      vertex 105.2 55.4603 55
      vertex 105.2 56.3106 56.9098
    endloop
  endfacet
  facet normal -1 0 0
    outer loop
      vertex 105.2 93.6 60
      vertex 105.2 54.2314 53.3087
      vertex 105.2 55.4603 55
    endloop
  endfacet
  facet normal -1 0 0
    outer loop
      vertex 105.2 93.6 0
      vertex 105.2 52.6779 51.9098
      vertex 105.2 54.2314 53.3087
    endloop
  endfacet
  facet normal -1 0 0
    outer loop
      vertex 105.2 93.6 0
      vertex 105.2 50.8674 50.8645
      vertex 105.2 52.6779 51.9098
    endloop
  endfacet
  facet normal -1 0 0
    outer loop
      vertex 105.2 93.6 0
      vertex 105.2 48.8791 50.2185
      vertex 105.2 50.8674 50.8645
    endloop
  endfacet
  facet normal -1 0 0
    outer loop
      vertex 105.2 93.6 0
      vertex 105.2 46.8 50
      vertex 105.2 48.8791 50.2185
    endloop
  endfacet
  facet normal -1 0 0
    outer loop
      vertex 105.2 1.6 0
      vertex 105.2 46.8 50
      vertex 105.2 93.6 0
    endloop
  endfacet
  facet normal -1 -0 0
    outer loop
      vertex 105.2 46.8 50
      vertex 105.2 1.6 0
      vertex 105.2 44.7209 50.2185
    endloop
  endfacet
  facet normal -1 -0 0
    outer loop
      vertex 105.2 44.7209 50.2185
      vertex 105.2 1.6 0
      vertex 105.2 42.7326 50.8645
    endloop
  endfacet
  facet normal -1 -0 0
    outer loop
      vertex 105.2 42.7326 50.8645
      vertex 105.2 1.6 0
      vertex 105.2 40.9221 51.9098
    endloop
  endfacet
  facet normal -1 -0 0
    outer loop
      vertex 105.2 40.9221 51.9098
      vertex 105.2 1.6 0
      vertex 105.2 39.3686 53.3087
    endloop
  endfacet
  facet normal -1 0 0
    outer loop
      vertex 105.2 1.6 60
      vertex 105.2 39.3686 53.3087
      vertex 105.2 1.6 0
    endloop
  endfacet
  facet normal -1 0 0
    outer loop
      vertex 105.2 39.3686 53.3087
      vertex 105.2 1.6 60
      vertex 105.2 38.1397 55
    endloop
  endfacet
  facet normal -1 0 0
    outer loop
      vertex 105.2 38.1397 55
      vertex 105.2 1.6 60
      vertex 105.2 37.2894 56.9098
    endloop
  endfacet
  facet normal -1 0 0
    outer loop
      vertex 105.2 37.2894 56.9098
      vertex 105.2 1.6 60
      vertex 105.2 36.8548 58.9547
    endloop
  endfacet
  facet normal -1 0 0
    outer loop
      vertex 105.2 36.8548 58.9547
      vertex 105.2 1.6 60
      vertex 105.2 36.8548 60
    endloop
  endfacet
  facet normal -1 -0 0
    outer loop
      vertex 105.2 93.6 60
      vertex 105.2 56.7452 58.9547
      vertex 105.2 56.7452 60
    endloop
  endfacet
  facet normal 1 0 0
    outer loop
      vertex 106.8 36.8548 60
      vertex 106.8 1.6 60
      vertex 106.8 36.8548 58.9547
    endloop
  endfacet
  facet normal 1 0 0
    outer loop
      vertex 106.8 56.7452 58.9547
      vertex 106.8 93.6 60
      vertex 106.8 56.7452 60
    endloop
  endfacet
  facet normal 1 0 0
    outer loop
      vertex 106.8 56.3106 56.9098
      vertex 106.8 93.6 60
      vertex 106.8 56.7452 58.9547
    endloop
  endfacet
  facet normal 1 0 0
    outer loop
      vertex 106.8 55.4603 55
      vertex 106.8 93.6 60
      vertex 106.8 56.3106 56.9098
    endloop
  endfacet
  facet normal 1 0 0
    outer loop
      vertex 106.8 54.2314 53.3087
      vertex 106.8 93.6 60
      vertex 106.8 55.4603 55
    endloop
  endfacet
  facet normal 1 0 0
    outer loop
      vertex 106.8 93.6 60
      vertex 106.8 54.2314 53.3087
      vertex 106.8 93.6 0
    endloop
  endfacet
  facet normal 1 -0 0
    outer loop
      vertex 106.8 52.6779 51.9098
      vertex 106.8 93.6 0
      vertex 106.8 54.2314 53.3087
    endloop
  endfacet
  facet normal 1 -0 0
    outer loop
      vertex 106.8 50.8674 50.8645
      vertex 106.8 93.6 0
      vertex 106.8 52.6779 51.9098
    endloop
  endfacet
  facet normal 1 -0 0
    outer loop
      vertex 106.8 48.8791 50.2185
      vertex 106.8 93.6 0
      vertex 106.8 50.8674 50.8645
    endloop
  endfacet
  facet normal 1 -0 0
    outer loop
      vertex 106.8 46.8 50
      vertex 106.8 93.6 0
      vertex 106.8 48.8791 50.2185
    endloop
  endfacet
  facet normal 1 0 0
    outer loop
      vertex 106.8 1.6 0
      vertex 106.8 46.8 50
      vertex 106.8 44.7209 50.2185
    endloop
  endfacet
  facet normal 1 0 0
    outer loop
      vertex 106.8 1.6 0
      vertex 106.8 44.7209 50.2185
      vertex 106.8 42.7326 50.8645
    endloop
  endfacet
  facet normal 1 0 0
    outer loop
      vertex 106.8 1.6 0
      vertex 106.8 42.7326 50.8645
      vertex 106.8 40.9221 51.9098
    endloop
  endfacet
  facet normal 1 0 0
    outer loop
      vertex 106.8 1.6 0
      vertex 106.8 40.9221 51.9098
      vertex 106.8 39.3686 53.3087
    endloop
  endfacet
  facet normal 1 0 0
    outer loop
      vertex 106.8 1.6 60
      vertex 106.8 37.2894 56.9098
      vertex 106.8 36.8548 58.9547
    endloop
  endfacet
  facet normal 1 0 0
    outer loop
      vertex 106.8 1.6 60
      vertex 106.8 38.1397 55
      vertex 106.8 37.2894 56.9098
    endloop
  endfacet
  facet normal 1 0 0
    outer loop
      vertex 106.8 1.6 60
      vertex 106.8 39.3686 53.3087
      vertex 106.8 38.1397 55
    endloop
  endfacet
  facet normal 1 0 0
    outer loop
      vertex 106.8 1.6 0
      vertex 106.8 39.3686 53.3087
      vertex 106.8 1.6 60
    endloop
  endfacet
  facet normal 1 0 0
    outer loop
      vertex 106.8 46.8 50
      vertex 106.8 1.6 0
      vertex 106.8 93.6 0
    endloop
  endfacet
  facet normal -1 0 0
    outer loop
      vertex 112.8 54.2314 53.3087
      vertex 112.8 93.6 60
      vertex 112.8 93.6 0
    endloop
  endfacet
  facet normal -1 0 0
    outer loop
      vertex 112.8 93.6 60
      vertex 112.8 56.3106 56.9098
      vertex 112.8 56.7452 58.9547
    endloop
  endfacet
  facet normal -1 0 0
    outer loop
      vertex 112.8 93.6 60
      vertex 112.8 55.4603 55
      vertex 112.8 56.3106 56.9098
    endloop
  endfacet
  facet normal -1 0 0
    outer loop
      vertex 112.8 93.6 60
      vertex 112.8 54.2314 53.3087
      vertex 112.8 55.4603 55
    endloop
  endfacet
  facet normal -1 0 0
    outer loop
      vertex 112.8 93.6 0
      vertex 112.8 52.6779 51.9098
      vertex 112.8 54.2314 53.3087
    endloop
  endfacet
  facet normal -1 0 0
    outer loop
      vertex 112.8 93.6 0
      vertex 112.8 50.8674 50.8645
      vertex 112.8 52.6779 51.9098
    endloop
  endfacet
  facet normal -1 0 0
    outer loop
      vertex 112.8 93.6 0
      vertex 112.8 48.8791 50.2185
      vertex 112.8 50.8674 50.8645
    endloop
  endfacet
  facet normal -1 0 0
    outer loop
      vertex 112.8 93.6 0
      vertex 112.8 46.8 50
      vertex 112.8 48.8791 50.2185
    endloop
  endfacet
  facet normal -1 0 0
    outer loop
      vertex 112.8 1.6 0
      vertex 112.8 46.8 50
      vertex 112.8 93.6 0
    endloop
  endfacet
  facet normal -1 -0 0
    outer loop
      vertex 112.8 46.8 50
      vertex 112.8 1.6 0
      vertex 112.8 44.7209 50.2185
    endloop
  endfacet
  facet normal -1 -0 0
    outer loop
      vertex 112.8 44.7209 50.2185
      vertex 112.8 1.6 0
      vertex 112.8 42.7326 50.8645
    endloop
  endfacet
  facet normal -1 -0 0
    outer loop
      vertex 112.8 42.7326 50.8645
      vertex 112.8 1.6 0
      vertex 112.8 40.9221 51.9098
    endloop
  endfacet
  facet normal -1 -0 0
    outer loop
      vertex 112.8 40.9221 51.9098
      vertex 112.8 1.6 0
      vertex 112.8 39.3686 53.3087
    endloop
  endfacet
  facet normal -1 0 0
    outer loop
      vertex 112.8 1.6 60
      vertex 112.8 39.3686 53.3087
      vertex 112.8 1.6 0
    endloop
  endfacet
  facet normal -1 0 0
    outer loop
      vertex 112.8 39.3686 53.3087
      vertex 112.8 1.6 60
      vertex 112.8 38.1397 55
    endloop
  endfacet
  facet normal -1 0 0
    outer loop
      vertex 112.8 38.1397 55
      vertex 112.8 1.6 60
      vertex 112.8 37.2894 56.9098
    endloop
  endfacet
  facet normal -1 0 0
    outer loop
      vertex 112.8 37.2894 56.9098
      vertex 112.8 1.6 60
      vertex 112.8 36.8548 58.9547
    endloop
  endfacet
  facet normal -1 0 0
    outer loop
      vertex 112.8 36.8548 58.9547
      vertex 112.8 1.6 60
      vertex 112.8 36.8548 60
    endloop
  endfacet
  facet normal -1 -0 0
    outer loop
      vertex 112.8 93.6 60
      vertex 112.8 56.7452 58.9547
      vertex 112.8 56.7452 60
    endloop
  endfacet
  facet normal 1 0 0
    outer loop
      vertex 114.4 36.8548 60
      vertex 114.4 1.6 60
      vertex 114.4 36.8548 58.9547
    endloop
  endfacet
  facet normal 1 0 0
    outer loop
      vertex 114.4 56.7452 58.9547
      vertex 114.4 93.6 60
      vertex 114.4 56.7452 60
    endloop
  endfacet
  facet normal 1 0 0
    outer loop
      vertex 114.4 56.3106 56.9098
      vertex 114.4 93.6 60
      vertex 114.4 56.7452 58.9547
    endloop
  endfacet
  facet normal 1 0 0
    outer loop
      vertex 114.4 55.4603 55
      vertex 114.4 93.6 60
      vertex 114.4 56.3106 56.9098
    endloop
  endfacet
  facet normal 1 0 0
    outer loop
      vertex 114.4 54.2314 53.3087
      vertex 114.4 93.6 60
      vertex 114.4 55.4603 55
    endloop
  endfacet
  facet normal 1 0 0
    outer loop
      vertex 114.4 93.6 60
      vertex 114.4 54.2314 53.3087
      vertex 114.4 93.6 0
    endloop
  endfacet
  facet normal 1 -0 0
    outer loop
      vertex 114.4 52.6779 51.9098
      vertex 114.4 93.6 0
      vertex 114.4 54.2314 53.3087
    endloop
  endfacet
  facet normal 1 -0 0
    outer loop
      vertex 114.4 50.8674 50.8645
      vertex 114.4 93.6 0
      vertex 114.4 52.6779 51.9098
    endloop
  endfacet
  facet normal 1 -0 0
    outer loop
      vertex 114.4 48.8791 50.2185
      vertex 114.4 93.6 0
      vertex 114.4 50.8674 50.8645
    endloop
  endfacet
  facet normal 1 -0 0
    outer loop
      vertex 114.4 46.8 50
      vertex 114.4 93.6 0
      vertex 114.4 48.8791 50.2185
    endloop
  endfacet
  facet normal 1 0 0
    outer loop
      vertex 114.4 1.6 0
      vertex 114.4 46.8 50
      vertex 114.4 44.7209 50.2185
    endloop
  endfacet
  facet normal 1 0 0
    outer loop
      vertex 114.4 1.6 0
      vertex 114.4 44.7209 50.2185
      vertex 114.4 42.7326 50.8645
    endloop
  endfacet
  facet normal 1 0 0
    outer loop
      vertex 114.4 1.6 0
      vertex 114.4 42.7326 50.8645
      vertex 114.4 40.9221 51.9098
    endloop
  endfacet
  facet normal 1 0 0
    outer loop
      vertex 114.4 1.6 0
      vertex 114.4 40.9221 51.9098
      vertex 114.4 39.3686 53.3087
    endloop
  endfacet
  facet normal 1 0 0
    outer loop
      vertex 114.4 1.6 60
      vertex 114.4 37.2894 56.9098
      vertex 114.4 36.8548 58.9547
    endloop
  endfacet
  facet normal 1 0 0
    outer loop
      vertex 114.4 1.6 60
      vertex 114.4 38.1397 55
      vertex 114.4 37.2894 56.9098
    endloop
  endfacet
  facet normal 1 0 0
    outer loop
      vertex 114.4 1.6 60
      vertex 114.4 39.3686 53.3087
      vertex 114.4 38.1397 55
    endloop
  endfacet
  facet normal 1 0 0
    outer loop
      vertex 114.4 1.6 0
      vertex 114.4 39.3686 53.3087
      vertex 114.4 1.6 60
    endloop
  endfacet
  facet normal 1 0 0
    outer loop
      vertex 114.4 46.8 50
      vertex 114.4 1.6 0
      vertex 114.4 93.6 0
    endloop
  endfacet
  facet normal -1 0 0
    outer loop
      vertex 121.4 54.2314 53.3087
      vertex 121.4 93.6 60
      vertex 121.4 93.6 0
    endloop
  endfacet
  facet normal -1 0 0
    outer loop
      vertex 121.4 93.6 60
      vertex 121.4 56.3106 56.9098
      vertex 121.4 56.7452 58.9547
    endloop
  endfacet
  facet normal -1 0 0
    outer loop
      vertex 121.4 93.6 60
      vertex 121.4 55.4603 55
      vertex 121.4 56.3106 56.9098
    endloop
  endfacet
  facet normal -1 0 0
    outer loop
      vertex 121.4 93.6 60
      vertex 121.4 54.2314 53.3087
      vertex 121.4 55.4603 55
    endloop
  endfacet
  facet normal -1 0 0
    outer loop
      vertex 121.4 93.6 0
      vertex 121.4 52.6779 51.9098
      vertex 121.4 54.2314 53.3087
    endloop
  endfacet
  facet normal -1 0 0
    outer loop
      vertex 121.4 93.6 0
      vertex 121.4 50.8674 50.8645
      vertex 121.4 52.6779 51.9098
    endloop
  endfacet
  facet normal -1 0 0
    outer loop
      vertex 121.4 93.6 0
      vertex 121.4 48.8791 50.2185
      vertex 121.4 50.8674 50.8645
    endloop
  endfacet
  facet normal -1 0 0
    outer loop
      vertex 121.4 93.6 0
      vertex 121.4 46.8 50
      vertex 121.4 48.8791 50.2185
    endloop
  endfacet
  facet normal -1 0 0
    outer loop
      vertex 121.4 1.6 0
      vertex 121.4 46.8 50
      vertex 121.4 93.6 0
    endloop
  endfacet
  facet normal -1 -0 0
    outer loop
      vertex 121.4 46.8 50
      vertex 121.4 1.6 0
      vertex 121.4 44.7209 50.2185
    endloop
  endfacet
  facet normal -1 -0 0
    outer loop
      vertex 121.4 44.7209 50.2185
      vertex 121.4 1.6 0
      vertex 121.4 42.7326 50.8645
    endloop
  endfacet
  facet normal -1 -0 0
    outer loop
      vertex 121.4 42.7326 50.8645
      vertex 121.4 1.6 0
      vertex 121.4 40.9221 51.9098
    endloop
  endfacet
  facet normal -1 -0 0
    outer loop
      vertex 121.4 40.9221 51.9098
      vertex 121.4 1.6 0
      vertex 121.4 39.3686 53.3087
    endloop
  endfacet
  facet normal -1 0 0
    outer loop
      vertex 121.4 1.6 60
      vertex 121.4 39.3686 53.3087
      vertex 121.4 1.6 0
    endloop
  endfacet
  facet normal -1 0 0
    outer loop
      vertex 121.4 39.3686 53.3087
      vertex 121.4 1.6 60
      vertex 121.4 38.1397 55
    endloop
  endfacet
  facet normal -1 0 0
    outer loop
      vertex 121.4 38.1397 55
      vertex 121.4 1.6 60
      vertex 121.4 37.2894 56.9098
    endloop
  endfacet
  facet normal -1 0 0
    outer loop
      vertex 121.4 37.2894 56.9098
      vertex 121.4 1.6 60
      vertex 121.4 36.8548 58.9547
    endloop
  endfacet
  facet normal -1 0 0
    outer loop
      vertex 121.4 36.8548 58.9547
      vertex 121.4 1.6 60
      vertex 121.4 36.8548 60
    endloop
  endfacet
  facet normal -1 -0 0
    outer loop
      vertex 121.4 93.6 60
      vertex 121.4 56.7452 58.9547
      vertex 121.4 56.7452 60
    endloop
  endfacet
  facet normal 1 0 0
    outer loop
      vertex 123 36.8548 60
      vertex 123 1.6 60
      vertex 123 36.8548 58.9547
    endloop
  endfacet
  facet normal 1 0 0
    outer loop
      vertex 123 56.7452 58.9547
      vertex 123 93.6 60
      vertex 123 56.7452 60
    endloop
  endfacet
  facet normal 1 0 0
    outer loop
      vertex 123 56.3106 56.9098
      vertex 123 93.6 60
      vertex 123 56.7452 58.9547
    endloop
  endfacet
  facet normal 1 0 0
    outer loop
      vertex 123 55.4603 55
      vertex 123 93.6 60
      vertex 123 56.3106 56.9098
    endloop
  endfacet
  facet normal 1 0 0
    outer loop
      vertex 123 54.2314 53.3087
      vertex 123 93.6 60
      vertex 123 55.4603 55
    endloop
  endfacet
  facet normal 1 0 0
    outer loop
      vertex 123 93.6 60
      vertex 123 54.2314 53.3087
      vertex 123 93.6 0
    endloop
  endfacet
  facet normal 1 -0 0
    outer loop
      vertex 123 52.6779 51.9098
      vertex 123 93.6 0
      vertex 123 54.2314 53.3087
    endloop
  endfacet
  facet normal 1 -0 0
    outer loop
      vertex 123 50.8674 50.8645
      vertex 123 93.6 0
      vertex 123 52.6779 51.9098
    endloop
  endfacet
  facet normal 1 -0 0
    outer loop
      vertex 123 48.8791 50.2185
      vertex 123 93.6 0
      vertex 123 50.8674 50.8645
    endloop
  endfacet
  facet normal 1 -0 0
    outer loop
      vertex 123 46.8 50
      vertex 123 93.6 0
      vertex 123 48.8791 50.2185
    endloop
  endfacet
  facet normal 1 0 0
    outer loop
      vertex 123 1.6 0
      vertex 123 46.8 50
      vertex 123 44.7209 50.2185
    endloop
  endfacet
  facet normal 1 0 0
    outer loop
      vertex 123 1.6 0
      vertex 123 44.7209 50.2185
      vertex 123 42.7326 50.8645
    endloop
  endfacet
  facet normal 1 0 0
    outer loop
      vertex 123 1.6 0
      vertex 123 42.7326 50.8645
      vertex 123 40.9221 51.9098
    endloop
  endfacet
  facet normal 1 0 0
    outer loop
      vertex 123 1.6 0
      vertex 123 40.9221 51.9098
      vertex 123 39.3686 53.3087
    endloop
  endfacet
  facet normal 1 0 0
    outer loop
      vertex 123 1.6 60
      vertex 123 37.2894 56.9098
      vertex 123 36.8548 58.9547
    endloop
  endfacet
  facet normal 1 0 0
    outer loop
      vertex 123 1.6 60
      vertex 123 38.1397 55
      vertex 123 37.2894 56.9098
    endloop
  endfacet
  facet normal 1 0 0
    outer loop
      vertex 123 1.6 60
      vertex 123 39.3686 53.3087
      vertex 123 38.1397 55
    endloop
  endfacet
  facet normal 1 0 0
    outer loop
      vertex 123 1.6 0
      vertex 123 39.3686 53.3087
      vertex 123 1.6 60
    endloop
  endfacet
  facet normal 1 0 0
    outer loop
      vertex 123 46.8 50
      vertex 123 1.6 0
      vertex 123 93.6 0
    endloop
  endfacet
  facet normal -1 0 0
    outer loop
      vertex 129 54.2314 53.3087
      vertex 129 93.6 60
      vertex 129 93.6 0
    endloop
  endfacet
  facet normal -1 0 0
    outer loop
      vertex 129 93.6 60
      vertex 129 56.3106 56.9098
      vertex 129 56.7452 58.9547
    endloop
  endfacet
  facet normal -1 0 0
    outer loop
      vertex 129 93.6 60
      vertex 129 55.4603 55
      vertex 129 56.3106 56.9098
    endloop
  endfacet
  facet normal -1 0 0
    outer loop
      vertex 129 93.6 60
      vertex 129 54.2314 53.3087
      vertex 129 55.4603 55
    endloop
  endfacet
  facet normal -1 0 0
    outer loop
      vertex 129 93.6 0
      vertex 129 52.6779 51.9098
      vertex 129 54.2314 53.3087
    endloop
  endfacet
  facet normal -1 0 0
    outer loop
      vertex 129 93.6 0
      vertex 129 50.8674 50.8645
      vertex 129 52.6779 51.9098
    endloop
  endfacet
  facet normal -1 0 0
    outer loop
      vertex 129 93.6 0
      vertex 129 48.8791 50.2185
      vertex 129 50.8674 50.8645
    endloop
  endfacet
  facet normal -1 0 0
    outer loop
      vertex 129 93.6 0
      vertex 129 46.8 50
      vertex 129 48.8791 50.2185
    endloop
  endfacet
  facet normal -1 0 0
    outer loop
      vertex 129 1.6 0
      vertex 129 46.8 50
      vertex 129 93.6 0
    endloop
  endfacet
  facet normal -1 -0 0
    outer loop
      vertex 129 46.8 50
      vertex 129 1.6 0
      vertex 129 44.7209 50.2185
    endloop
  endfacet
  facet normal -1 -0 0
    outer loop
      vertex 129 44.7209 50.2185
      vertex 129 1.6 0
      vertex 129 42.7326 50.8645
    endloop
  endfacet
  facet normal -1 -0 0
    outer loop
      vertex 129 42.7326 50.8645
      vertex 129 1.6 0
      vertex 129 40.9221 51.9098
    endloop
  endfacet
  facet normal -1 -0 0
    outer loop
      vertex 129 40.9221 51.9098
      vertex 129 1.6 0
      vertex 129 39.3686 53.3087
    endloop
  endfacet
  facet normal -1 0 0
    outer loop
      vertex 129 1.6 60
      vertex 129 39.3686 53.3087
      vertex 129 1.6 0
    endloop
  endfacet
  facet normal -1 0 0
    outer loop
      vertex 129 39.3686 53.3087
      vertex 129 1.6 60
      vertex 129 38.1397 55
    endloop
  endfacet
  facet normal -1 0 0
    outer loop
      vertex 129 38.1397 55
      vertex 129 1.6 60
      vertex 129 37.2894 56.9098
    endloop
  endfacet
  facet normal -1 0 0
    outer loop
      vertex 129 37.2894 56.9098
      vertex 129 1.6 60
      vertex 129 36.8548 58.9547
    endloop
  endfacet
  facet normal -1 0 0
    outer loop
      vertex 129 36.8548 58.9547
      vertex 129 1.6 60
      vertex 129 36.8548 60
    endloop
  endfacet
  facet normal -1 -0 0
    outer loop
      vertex 129 93.6 60
      vertex 129 56.7452 58.9547
      vertex 129 56.7452 60
    endloop
  endfacet
  facet normal 1 0 0
    outer loop
      vertex 130.6 36.8548 60
      vertex 130.6 1.6 60
      vertex 130.6 36.8548 58.9547
    endloop
  endfacet
  facet normal 1 0 0
    outer loop
      vertex 130.6 56.7452 58.9547
      vertex 130.6 93.6 60
      vertex 130.6 56.7452 60
    endloop
  endfacet
  facet normal 1 0 0
    outer loop
      vertex 130.6 56.3106 56.9098
      vertex 130.6 93.6 60
      vertex 130.6 56.7452 58.9547
    endloop
  endfacet
  facet normal 1 0 0
    outer loop
      vertex 130.6 55.4603 55
      vertex 130.6 93.6 60
      vertex 130.6 56.3106 56.9098
    endloop
  endfacet
  facet normal 1 0 0
    outer loop
      vertex 130.6 54.2314 53.3087
      vertex 130.6 93.6 60
      vertex 130.6 55.4603 55
    endloop
  endfacet
  facet normal 1 0 0
    outer loop
      vertex 130.6 93.6 60
      vertex 130.6 54.2314 53.3087
      vertex 130.6 93.6 0
    endloop
  endfacet
  facet normal 1 -0 0
    outer loop
      vertex 130.6 52.6779 51.9098
      vertex 130.6 93.6 0
      vertex 130.6 54.2314 53.3087
    endloop
  endfacet
  facet normal 1 -0 0
    outer loop
      vertex 130.6 50.8674 50.8645
      vertex 130.6 93.6 0
      vertex 130.6 52.6779 51.9098
    endloop
  endfacet
  facet normal 1 -0 0
    outer loop
      vertex 130.6 48.8791 50.2185
      vertex 130.6 93.6 0
      vertex 130.6 50.8674 50.8645
    endloop
  endfacet
  facet normal 1 -0 0
    outer loop
      vertex 130.6 46.8 50
      vertex 130.6 93.6 0
      vertex 130.6 48.8791 50.2185
    endloop
  endfacet
  facet normal 1 0 0
    outer loop
      vertex 130.6 1.6 0
      vertex 130.6 46.8 50
      vertex 130.6 44.7209 50.2185
    endloop
  endfacet
  facet normal 1 0 0
    outer loop
      vertex 130.6 1.6 0
      vertex 130.6 44.7209 50.2185
      vertex 130.6 42.7326 50.8645
    endloop
  endfacet
  facet normal 1 0 0
    outer loop
      vertex 130.6 1.6 0
      vertex 130.6 42.7326 50.8645
      vertex 130.6 40.9221 51.9098
    endloop
  endfacet
  facet normal 1 0 0
    outer loop
      vertex 130.6 1.6 0
      vertex 130.6 40.9221 51.9098
      vertex 130.6 39.3686 53.3087
    endloop
  endfacet
  facet normal 1 0 0
    outer loop
      vertex 130.6 1.6 60
      vertex 130.6 37.2894 56.9098
      vertex 130.6 36.8548 58.9547
    endloop
  endfacet
  facet normal 1 0 0
    outer loop
      vertex 130.6 1.6 60
      vertex 130.6 38.1397 55
      vertex 130.6 37.2894 56.9098
    endloop
  endfacet
  facet normal 1 0 0
    outer loop
      vertex 130.6 1.6 60
      vertex 130.6 39.3686 53.3087
      vertex 130.6 38.1397 55
    endloop
  endfacet
  facet normal 1 0 0
    outer loop
      vertex 130.6 1.6 0
      vertex 130.6 39.3686 53.3087
      vertex 130.6 1.6 60
    endloop
  endfacet
  facet normal 1 0 0
    outer loop
      vertex 130.6 46.8 50
      vertex 130.6 1.6 0
      vertex 130.6 93.6 0
    endloop
  endfacet
  facet normal -1 0 0
    outer loop
      vertex 142.6 54.2314 53.3087
      vertex 142.6 93.6 60
      vertex 142.6 93.6 0
    endloop
  endfacet
  facet normal -1 0 0
    outer loop
      vertex 142.6 93.6 60
      vertex 142.6 56.3106 56.9098
      vertex 142.6 56.7452 58.9547
    endloop
  endfacet
  facet normal -1 0 0
    outer loop
      vertex 142.6 93.6 60
      vertex 142.6 55.4603 55
      vertex 142.6 56.3106 56.9098
    endloop
  endfacet
  facet normal -1 0 0
    outer loop
      vertex 142.6 93.6 60
      vertex 142.6 54.2314 53.3087
      vertex 142.6 55.4603 55
    endloop
  endfacet
  facet normal -1 0 0
    outer loop
      vertex 142.6 93.6 0
      vertex 142.6 52.6779 51.9098
      vertex 142.6 54.2314 53.3087
    endloop
  endfacet
  facet normal -1 0 0
    outer loop
      vertex 142.6 93.6 0
      vertex 142.6 50.8674 50.8645
      vertex 142.6 52.6779 51.9098
    endloop
  endfacet
  facet normal -1 0 0
    outer loop
      vertex 142.6 93.6 0
      vertex 142.6 48.8791 50.2185
      vertex 142.6 50.8674 50.8645
    endloop
  endfacet
  facet normal -1 0 0
    outer loop
      vertex 142.6 93.6 0
      vertex 142.6 46.8 50
      vertex 142.6 48.8791 50.2185
    endloop
  endfacet
  facet normal -1 0 0
    outer loop
      vertex 142.6 1.6 0
      vertex 142.6 46.8 50
      vertex 142.6 93.6 0
    endloop
  endfacet
  facet normal -1 -0 0
    outer loop
      vertex 142.6 46.8 50
      vertex 142.6 1.6 0
      vertex 142.6 44.7209 50.2185
    endloop
  endfacet
  facet normal -1 -0 0
    outer loop
      vertex 142.6 44.7209 50.2185
      vertex 142.6 1.6 0
      vertex 142.6 42.7326 50.8645
    endloop
  endfacet
  facet normal -1 -0 0
    outer loop
      vertex 142.6 42.7326 50.8645
      vertex 142.6 1.6 0
      vertex 142.6 40.9221 51.9098
    endloop
  endfacet
  facet normal -1 -0 0
    outer loop
      vertex 142.6 40.9221 51.9098
      vertex 142.6 1.6 0
      vertex 142.6 39.3686 53.3087
    endloop
  endfacet
  facet normal -1 0 0
    outer loop
      vertex 142.6 1.6 60
      vertex 142.6 39.3686 53.3087
      vertex 142.6 1.6 0
    endloop
  endfacet
  facet normal -1 0 0
    outer loop
      vertex 142.6 39.3686 53.3087
      vertex 142.6 1.6 60
      vertex 142.6 38.1397 55
    endloop
  endfacet
  facet normal -1 0 0
    outer loop
      vertex 142.6 38.1397 55
      vertex 142.6 1.6 60
      vertex 142.6 37.2894 56.9098
    endloop
  endfacet
  facet normal -1 0 0
    outer loop
      vertex 142.6 37.2894 56.9098
      vertex 142.6 1.6 60
      vertex 142.6 36.8548 58.9547
    endloop
  endfacet
  facet normal -1 0 0
    outer loop
      vertex 142.6 36.8548 58.9547
      vertex 142.6 1.6 60
      vertex 142.6 36.8548 60
    endloop
  endfacet
  facet normal -1 -0 0
    outer loop
      vertex 142.6 93.6 60
      vertex 142.6 56.7452 58.9547
      vertex 142.6 56.7452 60
    endloop
  endfacet
  facet normal 1 0 0
    outer loop
      vertex 144.2 36.8548 60
      vertex 144.2 1.6 60
      vertex 144.2 36.8548 58.9547
    endloop
  endfacet
  facet normal 1 0 0
    outer loop
      vertex 144.2 56.7452 58.9547
      vertex 144.2 93.6 60
      vertex 144.2 56.7452 60
    endloop
  endfacet
  facet normal 1 0 0
    outer loop
      vertex 144.2 56.3106 56.9098
      vertex 144.2 93.6 60
      vertex 144.2 56.7452 58.9547
    endloop
  endfacet
  facet normal 1 0 0
    outer loop
      vertex 144.2 55.4603 55
      vertex 144.2 93.6 60
      vertex 144.2 56.3106 56.9098
    endloop
  endfacet
  facet normal 1 0 0
    outer loop
      vertex 144.2 54.2314 53.3087
      vertex 144.2 93.6 60
      vertex 144.2 55.4603 55
    endloop
  endfacet
  facet normal 1 0 0
    outer loop
      vertex 144.2 93.6 60
      vertex 144.2 54.2314 53.3087
      vertex 144.2 93.6 0
    endloop
  endfacet
  facet normal 1 -0 0
    outer loop
      vertex 144.2 52.6779 51.9098
      vertex 144.2 93.6 0
      vertex 144.2 54.2314 53.3087
    endloop
  endfacet
  facet normal 1 -0 0
    outer loop
      vertex 144.2 50.8674 50.8645
      vertex 144.2 93.6 0
      vertex 144.2 52.6779 51.9098
    endloop
  endfacet
  facet normal 1 -0 0
    outer loop
      vertex 144.2 48.8791 50.2185
      vertex 144.2 93.6 0
      vertex 144.2 50.8674 50.8645
    endloop
  endfacet
  facet normal 1 -0 0
    outer loop
      vertex 144.2 46.8 50
      vertex 144.2 93.6 0
      vertex 144.2 48.8791 50.2185
    endloop
  endfacet
  facet normal 1 0 0
    outer loop
      vertex 144.2 1.6 0
      vertex 144.2 46.8 50
      vertex 144.2 44.7209 50.2185
    endloop
  endfacet
  facet normal 1 0 0
    outer loop
      vertex 144.2 1.6 0
      vertex 144.2 44.7209 50.2185
      vertex 144.2 42.7326 50.8645
    endloop
  endfacet
  facet normal 1 0 0
    outer loop
      vertex 144.2 1.6 0
      vertex 144.2 42.7326 50.8645
      vertex 144.2 40.9221 51.9098
    endloop
  endfacet
  facet normal 1 0 0
    outer loop
      vertex 144.2 1.6 0
      vertex 144.2 40.9221 51.9098
      vertex 144.2 39.3686 53.3087
    endloop
  endfacet
  facet normal 1 0 0
    outer loop
      vertex 144.2 1.6 60
      vertex 144.2 37.2894 56.9098
      vertex 144.2 36.8548 58.9547
    endloop
  endfacet
  facet normal 1 0 0
    outer loop
      vertex 144.2 1.6 60
      vertex 144.2 38.1397 55
      vertex 144.2 37.2894 56.9098
    endloop
  endfacet
  facet normal 1 0 0
    outer loop
      vertex 144.2 1.6 60
      vertex 144.2 39.3686 53.3087
      vertex 144.2 38.1397 55
    endloop
  endfacet
  facet normal 1 0 0
    outer loop
      vertex 144.2 1.6 0
      vertex 144.2 39.3686 53.3087
      vertex 144.2 1.6 60
    endloop
  endfacet
  facet normal 1 0 0
    outer loop
      vertex 144.2 46.8 50
      vertex 144.2 1.6 0
      vertex 144.2 93.6 0
    endloop
  endfacet
  facet normal -1 0 0
    outer loop
      vertex 194.2 1.6 0
      vertex 194.2 93.6 60
      vertex 194.2 93.6 0
    endloop
  endfacet
  facet normal -1 -0 0
    outer loop
      vertex 194.2 93.6 60
      vertex 194.2 1.6 0
      vertex 194.2 1.6 60
    endloop
  endfacet
  facet normal 1 -0 0
    outer loop
      vertex 195.8 0 60
      vertex 195.8 95.2 0
      vertex 195.8 95.2 60
    endloop
  endfacet
  facet normal 1 0 0
    outer loop
      vertex 195.8 95.2 0
      vertex 195.8 0 60
      vertex 195.8 0 0
    endloop
  endfacet
  facet normal 0 -0.104529 0.994522
    outer loop
      vertex 0 48.8791 50.2185
      vertex 1.6 46.8 50
      vertex 1.6 48.8791 50.2185
    endloop
  endfacet
  facet normal 0 -0.104529 0.994522
    outer loop
      vertex 1.6 46.8 50
      vertex 0 48.8791 50.2185
      vertex 0 46.8 50
    endloop
  endfacet
  facet normal 0 -0.104529 0.994522
    outer loop
      vertex 79.6 48.8791 50.2185
      vertex 81.2 46.8 50
      vertex 81.2 48.8791 50.2185
    endloop
  endfacet
  facet normal 0 -0.104529 0.994522
    outer loop
      vertex 81.2 46.8 50
      vertex 79.6 48.8791 50.2185
      vertex 79.6 46.8 50
    endloop
  endfacet
  facet normal 0 -0.104529 0.994522
    outer loop
      vertex 105.2 48.8791 50.2185
      vertex 106.8 46.8 50
      vertex 106.8 48.8791 50.2185
    endloop
  endfacet
  facet normal 0 -0.104529 0.994522
    outer loop
      vertex 106.8 46.8 50
      vertex 105.2 48.8791 50.2185
      vertex 105.2 46.8 50
    endloop
  endfacet
  facet normal 0 -0.104529 0.994522
    outer loop
      vertex 112.8 48.8791 50.2185
      vertex 114.4 46.8 50
      vertex 114.4 48.8791 50.2185
    endloop
  endfacet
  facet normal 0 -0.104529 0.994522
    outer loop
      vertex 114.4 46.8 50
      vertex 112.8 48.8791 50.2185
      vertex 112.8 46.8 50
    endloop
  endfacet
  facet normal 0 -0.104529 0.994522
    outer loop
      vertex 121.4 48.8791 50.2185
      vertex 123 46.8 50
      vertex 123 48.8791 50.2185
    endloop
  endfacet
  facet normal 0 -0.104529 0.994522
    outer loop
      vertex 123 46.8 50
      vertex 121.4 48.8791 50.2185
      vertex 121.4 46.8 50
    endloop
  endfacet
  facet normal 0 -0.104529 0.994522
    outer loop
      vertex 129 48.8791 50.2185
      vertex 130.6 46.8 50
      vertex 130.6 48.8791 50.2185
    endloop
  endfacet
  facet normal 0 -0.104529 0.994522
    outer loop
      vertex 130.6 46.8 50
      vertex 129 48.8791 50.2185
      vertex 129 46.8 50
    endloop
  endfacet
  facet normal 0 -0.104529 0.994522
    outer loop
      vertex 142.6 48.8791 50.2185
      vertex 144.2 46.8 50
      vertex 144.2 48.8791 50.2185
    endloop
  endfacet
  facet normal 0 -0.104529 0.994522
    outer loop
      vertex 144.2 46.8 50
      vertex 142.6 48.8791 50.2185
      vertex 142.6 46.8 50
    endloop
  endfacet
  facet normal 0 1 -0
    outer loop
      vertex 1.6 36.8548 58.9547
      vertex 0 36.8548 60
      vertex 1.6 36.8548 60
    endloop
  endfacet
  facet normal 0 1 0
    outer loop
      vertex 0 36.8548 60
      vertex 1.6 36.8548 58.9547
      vertex 0 36.8548 58.9547
    endloop
  endfacet
  facet normal 0 1 -0
    outer loop
      vertex 81.2 36.8548 58.9547
      vertex 79.6 36.8548 60
      vertex 81.2 36.8548 60
    endloop
  endfacet
  facet normal 0 1 0
    outer loop
      vertex 79.6 36.8548 60
      vertex 81.2 36.8548 58.9547
      vertex 79.6 36.8548 58.9547
    endloop
  endfacet
  facet normal 0 1 -0
    outer loop
      vertex 106.8 36.8548 58.9547
      vertex 105.2 36.8548 60
      vertex 106.8 36.8548 60
    endloop
  endfacet
  facet normal 0 1 0
    outer loop
      vertex 105.2 36.8548 60
      vertex 106.8 36.8548 58.9547
      vertex 105.2 36.8548 58.9547
    endloop
  endfacet
  facet normal 0 1 -0
    outer loop
      vertex 114.4 36.8548 58.9547
      vertex 112.8 36.8548 60
      vertex 114.4 36.8548 60
    endloop
  endfacet
  facet normal 0 1 0
    outer loop
      vertex 112.8 36.8548 60
      vertex 114.4 36.8548 58.9547
      vertex 112.8 36.8548 58.9547
    endloop
  endfacet
  facet normal 0 1 -0
    outer loop
      vertex 123 36.8548 58.9547
      vertex 121.4 36.8548 60
      vertex 123 36.8548 60
    endloop
  endfacet
  facet normal 0 1 0
    outer loop
      vertex 121.4 36.8548 60
      vertex 123 36.8548 58.9547
      vertex 121.4 36.8548 58.9547
    endloop
  endfacet
  facet normal 0 1 -0
    outer loop
      vertex 130.6 36.8548 58.9547
      vertex 129 36.8548 60
      vertex 130.6 36.8548 60
    endloop
  endfacet
  facet normal 0 1 0
    outer loop
      vertex 129 36.8548 60
      vertex 130.6 36.8548 58.9547
      vertex 129 36.8548 58.9547
    endloop
  endfacet
  facet normal 0 1 -0
    outer loop
      vertex 144.2 36.8548 58.9547
      vertex 142.6 36.8548 60
      vertex 144.2 36.8548 60
    endloop
  endfacet
  facet normal 0 1 0
    outer loop
      vertex 142.6 36.8548 60
      vertex 144.2 36.8548 58.9547
      vertex 142.6 36.8548 58.9547
    endloop
  endfacet
  facet normal -0 0.5 0.866025
    outer loop
      vertex 0 42.7326 50.8645
      vertex 1.6 40.9221 51.9098
      vertex 1.6 42.7326 50.8645
    endloop
  endfacet
  facet normal 0 0.5 0.866025
    outer loop
      vertex 1.6 40.9221 51.9098
      vertex 0 42.7326 50.8645
      vertex 0 40.9221 51.9098
    endloop
  endfacet
  facet normal -0 0.5 0.866025
    outer loop
      vertex 79.6 42.7326 50.8645
      vertex 81.2 40.9221 51.9098
      vertex 81.2 42.7326 50.8645
    endloop
  endfacet
  facet normal 0 0.5 0.866025
    outer loop
      vertex 81.2 40.9221 51.9098
      vertex 79.6 42.7326 50.8645
      vertex 79.6 40.9221 51.9098
    endloop
  endfacet
  facet normal -0 0.5 0.866025
    outer loop
      vertex 105.2 42.7326 50.8645
      vertex 106.8 40.9221 51.9098
      vertex 106.8 42.7326 50.8645
    endloop
  endfacet
  facet normal 0 0.5 0.866025
    outer loop
      vertex 106.8 40.9221 51.9098
      vertex 105.2 42.7326 50.8645
      vertex 105.2 40.9221 51.9098
    endloop
  endfacet
  facet normal -0 0.5 0.866025
    outer loop
      vertex 112.8 42.7326 50.8645
      vertex 114.4 40.9221 51.9098
      vertex 114.4 42.7326 50.8645
    endloop
  endfacet
  facet normal 0 0.5 0.866025
    outer loop
      vertex 114.4 40.9221 51.9098
      vertex 112.8 42.7326 50.8645
      vertex 112.8 40.9221 51.9098
    endloop
  endfacet
  facet normal -0 0.5 0.866025
    outer loop
      vertex 121.4 42.7326 50.8645
      vertex 123 40.9221 51.9098
      vertex 123 42.7326 50.8645
    endloop
  endfacet
  facet normal 0 0.5 0.866025
    outer loop
      vertex 123 40.9221 51.9098
      vertex 121.4 42.7326 50.8645
      vertex 121.4 40.9221 51.9098
    endloop
  endfacet
  facet normal -0 0.5 0.866025
    outer loop
      vertex 129 42.7326 50.8645
      vertex 130.6 40.9221 51.9098
      vertex 130.6 42.7326 50.8645
    endloop
  endfacet
  facet normal 0 0.5 0.866025
    outer loop
      vertex 130.6 40.9221 51.9098
      vertex 129 42.7326 50.8645
      vertex 129 40.9221 51.9098
    endloop
  endfacet
  facet normal -0 0.5 0.866025
    outer loop
      vertex 142.6 42.7326 50.8645
      vertex 144.2 40.9221 51.9098
      vertex 144.2 42.7326 50.8645
    endloop
  endfacet
  facet normal 0 0.5 0.866025
    outer loop
      vertex 144.2 40.9221 51.9098
      vertex 142.6 42.7326 50.8645
      vertex 142.6 40.9221 51.9098
    endloop
  endfacet
  facet normal 0 -0.309016 0.951057
    outer loop
      vertex 0 50.8674 50.8645
      vertex 1.6 48.8791 50.2185
      vertex 1.6 50.8674 50.8645
    endloop
  endfacet
  facet normal 0 -0.309016 0.951057
    outer loop
      vertex 1.6 48.8791 50.2185
      vertex 0 50.8674 50.8645
      vertex 0 48.8791 50.2185
    endloop
  endfacet
  facet normal 0 -0.309016 0.951057
    outer loop
      vertex 79.6 50.8674 50.8645
      vertex 81.2 48.8791 50.2185
      vertex 81.2 50.8674 50.8645
    endloop
  endfacet
  facet normal 0 -0.309016 0.951057
    outer loop
      vertex 81.2 48.8791 50.2185
      vertex 79.6 50.8674 50.8645
      vertex 79.6 48.8791 50.2185
    endloop
  endfacet
  facet normal 0 -0.309016 0.951057
    outer loop
      vertex 105.2 50.8674 50.8645
      vertex 106.8 48.8791 50.2185
      vertex 106.8 50.8674 50.8645
    endloop
  endfacet
  facet normal 0 -0.309016 0.951057
    outer loop
      vertex 106.8 48.8791 50.2185
      vertex 105.2 50.8674 50.8645
      vertex 105.2 48.8791 50.2185
    endloop
  endfacet
  facet normal 0 -0.309016 0.951057
    outer loop
      vertex 112.8 50.8674 50.8645
      vertex 114.4 48.8791 50.2185
      vertex 114.4 50.8674 50.8645
    endloop
  endfacet
  facet normal 0 -0.309016 0.951057
    outer loop
      vertex 114.4 48.8791 50.2185
      vertex 112.8 50.8674 50.8645
      vertex 112.8 48.8791 50.2185
    endloop
  endfacet
  facet normal 0 -0.309016 0.951057
    outer loop
      vertex 121.4 50.8674 50.8645
      vertex 123 48.8791 50.2185
      vertex 123 50.8674 50.8645
    endloop
  endfacet
  facet normal 0 -0.309016 0.951057
    outer loop
      vertex 123 48.8791 50.2185
      vertex 121.4 50.8674 50.8645
      vertex 121.4 48.8791 50.2185
    endloop
  endfacet
  facet normal 0 -0.309016 0.951057
    outer loop
      vertex 129 50.8674 50.8645
      vertex 130.6 48.8791 50.2185
      vertex 130.6 50.8674 50.8645
    endloop
  endfacet
  facet normal 0 -0.309016 0.951057
    outer loop
      vertex 130.6 48.8791 50.2185
      vertex 129 50.8674 50.8645
      vertex 129 48.8791 50.2185
    endloop
  endfacet
  facet normal 0 -0.309016 0.951057
    outer loop
      vertex 142.6 50.8674 50.8645
      vertex 144.2 48.8791 50.2185
      vertex 144.2 50.8674 50.8645
    endloop
  endfacet
  facet normal 0 -0.309016 0.951057
    outer loop
      vertex 144.2 48.8791 50.2185
      vertex 142.6 50.8674 50.8645
      vertex 142.6 48.8791 50.2185
    endloop
  endfacet
  facet normal 0 -0.669131 0.743145
    outer loop
      vertex 0 54.2314 53.3087
      vertex 1.6 52.6779 51.9098
      vertex 1.6 54.2314 53.3087
    endloop
  endfacet
  facet normal 0 -0.669131 0.743145
    outer loop
      vertex 1.6 52.6779 51.9098
      vertex 0 54.2314 53.3087
      vertex 0 52.6779 51.9098
    endloop
  endfacet
  facet normal 0 -0.669131 0.743145
    outer loop
      vertex 79.6 54.2314 53.3087
      vertex 81.2 52.6779 51.9098
      vertex 81.2 54.2314 53.3087
    endloop
  endfacet
  facet normal 0 -0.669131 0.743145
    outer loop
      vertex 81.2 52.6779 51.9098
      vertex 79.6 54.2314 53.3087
      vertex 79.6 52.6779 51.9098
    endloop
  endfacet
  facet normal 0 -0.669131 0.743145
    outer loop
      vertex 105.2 54.2314 53.3087
      vertex 106.8 52.6779 51.9098
      vertex 106.8 54.2314 53.3087
    endloop
  endfacet
  facet normal 0 -0.669131 0.743145
    outer loop
      vertex 106.8 52.6779 51.9098
      vertex 105.2 54.2314 53.3087
      vertex 105.2 52.6779 51.9098
    endloop
  endfacet
  facet normal 0 -0.669131 0.743145
    outer loop
      vertex 112.8 54.2314 53.3087
      vertex 114.4 52.6779 51.9098
      vertex 114.4 54.2314 53.3087
    endloop
  endfacet
  facet normal 0 -0.669131 0.743145
    outer loop
      vertex 114.4 52.6779 51.9098
      vertex 112.8 54.2314 53.3087
      vertex 112.8 52.6779 51.9098
    endloop
  endfacet
  facet normal 0 -0.669131 0.743145
    outer loop
      vertex 121.4 54.2314 53.3087
      vertex 123 52.6779 51.9098
      vertex 123 54.2314 53.3087
    endloop
  endfacet
  facet normal 0 -0.669131 0.743145
    outer loop
      vertex 123 52.6779 51.9098
      vertex 121.4 54.2314 53.3087
      vertex 121.4 52.6779 51.9098
    endloop
  endfacet
  facet normal 0 -0.669131 0.743145
    outer loop
      vertex 129 54.2314 53.3087
      vertex 130.6 52.6779 51.9098
      vertex 130.6 54.2314 53.3087
    endloop
  endfacet
  facet normal 0 -0.669131 0.743145
    outer loop
      vertex 130.6 52.6779 51.9098
      vertex 129 54.2314 53.3087
      vertex 129 52.6779 51.9098
    endloop
  endfacet
  facet normal 0 -0.669131 0.743145
    outer loop
      vertex 142.6 54.2314 53.3087
      vertex 144.2 52.6779 51.9098
      vertex 144.2 54.2314 53.3087
    endloop
  endfacet
  facet normal 0 -0.669131 0.743145
    outer loop
      vertex 144.2 52.6779 51.9098
      vertex 142.6 54.2314 53.3087
      vertex 142.6 52.6779 51.9098
    endloop
  endfacet
  facet normal 0 -0.978148 0.20791
    outer loop
      vertex 0 56.3106 56.9098
      vertex 1.6 56.7452 58.9547
      vertex 0 56.7452 58.9547
    endloop
  endfacet
  facet normal 0 -0.978148 0.20791
    outer loop
      vertex 1.6 56.7452 58.9547
      vertex 0 56.3106 56.9098
      vertex 1.6 56.3106 56.9098
    endloop
  endfacet
  facet normal 0 -0.978148 0.20791
    outer loop
      vertex 79.6 56.3106 56.9098
      vertex 81.2 56.7452 58.9547
      vertex 79.6 56.7452 58.9547
    endloop
  endfacet
  facet normal 0 -0.978148 0.20791
    outer loop
      vertex 81.2 56.7452 58.9547
      vertex 79.6 56.3106 56.9098
      vertex 81.2 56.3106 56.9098
    endloop
  endfacet
  facet normal 0 -0.978148 0.20791
    outer loop
      vertex 105.2 56.3106 56.9098
      vertex 106.8 56.7452 58.9547
      vertex 105.2 56.7452 58.9547
    endloop
  endfacet
  facet normal 0 -0.978148 0.20791
    outer loop
      vertex 106.8 56.7452 58.9547
      vertex 105.2 56.3106 56.9098
      vertex 106.8 56.3106 56.9098
    endloop
  endfacet
  facet normal 0 -0.978148 0.20791
    outer loop
      vertex 112.8 56.3106 56.9098
      vertex 114.4 56.7452 58.9547
      vertex 112.8 56.7452 58.9547
    endloop
  endfacet
  facet normal 0 -0.978148 0.20791
    outer loop
      vertex 114.4 56.7452 58.9547
      vertex 112.8 56.3106 56.9098
      vertex 114.4 56.3106 56.9098
    endloop
  endfacet
  facet normal 0 -0.978148 0.20791
    outer loop
      vertex 121.4 56.3106 56.9098
      vertex 123 56.7452 58.9547
      vertex 121.4 56.7452 58.9547
    endloop
  endfacet
  facet normal 0 -0.978148 0.20791
    outer loop
      vertex 123 56.7452 58.9547
      vertex 121.4 56.3106 56.9098
      vertex 123 56.3106 56.9098
    endloop
  endfacet
  facet normal 0 -0.978148 0.20791
    outer loop
      vertex 129 56.3106 56.9098
      vertex 130.6 56.7452 58.9547
      vertex 129 56.7452 58.9547
    endloop
  endfacet
  facet normal 0 -0.978148 0.20791
    outer loop
      vertex 130.6 56.7452 58.9547
      vertex 129 56.3106 56.9098
      vertex 130.6 56.3106 56.9098
    endloop
  endfacet
  facet normal 0 -0.978148 0.20791
    outer loop
      vertex 142.6 56.3106 56.9098
      vertex 144.2 56.7452 58.9547
      vertex 142.6 56.7452 58.9547
    endloop
  endfacet
  facet normal 0 -0.978148 0.20791
    outer loop
      vertex 144.2 56.7452 58.9547
      vertex 142.6 56.3106 56.9098
      vertex 144.2 56.3106 56.9098
    endloop
  endfacet
  facet normal 0 -0.809017 0.587785
    outer loop
      vertex 0 54.2314 53.3087
      vertex 1.6 55.4603 55
      vertex 0 55.4603 55
    endloop
  endfacet
  facet normal 0 -0.809017 0.587785
    outer loop
      vertex 1.6 55.4603 55
      vertex 0 54.2314 53.3087
      vertex 1.6 54.2314 53.3087
    endloop
  endfacet
  facet normal 0 -0.809017 0.587785
    outer loop
      vertex 79.6 54.2314 53.3087
      vertex 81.2 55.4603 55
      vertex 79.6 55.4603 55
    endloop
  endfacet
  facet normal 0 -0.809017 0.587785
    outer loop
      vertex 81.2 55.4603 55
      vertex 79.6 54.2314 53.3087
      vertex 81.2 54.2314 53.3087
    endloop
  endfacet
  facet normal 0 -0.809017 0.587785
    outer loop
      vertex 105.2 54.2314 53.3087
      vertex 106.8 55.4603 55
      vertex 105.2 55.4603 55
    endloop
  endfacet
  facet normal 0 -0.809017 0.587785
    outer loop
      vertex 106.8 55.4603 55
      vertex 105.2 54.2314 53.3087
      vertex 106.8 54.2314 53.3087
    endloop
  endfacet
  facet normal 0 -0.809017 0.587785
    outer loop
      vertex 112.8 54.2314 53.3087
      vertex 114.4 55.4603 55
      vertex 112.8 55.4603 55
    endloop
  endfacet
  facet normal 0 -0.809017 0.587785
    outer loop
      vertex 114.4 55.4603 55
      vertex 112.8 54.2314 53.3087
      vertex 114.4 54.2314 53.3087
    endloop
  endfacet
  facet normal 0 -0.809017 0.587785
    outer loop
      vertex 121.4 54.2314 53.3087
      vertex 123 55.4603 55
      vertex 121.4 55.4603 55
    endloop
  endfacet
  facet normal 0 -0.809017 0.587785
    outer loop
      vertex 123 55.4603 55
      vertex 121.4 54.2314 53.3087
      vertex 123 54.2314 53.3087
    endloop
  endfacet
  facet normal 0 -0.809017 0.587785
    outer loop
      vertex 129 54.2314 53.3087
      vertex 130.6 55.4603 55
      vertex 129 55.4603 55
    endloop
  endfacet
  facet normal 0 -0.809017 0.587785
    outer loop
      vertex 130.6 55.4603 55
      vertex 129 54.2314 53.3087
      vertex 130.6 54.2314 53.3087
    endloop
  endfacet
  facet normal 0 -0.809017 0.587785
    outer loop
      vertex 142.6 54.2314 53.3087
      vertex 144.2 55.4603 55
      vertex 142.6 55.4603 55
    endloop
  endfacet
  facet normal 0 -0.809017 0.587785
    outer loop
      vertex 144.2 55.4603 55
      vertex 142.6 54.2314 53.3087
      vertex 144.2 54.2314 53.3087
    endloop
  endfacet
  facet normal -0 0.104529 0.994522
    outer loop
      vertex 0 46.8 50
      vertex 1.6 44.7209 50.2185
      vertex 1.6 46.8 50
    endloop
  endfacet
  facet normal 0 0.104529 0.994522
    outer loop
      vertex 1.6 44.7209 50.2185
      vertex 0 46.8 50
      vertex 0 44.7209 50.2185
    endloop
  endfacet
  facet normal -0 0.104529 0.994522
    outer loop
      vertex 79.6 46.8 50
      vertex 81.2 44.7209 50.2185
      vertex 81.2 46.8 50
    endloop
  endfacet
  facet normal 0 0.104529 0.994522
    outer loop
      vertex 81.2 44.7209 50.2185
      vertex 79.6 46.8 50
      vertex 79.6 44.7209 50.2185
    endloop
  endfacet
  facet normal -0 0.104529 0.994522
    outer loop
      vertex 105.2 46.8 50
      vertex 106.8 44.7209 50.2185
      vertex 106.8 46.8 50
    endloop
  endfacet
  facet normal 0 0.104529 0.994522
    outer loop
      vertex 106.8 44.7209 50.2185
      vertex 105.2 46.8 50
      vertex 105.2 44.7209 50.2185
    endloop
  endfacet
  facet normal -0 0.104529 0.994522
    outer loop
      vertex 112.8 46.8 50
      vertex 114.4 44.7209 50.2185
      vertex 114.4 46.8 50
    endloop
  endfacet
  facet normal 0 0.104529 0.994522
    outer loop
      vertex 114.4 44.7209 50.2185
      vertex 112.8 46.8 50
      vertex 112.8 44.7209 50.2185
    endloop
  endfacet
  facet normal -0 0.104529 0.994522
    outer loop
      vertex 121.4 46.8 50
      vertex 123 44.7209 50.2185
      vertex 123 46.8 50
    endloop
  endfacet
  facet normal 0 0.104529 0.994522
    outer loop
      vertex 123 44.7209 50.2185
      vertex 121.4 46.8 50
      vertex 121.4 44.7209 50.2185
    endloop
  endfacet
  facet normal -0 0.104529 0.994522
    outer loop
      vertex 129 46.8 50
      vertex 130.6 44.7209 50.2185
      vertex 130.6 46.8 50
    endloop
  endfacet
  facet normal 0 0.104529 0.994522
    outer loop
      vertex 130.6 44.7209 50.2185
      vertex 129 46.8 50
      vertex 129 44.7209 50.2185
    endloop
  endfacet
  facet normal -0 0.104529 0.994522
    outer loop
      vertex 142.6 46.8 50
      vertex 144.2 44.7209 50.2185
      vertex 144.2 46.8 50
    endloop
  endfacet
  facet normal 0 0.104529 0.994522
    outer loop
      vertex 144.2 44.7209 50.2185
      vertex 142.6 46.8 50
      vertex 142.6 44.7209 50.2185
    endloop
  endfacet
  facet normal 0 -0.5 0.866025
    outer loop
      vertex 0 52.6779 51.9098
      vertex 1.6 50.8674 50.8645
      vertex 1.6 52.6779 51.9098
    endloop
  endfacet
  facet normal 0 -0.5 0.866025
    outer loop
      vertex 1.6 50.8674 50.8645
      vertex 0 52.6779 51.9098
      vertex 0 50.8674 50.8645
    endloop
  endfacet
  facet normal 0 -0.5 0.866025
    outer loop
      vertex 79.6 52.6779 51.9098
      vertex 81.2 50.8674 50.8645
      vertex 81.2 52.6779 51.9098
    endloop
  endfacet
  facet normal 0 -0.5 0.866025
    outer loop
      vertex 81.2 50.8674 50.8645
      vertex 79.6 52.6779 51.9098
      vertex 79.6 50.8674 50.8645
    endloop
  endfacet
  facet normal 0 -0.5 0.866025
    outer loop
      vertex 105.2 52.6779 51.9098
      vertex 106.8 50.8674 50.8645
      vertex 106.8 52.6779 51.9098
    endloop
  endfacet
  facet normal 0 -0.5 0.866025
    outer loop
      vertex 106.8 50.8674 50.8645
      vertex 105.2 52.6779 51.9098
      vertex 105.2 50.8674 50.8645
    endloop
  endfacet
  facet normal 0 -0.5 0.866025
    outer loop
      vertex 112.8 52.6779 51.9098
      vertex 114.4 50.8674 50.8645
      vertex 114.4 52.6779 51.9098
    endloop
  endfacet
  facet normal 0 -0.5 0.866025
    outer loop
      vertex 114.4 50.8674 50.8645
      vertex 112.8 52.6779 51.9098
      vertex 112.8 50.8674 50.8645
    endloop
  endfacet
  facet normal 0 -0.5 0.866025
    outer loop
      vertex 121.4 52.6779 51.9098
      vertex 123 50.8674 50.8645
      vertex 123 52.6779 51.9098
    endloop
  endfacet
  facet normal 0 -0.5 0.866025
    outer loop
      vertex 123 50.8674 50.8645
      vertex 121.4 52.6779 51.9098
      vertex 121.4 50.8674 50.8645
    endloop
  endfacet
  facet normal 0 -0.5 0.866025
    outer loop
      vertex 129 52.6779 51.9098
      vertex 130.6 50.8674 50.8645
      vertex 130.6 52.6779 51.9098
    endloop
  endfacet
  facet normal 0 -0.5 0.866025
    outer loop
      vertex 130.6 50.8674 50.8645
      vertex 129 52.6779 51.9098
      vertex 129 50.8674 50.8645
    endloop
  endfacet
  facet normal 0 -0.5 0.866025
    outer loop
      vertex 142.6 52.6779 51.9098
      vertex 144.2 50.8674 50.8645
      vertex 144.2 52.6779 51.9098
    endloop
  endfacet
  facet normal 0 -0.5 0.866025
    outer loop
      vertex 144.2 50.8674 50.8645
      vertex 142.6 52.6779 51.9098
      vertex 142.6 50.8674 50.8645
    endloop
  endfacet
  facet normal 0 -1 0
    outer loop
      vertex 0 56.7452 58.9547
      vertex 1.6 56.7452 60
      vertex 0 56.7452 60
    endloop
  endfacet
  facet normal 0 -1 -0
    outer loop
      vertex 1.6 56.7452 60
      vertex 0 56.7452 58.9547
      vertex 1.6 56.7452 58.9547
    endloop
  endfacet
  facet normal 0 -1 0
    outer loop
      vertex 79.6 56.7452 58.9547
      vertex 81.2 56.7452 60
      vertex 79.6 56.7452 60
    endloop
  endfacet
  facet normal 0 -1 -0
    outer loop
      vertex 81.2 56.7452 60
      vertex 79.6 56.7452 58.9547
      vertex 81.2 56.7452 58.9547
    endloop
  endfacet
  facet normal 0 -1 0
    outer loop
      vertex 105.2 56.7452 58.9547
      vertex 106.8 56.7452 60
      vertex 105.2 56.7452 60
    endloop
  endfacet
  facet normal 0 -1 -0
    outer loop
      vertex 106.8 56.7452 60
      vertex 105.2 56.7452 58.9547
      vertex 106.8 56.7452 58.9547
    endloop
  endfacet
  facet normal 0 -1 0
    outer loop
      vertex 112.8 56.7452 58.9547
      vertex 114.4 56.7452 60
      vertex 112.8 56.7452 60
    endloop
  endfacet
  facet normal 0 -1 -0
    outer loop
      vertex 114.4 56.7452 60
      vertex 112.8 56.7452 58.9547
      vertex 114.4 56.7452 58.9547
    endloop
  endfacet
  facet normal 0 -1 0
    outer loop
      vertex 121.4 56.7452 58.9547
      vertex 123 56.7452 60
      vertex 121.4 56.7452 60
    endloop
  endfacet
  facet normal 0 -1 -0
    outer loop
      vertex 123 56.7452 60
      vertex 121.4 56.7452 58.9547
      vertex 123 56.7452 58.9547
    endloop
  endfacet
  facet normal 0 -1 0
    outer loop
      vertex 129 56.7452 58.9547
      vertex 130.6 56.7452 60
      vertex 129 56.7452 60
    endloop
  endfacet
  facet normal 0 -1 -0
    outer loop
      vertex 130.6 56.7452 60
      vertex 129 56.7452 58.9547
      vertex 130.6 56.7452 58.9547
    endloop
  endfacet
  facet normal 0 -1 0
    outer loop
      vertex 142.6 56.7452 58.9547
      vertex 144.2 56.7452 60
      vertex 142.6 56.7452 60
    endloop
  endfacet
  facet normal 0 -1 -0
    outer loop
      vertex 144.2 56.7452 60
      vertex 142.6 56.7452 58.9547
      vertex 144.2 56.7452 58.9547
    endloop
  endfacet
  facet normal 0 -0.913545 0.406737
    outer loop
      vertex 0 55.4603 55
      vertex 1.6 56.3106 56.9098
      vertex 0 56.3106 56.9098
    endloop
  endfacet
  facet normal 0 -0.913545 0.406737
    outer loop
      vertex 1.6 56.3106 56.9098
      vertex 0 55.4603 55
      vertex 1.6 55.4603 55
    endloop
  endfacet
  facet normal 0 -0.913545 0.406737
    outer loop
      vertex 79.6 55.4603 55
      vertex 81.2 56.3106 56.9098
      vertex 79.6 56.3106 56.9098
    endloop
  endfacet
  facet normal 0 -0.913545 0.406737
    outer loop
      vertex 81.2 56.3106 56.9098
      vertex 79.6 55.4603 55
      vertex 81.2 55.4603 55
    endloop
  endfacet
  facet normal 0 -0.913545 0.406737
    outer loop
      vertex 105.2 55.4603 55
      vertex 106.8 56.3106 56.9098
      vertex 105.2 56.3106 56.9098
    endloop
  endfacet
  facet normal 0 -0.913545 0.406737
    outer loop
      vertex 106.8 56.3106 56.9098
      vertex 105.2 55.4603 55
      vertex 106.8 55.4603 55
    endloop
  endfacet
  facet normal 0 -0.913545 0.406737
    outer loop
      vertex 112.8 55.4603 55
      vertex 114.4 56.3106 56.9098
      vertex 112.8 56.3106 56.9098
    endloop
  endfacet
  facet normal 0 -0.913545 0.406737
    outer loop
      vertex 114.4 56.3106 56.9098
      vertex 112.8 55.4603 55
      vertex 114.4 55.4603 55
    endloop
  endfacet
  facet normal 0 -0.913545 0.406737
    outer loop
      vertex 121.4 55.4603 55
      vertex 123 56.3106 56.9098
      vertex 121.4 56.3106 56.9098
    endloop
  endfacet
  facet normal 0 -0.913545 0.406737
    outer loop
      vertex 123 56.3106 56.9098
      vertex 121.4 55.4603 55
      vertex 123 55.4603 55
    endloop
  endfacet
  facet normal 0 -0.913545 0.406737
    outer loop
      vertex 129 55.4603 55
      vertex 130.6 56.3106 56.9098
      vertex 129 56.3106 56.9098
    endloop
  endfacet
  facet normal 0 -0.913545 0.406737
    outer loop
      vertex 130.6 56.3106 56.9098
      vertex 129 55.4603 55
      vertex 130.6 55.4603 55
    endloop
  endfacet
  facet normal 0 -0.913545 0.406737
    outer loop
      vertex 142.6 55.4603 55
      vertex 144.2 56.3106 56.9098
      vertex 142.6 56.3106 56.9098
    endloop
  endfacet
  facet normal 0 -0.913545 0.406737
    outer loop
      vertex 144.2 56.3106 56.9098
      vertex 142.6 55.4603 55
      vertex 144.2 55.4603 55
    endloop
  endfacet
  facet normal -0 0.669132 0.743144
    outer loop
      vertex 0 40.9221 51.9098
      vertex 1.6 39.3686 53.3087
      vertex 1.6 40.9221 51.9098
    endloop
  endfacet
  facet normal 0 0.669132 0.743144
    outer loop
      vertex 1.6 39.3686 53.3087
      vertex 0 40.9221 51.9098
      vertex 0 39.3686 53.3087
    endloop
  endfacet
  facet normal -0 0.669132 0.743144
    outer loop
      vertex 79.6 40.9221 51.9098
      vertex 81.2 39.3686 53.3087
      vertex 81.2 40.9221 51.9098
    endloop
  endfacet
  facet normal 0 0.669132 0.743144
    outer loop
      vertex 81.2 39.3686 53.3087
      vertex 79.6 40.9221 51.9098
      vertex 79.6 39.3686 53.3087
    endloop
  endfacet
  facet normal -0 0.669132 0.743144
    outer loop
      vertex 105.2 40.9221 51.9098
      vertex 106.8 39.3686 53.3087
      vertex 106.8 40.9221 51.9098
    endloop
  endfacet
  facet normal 0 0.669132 0.743144
    outer loop
      vertex 106.8 39.3686 53.3087
      vertex 105.2 40.9221 51.9098
      vertex 105.2 39.3686 53.3087
    endloop
  endfacet
  facet normal -0 0.669132 0.743144
    outer loop
      vertex 112.8 40.9221 51.9098
      vertex 114.4 39.3686 53.3087
      vertex 114.4 40.9221 51.9098
    endloop
  endfacet
  facet normal 0 0.669132 0.743144
    outer loop
      vertex 114.4 39.3686 53.3087
      vertex 112.8 40.9221 51.9098
      vertex 112.8 39.3686 53.3087
    endloop
  endfacet
  facet normal -0 0.669132 0.743144
    outer loop
      vertex 121.4 40.9221 51.9098
      vertex 123 39.3686 53.3087
      vertex 123 40.9221 51.9098
    endloop
  endfacet
  facet normal 0 0.669132 0.743144
    outer loop
      vertex 123 39.3686 53.3087
      vertex 121.4 40.9221 51.9098
      vertex 121.4 39.3686 53.3087
    endloop
  endfacet
  facet normal -0 0.669132 0.743144
    outer loop
      vertex 129 40.9221 51.9098
      vertex 130.6 39.3686 53.3087
      vertex 130.6 40.9221 51.9098
    endloop
  endfacet
  facet normal 0 0.669132 0.743144
    outer loop
      vertex 130.6 39.3686 53.3087
      vertex 129 40.9221 51.9098
      vertex 129 39.3686 53.3087
    endloop
  endfacet
  facet normal -0 0.669132 0.743144
    outer loop
      vertex 142.6 40.9221 51.9098
      vertex 144.2 39.3686 53.3087
      vertex 144.2 40.9221 51.9098
    endloop
  endfacet
  facet normal 0 0.669132 0.743144
    outer loop
      vertex 144.2 39.3686 53.3087
      vertex 142.6 40.9221 51.9098
      vertex 142.6 39.3686 53.3087
    endloop
  endfacet
  facet normal -0 0.309016 0.951057
    outer loop
      vertex 0 44.7209 50.2185
      vertex 1.6 42.7326 50.8645
      vertex 1.6 44.7209 50.2185
    endloop
  endfacet
  facet normal 0 0.309016 0.951057
    outer loop
      vertex 1.6 42.7326 50.8645
      vertex 0 44.7209 50.2185
      vertex 0 42.7326 50.8645
    endloop
  endfacet
  facet normal -0 0.309016 0.951057
    outer loop
      vertex 79.6 44.7209 50.2185
      vertex 81.2 42.7326 50.8645
      vertex 81.2 44.7209 50.2185
    endloop
  endfacet
  facet normal 0 0.309016 0.951057
    outer loop
      vertex 81.2 42.7326 50.8645
      vertex 79.6 44.7209 50.2185
      vertex 79.6 42.7326 50.8645
    endloop
  endfacet
  facet normal -0 0.309016 0.951057
    outer loop
      vertex 105.2 44.7209 50.2185
      vertex 106.8 42.7326 50.8645
      vertex 106.8 44.7209 50.2185
    endloop
  endfacet
  facet normal 0 0.309016 0.951057
    outer loop
      vertex 106.8 42.7326 50.8645
      vertex 105.2 44.7209 50.2185
      vertex 105.2 42.7326 50.8645
    endloop
  endfacet
  facet normal -0 0.309016 0.951057
    outer loop
      vertex 112.8 44.7209 50.2185
      vertex 114.4 42.7326 50.8645
      vertex 114.4 44.7209 50.2185
    endloop
  endfacet
  facet normal 0 0.309016 0.951057
    outer loop
      vertex 114.4 42.7326 50.8645
      vertex 112.8 44.7209 50.2185
      vertex 112.8 42.7326 50.8645
    endloop
  endfacet
  facet normal -0 0.309016 0.951057
    outer loop
      vertex 121.4 44.7209 50.2185
      vertex 123 42.7326 50.8645
      vertex 123 44.7209 50.2185
    endloop
  endfacet
  facet normal 0 0.309016 0.951057
    outer loop
      vertex 123 42.7326 50.8645
      vertex 121.4 44.7209 50.2185
      vertex 121.4 42.7326 50.8645
    endloop
  endfacet
  facet normal -0 0.309016 0.951057
    outer loop
      vertex 129 44.7209 50.2185
      vertex 130.6 42.7326 50.8645
      vertex 130.6 44.7209 50.2185
    endloop
  endfacet
  facet normal 0 0.309016 0.951057
    outer loop
      vertex 130.6 42.7326 50.8645
      vertex 129 44.7209 50.2185
      vertex 129 42.7326 50.8645
    endloop
  endfacet
  facet normal -0 0.309016 0.951057
    outer loop
      vertex 142.6 44.7209 50.2185
      vertex 144.2 42.7326 50.8645
      vertex 144.2 44.7209 50.2185
    endloop
  endfacet
  facet normal 0 0.309016 0.951057
    outer loop
      vertex 144.2 42.7326 50.8645
      vertex 142.6 44.7209 50.2185
      vertex 142.6 42.7326 50.8645
    endloop
  endfacet
  facet normal 0 0.809017 0.587785
    outer loop
      vertex 1.6 39.3686 53.3087
      vertex 0 38.1397 55
      vertex 1.6 38.1397 55
    endloop
  endfacet
  facet normal 0 0.809017 0.587785
    outer loop
      vertex 0 38.1397 55
      vertex 1.6 39.3686 53.3087
      vertex 0 39.3686 53.3087
    endloop
  endfacet
  facet normal 0 0.809017 0.587785
    outer loop
      vertex 81.2 39.3686 53.3087
      vertex 79.6 38.1397 55
      vertex 81.2 38.1397 55
    endloop
  endfacet
  facet normal 0 0.809017 0.587785
    outer loop
      vertex 79.6 38.1397 55
      vertex 81.2 39.3686 53.3087
      vertex 79.6 39.3686 53.3087
    endloop
  endfacet
  facet normal 0 0.809017 0.587785
    outer loop
      vertex 106.8 39.3686 53.3087
      vertex 105.2 38.1397 55
      vertex 106.8 38.1397 55
    endloop
  endfacet
  facet normal 0 0.809017 0.587785
    outer loop
      vertex 105.2 38.1397 55
      vertex 106.8 39.3686 53.3087
      vertex 105.2 39.3686 53.3087
    endloop
  endfacet
  facet normal 0 0.809017 0.587785
    outer loop
      vertex 114.4 39.3686 53.3087
      vertex 112.8 38.1397 55
      vertex 114.4 38.1397 55
    endloop
  endfacet
  facet normal 0 0.809017 0.587785
    outer loop
      vertex 112.8 38.1397 55
      vertex 114.4 39.3686 53.3087
      vertex 112.8 39.3686 53.3087
    endloop
  endfacet
  facet normal 0 0.809017 0.587785
    outer loop
      vertex 123 39.3686 53.3087
      vertex 121.4 38.1397 55
      vertex 123 38.1397 55
    endloop
  endfacet
  facet normal 0 0.809017 0.587785
    outer loop
      vertex 121.4 38.1397 55
      vertex 123 39.3686 53.3087
      vertex 121.4 39.3686 53.3087
    endloop
  endfacet
  facet normal 0 0.809017 0.587785
    outer loop
      vertex 130.6 39.3686 53.3087
      vertex 129 38.1397 55
      vertex 130.6 38.1397 55
    endloop
  endfacet
  facet normal 0 0.809017 0.587785
    outer loop
      vertex 129 38.1397 55
      vertex 130.6 39.3686 53.3087
      vertex 129 39.3686 53.3087
    endloop
  endfacet
  facet normal 0 0.809017 0.587785
    outer loop
      vertex 144.2 39.3686 53.3087
      vertex 142.6 38.1397 55
      vertex 144.2 38.1397 55
    endloop
  endfacet
  facet normal 0 0.809017 0.587785
    outer loop
      vertex 142.6 38.1397 55
      vertex 144.2 39.3686 53.3087
      vertex 142.6 39.3686 53.3087
    endloop
  endfacet
  facet normal 0 0.913545 0.406737
    outer loop
      vertex 1.6 38.1397 55
      vertex 0 37.2894 56.9098
      vertex 1.6 37.2894 56.9098
    endloop
  endfacet
  facet normal 0 0.913545 0.406737
    outer loop
      vertex 0 37.2894 56.9098
      vertex 1.6 38.1397 55
      vertex 0 38.1397 55
    endloop
  endfacet
  facet normal 0 0.913545 0.406737
    outer loop
      vertex 81.2 38.1397 55
      vertex 79.6 37.2894 56.9098
      vertex 81.2 37.2894 56.9098
    endloop
  endfacet
  facet normal 0 0.913545 0.406737
    outer loop
      vertex 79.6 37.2894 56.9098
      vertex 81.2 38.1397 55
      vertex 79.6 38.1397 55
    endloop
  endfacet
  facet normal 0 0.913545 0.406737
    outer loop
      vertex 106.8 38.1397 55
      vertex 105.2 37.2894 56.9098
      vertex 106.8 37.2894 56.9098
    endloop
  endfacet
  facet normal 0 0.913545 0.406737
    outer loop
      vertex 105.2 37.2894 56.9098
      vertex 106.8 38.1397 55
      vertex 105.2 38.1397 55
    endloop
  endfacet
  facet normal 0 0.913545 0.406737
    outer loop
      vertex 114.4 38.1397 55
      vertex 112.8 37.2894 56.9098
      vertex 114.4 37.2894 56.9098
    endloop
  endfacet
  facet normal 0 0.913545 0.406737
    outer loop
      vertex 112.8 37.2894 56.9098
      vertex 114.4 38.1397 55
      vertex 112.8 38.1397 55
    endloop
  endfacet
  facet normal 0 0.913545 0.406737
    outer loop
      vertex 123 38.1397 55
      vertex 121.4 37.2894 56.9098
      vertex 123 37.2894 56.9098
    endloop
  endfacet
  facet normal 0 0.913545 0.406737
    outer loop
      vertex 121.4 37.2894 56.9098
      vertex 123 38.1397 55
      vertex 121.4 38.1397 55
    endloop
  endfacet
  facet normal 0 0.913545 0.406737
    outer loop
      vertex 130.6 38.1397 55
      vertex 129 37.2894 56.9098
      vertex 130.6 37.2894 56.9098
    endloop
  endfacet
  facet normal 0 0.913545 0.406737
    outer loop
      vertex 129 37.2894 56.9098
      vertex 130.6 38.1397 55
      vertex 129 38.1397 55
    endloop
  endfacet
  facet normal 0 0.913545 0.406737
    outer loop
      vertex 144.2 38.1397 55
      vertex 142.6 37.2894 56.9098
      vertex 144.2 37.2894 56.9098
    endloop
  endfacet
  facet normal 0 0.913545 0.406737
    outer loop
      vertex 142.6 37.2894 56.9098
      vertex 144.2 38.1397 55
      vertex 142.6 38.1397 55
    endloop
  endfacet
  facet normal 0 0.978148 0.207912
    outer loop
      vertex 1.6 37.2894 56.9098
      vertex 0 36.8548 58.9547
      vertex 1.6 36.8548 58.9547
    endloop
  endfacet
  facet normal 0 0.978148 0.207912
    outer loop
      vertex 0 36.8548 58.9547
      vertex 1.6 37.2894 56.9098
      vertex 0 37.2894 56.9098
    endloop
  endfacet
  facet normal 0 0.978148 0.207912
    outer loop
      vertex 81.2 37.2894 56.9098
      vertex 79.6 36.8548 58.9547
      vertex 81.2 36.8548 58.9547
    endloop
  endfacet
  facet normal 0 0.978148 0.207912
    outer loop
      vertex 79.6 36.8548 58.9547
      vertex 81.2 37.2894 56.9098
      vertex 79.6 37.2894 56.9098
    endloop
  endfacet
  facet normal 0 0.978148 0.207912
    outer loop
      vertex 106.8 37.2894 56.9098
      vertex 105.2 36.8548 58.9547
      vertex 106.8 36.8548 58.9547
    endloop
  endfacet
  facet normal 0 0.978148 0.207912
    outer loop
      vertex 105.2 36.8548 58.9547
      vertex 106.8 37.2894 56.9098
      vertex 105.2 37.2894 56.9098
    endloop
  endfacet
  facet normal 0 0.978148 0.207912
    outer loop
      vertex 114.4 37.2894 56.9098
      vertex 112.8 36.8548 58.9547
      vertex 114.4 36.8548 58.9547
    endloop
  endfacet
  facet normal 0 0.978148 0.207912
    outer loop
      vertex 112.8 36.8548 58.9547
      vertex 114.4 37.2894 56.9098
      vertex 112.8 37.2894 56.9098
    endloop
  endfacet
  facet normal 0 0.978148 0.207912
    outer loop
      vertex 123 37.2894 56.9098
      vertex 121.4 36.8548 58.9547
      vertex 123 36.8548 58.9547
    endloop
  endfacet
  facet normal 0 0.978148 0.207912
    outer loop
      vertex 121.4 36.8548 58.9547
      vertex 123 37.2894 56.9098
      vertex 121.4 37.2894 56.9098
    endloop
  endfacet
  facet normal 0 0.978148 0.207912
    outer loop
      vertex 130.6 37.2894 56.9098
      vertex 129 36.8548 58.9547
      vertex 130.6 36.8548 58.9547
    endloop
  endfacet
  facet normal 0 0.978148 0.207912
    outer loop
      vertex 129 36.8548 58.9547
      vertex 130.6 37.2894 56.9098
      vertex 129 37.2894 56.9098
    endloop
  endfacet
  facet normal 0 0.978148 0.207912
    outer loop
      vertex 144.2 37.2894 56.9098
      vertex 142.6 36.8548 58.9547
      vertex 144.2 36.8548 58.9547
    endloop
  endfacet
  facet normal 0 0.978148 0.207912
    outer loop
      vertex 142.6 36.8548 58.9547
      vertex 144.2 37.2894 56.9098
      vertex 142.6 37.2894 56.9098
    endloop
  endfacet
  facet normal 1 -0 0
    outer loop
      vertex 196.3 0 0
      vertex 196.3 95.7 -1.6
      vertex 196.3 95.7 0
    endloop
  endfacet
  facet normal 1 0 0
    outer loop
      vertex 196.3 95.7 -1.6
      vertex 196.3 0 0
      vertex 196.3 0 -1.6
    endloop
  endfacet
  facet normal 0 1 -0
    outer loop
      vertex 196.3 95.7 -1.6
      vertex 0 95.7 0
      vertex 196.3 95.7 0
    endloop
  endfacet
  facet normal 0 1 0
    outer loop
      vertex 0 95.7 0
      vertex 196.3 95.7 -1.6
      vertex 0 95.7 -1.6
    endloop
  endfacet
  facet normal 0 0 -1
    outer loop
      vertex 0 0 -1.6
      vertex 196.3 95.7 -1.6
      vertex 196.3 0 -1.6
    endloop
  endfacet
  facet normal -0 0 -1
    outer loop
      vertex 196.3 95.7 -1.6
      vertex 0 0 -1.6
      vertex 0 95.7 -1.6
    endloop
  endfacet
  facet normal 0 1 -0
    outer loop
      vertex 79.6 1.6 0
      vertex 1.6 1.6 60
      vertex 79.6 1.6 60
    endloop
  endfacet
  facet normal 0 1 0
    outer loop
      vertex 1.6 1.6 60
      vertex 79.6 1.6 0
      vertex 1.6 1.6 0
    endloop
  endfacet
  facet normal 0 1 -0
    outer loop
      vertex 105.2 1.6 0
      vertex 81.2 1.6 60
      vertex 105.2 1.6 60
    endloop
  endfacet
  facet normal 0 1 0
    outer loop
      vertex 81.2 1.6 60
      vertex 105.2 1.6 0
      vertex 81.2 1.6 0
    endloop
  endfacet
  facet normal 0 1 -0
    outer loop
      vertex 112.8 1.6 0
      vertex 106.8 1.6 60
      vertex 112.8 1.6 60
    endloop
  endfacet
  facet normal 0 1 0
    outer loop
      vertex 106.8 1.6 60
      vertex 112.8 1.6 0
      vertex 106.8 1.6 0
    endloop
  endfacet
  facet normal 0 1 -0
    outer loop
      vertex 121.4 1.6 0
      vertex 114.4 1.6 60
      vertex 121.4 1.6 60
    endloop
  endfacet
  facet normal 0 1 0
    outer loop
      vertex 114.4 1.6 60
      vertex 121.4 1.6 0
      vertex 114.4 1.6 0
    endloop
  endfacet
  facet normal 0 1 -0
    outer loop
      vertex 129 1.6 0
      vertex 123 1.6 60
      vertex 129 1.6 60
    endloop
  endfacet
  facet normal 0 1 0
    outer loop
      vertex 123 1.6 60
      vertex 129 1.6 0
      vertex 123 1.6 0
    endloop
  endfacet
  facet normal 0 1 -0
    outer loop
      vertex 142.6 1.6 0
      vertex 130.6 1.6 60
      vertex 142.6 1.6 60
    endloop
  endfacet
  facet normal 0 1 0
    outer loop
      vertex 130.6 1.6 60
      vertex 142.6 1.6 0
      vertex 130.6 1.6 0
    endloop
  endfacet
  facet normal 0 1 -0
    outer loop
      vertex 194.2 1.6 0
      vertex 144.2 1.6 60
      vertex 194.2 1.6 60
    endloop
  endfacet
  facet normal 0 1 0
    outer loop
      vertex 144.2 1.6 60
      vertex 194.2 1.6 0
      vertex 144.2 1.6 0
    endloop
  endfacet
  facet normal 0 1 -0
    outer loop
      vertex 195.8 95.2 0
      vertex 0 95.2 60
      vertex 195.8 95.2 60
    endloop
  endfacet
  facet normal 0 1 0
    outer loop
      vertex 0 95.2 60
      vertex 195.8 95.2 0
      vertex 0 95.2 0
    endloop
  endfacet
endsolid OpenSCAD_Model
