solid OpenSCAD_Model
  facet normal -1 0 0
    outer loop
      vertex -1.6 -1.6 88.4
      vertex -1.6 96.8 110
      vertex -1.6 96.8 88.4
    endloop
  endfacet
  facet normal -1 -0 0
    outer loop
      vertex -1.6 96.8 110
      vertex -1.6 -1.6 88.4
      vertex -1.6 -1.6 110
    endloop
  endfacet
  facet normal -0 0 1
    outer loop
      vertex -5.72205e-07 95.2 90
      vertex 155.8 -5.72205e-07 90
      vertex 155.8 95.2 90
    endloop
  endfacet
  facet normal 0 0 1
    outer loop
      vertex 155.8 -5.72205e-07 90
      vertex -5.72205e-07 95.2 90
      vertex -5.72205e-07 -5.72205e-07 90
    endloop
  endfacet
  facet normal 1 -0 0
    outer loop
      vertex 157.4 -1.6 110
      vertex 157.4 96.8 88.4
      vertex 157.4 96.8 110
    endloop
  endfacet
  facet normal 1 0 0
    outer loop
      vertex 157.4 96.8 88.4
      vertex 157.4 -1.6 110
      vertex 157.4 -1.6 88.4
    endloop
  endfacet
  facet normal 0 1 -0
    outer loop
      vertex 157.4 96.8 88.4
      vertex -1.6 96.8 110
      vertex 157.4 96.8 110
    endloop
  endfacet
  facet normal 0 1 0
    outer loop
      vertex -1.6 96.8 110
      vertex 157.4 96.8 88.4
      vertex -1.6 96.8 88.4
    endloop
  endfacet
  facet normal 0 0 -1
    outer loop
      vertex -1.6 -1.6 88.4
      vertex 157.4 96.8 88.4
      vertex 157.4 -1.6 88.4
    endloop
  endfacet
  facet normal -0 0 -1
    outer loop
      vertex 157.4 96.8 88.4
      vertex -1.6 -1.6 88.4
      vertex -1.6 96.8 88.4
    endloop
  endfacet
  facet normal 0 -1 0
    outer loop
      vertex -1.6 -1.6 88.4
      vertex 157.4 -1.6 110
      vertex -1.6 -1.6 110
    endloop
  endfacet
  facet normal 0 -1 -0
    outer loop
      vertex 157.4 -1.6 110
      vertex -1.6 -1.6 88.4
      vertex 157.4 -1.6 88.4
    endloop
  endfacet
  facet normal 0 0 1
    outer loop
      vertex 157.4 96.8 110
      vertex 155.8 95.2 110
      vertex 157.4 -1.6 110
    endloop
  endfacet
  facet normal 0 0 1
    outer loop
      vertex 157.4 96.8 110
      vertex -5.72205e-07 95.2 110
      vertex 155.8 95.2 110
    endloop
  endfacet
  facet normal 0 0 1
    outer loop
      vertex -5.72205e-07 95.2 110
      vertex -1.6 96.8 110
      vertex -5.72205e-07 -5.72205e-07 110
    endloop
  endfacet
  facet normal -0 0 1
    outer loop
      vertex -1.6 96.8 110
      vertex -5.72205e-07 95.2 110
      vertex 157.4 96.8 110
    endloop
  endfacet
  facet normal -0 0 1
    outer loop
      vertex 155.8 -5.72205e-07 110
      vertex 157.4 -1.6 110
      vertex 155.8 95.2 110
    endloop
  endfacet
  facet normal -0 0 1
    outer loop
      vertex -5.72205e-07 -5.72205e-07 110
      vertex 157.4 -1.6 110
      vertex 155.8 -5.72205e-07 110
    endloop
  endfacet
  facet normal 0 0 1
    outer loop
      vertex -5.72205e-07 -5.72205e-07 110
      vertex -1.6 -1.6 110
      vertex 157.4 -1.6 110
    endloop
  endfacet
  facet normal 0 0 1
    outer loop
      vertex -1.6 -1.6 110
      vertex -5.72205e-07 -5.72205e-07 110
      vertex -1.6 96.8 110
    endloop
  endfacet
  facet normal 1 -0 0
    outer loop
      vertex -5.72205e-07 -5.72205e-07 110
      vertex -5.72205e-07 95.2 90
      vertex -5.72205e-07 95.2 110
    endloop
  endfacet
  facet normal 1 0 0
    outer loop
      vertex -5.72205e-07 95.2 90
      vertex -5.72205e-07 -5.72205e-07 110
      vertex -5.72205e-07 -5.72205e-07 90
    endloop
  endfacet
  facet normal 0 -1 0
    outer loop
      vertex -5.72205e-07 95.2 90
      vertex 155.8 95.2 110
      vertex -5.72205e-07 95.2 110
    endloop
  endfacet
  facet normal 0 -1 -0
    outer loop
      vertex 155.8 95.2 110
      vertex -5.72205e-07 95.2 90
      vertex 155.8 95.2 90
    endloop
  endfacet
  facet normal -1 0 0
    outer loop
      vertex 155.8 -5.72205e-07 90
      vertex 155.8 95.2 110
      vertex 155.8 95.2 90
    endloop
  endfacet
  facet normal -1 -0 0
    outer loop
      vertex 155.8 95.2 110
      vertex 155.8 -5.72205e-07 90
      vertex 155.8 -5.72205e-07 110
    endloop
  endfacet
  facet normal 0 1 -0
    outer loop
      vertex 155.8 -5.72205e-07 90
      vertex -5.72205e-07 -5.72205e-07 110
      vertex 155.8 -5.72205e-07 110
    endloop
  endfacet
  facet normal 0 1 0
    outer loop
      vertex -5.72205e-07 -5.72205e-07 110
      vertex 155.8 -5.72205e-07 90
      vertex -5.72205e-07 -5.72205e-07 90
    endloop
  endfacet
endsolid OpenSCAD_Model
