  0
SECTION
  2
HEADER
  9
$ACADVER
  1
AC1009
  9
$EXTMIN
 10
0.0
 20
0.0
 30
0.0
  9
$EXTMAX
 10
1000.0
 20
1000.0
 30
0.0
  9
$FILLMODE
 70
 0
  9
$SPLFRAME
 70
 1
  0
ENDSEC
  0
SECTION
  2
TABLES
  0
TABLE
  2
LAYER
 70
1
  0
LAYER
  2
0
 70
     0
 62
     7
  6
CONTINUOUS
  0
ENDTAB
  0
ENDSEC
  0
SECTION
  2
ENTITIES
  0
POLYLINE
  8
0
 62
     33
 66
     1
 10
0
 20
0
 30
0.0
 70
     1
 40
0
 41
0
  0
VERTEX
  8
0
 10
0.0339626
 20
0.415365
 30
0.0
 40
0
 41
0
  0
VERTEX
  8
0
 10
0.0187175
 20
0.415365
 30
0.0
 40
0
 41
0
  0
VERTEX
  8
0
 10
0.0194228
 20
0.415907
 30
0.0
 40
0
 41
0
  0
VERTEX
  8
0
 10
0.0303276
 20
0.419868
 30
0.0
 40
0
 41
0
  0
VERTEX
  8
0
 10
0.0339626
 20
0.419868
 30
0.0
 40
0
 41
0
  0
VERTEX
  8
0
 10
0.0437283
 20
0.419868
 30
0.0
 40
0
 41
0
  0
VERTEX
  8
0
 10
0.0437283
 20
0.415365
 30
0.0
 40
0
 41
0
  0
SEQEND
 8
0
  0
POLYLINE
  8
0
 62
     33
 66
     1
 10
0
 20
0
 30
0.0
 70
     1
 40
0
 41
0
  0
VERTEX
  8
0
 10
0.722168
 20
0.248481
 30
0.0
 40
0
 41
0
  0
VERTEX
  8
0
 10
0.719618
 20
0.252929
 30
0.0
 40
0
 41
0
  0
VERTEX
  8
0
 10
0.766982
 20
0.252929
 30
0.0
 40
0
 41
0
  0
VERTEX
  8
0
 10
0.761231
 20
0.248426
 30
0.0
 40
0
 41
0
  0
SEQEND
 8
0
  0
POLYLINE
  8
0
 62
     33
 66
     1
 10
0
 20
0
 30
0.0
 70
     1
 40
0
 41
0
  0
VERTEX
  8
0
 10
0.286621
 20
0.248481
 30
0.0
 40
0
 41
0
  0
VERTEX
  8
0
 10
0.284071
 20
0.252929
 30
0.0
 40
0
 41
0
  0
VERTEX
  8
0
 10
0.339464
 20
0.252929
 30
0.0
 40
0
 41
0
  0
VERTEX
  8
0
 10
0.333713
 20
0.248426
 30
0.0
 40
0
 41
0
  0
VERTEX
  8
0
 10
0.287056
 20
0.248426
 30
0.0
 40
0
 41
0
  0
SEQEND
 8
0
  0
POLYLINE
  8
0
 62
     33
 66
     1
 10
0
 20
0
 30
0.0
 70
     1
 40
0
 41
0
  0
VERTEX
  8
0
 10
0.458117
 20
0.248481
 30
0.0
 40
0
 41
0
  0
VERTEX
  8
0
 10
0.455567
 20
0.252929
 30
0.0
 40
0
 41
0
  0
VERTEX
  8
0
 10
0.502929
 20
0.252929
 30
0.0
 40
0
 41
0
  0
VERTEX
  8
0
 10
0.497233
 20
0.248426
 30
0.0
 40
0
 41
0
  0
SEQEND
 8
0
  0
POLYLINE
  8
0
 62
     33
 66
     1
 10
0
 20
0
 30
0.0
 70
     1
 40
0
 41
0
  0
VERTEX
  8
0
 10
0.507542
 20
0.248481
 30
0.0
 40
0
 41
0
  0
VERTEX
  8
0
 10
0.504937
 20
0.252929
 30
0.0
 40
0
 41
0
  0
VERTEX
  8
0
 10
0.552354
 20
0.252929
 30
0.0
 40
0
 41
0
  0
VERTEX
  8
0
 10
0.546604
 20
0.248426
 30
0.0
 40
0
 41
0
  0
SEQEND
 8
0
  0
POLYLINE
  8
0
 62
     33
 66
     1
 10
0
 20
0
 30
0.0
 70
     1
 40
0
 41
0
  0
VERTEX
  8
0
 10
0.556967
 20
0.248481
 30
0.0
 40
0
 41
0
  0
VERTEX
  8
0
 10
0.554363
 20
0.252929
 30
0.0
 40
0
 41
0
  0
VERTEX
  8
0
 10
0.601725
 20
0.252929
 30
0.0
 40
0
 41
0
  0
VERTEX
  8
0
 10
0.596029
 20
0.248426
 30
0.0
 40
0
 41
0
  0
SEQEND
 8
0
  0
POLYLINE
  8
0
 62
     33
 66
     1
 10
0
 20
0
 30
0.0
 70
     1
 40
0
 41
0
  0
VERTEX
  8
0
 10
0.355524
 20
0.342231
 30
0.0
 40
0
 41
0
  0
VERTEX
  8
0
 10
0.352974
 20
0.346679
 30
0.0
 40
0
 41
0
  0
VERTEX
  8
0
 10
0.381619
 20
0.346679
 30
0.0
 40
0
 41
0
  0
VERTEX
  8
0
 10
0.378851
 20
0.342176
 30
0.0
 40
0
 41
0
  0
VERTEX
  8
0
 10
0.355957
 20
0.342176
 30
0.0
 40
0
 41
0
  0
SEQEND
 8
0
  0
POLYLINE
  8
0
 62
     33
 66
     1
 10
0
 20
0
 30
0.0
 70
     1
 40
0
 41
0
  0
VERTEX
  8
0
 10
0.333117
 20
0.443468
 30
0.0
 40
0
 41
0
  0
VERTEX
  8
0
 10
0.333117
 20
0.262315
 30
0.0
 40
0
 41
0
  0
VERTEX
  8
0
 10
0.333008
 20
0.262315
 30
0.0
 40
0
 41
0
  0
VERTEX
  8
0
 10
0.332574
 20
0.262642
 30
0.0
 40
0
 41
0
  0
VERTEX
  8
0
 10
0.328614
 20
0.270236
 30
0.0
 40
0
 41
0
  0
VERTEX
  8
0
 10
0.328614
 20
0.272732
 30
0.0
 40
0
 41
0
  0
VERTEX
  8
0
 10
0.328614
 20
0.447917
 30
0.0
 40
0
 41
0
  0
SEQEND
 8
0
  0
POLYLINE
  8
0
 62
     33
 66
     1
 10
0
 20
0
 30
0.0
 70
     1
 40
0
 41
0
  0
VERTEX
  8
0
 10
0.498156
 20
0.368056
 30
0.0
 40
0
 41
0
  0
VERTEX
  8
0
 10
0.497667
 20
0.367893
 30
0.0
 40
0
 41
0
  0
VERTEX
  8
0
 10
0.493653
 20
0.360732
 30
0.0
 40
0
 41
0
  0
VERTEX
  8
0
 10
0.493653
 20
0.35829
 30
0.0
 40
0
 41
0
  0
VERTEX
  8
0
 10
0.493653
 20
0.272732
 30
0.0
 40
0
 41
0
  0
VERTEX
  8
0
 10
0.493653
 20
0.269911
 30
0.0
 40
0
 41
0
  0
VERTEX
  8
0
 10
0.497612
 20
0.261774
 30
0.0
 40
0
 41
0
  0
VERTEX
  8
0
 10
0.498047
 20
0.261393
 30
0.0
 40
0
 41
0
  0
VERTEX
  8
0
 10
0.498156
 20
0.262315
 30
0.0
 40
0
 41
0
  0
VERTEX
  8
0
 10
0.498156
 20
0.329264
 30
0.0
 40
0
 41
0
  0
SEQEND
 8
0
  0
POLYLINE
  8
0
 62
     33
 66
     1
 10
0
 20
0
 30
0.0
 70
     1
 40
0
 41
0
  0
VERTEX
  8
0
 10
0.548828
 20
0.368056
 30
0.0
 40
0
 41
0
  0
VERTEX
  8
0
 10
0.54834
 20
0.367893
 30
0.0
 40
0
 41
0
  0
VERTEX
  8
0
 10
0.544271
 20
0.360732
 30
0.0
 40
0
 41
0
  0
VERTEX
  8
0
 10
0.544271
 20
0.35829
 30
0.0
 40
0
 41
0
  0
VERTEX
  8
0
 10
0.544271
 20
0.272732
 30
0.0
 40
0
 41
0
  0
VERTEX
  8
0
 10
0.544271
 20
0.269911
 30
0.0
 40
0
 41
0
  0
VERTEX
  8
0
 10
0.54834
 20
0.261774
 30
0.0
 40
0
 41
0
  0
VERTEX
  8
0
 10
0.548774
 20
0.261393
 30
0.0
 40
0
 41
0
  0
VERTEX
  8
0
 10
0.548774
 20
0.329264
 30
0.0
 40
0
 41
0
  0
SEQEND
 8
0
  0
POLYLINE
  8
0
 62
     118
 66
     1
 10
0
 20
0
 30
0.0
 70
     1
 40
0
 41
0
  0
VERTEX
  8
0
 10
0.32411
 20
0.272732
 30
0.0
 40
0
 41
0
  0
VERTEX
  8
0
 10
0.32411
 20
0.4477
 30
0.0
 40
0
 41
0
  0
VERTEX
  8
0
 10
0.283149
 20
0.447808
 30
0.0
 40
0
 41
0
  0
VERTEX
  8
0
 10
0.283149
 20
0.447808
 30
0.0
 40
0
 41
0
  0
VERTEX
  8
0
 10
0.287543
 20
0.444011
 30
0.0
 40
0
 41
0
  0
VERTEX
  8
0
 10
0.291992
 20
0.436035
 30
0.0
 40
0
 41
0
  0
VERTEX
  8
0
 10
0.291992
 20
0.433376
 30
0.0
 40
0
 41
0
  0
VERTEX
  8
0
 10
0.29221
 20
0.272732
 30
0.0
 40
0
 41
0
  0
VERTEX
  8
0
 10
0.29221
 20
0.269694
 30
0.0
 40
0
 41
0
  0
VERTEX
  8
0
 10
0.28814
 20
0.260362
 30
0.0
 40
0
 41
0
  0
VERTEX
  8
0
 10
0.284071
 20
0.257488
 30
0.0
 40
0
 41
0
  0
VERTEX
  8
0
 10
0.284071
 20
0.257488
 30
0.0
 40
0
 41
0
  0
VERTEX
  8
0
 10
0.332249
 20
0.257488
 30
0.0
 40
0
 41
0
  0
VERTEX
  8
0
 10
0.332249
 20
0.257488
 30
0.0
 40
0
 41
0
  0
VERTEX
  8
0
 10
0.328179
 20
0.260796
 30
0.0
 40
0
 41
0
  0
VERTEX
  8
0
 10
0.32411
 20
0.269749
 30
0.0
 40
0
 41
0
  0
VERTEX
  8
0
 10
0.32411
 20
0.272732
 30
0.0
 40
0
 41
0
  0
SEQEND
 8
0
  0
POLYLINE
  8
0
 62
     33
 66
     1
 10
0
 20
0
 30
0.0
 70
     1
 40
0
 41
0
  0
VERTEX
  8
0
 10
0.21799
 20
0.252929
 30
0.0
 40
0
 41
0
  0
VERTEX
  8
0
 10
0.212836
 20
0.252929
 30
0.0
 40
0
 41
0
  0
VERTEX
  8
0
 10
0.197483
 20
0.252929
 30
0.0
 40
0
 41
0
  0
VERTEX
  8
0
 10
0.178819
 20
0.252929
 30
0.0
 40
0
 41
0
  0
VERTEX
  8
0
 10
0.178819
 20
0.252929
 30
0.0
 40
0
 41
0
  0
VERTEX
  8
0
 10
0.181586
 20
0.248426
 30
0.0
 40
0
 41
0
  0
VERTEX
  8
0
 10
0.212349
 20
0.248426
 30
0.0
 40
0
 41
0
  0
SEQEND
 8
0
  0
POLYLINE
  8
0
 62
     33
 66
     1
 10
0
 20
0
 30
0.0
 70
     1
 40
0
 41
0
  0
VERTEX
  8
0
 10
0.172472
 20
0.256239
 30
0.0
 40
0
 41
0
  0
VERTEX
  8
0
 10
0.171332
 20
0.258464
 30
0.0
 40
0
 41
0
  0
VERTEX
  8
0
 10
0.170464
 20
0.260525
 30
0.0
 40
0
 41
0
  0
VERTEX
  8
0
 10
0.168782
 20
0.259332
 30
0.0
 40
0
 41
0
  0
VERTEX
  8
0
 10
0.152994
 20
0.252604
 30
0.0
 40
0
 41
0
  0
VERTEX
  8
0
 10
0.147786
 20
0.252604
 30
0.0
 40
0
 41
0
  0
VERTEX
  8
0
 10
0.145019
 20
0.252604
 30
0.0
 40
0
 41
0
  0
VERTEX
  8
0
 10
0.13775
 20
0.254449
 30
0.0
 40
0
 41
0
  0
VERTEX
  8
0
 10
0.136719
 20
0.254937
 30
0.0
 40
0
 41
0
  0
VERTEX
  8
0
 10
0.137044
 20
0.254665
 30
0.0
 40
0
 41
0
  0
VERTEX
  8
0
 10
0.146431
 20
0.248318
 30
0.0
 40
0
 41
0
  0
VERTEX
  8
0
 10
0.147786
 20
0.248318
 30
0.0
 40
0
 41
0
  0
VERTEX
  8
0
 10
0.150771
 20
0.248426
 30
0.0
 40
0
 41
0
  0
VERTEX
  8
0
 10
0.162218
 20
0.251085
 30
0.0
 40
0
 41
0
  0
VERTEX
  8
0
 10
0.170844
 20
0.255371
 30
0.0
 40
0
 41
0
  0
VERTEX
  8
0
 10
0.172472
 20
0.256239
 30
0.0
 40
0
 41
0
  0
SEQEND
 8
0
  0
POLYLINE
  8
0
 62
     33
 66
     1
 10
0
 20
0
 30
0.0
 70
     1
 40
0
 41
0
  0
VERTEX
  8
0
 10
0.211968
 20
0.39605
 30
0.0
 40
0
 41
0
  0
VERTEX
  8
0
 10
0.211914
 20
0.262315
 30
0.0
 40
0
 41
0
  0
VERTEX
  8
0
 10
0.211535
 20
0.262696
 30
0.0
 40
0
 41
0
  0
VERTEX
  8
0
 10
0.207682
 20
0.269151
 30
0.0
 40
0
 41
0
  0
VERTEX
  8
0
 10
0.207465
 20
0.270019
 30
0.0
 40
0
 41
0
  0
VERTEX
  8
0
 10
0.207465
 20
0.400499
 30
0.0
 40
0
 41
0
  0
SEQEND
 8
0
  0
POLYLINE
  8
0
 62
     33
 66
     1
 10
0
 20
0
 30
0.0
 70
     1
 40
0
 41
0
  0
VERTEX
  8
0
 10
0.883951
 20
0.400553
 30
0.0
 40
0
 41
0
  0
VERTEX
  8
0
 10
0.885796
 20
0.399414
 30
0.0
 40
0
 41
0
  0
VERTEX
  8
0
 10
0.900825
 20
0.382542
 30
0.0
 40
0
 41
0
  0
VERTEX
  8
0
 10
0.90191
 20
0.380371
 30
0.0
 40
0
 41
0
  0
VERTEX
  8
0
 10
0.903971
 20
0.376411
 30
0.0
 40
0
 41
0
  0
VERTEX
  8
0
 10
0.909939
 20
0.351942
 30
0.0
 40
0
 41
0
  0
VERTEX
  8
0
 10
0.911729
 20
0.330024
 30
0.0
 40
0
 41
0
  0
VERTEX
  8
0
 10
0.911783
 20
0.327365
 30
0.0
 40
0
 41
0
  0
VERTEX
  8
0
 10
0.911837
 20
0.322808
 30
0.0
 40
0
 41
0
  0
VERTEX
  8
0
 10
0.852214
 20
0.322808
 30
0.0
 40
0
 41
0
  0
VERTEX
  8
0
 10
0.851942
 20
0.316624
 30
0.0
 40
0
 41
0
  0
VERTEX
  8
0
 10
0.854004
 20
0.296169
 30
0.0
 40
0
 41
0
  0
VERTEX
  8
0
 10
0.858128
 20
0.286567
 30
0.0
 40
0
 41
0
  0
VERTEX
  8
0
 10
0.858886
 20
0.285753
 30
0.0
 40
0
 41
0
  0
VERTEX
  8
0
 10
0.859321
 20
0.285265
 30
0.0
 40
0
 41
0
  0
VERTEX
  8
0
 10
0.861817
 20
0.283637
 30
0.0
 40
0
 41
0
  0
VERTEX
  8
0
 10
0.862685
 20
0.283637
 30
0.0
 40
0
 41
0
  0
VERTEX
  8
0
 10
0.862468
 20
0.284179
 30
0.0
 40
0
 41
0
  0
VERTEX
  8
0
 10
0.861274
 20
0.28559
 30
0.0
 40
0
 41
0
  0
VERTEX
  8
0
 10
0.859213
 20
0.289822
 30
0.0
 40
0
 41
0
  0
VERTEX
  8
0
 10
0.857368
 20
0.299642
 30
0.0
 40
0
 41
0
  0
VERTEX
  8
0
 10
0.856608
 20
0.313639
 30
0.0
 40
0
 41
0
  0
VERTEX
  8
0
 10
0.856608
 20
0.318306
 30
0.0
 40
0
 41
0
  0
VERTEX
  8
0
 10
0.916288
 20
0.318306
 30
0.0
 40
0
 41
0
  0
VERTEX
  8
0
 10
0.916342
 20
0.32194
 30
0.0
 40
0
 41
0
  0
VERTEX
  8
0
 10
0.916342
 20
0.322862
 30
0.0
 40
0
 41
0
  0
VERTEX
  8
0
 10
0.916288
 20
0.327474
 30
0.0
 40
0
 41
0
  0
VERTEX
  8
0
 10
0.916233
 20
0.33024
 30
0.0
 40
0
 41
0
  0
VERTEX
  8
0
 10
0.914333
 20
0.35281
 30
0.0
 40
0
 41
0
  0
VERTEX
  8
0
 10
0.908094
 20
0.378256
 30
0.0
 40
0
 41
0
  0
VERTEX
  8
0
 10
0.905925
 20
0.382379
 30
0.0
 40
0
 41
0
  0
VERTEX
  8
0
 10
0.905003
 20
0.384169
 30
0.0
 40
0
 41
0
  0
VERTEX
  8
0
 10
0.897461
 20
0.393608
 30
0.0
 40
0
 41
0
  0
VERTEX
  8
0
 10
0.886501
 20
0.400228
 30
0.0
 40
0
 41
0
  0
VERTEX
  8
0
 10
0.883951
 20
0.400553
 30
0.0
 40
0
 41
0
  0
SEQEND
 8
0
  0
POLYLINE
  8
0
 62
     33
 66
     1
 10
0
 20
0
 30
0.0
 70
     1
 40
0
 41
0
  0
VERTEX
  8
0
 10
0.861979
 20
0.375379
 30
0.0
 40
0
 41
0
  0
VERTEX
  8
0
 10
0.86084
 20
0.375379
 30
0.0
 40
0
 41
0
  0
VERTEX
  8
0
 10
0.857801
 20
0.372504
 30
0.0
 40
0
 41
0
  0
VERTEX
  8
0
 10
0.857531
 20
0.371962
 30
0.0
 40
0
 41
0
  0
VERTEX
  8
0
 10
0.856879
 20
0.37066
 30
0.0
 40
0
 41
0
  0
VERTEX
  8
0
 10
0.854383
 20
0.355632
 30
0.0
 40
0
 41
0
  0
VERTEX
  8
0
 10
0.854383
 20
0.354438
 30
0.0
 40
0
 41
0
  0
VERTEX
  8
0
 10
0.858886
 20
0.354438
 30
0.0
 40
0
 41
0
  0
VERTEX
  8
0
 10
0.858886
 20
0.35726
 30
0.0
 40
0
 41
0
  0
VERTEX
  8
0
 10
0.859321
 20
0.365614
 30
0.0
 40
0
 41
0
  0
VERTEX
  8
0
 10
0.861219
 20
0.374457
 30
0.0
 40
0
 41
0
  0
VERTEX
  8
0
 10
0.861979
 20
0.375379
 30
0.0
 40
0
 41
0
  0
SEQEND
 8
0
  0
POLYLINE
  8
0
 62
     118
 66
     1
 10
0
 20
0
 30
0.0
 70
     1
 40
0
 41
0
  0
VERTEX
  8
0
 10
0.853515
 20
0.373969
 30
0.0
 40
0
 41
0
  0
VERTEX
  8
0
 10
0.85395
 20
0.374838
 30
0.0
 40
0
 41
0
  0
VERTEX
  8
0
 10
0.859972
 20
0.379883
 30
0.0
 40
0
 41
0
  0
VERTEX
  8
0
 10
0.861979
 20
0.379883
 30
0.0
 40
0
 41
0
  0
VERTEX
  8
0
 10
0.86404
 20
0.379883
 30
0.0
 40
0
 41
0
  0
VERTEX
  8
0
 10
0.869846
 20
0.374783
 30
0.0
 40
0
 41
0
  0
VERTEX
  8
0
 10
0.870389
 20
0.373969
 30
0.0
 40
0
 41
0
  0
VERTEX
  8
0
 10
0.871149
 20
0.372775
 30
0.0
 40
0
 41
0
  0
VERTEX
  8
0
 10
0.873699
 20
0.361817
 30
0.0
 40
0
 41
0
  0
VERTEX
  8
0
 10
0.87424
 20
0.351074
 30
0.0
 40
0
 41
0
  0
VERTEX
  8
0
 10
0.874024
 20
0.349935
 30
0.0
 40
0
 41
0
  0
VERTEX
  8
0
 10
0.849935
 20
0.349935
 30
0.0
 40
0
 41
0
  0
VERTEX
  8
0
 10
0.849935
 20
0.349935
 30
0.0
 40
0
 41
0
  0
VERTEX
  8
0
 10
0.849989
 20
0.358507
 30
0.0
 40
0
 41
0
  0
VERTEX
  8
0
 10
0.852322
 20
0.37169
 30
0.0
 40
0
 41
0
  0
VERTEX
  8
0
 10
0.853515
 20
0.373969
 30
0.0
 40
0
 41
0
  0
SEQEND
 8
0
  0
POLYLINE
  8
0
 62
     118
 66
     1
 10
0
 20
0
 30
0.0
 70
     1
 40
0
 41
0
  0
VERTEX
  8
0
 10
0.862685
 20
0.279135
 30
0.0
 40
0
 41
0
  0
VERTEX
  8
0
 10
0.861546
 20
0.279135
 30
0.0
 40
0
 41
0
  0
VERTEX
  8
0
 10
0.858182
 20
0.280544
 30
0.0
 40
0
 41
0
  0
VERTEX
  8
0
 10
0.852701
 20
0.286783
 30
0.0
 40
0
 41
0
  0
VERTEX
  8
0
 10
0.848469
 20
0.301324
 30
0.0
 40
0
 41
0
  0
VERTEX
  8
0
 10
0.847547
 20
0.320856
 30
0.0
 40
0
 41
0
  0
VERTEX
  8
0
 10
0.847982
 20
0.327311
 30
0.0
 40
0
 41
0
  0
VERTEX
  8
0
 10
0.907226
 20
0.327311
 30
0.0
 40
0
 41
0
  0
VERTEX
  8
0
 10
0.907118
 20
0.332032
 30
0.0
 40
0
 41
0
  0
VERTEX
  8
0
 10
0.904731
 20
0.355578
 30
0.0
 40
0
 41
0
  0
VERTEX
  8
0
 10
0.89936
 20
0.375489
 30
0.0
 40
0
 41
0
  0
VERTEX
  8
0
 10
0.89784
 20
0.378418
 30
0.0
 40
0
 41
0
  0
VERTEX
  8
0
 10
0.896104
 20
0.381999
 30
0.0
 40
0
 41
0
  0
VERTEX
  8
0
 10
0.883356
 20
0.395617
 30
0.0
 40
0
 41
0
  0
VERTEX
  8
0
 10
0.867947
 20
0.402126
 30
0.0
 40
0
 41
0
  0
VERTEX
  8
0
 10
0.862847
 20
0.402126
 30
0.0
 40
0
 41
0
  0
VERTEX
  8
0
 10
0.857693
 20
0.402126
 30
0.0
 40
0
 41
0
  0
VERTEX
  8
0
 10
0.842285
 20
0.395617
 30
0.0
 40
0
 41
0
  0
VERTEX
  8
0
 10
0.829536
 20
0.381999
 30
0.0
 40
0
 41
0
  0
VERTEX
  8
0
 10
0.8278
 20
0.378418
 30
0.0
 40
0
 41
0
  0
VERTEX
  8
0
 10
0.826172
 20
0.375379
 30
0.0
 40
0
 41
0
  0
VERTEX
  8
0
 10
0.817708
 20
0.333931
 30
0.0
 40
0
 41
0
  0
VERTEX
  8
0
 10
0.817708
 20
0.328993
 30
0.0
 40
0
 41
0
  0
VERTEX
  8
0
 10
0.817708
 20
0.32856
 30
0.0
 40
0
 41
0
  0
VERTEX
  8
0
 10
0.817708
 20
0.323676
 30
0.0
 40
0
 41
0
  0
VERTEX
  8
0
 10
0.826172
 20
0.282172
 30
0.0
 40
0
 41
0
  0
VERTEX
  8
0
 10
0.8278
 20
0.279135
 30
0.0
 40
0
 41
0
  0
VERTEX
  8
0
 10
0.829536
 20
0.275608
 30
0.0
 40
0
 41
0
  0
VERTEX
  8
0
 10
0.842285
 20
0.261936
 30
0.0
 40
0
 41
0
  0
VERTEX
  8
0
 10
0.857693
 20
0.255371
 30
0.0
 40
0
 41
0
  0
VERTEX
  8
0
 10
0.862847
 20
0.255371
 30
0.0
 40
0
 41
0
  0
VERTEX
  8
0
 10
0.867947
 20
0.255371
 30
0.0
 40
0
 41
0
  0
VERTEX
  8
0
 10
0.883356
 20
0.261936
 30
0.0
 40
0
 41
0
  0
VERTEX
  8
0
 10
0.896104
 20
0.275608
 30
0.0
 40
0
 41
0
  0
VERTEX
  8
0
 10
0.89784
 20
0.279135
 30
0.0
 40
0
 41
0
  0
VERTEX
  8
0
 10
0.898981
 20
0.281304
 30
0.0
 40
0
 41
0
  0
VERTEX
  8
0
 10
0.90701
 20
0.309571
 30
0.0
 40
0
 41
0
  0
VERTEX
  8
0
 10
0.907172
 20
0.312935
 30
0.0
 40
0
 41
0
  0
VERTEX
  8
0
 10
0.877875
 20
0.312935
 30
0.0
 40
0
 41
0
  0
VERTEX
  8
0
 10
0.877875
 20
0.308376
 30
0.0
 40
0
 41
0
  0
VERTEX
  8
0
 10
0.876085
 20
0.294706
 30
0.0
 40
0
 41
0
  0
VERTEX
  8
0
 10
0.871799
 20
0.28456
 30
0.0
 40
0
 41
0
  0
VERTEX
  8
0
 10
0.866808
 20
0.280111
 30
0.0
 40
0
 41
0
  0
VERTEX
  8
0
 10
0.863715
 20
0.279135
 30
0.0
 40
0
 41
0
  0
VERTEX
  8
0
 10
0.862685
 20
0.279135
 30
0.0
 40
0
 41
0
  0
SEQEND
 8
0
  0
POLYLINE
  8
0
 62
     33
 66
     1
 10
0
 20
0
 30
0.0
 70
     1
 40
0
 41
0
  0
VERTEX
  8
0
 10
0.0895182
 20
0.263618
 30
0.0
 40
0
 41
0
  0
VERTEX
  8
0
 10
0.0896268
 20
0.415201
 30
0.0
 40
0
 41
0
  0
VERTEX
  8
0
 10
0.110135
 20
0.415201
 30
0.0
 40
0
 41
0
  0
VERTEX
  8
0
 10
0.109375
 20
0.415799
 30
0.0
 40
0
 41
0
  0
VERTEX
  8
0
 10
0.09847
 20
0.419706
 30
0.0
 40
0
 41
0
  0
VERTEX
  8
0
 10
0.0948893
 20
0.419706
 30
0.0
 40
0
 41
0
  0
VERTEX
  8
0
 10
0.0851238
 20
0.419706
 30
0.0
 40
0
 41
0
  0
VERTEX
  8
0
 10
0.0851238
 20
0.272732
 30
0.0
 40
0
 41
0
  0
VERTEX
  8
0
 10
0.0851238
 20
0.270236
 30
0.0
 40
0
 41
0
  0
VERTEX
  8
0
 10
0.0893012
 20
0.263129
 30
0.0
 40
0
 41
0
  0
VERTEX
  8
0
 10
0.0897894
 20
0.262642
 30
0.0
 40
0
 41
0
  0
SEQEND
 8
0
  0
POLYLINE
  8
0
 62
     33
 66
     1
 10
0
 20
0
 30
0.0
 70
     1
 40
0
 41
0
  0
VERTEX
  8
0
 10
0.0438911
 20
0.248426
 30
0.0
 40
0
 41
0
  0
VERTEX
  8
0
 10
0.0887587
 20
0.248426
 30
0.0
 40
0
 41
0
  0
VERTEX
  8
0
 10
0.0894097
 20
0.248426
 30
0.0
 40
0
 41
0
  0
VERTEX
  8
0
 10
0.0909831
 20
0.248481
 30
0.0
 40
0
 41
0
  0
VERTEX
  8
0
 10
0.0915256
 20
0.248481
 30
0.0
 40
0
 41
0
  0
VERTEX
  8
0
 10
0.0976563
 20
0.252983
 30
0.0
 40
0
 41
0
  0
VERTEX
  8
0
 10
0.0954318
 20
0.252983
 30
0.0
 40
0
 41
0
  0
VERTEX
  8
0
 10
0.0887587
 20
0.252929
 30
0.0
 40
0
 41
0
  0
VERTEX
  8
0
 10
0.0887587
 20
0.252929
 30
0.0
 40
0
 41
0
  0
VERTEX
  8
0
 10
0.0399306
 20
0.252929
 30
0.0
 40
0
 41
0
  0
SEQEND
 8
0
  0
POLYLINE
  8
0
 62
     33
 66
     1
 10
0
 20
0
 30
0.0
 70
     1
 40
0
 41
0
  0
VERTEX
  8
0
 10
0.127387
 20
0.443468
 30
0.0
 40
0
 41
0
  0
VERTEX
  8
0
 10
0.127279
 20
0.415201
 30
0.0
 40
0
 41
0
  0
VERTEX
  8
0
 10
0.122776
 20
0.411729
 30
0.0
 40
0
 41
0
  0
VERTEX
  8
0
 10
0.122776
 20
0.447917
 30
0.0
 40
0
 41
0
  0
SEQEND
 8
0
  0
POLYLINE
  8
0
 62
     118
 66
     1
 10
0
 20
0
 30
0.0
 70
     1
 40
0
 41
0
  0
VERTEX
  8
0
 10
0.0644532
 20
0.447917
 30
0.0
 40
0
 41
0
  0
VERTEX
  8
0
 10
0.0104167
 20
0.447917
 30
0.0
 40
0
 41
0
  0
VERTEX
  8
0
 10
0.0104167
 20
0.411729
 30
0.0
 40
0
 41
0
  0
VERTEX
  8
0
 10
0.0104167
 20
0.411729
 30
0.0
 40
0
 41
0
  0
VERTEX
  8
0
 10
0.014974
 20
0.418024
 30
0.0
 40
0
 41
0
  0
VERTEX
  8
0
 10
0.0290799
 20
0.424263
 30
0.0
 40
0
 41
0
  0
VERTEX
  8
0
 10
0.0337999
 20
0.424263
 30
0.0
 40
0
 41
0
  0
VERTEX
  8
0
 10
0.0480686
 20
0.424263
 30
0.0
 40
0
 41
0
  0
VERTEX
  8
0
 10
0.0480686
 20
0.272732
 30
0.0
 40
0
 41
0
  0
VERTEX
  8
0
 10
0.0480686
 20
0.270019
 30
0.0
 40
0
 41
0
  0
VERTEX
  8
0
 10
0.0439996
 20
0.261719
 30
0.0
 40
0
 41
0
  0
VERTEX
  8
0
 10
0.0399306
 20
0.257488
 30
0.0
 40
0
 41
0
  0
VERTEX
  8
0
 10
0.0399306
 20
0.257488
 30
0.0
 40
0
 41
0
  0
VERTEX
  8
0
 10
0.0887587
 20
0.257488
 30
0.0
 40
0
 41
0
  0
VERTEX
  8
0
 10
0.0887587
 20
0.257488
 30
0.0
 40
0
 41
0
  0
VERTEX
  8
0
 10
0.0846897
 20
0.261719
 30
0.0
 40
0
 41
0
  0
VERTEX
  8
0
 10
0.0806207
 20
0.270019
 30
0.0
 40
0
 41
0
  0
VERTEX
  8
0
 10
0.0806207
 20
0.272732
 30
0.0
 40
0
 41
0
  0
VERTEX
  8
0
 10
0.0806207
 20
0.424263
 30
0.0
 40
0
 41
0
  0
VERTEX
  8
0
 10
0.0948893
 20
0.424263
 30
0.0
 40
0
 41
0
  0
VERTEX
  8
0
 10
0.0995551
 20
0.424263
 30
0.0
 40
0
 41
0
  0
VERTEX
  8
0
 10
0.113661
 20
0.418024
 30
0.0
 40
0
 41
0
  0
VERTEX
  8
0
 10
0.118273
 20
0.411729
 30
0.0
 40
0
 41
0
  0
VERTEX
  8
0
 10
0.118273
 20
0.411729
 30
0.0
 40
0
 41
0
  0
VERTEX
  8
0
 10
0.118273
 20
0.447917
 30
0.0
 40
0
 41
0
  0
SEQEND
 8
0
  0
POLYLINE
  8
0
 62
     33
 66
     1
 10
0
 20
0
 30
0.0
 70
     1
 40
0
 41
0
  0
VERTEX
  8
0
 10
0.166504
 20
0.284071
 30
0.0
 40
0
 41
0
  0
VERTEX
  8
0
 10
0.163846
 20
0.284885
 30
0.0
 40
0
 41
0
  0
VERTEX
  8
0
 10
0.163303
 20
0.284885
 30
0.0
 40
0
 41
0
  0
VERTEX
  8
0
 10
0.161783
 20
0.287326
 30
0.0
 40
0
 41
0
  0
VERTEX
  8
0
 10
0.161783
 20
0.287706
 30
0.0
 40
0
 41
0
  0
VERTEX
  8
0
 10
0.161729
 20
0.287924
 30
0.0
 40
0
 41
0
  0
VERTEX
  8
0
 10
0.161296
 20
0.291342
 30
0.0
 40
0
 41
0
  0
VERTEX
  8
0
 10
0.161296
 20
0.292426
 30
0.0
 40
0
 41
0
  0
VERTEX
  8
0
 10
0.161296
 20
0.292426
 30
0.0
 40
0
 41
0
  0
VERTEX
  8
0
 10
0.161296
 20
0.305067
 30
0.0
 40
0
 41
0
  0
VERTEX
  8
0
 10
0.161296
 20
0.33469
 30
0.0
 40
0
 41
0
  0
VERTEX
  8
0
 10
0.161296
 20
0.36914
 30
0.0
 40
0
 41
0
  0
VERTEX
  8
0
 10
0.161296
 20
0.389378
 30
0.0
 40
0
 41
0
  0
VERTEX
  8
0
 10
0.161296
 20
0.396104
 30
0.0
 40
0
 41
0
  0
VERTEX
  8
0
 10
0.156793
 20
0.400499
 30
0.0
 40
0
 41
0
  0
VERTEX
  8
0
 10
0.156575
 20
0.292426
 30
0.0
 40
0
 41
0
  0
VERTEX
  8
0
 10
0.156575
 20
0.290365
 30
0.0
 40
0
 41
0
  0
VERTEX
  8
0
 10
0.15804
 20
0.284343
 30
0.0
 40
0
 41
0
  0
VERTEX
  8
0
 10
0.158203
 20
0.284179
 30
0.0
 40
0
 41
0
  0
VERTEX
  8
0
 10
0.158311
 20
0.284071
 30
0.0
 40
0
 41
0
  0
VERTEX
  8
0
 10
0.162543
 20
0.282443
 30
0.0
 40
0
 41
0
  0
VERTEX
  8
0
 10
0.163357
 20
0.282497
 30
0.0
 40
0
 41
0
  0
VERTEX
  8
0
 10
0.163846
 20
0.282607
 30
0.0
 40
0
 41
0
  0
VERTEX
  8
0
 10
0.166342
 20
0.284017
 30
0.0
 40
0
 41
0
  0
VERTEX
  8
0
 10
0.166504
 20
0.284071
 30
0.0
 40
0
 41
0
  0
SEQEND
 8
0
  0
POLYLINE
  8
0
 62
     118
 66
     1
 10
0
 20
0
 30
0.0
 70
     1
 40
0
 41
0
  0
VERTEX
  8
0
 10
0.202963
 20
0.269476
 30
0.0
 40
0
 41
0
  0
VERTEX
  8
0
 10
0.202963
 20
0.400499
 30
0.0
 40
0
 41
0
  0
VERTEX
  8
0
 10
0.16531
 20
0.400499
 30
0.0
 40
0
 41
0
  0
VERTEX
  8
0
 10
0.16531
 20
0.400499
 30
0.0
 40
0
 41
0
  0
VERTEX
  8
0
 10
0.169325
 20
0.396376
 30
0.0
 40
0
 41
0
  0
VERTEX
  8
0
 10
0.173394
 20
0.387642
 30
0.0
 40
0
 41
0
  0
VERTEX
  8
0
 10
0.173449
 20
0.385362
 30
0.0
 40
0
 41
0
  0
VERTEX
  8
0
 10
0.173449
 20
0.292426
 30
0.0
 40
0
 41
0
  0
VERTEX
  8
0
 10
0.173449
 20
0.290039
 30
0.0
 40
0
 41
0
  0
VERTEX
  8
0
 10
0.170736
 20
0.282715
 30
0.0
 40
0
 41
0
  0
VERTEX
  8
0
 10
0.165039
 20
0.278646
 30
0.0
 40
0
 41
0
  0
VERTEX
  8
0
 10
0.163194
 20
0.278646
 30
0.0
 40
0
 41
0
  0
VERTEX
  8
0
 10
0.161188
 20
0.278646
 30
0.0
 40
0
 41
0
  0
VERTEX
  8
0
 10
0.155274
 20
0.281088
 30
0.0
 40
0
 41
0
  0
VERTEX
  8
0
 10
0.152289
 20
0.289606
 30
0.0
 40
0
 41
0
  0
VERTEX
  8
0
 10
0.152289
 20
0.292426
 30
0.0
 40
0
 41
0
  0
VERTEX
  8
0
 10
0.152289
 20
0.400499
 30
0.0
 40
0
 41
0
  0
VERTEX
  8
0
 10
0.114638
 20
0.400499
 30
0.0
 40
0
 41
0
  0
VERTEX
  8
0
 10
0.114638
 20
0.400499
 30
0.0
 40
0
 41
0
  0
VERTEX
  8
0
 10
0.118381
 20
0.396756
 30
0.0
 40
0
 41
0
  0
VERTEX
  8
0
 10
0.122504
 20
0.388781
 30
0.0
 40
0
 41
0
  0
VERTEX
  8
0
 10
0.122721
 20
0.386664
 30
0.0
 40
0
 41
0
  0
VERTEX
  8
0
 10
0.122721
 20
0.300239
 30
0.0
 40
0
 41
0
  0
VERTEX
  8
0
 10
0.122721
 20
0.29655
 30
0.0
 40
0
 41
0
  0
VERTEX
  8
0
 10
0.123535
 20
0.285374
 30
0.0
 40
0
 41
0
  0
VERTEX
  8
0
 10
0.127007
 20
0.271485
 30
0.0
 40
0
 41
0
  0
VERTEX
  8
0
 10
0.134603
 20
0.261176
 30
0.0
 40
0
 41
0
  0
VERTEX
  8
0
 10
0.144476
 20
0.257161
 30
0.0
 40
0
 41
0
  0
VERTEX
  8
0
 10
0.147786
 20
0.257161
 30
0.0
 40
0
 41
0
  0
VERTEX
  8
0
 10
0.153267
 20
0.257161
 30
0.0
 40
0
 41
0
  0
VERTEX
  8
0
 10
0.16824
 20
0.264432
 30
0.0
 40
0
 41
0
  0
VERTEX
  8
0
 10
0.16976
 20
0.265733
 30
0.0
 40
0
 41
0
  0
VERTEX
  8
0
 10
0.17155
 20
0.266222
 30
0.0
 40
0
 41
0
  0
VERTEX
  8
0
 10
0.172146
 20
0.266222
 30
0.0
 40
0
 41
0
  0
VERTEX
  8
0
 10
0.173828
 20
0.264106
 30
0.0
 40
0
 41
0
  0
VERTEX
  8
0
 10
0.173936
 20
0.263726
 30
0.0
 40
0
 41
0
  0
VERTEX
  8
0
 10
0.175564
 20
0.260092
 30
0.0
 40
0
 41
0
  0
VERTEX
  8
0
 10
0.175618
 20
0.259711
 30
0.0
 40
0
 41
0
  0
VERTEX
  8
0
 10
0.178006
 20
0.257433
 30
0.0
 40
0
 41
0
  0
VERTEX
  8
0
 10
0.178819
 20
0.257433
 30
0.0
 40
0
 41
0
  0
VERTEX
  8
0
 10
0.178819
 20
0.257488
 30
0.0
 40
0
 41
0
  0
VERTEX
  8
0
 10
0.210775
 20
0.257488
 30
0.0
 40
0
 41
0
  0
VERTEX
  8
0
 10
0.210775
 20
0.257488
 30
0.0
 40
0
 41
0
  0
VERTEX
  8
0
 10
0.207411
 20
0.260742
 30
0.0
 40
0
 41
0
  0
VERTEX
  8
0
 10
0.203342
 20
0.267686
 30
0.0
 40
0
 41
0
  0
VERTEX
  8
0
 10
0.202963
 20
0.269476
 30
0.0
 40
0
 41
0
  0
SEQEND
 8
0
  0
POLYLINE
  8
0
 62
     33
 66
     1
 10
0
 20
0
 30
0.0
 70
     1
 40
0
 41
0
  0
VERTEX
  8
0
 10
0.228407
 20
0.248481
 30
0.0
 40
0
 41
0
  0
VERTEX
  8
0
 10
0.225803
 20
0.252929
 30
0.0
 40
0
 41
0
  0
VERTEX
  8
0
 10
0.281196
 20
0.252929
 30
0.0
 40
0
 41
0
  0
VERTEX
  8
0
 10
0.275444
 20
0.248426
 30
0.0
 40
0
 41
0
  0
VERTEX
  8
0
 10
0.228842
 20
0.248426
 30
0.0
 40
0
 41
0
  0
SEQEND
 8
0
  0
POLYLINE
  8
0
 62
     33
 66
     1
 10
0
 20
0
 30
0.0
 70
     1
 40
0
 41
0
  0
VERTEX
  8
0
 10
0.274849
 20
0.443468
 30
0.0
 40
0
 41
0
  0
VERTEX
  8
0
 10
0.274849
 20
0.262315
 30
0.0
 40
0
 41
0
  0
VERTEX
  8
0
 10
0.27474
 20
0.262315
 30
0.0
 40
0
 41
0
  0
VERTEX
  8
0
 10
0.274306
 20
0.262642
 30
0.0
 40
0
 41
0
  0
VERTEX
  8
0
 10
0.270344
 20
0.270236
 30
0.0
 40
0
 41
0
  0
VERTEX
  8
0
 10
0.270344
 20
0.272732
 30
0.0
 40
0
 41
0
  0
VERTEX
  8
0
 10
0.270344
 20
0.447917
 30
0.0
 40
0
 41
0
  0
SEQEND
 8
0
  0
POLYLINE
  8
0
 62
     118
 66
     1
 10
0
 20
0
 30
0.0
 70
     1
 40
0
 41
0
  0
VERTEX
  8
0
 10
0.265842
 20
0.272732
 30
0.0
 40
0
 41
0
  0
VERTEX
  8
0
 10
0.265842
 20
0.4477
 30
0.0
 40
0
 41
0
  0
VERTEX
  8
0
 10
0.224881
 20
0.447808
 30
0.0
 40
0
 41
0
  0
VERTEX
  8
0
 10
0.224881
 20
0.447808
 30
0.0
 40
0
 41
0
  0
VERTEX
  8
0
 10
0.229275
 20
0.444011
 30
0.0
 40
0
 41
0
  0
VERTEX
  8
0
 10
0.233724
 20
0.436035
 30
0.0
 40
0
 41
0
  0
VERTEX
  8
0
 10
0.233724
 20
0.433376
 30
0.0
 40
0
 41
0
  0
VERTEX
  8
0
 10
0.233942
 20
0.272732
 30
0.0
 40
0
 41
0
  0
VERTEX
  8
0
 10
0.233942
 20
0.269694
 30
0.0
 40
0
 41
0
  0
VERTEX
  8
0
 10
0.229872
 20
0.260362
 30
0.0
 40
0
 41
0
  0
VERTEX
  8
0
 10
0.225803
 20
0.257488
 30
0.0
 40
0
 41
0
  0
VERTEX
  8
0
 10
0.225803
 20
0.257488
 30
0.0
 40
0
 41
0
  0
VERTEX
  8
0
 10
0.273981
 20
0.257488
 30
0.0
 40
0
 41
0
  0
VERTEX
  8
0
 10
0.273981
 20
0.257488
 30
0.0
 40
0
 41
0
  0
VERTEX
  8
0
 10
0.269911
 20
0.260796
 30
0.0
 40
0
 41
0
  0
VERTEX
  8
0
 10
0.265842
 20
0.269749
 30
0.0
 40
0
 41
0
  0
VERTEX
  8
0
 10
0.265842
 20
0.272732
 30
0.0
 40
0
 41
0
  0
SEQEND
 8
0
  0
POLYLINE
  8
0
 62
     116
 66
     1
 10
0
 20
0
 30
0.0
 70
     1
 40
0
 41
0
  0
VERTEX
  8
0
 10
0.353407
 20
0.397624
 30
0.0
 40
0
 41
0
  0
VERTEX
  8
0
 10
0.35319
 20
0.397624
 30
0.0
 40
0
 41
0
  0
VERTEX
  8
0
 10
0.353407
 20
0.397461
 30
0.0
 40
0
 41
0
  0
SEQEND
 8
0
  0
POLYLINE
  8
0
 62
     33
 66
     1
 10
0
 20
0
 30
0.0
 70
     1
 40
0
 41
0
  0
VERTEX
  8
0
 10
0.406142
 20
0.252929
 30
0.0
 40
0
 41
0
  0
VERTEX
  8
0
 10
0.406142
 20
0.252929
 30
0.0
 40
0
 41
0
  0
VERTEX
  8
0
 10
0.424804
 20
0.252929
 30
0.0
 40
0
 41
0
  0
VERTEX
  8
0
 10
0.440158
 20
0.252929
 30
0.0
 40
0
 41
0
  0
VERTEX
  8
0
 10
0.445313
 20
0.252929
 30
0.0
 40
0
 41
0
  0
VERTEX
  8
0
 10
0.439996
 20
0.248426
 30
0.0
 40
0
 41
0
  0
VERTEX
  8
0
 10
0.436089
 20
0.248426
 30
0.0
 40
0
 41
0
  0
VERTEX
  8
0
 10
0.424479
 20
0.248426
 30
0.0
 40
0
 41
0
  0
VERTEX
  8
0
 10
0.412001
 20
0.248426
 30
0.0
 40
0
 41
0
  0
VERTEX
  8
0
 10
0.407878
 20
0.248426
 30
0.0
 40
0
 41
0
  0
SEQEND
 8
0
  0
POLYLINE
  8
0
 62
     33
 66
     1
 10
0
 20
0
 30
0.0
 70
     1
 40
0
 41
0
  0
VERTEX
  8
0
 10
0.423719
 20
0.397894
 30
0.0
 40
0
 41
0
  0
VERTEX
  8
0
 10
0.425456
 20
0.396158
 30
0.0
 40
0
 41
0
  0
VERTEX
  8
0
 10
0.434842
 20
0.373101
 30
0.0
 40
0
 41
0
  0
VERTEX
  8
0
 10
0.434842
 20
0.365397
 30
0.0
 40
0
 41
0
  0
VERTEX
  8
0
 10
0.434733
 20
0.361546
 30
0.0
 40
0
 41
0
  0
VERTEX
  8
0
 10
0.434733
 20
0.26964
 30
0.0
 40
0
 41
0
  0
VERTEX
  8
0
 10
0.434896
 20
0.268881
 30
0.0
 40
0
 41
0
  0
VERTEX
  8
0
 10
0.438857
 20
0.262804
 30
0.0
 40
0
 41
0
  0
VERTEX
  8
0
 10
0.439236
 20
0.262369
 30
0.0
 40
0
 41
0
  0
VERTEX
  8
0
 10
0.439236
 20
0.357693
 30
0.0
 40
0
 41
0
  0
VERTEX
  8
0
 10
0.439344
 20
0.361546
 30
0.0
 40
0
 41
0
  0
VERTEX
  8
0
 10
0.439344
 20
0.365397
 30
0.0
 40
0
 41
0
  0
VERTEX
  8
0
 10
0.439344
 20
0.370389
 30
0.0
 40
0
 41
0
  0
VERTEX
  8
0
 10
0.435493
 20
0.385308
 30
0.0
 40
0
 41
0
  0
VERTEX
  8
0
 10
0.426378
 20
0.397026
 30
0.0
 40
0
 41
0
  0
VERTEX
  8
0
 10
0.423719
 20
0.397894
 30
0.0
 40
0
 41
0
  0
SEQEND
 8
0
  0
POLYLINE
  8
0
 62
     33
 66
     1
 10
0
 20
0
 30
0.0
 70
     1
 40
0
 41
0
  0
VERTEX
  8
0
 10
0.585286
 20
0.397894
 30
0.0
 40
0
 41
0
  0
VERTEX
  8
0
 10
0.586751
 20
0.396485
 30
0.0
 40
0
 41
0
  0
VERTEX
  8
0
 10
0.592231
 20
0.384983
 30
0.0
 40
0
 41
0
  0
VERTEX
  8
0
 10
0.594943
 20
0.369032
 30
0.0
 40
0
 41
0
  0
VERTEX
  8
0
 10
0.595053
 20
0.365397
 30
0.0
 40
0
 41
0
  0
VERTEX
  8
0
 10
0.594943
 20
0.361546
 30
0.0
 40
0
 41
0
  0
VERTEX
  8
0
 10
0.594997
 20
0.361436
 30
0.0
 40
0
 41
0
  0
VERTEX
  8
0
 10
0.594997
 20
0.26964
 30
0.0
 40
0
 41
0
  0
VERTEX
  8
0
 10
0.595269
 20
0.268067
 30
0.0
 40
0
 41
0
  0
VERTEX
  8
0
 10
0.599067
 20
0.261664
 30
0.0
 40
0
 41
0
  0
VERTEX
  8
0
 10
0.599447
 20
0.261014
 30
0.0
 40
0
 41
0
  0
VERTEX
  8
0
 10
0.599501
 20
0.269422
 30
0.0
 40
0
 41
0
  0
VERTEX
  8
0
 10
0.599501
 20
0.357693
 30
0.0
 40
0
 41
0
  0
VERTEX
  8
0
 10
0.59961
 20
0.361546
 30
0.0
 40
0
 41
0
  0
VERTEX
  8
0
 10
0.59961
 20
0.365397
 30
0.0
 40
0
 41
0
  0
VERTEX
  8
0
 10
0.59961
 20
0.370389
 30
0.0
 40
0
 41
0
  0
VERTEX
  8
0
 10
0.596408
 20
0.385308
 30
0.0
 40
0
 41
0
  0
VERTEX
  8
0
 10
0.587944
 20
0.397026
 30
0.0
 40
0
 41
0
  0
VERTEX
  8
0
 10
0.585286
 20
0.397894
 30
0.0
 40
0
 41
0
  0
SEQEND
 8
0
  0
POLYLINE
  8
0
 62
     33
 66
     1
 10
0
 20
0
 30
0.0
 70
     1
 40
0
 41
0
  0
VERTEX
  8
0
 10
0.352431
 20
0.261501
 30
0.0
 40
0
 41
0
  0
VERTEX
  8
0
 10
0.353515
 20
0.260362
 30
0.0
 40
0
 41
0
  0
VERTEX
  8
0
 10
0.354818
 20
0.25906
 30
0.0
 40
0
 41
0
  0
VERTEX
  8
0
 10
0.369954
 20
0.252604
 30
0.0
 40
0
 41
0
  0
VERTEX
  8
0
 10
0.375
 20
0.252604
 30
0.0
 40
0
 41
0
  0
VERTEX
  8
0
 10
0.380588
 20
0.252604
 30
0.0
 40
0
 41
0
  0
VERTEX
  8
0
 10
0.395725
 20
0.258735
 30
0.0
 40
0
 41
0
  0
VERTEX
  8
0
 10
0.397353
 20
0.259874
 30
0.0
 40
0
 41
0
  0
VERTEX
  8
0
 10
0.395833
 20
0.253635
 30
0.0
 40
0
 41
0
  0
VERTEX
  8
0
 10
0.39426
 20
0.252767
 30
0.0
 40
0
 41
0
  0
VERTEX
  8
0
 10
0.379775
 20
0.248101
 30
0.0
 40
0
 41
0
  0
VERTEX
  8
0
 10
0.375
 20
0.248101
 30
0.0
 40
0
 41
0
  0
VERTEX
  8
0
 10
0.371582
 20
0.248101
 30
0.0
 40
0
 41
0
  0
VERTEX
  8
0
 10
0.36149
 20
0.251411
 30
0.0
 40
0
 41
0
  0
VERTEX
  8
0
 10
0.353082
 20
0.259224
 30
0.0
 40
0
 41
0
  0
VERTEX
  8
0
 10
0.352431
 20
0.261501
 30
0.0
 40
0
 41
0
  0
SEQEND
 8
0
  0
POLYLINE
  8
0
 62
     33
 66
     1
 10
0
 20
0
 30
0.0
 70
     1
 40
0
 41
0
  0
VERTEX
  8
0
 10
0.390354
 20
0.372504
 30
0.0
 40
0
 41
0
  0
VERTEX
  8
0
 10
0.389324
 20
0.372504
 30
0.0
 40
0
 41
0
  0
VERTEX
  8
0
 10
0.386176
 20
0.362033
 30
0.0
 40
0
 41
0
  0
VERTEX
  8
0
 10
0.386231
 20
0.3597
 30
0.0
 40
0
 41
0
  0
VERTEX
  8
0
 10
0.386231
 20
0.358507
 30
0.0
 40
0
 41
0
  0
VERTEX
  8
0
 10
0.386122
 20
0.355251
 30
0.0
 40
0
 41
0
  0
VERTEX
  8
0
 10
0.386176
 20
0.354818
 30
0.0
 40
0
 41
0
  0
VERTEX
  8
0
 10
0.381728
 20
0.351129
 30
0.0
 40
0
 41
0
  0
VERTEX
  8
0
 10
0.381674
 20
0.354004
 30
0.0
 40
0
 41
0
  0
VERTEX
  8
0
 10
0.381619
 20
0.354492
 30
0.0
 40
0
 41
0
  0
VERTEX
  8
0
 10
0.381674
 20
0.359483
 30
0.0
 40
0
 41
0
  0
VERTEX
  8
0
 10
0.381728
 20
0.359972
 30
0.0
 40
0
 41
0
  0
VERTEX
  8
0
 10
0.38189
 20
0.362793
 30
0.0
 40
0
 41
0
  0
VERTEX
  8
0
 10
0.385471
 20
0.370985
 30
0.0
 40
0
 41
0
  0
VERTEX
  8
0
 10
0.389106
 20
0.372504
 30
0.0
 40
0
 41
0
  0
VERTEX
  8
0
 10
0.390354
 20
0.372504
 30
0.0
 40
0
 41
0
  0
SEQEND
 8
0
  0
POLYLINE
  8
0
 62
     33
 66
     1
 10
0
 20
0
 30
0.0
 70
     1
 40
0
 41
0
  0
VERTEX
  8
0
 10
0.393772
 20
0.319661
 30
0.0
 40
0
 41
0
  0
VERTEX
  8
0
 10
0.392904
 20
0.319119
 30
0.0
 40
0
 41
0
  0
VERTEX
  8
0
 10
0.388183
 20
0.312446
 30
0.0
 40
0
 41
0
  0
VERTEX
  8
0
 10
0.385362
 20
0.30089
 30
0.0
 40
0
 41
0
  0
VERTEX
  8
0
 10
0.385471
 20
0.297906
 30
0.0
 40
0
 41
0
  0
VERTEX
  8
0
 10
0.385851
 20
0.294542
 30
0.0
 40
0
 41
0
  0
VERTEX
  8
0
 10
0.386231
 20
0.293403
 30
0.0
 40
0
 41
0
  0
VERTEX
  8
0
 10
0.388618
 20
0.288249
 30
0.0
 40
0
 41
0
  0
VERTEX
  8
0
 10
0.388726
 20
0.28814
 30
0.0
 40
0
 41
0
  0
VERTEX
  8
0
 10
0.386176
 20
0.284397
 30
0.0
 40
0
 41
0
  0
VERTEX
  8
0
 10
0.385796
 20
0.284668
 30
0.0
 40
0
 41
0
  0
VERTEX
  8
0
 10
0.381944
 20
0.291992
 30
0.0
 40
0
 41
0
  0
VERTEX
  8
0
 10
0.381511
 20
0.293294
 30
0.0
 40
0
 41
0
  0
VERTEX
  8
0
 10
0.381401
 20
0.293674
 30
0.0
 40
0
 41
0
  0
VERTEX
  8
0
 10
0.380968
 20
0.296875
 30
0.0
 40
0
 41
0
  0
VERTEX
  8
0
 10
0.380968
 20
0.297906
 30
0.0
 40
0
 41
0
  0
VERTEX
  8
0
 10
0.380968
 20
0.303386
 30
0.0
 40
0
 41
0
  0
VERTEX
  8
0
 10
0.391601
 20
0.319065
 30
0.0
 40
0
 41
0
  0
VERTEX
  8
0
 10
0.393772
 20
0.319661
 30
0.0
 40
0
 41
0
  0
SEQEND
 8
0
  0
POLYLINE
  8
0
 62
     118
 66
     1
 10
0
 20
0
 30
0.0
 70
     1
 40
0
 41
0
  0
VERTEX
  8
0
 10
0.400717
 20
0.292046
 30
0.0
 40
0
 41
0
  0
VERTEX
  8
0
 10
0.400717
 20
0.289768
 30
0.0
 40
0
 41
0
  0
VERTEX
  8
0
 10
0.39719
 20
0.282769
 30
0.0
 40
0
 41
0
  0
VERTEX
  8
0
 10
0.390842
 20
0.279135
 30
0.0
 40
0
 41
0
  0
VERTEX
  8
0
 10
0.388781
 20
0.279135
 30
0.0
 40
0
 41
0
  0
VERTEX
  8
0
 10
0.386936
 20
0.279135
 30
0.0
 40
0
 41
0
  0
VERTEX
  8
0
 10
0.381511
 20
0.282824
 30
0.0
 40
0
 41
0
  0
VERTEX
  8
0
 10
0.377821
 20
0.290201
 30
0.0
 40
0
 41
0
  0
VERTEX
  8
0
 10
0.377171
 20
0.292046
 30
0.0
 40
0
 41
0
  0
VERTEX
  8
0
 10
0.377007
 20
0.292535
 30
0.0
 40
0
 41
0
  0
VERTEX
  8
0
 10
0.376411
 20
0.296604
 30
0.0
 40
0
 41
0
  0
VERTEX
  8
0
 10
0.376411
 20
0.297906
 30
0.0
 40
0
 41
0
  0
VERTEX
  8
0
 10
0.376411
 20
0.302626
 30
0.0
 40
0
 41
0
  0
VERTEX
  8
0
 10
0.381565
 20
0.316678
 30
0.0
 40
0
 41
0
  0
VERTEX
  8
0
 10
0.395074
 20
0.324924
 30
0.0
 40
0
 41
0
  0
VERTEX
  8
0
 10
0.399251
 20
0.325087
 30
0.0
 40
0
 41
0
  0
VERTEX
  8
0
 10
0.400717
 20
0.325087
 30
0.0
 40
0
 41
0
  0
VERTEX
  8
0
 10
0.400717
 20
0.292046
 30
0.0
 40
0
 41
0
  0
SEQEND
 8
0
  0
POLYLINE
  8
0
 62
     118
 66
     1
 10
0
 20
0
 30
0.0
 70
     1
 40
0
 41
0
  0
VERTEX
  8
0
 10
0.430231
 20
0.269097
 30
0.0
 40
0
 41
0
  0
VERTEX
  8
0
 10
0.430231
 20
0.365397
 30
0.0
 40
0
 41
0
  0
VERTEX
  8
0
 10
0.430231
 20
0.372558
 30
0.0
 40
0
 41
0
  0
VERTEX
  8
0
 10
0.42079
 20
0.393935
 30
0.0
 40
0
 41
0
  0
VERTEX
  8
0
 10
0.400282
 20
0.402399
 30
0.0
 40
0
 41
0
  0
VERTEX
  8
0
 10
0.3935
 20
0.402399
 30
0.0
 40
0
 41
0
  0
VERTEX
  8
0
 10
0.387587
 20
0.402399
 30
0.0
 40
0
 41
0
  0
VERTEX
  8
0
 10
0.371528
 20
0.398004
 30
0.0
 40
0
 41
0
  0
VERTEX
  8
0
 10
0.3699
 20
0.397136
 30
0.0
 40
0
 41
0
  0
VERTEX
  8
0
 10
0.369954
 20
0.39719
 30
0.0
 40
0
 41
0
  0
VERTEX
  8
0
 10
0.369954
 20
0.39719
 30
0.0
 40
0
 41
0
  0
VERTEX
  8
0
 10
0.364204
 20
0.395128
 30
0.0
 40
0
 41
0
  0
VERTEX
  8
0
 10
0.355089
 20
0.395996
 30
0.0
 40
0
 41
0
  0
VERTEX
  8
0
 10
0.353407
 20
0.397461
 30
0.0
 40
0
 41
0
  0
VERTEX
  8
0
 10
0.353407
 20
0.351183
 30
0.0
 40
0
 41
0
  0
VERTEX
  8
0
 10
0.377225
 20
0.351129
 30
0.0
 40
0
 41
0
  0
VERTEX
  8
0
 10
0.377225
 20
0.353461
 30
0.0
 40
0
 41
0
  0
VERTEX
  8
0
 10
0.377171
 20
0.359429
 30
0.0
 40
0
 41
0
  0
VERTEX
  8
0
 10
0.377225
 20
0.360297
 30
0.0
 40
0
 41
0
  0
VERTEX
  8
0
 10
0.377387
 20
0.363226
 30
0.0
 40
0
 41
0
  0
VERTEX
  8
0
 10
0.381239
 20
0.372993
 30
0.0
 40
0
 41
0
  0
VERTEX
  8
0
 10
0.388075
 20
0.377007
 30
0.0
 40
0
 41
0
  0
VERTEX
  8
0
 10
0.390354
 20
0.377007
 30
0.0
 40
0
 41
0
  0
VERTEX
  8
0
 10
0.392144
 20
0.377007
 30
0.0
 40
0
 41
0
  0
VERTEX
  8
0
 10
0.397569
 20
0.37576
 30
0.0
 40
0
 41
0
  0
VERTEX
  8
0
 10
0.400717
 20
0.368707
 30
0.0
 40
0
 41
0
  0
VERTEX
  8
0
 10
0.400717
 20
0.366319
 30
0.0
 40
0
 41
0
  0
VERTEX
  8
0
 10
0.400717
 20
0.348525
 30
0.0
 40
0
 41
0
  0
VERTEX
  8
0
 10
0.400553
 20
0.347982
 30
0.0
 40
0
 41
0
  0
VERTEX
  8
0
 10
0.396918
 20
0.344726
 30
0.0
 40
0
 41
0
  0
VERTEX
  8
0
 10
0.395725
 20
0.344726
 30
0.0
 40
0
 41
0
  0
VERTEX
  8
0
 10
0.395508
 20
0.344618
 30
0.0
 40
0
 41
0
  0
VERTEX
  8
0
 10
0.393664
 20
0.344564
 30
0.0
 40
0
 41
0
  0
VERTEX
  8
0
 10
0.37679
 20
0.340603
 30
0.0
 40
0
 41
0
  0
VERTEX
  8
0
 10
0.375489
 20
0.340007
 30
0.0
 40
0
 41
0
  0
VERTEX
  8
0
 10
0.371149
 20
0.338163
 30
0.0
 40
0
 41
0
  0
VERTEX
  8
0
 10
0.3597
 20
0.328885
 30
0.0
 40
0
 41
0
  0
VERTEX
  8
0
 10
0.351292
 20
0.31581
 30
0.0
 40
0
 41
0
  0
VERTEX
  8
0
 10
0.347982
 20
0.304904
 30
0.0
 40
0
 41
0
  0
VERTEX
  8
0
 10
0.347439
 20
0.300293
 30
0.0
 40
0
 41
0
  0
VERTEX
  8
0
 10
0.347439
 20
0.300293
 30
0.0
 40
0
 41
0
  0
VERTEX
  8
0
 10
0.347439
 20
0.292372
 30
0.0
 40
0
 41
0
  0
VERTEX
  8
0
 10
0.353028
 20
0.268446
 30
0.0
 40
0
 41
0
  0
VERTEX
  8
0
 10
0.369521
 20
0.257107
 30
0.0
 40
0
 41
0
  0
VERTEX
  8
0
 10
0.375054
 20
0.257107
 30
0.0
 40
0
 41
0
  0
VERTEX
  8
0
 10
0.380533
 20
0.257107
 30
0.0
 40
0
 41
0
  0
VERTEX
  8
0
 10
0.395562
 20
0.264106
 30
0.0
 40
0
 41
0
  0
VERTEX
  8
0
 10
0.397081
 20
0.265408
 30
0.0
 40
0
 41
0
  0
VERTEX
  8
0
 10
0.398817
 20
0.265842
 30
0.0
 40
0
 41
0
  0
VERTEX
  8
0
 10
0.399414
 20
0.265842
 30
0.0
 40
0
 41
0
  0
VERTEX
  8
0
 10
0.401096
 20
0.263781
 30
0.0
 40
0
 41
0
  0
VERTEX
  8
0
 10
0.401204
 20
0.2634
 30
0.0
 40
0
 41
0
  0
VERTEX
  8
0
 10
0.402832
 20
0.259765
 30
0.0
 40
0
 41
0
  0
VERTEX
  8
0
 10
0.402886
 20
0.259386
 30
0.0
 40
0
 41
0
  0
VERTEX
  8
0
 10
0.405328
 20
0.257324
 30
0.0
 40
0
 41
0
  0
VERTEX
  8
0
 10
0.406142
 20
0.257324
 30
0.0
 40
0
 41
0
  0
VERTEX
  8
0
 10
0.406142
 20
0.257379
 30
0.0
 40
0
 41
0
  0
VERTEX
  8
0
 10
0.438043
 20
0.257379
 30
0.0
 40
0
 41
0
  0
VERTEX
  8
0
 10
0.438043
 20
0.257379
 30
0.0
 40
0
 41
0
  0
VERTEX
  8
0
 10
0.434679
 20
0.260525
 30
0.0
 40
0
 41
0
  0
VERTEX
  8
0
 10
0.43061
 20
0.267307
 30
0.0
 40
0
 41
0
  0
VERTEX
  8
0
 10
0.430231
 20
0.269097
 30
0.0
 40
0
 41
0
  0
SEQEND
 8
0
  0
POLYLINE
  8
0
 62
     118
 66
     1
 10
0
 20
0
 30
0.0
 70
     1
 40
0
 41
0
  0
VERTEX
  8
0
 10
0.59044
 20
0.267415
 30
0.0
 40
0
 41
0
  0
VERTEX
  8
0
 10
0.59044
 20
0.358399
 30
0.0
 40
0
 41
0
  0
VERTEX
  8
0
 10
0.59044
 20
0.362142
 30
0.0
 40
0
 41
0
  0
VERTEX
  8
0
 10
0.589899
 20
0.37321
 30
0.0
 40
0
 41
0
  0
VERTEX
  8
0
 10
0.586914
 20
0.387044
 30
0.0
 40
0
 41
0
  0
VERTEX
  8
0
 10
0.579428
 20
0.39719
 30
0.0
 40
0
 41
0
  0
VERTEX
  8
0
 10
0.568901
 20
0.40115
 30
0.0
 40
0
 41
0
  0
VERTEX
  8
0
 10
0.565429
 20
0.40115
 30
0.0
 40
0
 41
0
  0
VERTEX
  8
0
 10
0.560493
 20
0.40115
 30
0.0
 40
0
 41
0
  0
VERTEX
  8
0
 10
0.545844
 20
0.398167
 30
0.0
 40
0
 41
0
  0
VERTEX
  8
0
 10
0.536404
 20
0.392578
 30
0.0
 40
0
 41
0
  0
VERTEX
  8
0
 10
0.534885
 20
0.391222
 30
0.0
 40
0
 41
0
  0
VERTEX
  8
0
 10
0.53456
 20
0.391114
 30
0.0
 40
0
 41
0
  0
VERTEX
  8
0
 10
0.533638
 20
0.392632
 30
0.0
 40
0
 41
0
  0
VERTEX
  8
0
 10
0.517361
 20
0.401204
 30
0.0
 40
0
 41
0
  0
VERTEX
  8
0
 10
0.514865
 20
0.40115
 30
0.0
 40
0
 41
0
  0
VERTEX
  8
0
 10
0.512804
 20
0.40115
 30
0.0
 40
0
 41
0
  0
VERTEX
  8
0
 10
0.494303
 20
0.39426
 30
0.0
 40
0
 41
0
  0
VERTEX
  8
0
 10
0.492839
 20
0.392904
 30
0.0
 40
0
 41
0
  0
VERTEX
  8
0
 10
0.491103
 20
0.392415
 30
0.0
 40
0
 41
0
  0
VERTEX
  8
0
 10
0.490072
 20
0.392415
 30
0.0
 40
0
 41
0
  0
VERTEX
  8
0
 10
0.487033
 20
0.398492
 30
0.0
 40
0
 41
0
  0
VERTEX
  8
0
 10
0.487033
 20
0.398492
 30
0.0
 40
0
 41
0
  0
VERTEX
  8
0
 10
0.486817
 20
0.398926
 30
0.0
 40
0
 41
0
  0
VERTEX
  8
0
 10
0.48291
 20
0.400174
 30
0.0
 40
0
 41
0
  0
VERTEX
  8
0
 10
0.481662
 20
0.400174
 30
0.0
 40
0
 41
0
  0
VERTEX
  8
0
 10
0.451824
 20
0.400119
 30
0.0
 40
0
 41
0
  0
VERTEX
  8
0
 10
0.451824
 20
0.400119
 30
0.0
 40
0
 41
0
  0
VERTEX
  8
0
 10
0.45524
 20
0.39784
 30
0.0
 40
0
 41
0
  0
VERTEX
  8
0
 10
0.45931
 20
0.391276
 30
0.0
 40
0
 41
0
  0
VERTEX
  8
0
 10
0.459636
 20
0.38916
 30
0.0
 40
0
 41
0
  0
VERTEX
  8
0
 10
0.459636
 20
0.264974
 30
0.0
 40
0
 41
0
  0
VERTEX
  8
0
 10
0.459256
 20
0.263456
 30
0.0
 40
0
 41
0
  0
VERTEX
  8
0
 10
0.454807
 20
0.257488
 30
0.0
 40
0
 41
0
  0
VERTEX
  8
0
 10
0.454807
 20
0.257488
 30
0.0
 40
0
 41
0
  0
VERTEX
  8
0
 10
0.495389
 20
0.257488
 30
0.0
 40
0
 41
0
  0
VERTEX
  8
0
 10
0.495389
 20
0.257488
 30
0.0
 40
0
 41
0
  0
VERTEX
  8
0
 10
0.492296
 20
0.260579
 30
0.0
 40
0
 41
0
  0
VERTEX
  8
0
 10
0.489258
 20
0.268881
 30
0.0
 40
0
 41
0
  0
VERTEX
  8
0
 10
0.489258
 20
0.271647
 30
0.0
 40
0
 41
0
  0
VERTEX
  8
0
 10
0.48915
 20
0.271647
 30
0.0
 40
0
 41
0
  0
VERTEX
  8
0
 10
0.48915
 20
0.35905
 30
0.0
 40
0
 41
0
  0
VERTEX
  8
0
 10
0.48915
 20
0.36149
 30
0.0
 40
0
 41
0
  0
VERTEX
  8
0
 10
0.491808
 20
0.368815
 30
0.0
 40
0
 41
0
  0
VERTEX
  8
0
 10
0.497504
 20
0.372831
 30
0.0
 40
0
 41
0
  0
VERTEX
  8
0
 10
0.499403
 20
0.372831
 30
0.0
 40
0
 41
0
  0
VERTEX
  8
0
 10
0.501247
 20
0.372831
 30
0.0
 40
0
 41
0
  0
VERTEX
  8
0
 10
0.506836
 20
0.370822
 30
0.0
 40
0
 41
0
  0
VERTEX
  8
0
 10
0.510092
 20
0.363878
 30
0.0
 40
0
 41
0
  0
VERTEX
  8
0
 10
0.510254
 20
0.36149
 30
0.0
 40
0
 41
0
  0
VERTEX
  8
0
 10
0.510254
 20
0.271647
 30
0.0
 40
0
 41
0
  0
VERTEX
  8
0
 10
0.510308
 20
0.271647
 30
0.0
 40
0
 41
0
  0
VERTEX
  8
0
 10
0.510308
 20
0.268826
 30
0.0
 40
0
 41
0
  0
VERTEX
  8
0
 10
0.507596
 20
0.260146
 30
0.0
 40
0
 41
0
  0
VERTEX
  8
0
 10
0.504937
 20
0.257488
 30
0.0
 40
0
 41
0
  0
VERTEX
  8
0
 10
0.504937
 20
0.257488
 30
0.0
 40
0
 41
0
  0
VERTEX
  8
0
 10
0.505425
 20
0.257488
 30
0.0
 40
0
 41
0
  0
VERTEX
  8
0
 10
0.515246
 20
0.257488
 30
0.0
 40
0
 41
0
  0
VERTEX
  8
0
 10
0.537381
 20
0.257488
 30
0.0
 40
0
 41
0
  0
VERTEX
  8
0
 10
0.54476
 20
0.257488
 30
0.0
 40
0
 41
0
  0
VERTEX
  8
0
 10
0.546007
 20
0.257488
 30
0.0
 40
0
 41
0
  0
VERTEX
  8
0
 10
0.546007
 20
0.257488
 30
0.0
 40
0
 41
0
  0
VERTEX
  8
0
 10
0.542914
 20
0.260579
 30
0.0
 40
0
 41
0
  0
VERTEX
  8
0
 10
0.539876
 20
0.268881
 30
0.0
 40
0
 41
0
  0
VERTEX
  8
0
 10
0.539876
 20
0.271647
 30
0.0
 40
0
 41
0
  0
VERTEX
  8
0
 10
0.539876
 20
0.351238
 30
0.0
 40
0
 41
0
  0
VERTEX
  8
0
 10
0.539876
 20
0.353624
 30
0.0
 40
0
 41
0
  0
VERTEX
  8
0
 10
0.539822
 20
0.359864
 30
0.0
 40
0
 41
0
  0
VERTEX
  8
0
 10
0.539822
 20
0.360732
 30
0.0
 40
0
 41
0
  0
VERTEX
  8
0
 10
0.539931
 20
0.362468
 30
0.0
 40
0
 41
0
  0
VERTEX
  8
0
 10
0.547472
 20
0.372831
 30
0.0
 40
0
 41
0
  0
VERTEX
  8
0
 10
0.550022
 20
0.372831
 30
0.0
 40
0
 41
0
  0
VERTEX
  8
0
 10
0.551975
 20
0.372831
 30
0.0
 40
0
 41
0
  0
VERTEX
  8
0
 10
0.557889
 20
0.370443
 30
0.0
 40
0
 41
0
  0
VERTEX
  8
0
 10
0.560872
 20
0.361925
 30
0.0
 40
0
 41
0
  0
VERTEX
  8
0
 10
0.560872
 20
0.35905
 30
0.0
 40
0
 41
0
  0
VERTEX
  8
0
 10
0.560926
 20
0.271647
 30
0.0
 40
0
 41
0
  0
VERTEX
  8
0
 10
0.560872
 20
0.271647
 30
0.0
 40
0
 41
0
  0
VERTEX
  8
0
 10
0.560872
 20
0.268826
 30
0.0
 40
0
 41
0
  0
VERTEX
  8
0
 10
0.558214
 20
0.260146
 30
0.0
 40
0
 41
0
  0
VERTEX
  8
0
 10
0.555556
 20
0.257488
 30
0.0
 40
0
 41
0
  0
VERTEX
  8
0
 10
0.555556
 20
0.257488
 30
0.0
 40
0
 41
0
  0
VERTEX
  8
0
 10
0.595324
 20
0.257488
 30
0.0
 40
0
 41
0
  0
VERTEX
  8
0
 10
0.595324
 20
0.257488
 30
0.0
 40
0
 41
0
  0
VERTEX
  8
0
 10
0.590712
 20
0.265571
 30
0.0
 40
0
 41
0
  0
VERTEX
  8
0
 10
0.59044
 20
0.267415
 30
0.0
 40
0
 41
0
  0
SEQEND
 8
0
  0
POLYLINE
  8
0
 62
     33
 66
     1
 10
0
 20
0
 30
0.0
 70
     1
 40
0
 41
0
  0
VERTEX
  8
0
 10
0.657389
 20
0.285915
 30
0.0
 40
0
 41
0
  0
VERTEX
  8
0
 10
0.654351
 20
0.287326
 30
0.0
 40
0
 41
0
  0
VERTEX
  8
0
 10
0.653483
 20
0.28814
 30
0.0
 40
0
 41
0
  0
VERTEX
  8
0
 10
0.649468
 20
0.298665
 30
0.0
 40
0
 41
0
  0
VERTEX
  8
0
 10
0.647136
 20
0.321289
 30
0.0
 40
0
 41
0
  0
VERTEX
  8
0
 10
0.647136
 20
0.328831
 30
0.0
 40
0
 41
0
  0
VERTEX
  8
0
 10
0.647136
 20
0.334744
 30
0.0
 40
0
 41
0
  0
VERTEX
  8
0
 10
0.648383
 20
0.352376
 30
0.0
 40
0
 41
0
  0
VERTEX
  8
0
 10
0.651313
 20
0.365235
 30
0.0
 40
0
 41
0
  0
VERTEX
  8
0
 10
0.654731
 20
0.37066
 30
0.0
 40
0
 41
0
  0
VERTEX
  8
0
 10
0.656685
 20
0.371744
 30
0.0
 40
0
 41
0
  0
VERTEX
  8
0
 10
0.657389
 20
0.371744
 30
0.0
 40
0
 41
0
  0
VERTEX
  8
0
 10
0.65701
 20
0.371365
 30
0.0
 40
0
 41
0
  0
VERTEX
  8
0
 10
0.653971
 20
0.360568
 30
0.0
 40
0
 41
0
  0
VERTEX
  8
0
 10
0.651693
 20
0.336806
 30
0.0
 40
0
 41
0
  0
VERTEX
  8
0
 10
0.651693
 20
0.328831
 30
0.0
 40
0
 41
0
  0
VERTEX
  8
0
 10
0.651693
 20
0.320964
 30
0.0
 40
0
 41
0
  0
VERTEX
  8
0
 10
0.653917
 20
0.297364
 30
0.0
 40
0
 41
0
  0
VERTEX
  8
0
 10
0.656956
 20
0.286404
 30
0.0
 40
0
 41
0
  0
VERTEX
  8
0
 10
0.657389
 20
0.285915
 30
0.0
 40
0
 41
0
  0
SEQEND
 8
0
  0
POLYLINE
  8
0
 62
     33
 66
     1
 10
0
 20
0
 30
0.0
 70
     1
 40
0
 41
0
  0
VERTEX
  8
0
 10
0.679144
 20
0.400499
 30
0.0
 40
0
 41
0
  0
VERTEX
  8
0
 10
0.679958
 20
0.400065
 30
0.0
 40
0
 41
0
  0
VERTEX
  8
0
 10
0.687446
 20
0.394532
 30
0.0
 40
0
 41
0
  0
VERTEX
  8
0
 10
0.688151
 20
0.393826
 30
0.0
 40
0
 41
0
  0
VERTEX
  8
0
 10
0.691135
 20
0.390842
 30
0.0
 40
0
 41
0
  0
VERTEX
  8
0
 10
0.701497
 20
0.368761
 30
0.0
 40
0
 41
0
  0
VERTEX
  8
0
 10
0.705946
 20
0.338813
 30
0.0
 40
0
 41
0
  0
VERTEX
  8
0
 10
0.705946
 20
0.328831
 30
0.0
 40
0
 41
0
  0
VERTEX
  8
0
 10
0.705946
 20
0.319228
 30
0.0
 40
0
 41
0
  0
VERTEX
  8
0
 10
0.701443
 20
0.290256
 30
0.0
 40
0
 41
0
  0
VERTEX
  8
0
 10
0.689996
 20
0.266928
 30
0.0
 40
0
 41
0
  0
VERTEX
  8
0
 10
0.674371
 20
0.255425
 30
0.0
 40
0
 41
0
  0
VERTEX
  8
0
 10
0.661675
 20
0.252333
 30
0.0
 40
0
 41
0
  0
VERTEX
  8
0
 10
0.657497
 20
0.252333
 30
0.0
 40
0
 41
0
  0
VERTEX
  8
0
 10
0.650444
 20
0.252333
 30
0.0
 40
0
 41
0
  0
VERTEX
  8
0
 10
0.631239
 20
0.260851
 30
0.0
 40
0
 41
0
  0
VERTEX
  8
0
 10
0.62934
 20
0.262532
 30
0.0
 40
0
 41
0
  0
VERTEX
  8
0
 10
0.630533
 20
0.260092
 30
0.0
 40
0
 41
0
  0
VERTEX
  8
0
 10
0.64171
 20
0.251465
 30
0.0
 40
0
 41
0
  0
VERTEX
  8
0
 10
0.653537
 20
0.247775
 30
0.0
 40
0
 41
0
  0
VERTEX
  8
0
 10
0.657497
 20
0.247775
 30
0.0
 40
0
 41
0
  0
VERTEX
  8
0
 10
0.66211
 20
0.247775
 30
0.0
 40
0
 41
0
  0
VERTEX
  8
0
 10
0.675944
 20
0.251031
 30
0.0
 40
0
 41
0
  0
VERTEX
  8
0
 10
0.692979
 20
0.263238
 30
0.0
 40
0
 41
0
  0
VERTEX
  8
0
 10
0.705567
 20
0.287924
 30
0.0
 40
0
 41
0
  0
VERTEX
  8
0
 10
0.710449
 20
0.318631
 30
0.0
 40
0
 41
0
  0
VERTEX
  8
0
 10
0.710449
 20
0.328831
 30
0.0
 40
0
 41
0
  0
VERTEX
  8
0
 10
0.710449
 20
0.335504
 30
0.0
 40
0
 41
0
  0
VERTEX
  8
0
 10
0.708876
 20
0.355524
 30
0.0
 40
0
 41
0
  0
VERTEX
  8
0
 10
0.703722
 20
0.37755
 30
0.0
 40
0
 41
0
  0
VERTEX
  8
0
 10
0.694065
 20
0.393121
 30
0.0
 40
0
 41
0
  0
VERTEX
  8
0
 10
0.683051
 20
0.399957
 30
0.0
 40
0
 41
0
  0
VERTEX
  8
0
 10
0.679144
 20
0.400499
 30
0.0
 40
0
 41
0
  0
SEQEND
 8
0
  0
POLYLINE
  8
0
 62
     118
 66
     1
 10
0
 20
0
 30
0.0
 70
     1
 40
0
 41
0
  0
VERTEX
  8
0
 10
0.657389
 20
0.281412
 30
0.0
 40
0
 41
0
  0
VERTEX
  8
0
 10
0.65446
 20
0.281412
 30
0.0
 40
0
 41
0
  0
VERTEX
  8
0
 10
0.645671
 20
0.295356
 30
0.0
 40
0
 41
0
  0
VERTEX
  8
0
 10
0.642632
 20
0.320475
 30
0.0
 40
0
 41
0
  0
VERTEX
  8
0
 10
0.642632
 20
0.328831
 30
0.0
 40
0
 41
0
  0
VERTEX
  8
0
 10
0.642632
 20
0.33724
 30
0.0
 40
0
 41
0
  0
VERTEX
  8
0
 10
0.645671
 20
0.362414
 30
0.0
 40
0
 41
0
  0
VERTEX
  8
0
 10
0.65446
 20
0.376303
 30
0.0
 40
0
 41
0
  0
VERTEX
  8
0
 10
0.657389
 20
0.376303
 30
0.0
 40
0
 41
0
  0
VERTEX
  8
0
 10
0.660157
 20
0.376303
 30
0.0
 40
0
 41
0
  0
VERTEX
  8
0
 10
0.668511
 20
0.362414
 30
0.0
 40
0
 41
0
  0
VERTEX
  8
0
 10
0.671061
 20
0.33724
 30
0.0
 40
0
 41
0
  0
VERTEX
  8
0
 10
0.671061
 20
0.328831
 30
0.0
 40
0
 41
0
  0
VERTEX
  8
0
 10
0.671061
 20
0.320475
 30
0.0
 40
0
 41
0
  0
VERTEX
  8
0
 10
0.668511
 20
0.295356
 30
0.0
 40
0
 41
0
  0
VERTEX
  8
0
 10
0.660157
 20
0.281412
 30
0.0
 40
0
 41
0
  0
VERTEX
  8
0
 10
0.657389
 20
0.281412
 30
0.0
 40
0
 41
0
  0
SEQEND
 8
0
  0
POLYLINE
  8
0
 62
     118
 66
     1
 10
0
 20
0
 30
0.0
 70
     1
 40
0
 41
0
  0
VERTEX
  8
0
 10
0.657878
 20
0.400879
 30
0.0
 40
0
 41
0
  0
VERTEX
  8
0
 10
0.652669
 20
0.400879
 30
0.0
 40
0
 41
0
  0
VERTEX
  8
0
 10
0.637207
 20
0.395236
 30
0.0
 40
0
 41
0
  0
VERTEX
  8
0
 10
0.623156
 20
0.379829
 30
0.0
 40
0
 41
0
  0
VERTEX
  8
0
 10
0.615126
 20
0.356933
 30
0.0
 40
0
 41
0
  0
VERTEX
  8
0
 10
0.612631
 20
0.335883
 30
0.0
 40
0
 41
0
  0
VERTEX
  8
0
 10
0.612631
 20
0.328831
 30
0.0
 40
0
 41
0
  0
VERTEX
  8
0
 10
0.612631
 20
0.321832
 30
0.0
 40
0
 41
0
  0
VERTEX
  8
0
 10
0.615072
 20
0.300836
 30
0.0
 40
0
 41
0
  0
VERTEX
  8
0
 10
0.622939
 20
0.27794
 30
0.0
 40
0
 41
0
  0
VERTEX
  8
0
 10
0.636828
 20
0.262532
 30
0.0
 40
0
 41
0
  0
VERTEX
  8
0
 10
0.652344
 20
0.256836
 30
0.0
 40
0
 41
0
  0
VERTEX
  8
0
 10
0.657553
 20
0.256836
 30
0.0
 40
0
 41
0
  0
VERTEX
  8
0
 10
0.662761
 20
0.256836
 30
0.0
 40
0
 41
0
  0
VERTEX
  8
0
 10
0.67844
 20
0.262532
 30
0.0
 40
0
 41
0
  0
VERTEX
  8
0
 10
0.691949
 20
0.27794
 30
0.0
 40
0
 41
0
  0
VERTEX
  8
0
 10
0.699219
 20
0.300836
 30
0.0
 40
0
 41
0
  0
VERTEX
  8
0
 10
0.701443
 20
0.321832
 30
0.0
 40
0
 41
0
  0
VERTEX
  8
0
 10
0.701443
 20
0.328831
 30
0.0
 40
0
 41
0
  0
VERTEX
  8
0
 10
0.701443
 20
0.335883
 30
0.0
 40
0
 41
0
  0
VERTEX
  8
0
 10
0.69949
 20
0.356933
 30
0.0
 40
0
 41
0
  0
VERTEX
  8
0
 10
0.6926
 20
0.379829
 30
0.0
 40
0
 41
0
  0
VERTEX
  8
0
 10
0.679254
 20
0.395236
 30
0.0
 40
0
 41
0
  0
VERTEX
  8
0
 10
0.663194
 20
0.400879
 30
0.0
 40
0
 41
0
  0
VERTEX
  8
0
 10
0.657878
 20
0.400879
 30
0.0
 40
0
 41
0
  0
SEQEND
 8
0
  0
POLYLINE
  8
0
 62
     33
 66
     1
 10
0
 20
0
 30
0.0
 70
     1
 40
0
 41
0
  0
VERTEX
  8
0
 10
0.797092
 20
0.400608
 30
0.0
 40
0
 41
0
  0
VERTEX
  8
0
 10
0.797526
 20
0.400336
 30
0.0
 40
0
 41
0
  0
VERTEX
  8
0
 10
0.801432
 20
0.396376
 30
0.0
 40
0
 41
0
  0
VERTEX
  8
0
 10
0.801758
 20
0.395888
 30
0.0
 40
0
 41
0
  0
VERTEX
  8
0
 10
0.802083
 20
0.395454
 30
0.0
 40
0
 41
0
  0
VERTEX
  8
0
 10
0.806315
 20
0.388346
 30
0.0
 40
0
 41
0
  0
VERTEX
  8
0
 10
0.809842
 20
0.375651
 30
0.0
 40
0
 41
0
  0
VERTEX
  8
0
 10
0.809842
 20
0.371419
 30
0.0
 40
0
 41
0
  0
VERTEX
  8
0
 10
0.809842
 20
0.33431
 30
0.0
 40
0
 41
0
  0
VERTEX
  8
0
 10
0.775228
 20
0.33431
 30
0.0
 40
0
 41
0
  0
VERTEX
  8
0
 10
0.777886
 20
0.329807
 30
0.0
 40
0
 41
0
  0
VERTEX
  8
0
 10
0.814344
 20
0.329807
 30
0.0
 40
0
 41
0
  0
VERTEX
  8
0
 10
0.814344
 20
0.371419
 30
0.0
 40
0
 41
0
  0
VERTEX
  8
0
 10
0.814344
 20
0.376465
 30
0.0
 40
0
 41
0
  0
VERTEX
  8
0
 10
0.809407
 20
0.391493
 30
0.0
 40
0
 41
0
  0
VERTEX
  8
0
 10
0.799533
 20
0.400444
 30
0.0
 40
0
 41
0
  0
VERTEX
  8
0
 10
0.797092
 20
0.400608
 30
0.0
 40
0
 41
0
  0
SEQEND
 8
0
  0
POLYLINE
  8
0
 62
     33
 66
     1
 10
0
 20
0
 30
0.0
 70
     1
 40
0
 41
0
  0
VERTEX
  8
0
 10
0.765136
 20
0.372775
 30
0.0
 40
0
 41
0
  0
VERTEX
  8
0
 10
0.763618
 20
0.373318
 30
0.0
 40
0
 41
0
  0
VERTEX
  8
0
 10
0.762912
 20
0.373318
 30
0.0
 40
0
 41
0
  0
VERTEX
  8
0
 10
0.760906
 20
0.372125
 30
0.0
 40
0
 41
0
  0
VERTEX
  8
0
 10
0.760851
 20
0.372017
 30
0.0
 40
0
 41
0
  0
VERTEX
  8
0
 10
0.760308
 20
0.371474
 30
0.0
 40
0
 41
0
  0
VERTEX
  8
0
 10
0.758681
 20
0.362358
 30
0.0
 40
0
 41
0
  0
VERTEX
  8
0
 10
0.758681
 20
0.359321
 30
0.0
 40
0
 41
0
  0
VERTEX
  8
0
 10
0.758681
 20
0.27615
 30
0.0
 40
0
 41
0
  0
VERTEX
  8
0
 10
0.758572
 20
0.27615
 30
0.0
 40
0
 41
0
  0
VERTEX
  8
0
 10
0.758572
 20
0.271647
 30
0.0
 40
0
 41
0
  0
VERTEX
  8
0
 10
0.758572
 20
0.26964
 30
0.0
 40
0
 41
0
  0
VERTEX
  8
0
 10
0.760796
 20
0.263564
 30
0.0
 40
0
 41
0
  0
VERTEX
  8
0
 10
0.763129
 20
0.261176
 30
0.0
 40
0
 41
0
  0
VERTEX
  8
0
 10
0.763183
 20
0.261122
 30
0.0
 40
0
 41
0
  0
VERTEX
  8
0
 10
0.763183
 20
0.359321
 30
0.0
 40
0
 41
0
  0
VERTEX
  8
0
 10
0.763183
 20
0.361165
 30
0.0
 40
0
 41
0
  0
VERTEX
  8
0
 10
0.763346
 20
0.366699
 30
0.0
 40
0
 41
0
  0
VERTEX
  8
0
 10
0.764594
 20
0.372721
 30
0.0
 40
0
 41
0
  0
VERTEX
  8
0
 10
0.765136
 20
0.372775
 30
0.0
 40
0
 41
0
  0
SEQEND
 8
0
  0
POLYLINE
  8
0
 62
     118
 66
     1
 10
0
 20
0
 30
0.0
 70
     1
 40
0
 41
0
  0
VERTEX
  8
0
 10
0.805285
 20
0.371419
 30
0.0
 40
0
 41
0
  0
VERTEX
  8
0
 10
0.805285
 20
0.375489
 30
0.0
 40
0
 41
0
  0
VERTEX
  8
0
 10
0.801704
 20
0.387587
 30
0.0
 40
0
 41
0
  0
VERTEX
  8
0
 10
0.798178
 20
0.393175
 30
0.0
 40
0
 41
0
  0
VERTEX
  8
0
 10
0.798178
 20
0.393175
 30
0.0
 40
0
 41
0
  0
VERTEX
  8
0
 10
0.797092
 20
0.395019
 30
0.0
 40
0
 41
0
  0
VERTEX
  8
0
 10
0.787597
 20
0.399957
 30
0.0
 40
0
 41
0
  0
VERTEX
  8
0
 10
0.781413
 20
0.401313
 30
0.0
 40
0
 41
0
  0
VERTEX
  8
0
 10
0.779406
 20
0.401313
 30
0.0
 40
0
 41
0
  0
VERTEX
  8
0
 10
0.777561
 20
0.401313
 30
0.0
 40
0
 41
0
  0
VERTEX
  8
0
 10
0.772732
 20
0.400444
 30
0.0
 40
0
 41
0
  0
VERTEX
  8
0
 10
0.77219
 20
0.400228
 30
0.0
 40
0
 41
0
  0
VERTEX
  8
0
 10
0.770833
 20
0.399957
 30
0.0
 40
0
 41
0
  0
VERTEX
  8
0
 10
0.758843
 20
0.393826
 30
0.0
 40
0
 41
0
  0
VERTEX
  8
0
 10
0.757813
 20
0.392904
 30
0.0
 40
0
 41
0
  0
VERTEX
  8
0
 10
0.756076
 20
0.392415
 30
0.0
 40
0
 41
0
  0
VERTEX
  8
0
 10
0.755046
 20
0.392415
 30
0.0
 40
0
 41
0
  0
VERTEX
  8
0
 10
0.752007
 20
0.397244
 30
0.0
 40
0
 41
0
  0
VERTEX
  8
0
 10
0.752007
 20
0.397244
 30
0.0
 40
0
 41
0
  0
VERTEX
  8
0
 10
0.75179
 20
0.397678
 30
0.0
 40
0
 41
0
  0
VERTEX
  8
0
 10
0.747939
 20
0.400174
 30
0.0
 40
0
 41
0
  0
VERTEX
  8
0
 10
0.74669
 20
0.400174
 30
0.0
 40
0
 41
0
  0
VERTEX
  8
0
 10
0.716851
 20
0.400119
 30
0.0
 40
0
 41
0
  0
VERTEX
  8
0
 10
0.716851
 20
0.400119
 30
0.0
 40
0
 41
0
  0
VERTEX
  8
0
 10
0.720215
 20
0.39784
 30
0.0
 40
0
 41
0
  0
VERTEX
  8
0
 10
0.724283
 20
0.391276
 30
0.0
 40
0
 41
0
  0
VERTEX
  8
0
 10
0.72461
 20
0.38916
 30
0.0
 40
0
 41
0
  0
VERTEX
  8
0
 10
0.72461
 20
0.264974
 30
0.0
 40
0
 41
0
  0
VERTEX
  8
0
 10
0.724229
 20
0.263456
 30
0.0
 40
0
 41
0
  0
VERTEX
  8
0
 10
0.719781
 20
0.257488
 30
0.0
 40
0
 41
0
  0
VERTEX
  8
0
 10
0.719781
 20
0.257488
 30
0.0
 40
0
 41
0
  0
VERTEX
  8
0
 10
0.760417
 20
0.257488
 30
0.0
 40
0
 41
0
  0
VERTEX
  8
0
 10
0.760417
 20
0.257488
 30
0.0
 40
0
 41
0
  0
VERTEX
  8
0
 10
0.757215
 20
0.260579
 30
0.0
 40
0
 41
0
  0
VERTEX
  8
0
 10
0.754015
 20
0.268881
 30
0.0
 40
0
 41
0
  0
VERTEX
  8
0
 10
0.754015
 20
0.271647
 30
0.0
 40
0
 41
0
  0
VERTEX
  8
0
 10
0.754178
 20
0.271647
 30
0.0
 40
0
 41
0
  0
VERTEX
  8
0
 10
0.754178
 20
0.35905
 30
0.0
 40
0
 41
0
  0
VERTEX
  8
0
 10
0.754178
 20
0.362087
 30
0.0
 40
0
 41
0
  0
VERTEX
  8
0
 10
0.755317
 20
0.371094
 30
0.0
 40
0
 41
0
  0
VERTEX
  8
0
 10
0.761501
 20
0.377387
 30
0.0
 40
0
 41
0
  0
VERTEX
  8
0
 10
0.763618
 20
0.377387
 30
0.0
 40
0
 41
0
  0
VERTEX
  8
0
 10
0.765571
 20
0.377387
 30
0.0
 40
0
 41
0
  0
VERTEX
  8
0
 10
0.771593
 20
0.373915
 30
0.0
 40
0
 41
0
  0
VERTEX
  8
0
 10
0.775174
 20
0.364475
 30
0.0
 40
0
 41
0
  0
VERTEX
  8
0
 10
0.775228
 20
0.36149
 30
0.0
 40
0
 41
0
  0
VERTEX
  8
0
 10
0.775228
 20
0.338867
 30
0.0
 40
0
 41
0
  0
VERTEX
  8
0
 10
0.805285
 20
0.338867
 30
0.0
 40
0
 41
0
  0
SEQEND
 8
0
  0
POLYLINE
  8
0
 62
     33
 66
     1
 10
0
 20
0
 30
0.0
 70
     1
 40
0
 41
0
  0
VERTEX
  8
0
 10
0.834907
 20
0.262099
 30
0.0
 40
0
 41
0
  0
VERTEX
  8
0
 10
0.835829
 20
0.259332
 30
0.0
 40
0
 41
0
  0
VERTEX
  8
0
 10
0.846571
 20
0.250108
 30
0.0
 40
0
 41
0
  0
VERTEX
  8
0
 10
0.858778
 20
0.246365
 30
0.0
 40
0
 41
0
  0
VERTEX
  8
0
 10
0.862847
 20
0.246365
 30
0.0
 40
0
 41
0
  0
VERTEX
  8
0
 10
0.869032
 20
0.246365
 30
0.0
 40
0
 41
0
  0
VERTEX
  8
0
 10
0.88775
 20
0.254069
 30
0.0
 40
0
 41
0
  0
VERTEX
  8
0
 10
0.903646
 20
0.270508
 30
0.0
 40
0
 41
0
  0
VERTEX
  8
0
 10
0.905817
 20
0.274903
 30
0.0
 40
0
 41
0
  0
VERTEX
  8
0
 10
0.906793
 20
0.276747
 30
0.0
 40
0
 41
0
  0
VERTEX
  8
0
 10
0.915474
 20
0.304579
 30
0.0
 40
0
 41
0
  0
VERTEX
  8
0
 10
0.915853
 20
0.30816
 30
0.0
 40
0
 41
0
  0
VERTEX
  8
0
 10
0.911296
 20
0.30816
 30
0.0
 40
0
 41
0
  0
VERTEX
  8
0
 10
0.910915
 20
0.30485
 30
0.0
 40
0
 41
0
  0
VERTEX
  8
0
 10
0.902778
 20
0.278754
 30
0.0
 40
0
 41
0
  0
VERTEX
  8
0
 10
0.901856
 20
0.277018
 30
0.0
 40
0
 41
0
  0
VERTEX
  8
0
 10
0.899849
 20
0.273004
 30
0.0
 40
0
 41
0
  0
VERTEX
  8
0
 10
0.885417
 20
0.257921
 30
0.0
 40
0
 41
0
  0
VERTEX
  8
0
 10
0.86849
 20
0.250868
 30
0.0
 40
0
 41
0
  0
VERTEX
  8
0
 10
0.862847
 20
0.250868
 30
0.0
 40
0
 41
0
  0
VERTEX
  8
0
 10
0.855849
 20
0.250868
 30
0.0
 40
0
 41
0
  0
VERTEX
  8
0
 10
0.83686
 20
0.260308
 30
0.0
 40
0
 41
0
  0
VERTEX
  8
0
 10
0.834907
 20
0.262099
 30
0.0
 40
0
 41
0
  0
SEQEND
 8
0
  0
POLYLINE
  8
0
 62
     33
 66
     1
 10
0
 20
0
 30
0.0
 70
     1
 40
0
 41
0
  0
VERTEX
  8
0
 10
0.274522
 20
0.0212674
 30
0.0
 40
0
 41
0
  0
VERTEX
  8
0
 10
0.2787
 20
0.0167101
 30
0.0
 40
0
 41
0
  0
VERTEX
  8
0
 10
0.282335
 20
0.0167101
 30
0.0
 40
0
 41
0
  0
VERTEX
  8
0
 10
0.293349
 20
0.0167101
 30
0.0
 40
0
 41
0
  0
VERTEX
  8
0
 10
0.3125
 20
0.0167101
 30
0.0
 40
0
 41
0
  0
VERTEX
  8
0
 10
0.32921
 20
0.0167101
 30
0.0
 40
0
 41
0
  0
VERTEX
  8
0
 10
0.334581
 20
0.0166558
 30
0.0
 40
0
 41
0
  0
VERTEX
  8
0
 10
0.336372
 20
0.0166558
 30
0.0
 40
0
 41
0
  0
VERTEX
  8
0
 10
0.342557
 20
0.0166558
 30
0.0
 40
0
 41
0
  0
VERTEX
  8
0
 10
0.361274
 20
0.0241971
 30
0.0
 40
0
 41
0
  0
VERTEX
  8
0
 10
0.377171
 20
0.0405274
 30
0.0
 40
0
 41
0
  0
VERTEX
  8
0
 10
0.37934
 20
0.0448676
 30
0.0
 40
0
 41
0
  0
VERTEX
  8
0
 10
0.380751
 20
0.0476346
 30
0.0
 40
0
 41
0
  0
VERTEX
  8
0
 10
0.385906
 20
0.0666233
 30
0.0
 40
0
 41
0
  0
VERTEX
  8
0
 10
0.388292
 20
0.0934244
 30
0.0
 40
0
 41
0
  0
VERTEX
  8
0
 10
0.3884
 20
0.100043
 30
0.0
 40
0
 41
0
  0
VERTEX
  8
0
 10
0.388346
 20
0.167372
 30
0.0
 40
0
 41
0
  0
VERTEX
  8
0
 10
0.388346
 20
0.167806
 30
0.0
 40
0
 41
0
  0
VERTEX
  8
0
 10
0.388346
 20
0.174968
 30
0.0
 40
0
 41
0
  0
VERTEX
  8
0
 10
0.381836
 20
0.196451
 30
0.0
 40
0
 41
0
  0
VERTEX
  8
0
 10
0.365668
 20
0.212728
 30
0.0
 40
0
 41
0
  0
VERTEX
  8
0
 10
0.36084
 20
0.214031
 30
0.0
 40
0
 41
0
  0
VERTEX
  8
0
 10
0.364258
 20
0.211751
 30
0.0
 40
0
 41
0
  0
VERTEX
  8
0
 10
0.377115
 20
0.195421
 30
0.0
 40
0
 41
0
  0
VERTEX
  8
0
 10
0.383518
 20
0.17296
 30
0.0
 40
0
 41
0
  0
VERTEX
  8
0
 10
0.383789
 20
0.167643
 30
0.0
 40
0
 41
0
  0
VERTEX
  8
0
 10
0.383789
 20
0.167372
 30
0.0
 40
0
 41
0
  0
VERTEX
  8
0
 10
0.383897
 20
0.100098
 30
0.0
 40
0
 41
0
  0
VERTEX
  8
0
 10
0.383789
 20
0.0936415
 30
0.0
 40
0
 41
0
  0
VERTEX
  8
0
 10
0.381511
 20
0.0677083
 30
0.0
 40
0
 41
0
  0
VERTEX
  8
0
 10
0.376682
 20
0.0495876
 30
0.0
 40
0
 41
0
  0
VERTEX
  8
0
 10
0.375325
 20
0.0469835
 30
0.0
 40
0
 41
0
  0
VERTEX
  8
0
 10
0.373318
 20
0.0429688
 30
0.0
 40
0
 41
0
  0
VERTEX
  8
0
 10
0.358942
 20
0.0281033
 30
0.0
 40
0
 41
0
  0
VERTEX
  8
0
 10
0.342014
 20
0.0212131
 30
0.0
 40
0
 41
0
  0
VERTEX
  8
0
 10
0.336372
 20
0.0212131
 30
0.0
 40
0
 41
0
  0
VERTEX
  8
0
 10
0.274903
 20
0.0212131
 30
0.0
 40
0
 41
0
  0
SEQEND
 8
0
  0
POLYLINE
  8
0
 62
     33
 66
     1
 10
0
 20
0
 30
0.0
 70
     1
 40
0
 41
0
  0
VERTEX
  8
0
 10
0.467828
 20
0.169706
 30
0.0
 40
0
 41
0
  0
VERTEX
  8
0
 10
0.469672
 20
0.168565
 30
0.0
 40
0
 41
0
  0
VERTEX
  8
0
 10
0.4847
 20
0.151747
 30
0.0
 40
0
 41
0
  0
VERTEX
  8
0
 10
0.485786
 20
0.149576
 30
0.0
 40
0
 41
0
  0
VERTEX
  8
0
 10
0.487901
 20
0.145617
 30
0.0
 40
0
 41
0
  0
VERTEX
  8
0
 10
0.493815
 20
0.121148
 30
0.0
 40
0
 41
0
  0
VERTEX
  8
0
 10
0.495606
 20
0.0992296
 30
0.0
 40
0
 41
0
  0
VERTEX
  8
0
 10
0.49566
 20
0.0965712
 30
0.0
 40
0
 41
0
  0
VERTEX
  8
0
 10
0.495714
 20
0.0920139
 30
0.0
 40
0
 41
0
  0
VERTEX
  8
0
 10
0.436143
 20
0.0920139
 30
0.0
 40
0
 41
0
  0
VERTEX
  8
0
 10
0.435872
 20
0.085829
 30
0.0
 40
0
 41
0
  0
VERTEX
  8
0
 10
0.437935
 20
0.0653754
 30
0.0
 40
0
 41
0
  0
VERTEX
  8
0
 10
0.442003
 20
0.0557183
 30
0.0
 40
0
 41
0
  0
VERTEX
  8
0
 10
0.442763
 20
0.0549046
 30
0.0
 40
0
 41
0
  0
VERTEX
  8
0
 10
0.443197
 20
0.0544162
 30
0.0
 40
0
 41
0
  0
VERTEX
  8
0
 10
0.445747
 20
0.0527886
 30
0.0
 40
0
 41
0
  0
VERTEX
  8
0
 10
0.446615
 20
0.0527886
 30
0.0
 40
0
 41
0
  0
VERTEX
  8
0
 10
0.446397
 20
0.0533311
 30
0.0
 40
0
 41
0
  0
VERTEX
  8
0
 10
0.445204
 20
0.0547418
 30
0.0
 40
0
 41
0
  0
VERTEX
  8
0
 10
0.443143
 20
0.0589735
 30
0.0
 40
0
 41
0
  0
VERTEX
  8
0
 10
0.441297
 20
0.0687935
 30
0.0
 40
0
 41
0
  0
VERTEX
  8
0
 10
0.440539
 20
0.0827908
 30
0.0
 40
0
 41
0
  0
VERTEX
  8
0
 10
0.440539
 20
0.0874567
 30
0.0
 40
0
 41
0
  0
VERTEX
  8
0
 10
0.500217
 20
0.0874567
 30
0.0
 40
0
 41
0
  0
VERTEX
  8
0
 10
0.500271
 20
0.0911458
 30
0.0
 40
0
 41
0
  0
VERTEX
  8
0
 10
0.500217
 20
0.0920682
 30
0.0
 40
0
 41
0
  0
VERTEX
  8
0
 10
0.500162
 20
0.0966254
 30
0.0
 40
0
 41
0
  0
VERTEX
  8
0
 10
0.500108
 20
0.0993924
 30
0.0
 40
0
 41
0
  0
VERTEX
  8
0
 10
0.498264
 20
0.121962
 30
0.0
 40
0
 41
0
  0
VERTEX
  8
0
 10
0.492025
 20
0.147407
 30
0.0
 40
0
 41
0
  0
VERTEX
  8
0
 10
0.489854
 20
0.151531
 30
0.0
 40
0
 41
0
  0
VERTEX
  8
0
 10
0.488932
 20
0.153375
 30
0.0
 40
0
 41
0
  0
VERTEX
  8
0
 10
0.481392
 20
0.162815
 30
0.0
 40
0
 41
0
  0
VERTEX
  8
0
 10
0.470432
 20
0.169379
 30
0.0
 40
0
 41
0
  0
VERTEX
  8
0
 10
0.467828
 20
0.169706
 30
0.0
 40
0
 41
0
  0
SEQEND
 8
0
  0
POLYLINE
  8
0
 62
     33
 66
     1
 10
0
 20
0
 30
0.0
 70
     1
 40
0
 41
0
  0
VERTEX
  8
0
 10
0.445856
 20
0.144532
 30
0.0
 40
0
 41
0
  0
VERTEX
  8
0
 10
0.444715
 20
0.144532
 30
0.0
 40
0
 41
0
  0
VERTEX
  8
0
 10
0.441732
 20
0.141656
 30
0.0
 40
0
 41
0
  0
VERTEX
  8
0
 10
0.441461
 20
0.141114
 30
0.0
 40
0
 41
0
  0
VERTEX
  8
0
 10
0.44081
 20
0.139811
 30
0.0
 40
0
 41
0
  0
VERTEX
  8
0
 10
0.43826
 20
0.124837
 30
0.0
 40
0
 41
0
  0
VERTEX
  8
0
 10
0.43826
 20
0.123644
 30
0.0
 40
0
 41
0
  0
VERTEX
  8
0
 10
0.442763
 20
0.123644
 30
0.0
 40
0
 41
0
  0
VERTEX
  8
0
 10
0.442763
 20
0.126465
 30
0.0
 40
0
 41
0
  0
VERTEX
  8
0
 10
0.443251
 20
0.13482
 30
0.0
 40
0
 41
0
  0
VERTEX
  8
0
 10
0.44515
 20
0.143664
 30
0.0
 40
0
 41
0
  0
VERTEX
  8
0
 10
0.445856
 20
0.144532
 30
0.0
 40
0
 41
0
  0
SEQEND
 8
0
  0
POLYLINE
  8
0
 62
     118
 66
     1
 10
0
 20
0
 30
0.0
 70
     1
 40
0
 41
0
  0
VERTEX
  8
0
 10
0.437392
 20
0.143121
 30
0.0
 40
0
 41
0
  0
VERTEX
  8
0
 10
0.437825
 20
0.144043
 30
0.0
 40
0
 41
0
  0
VERTEX
  8
0
 10
0.443847
 20
0.149089
 30
0.0
 40
0
 41
0
  0
VERTEX
  8
0
 10
0.445856
 20
0.149089
 30
0.0
 40
0
 41
0
  0
VERTEX
  8
0
 10
0.447971
 20
0.149089
 30
0.0
 40
0
 41
0
  0
VERTEX
  8
0
 10
0.453776
 20
0.143935
 30
0.0
 40
0
 41
0
  0
VERTEX
  8
0
 10
0.454318
 20
0.143121
 30
0.0
 40
0
 41
0
  0
VERTEX
  8
0
 10
0.455078
 20
0.141928
 30
0.0
 40
0
 41
0
  0
VERTEX
  8
0
 10
0.457574
 20
0.130968
 30
0.0
 40
0
 41
0
  0
VERTEX
  8
0
 10
0.458117
 20
0.120226
 30
0.0
 40
0
 41
0
  0
VERTEX
  8
0
 10
0.457954
 20
0.119141
 30
0.0
 40
0
 41
0
  0
VERTEX
  8
0
 10
0.433865
 20
0.119141
 30
0.0
 40
0
 41
0
  0
VERTEX
  8
0
 10
0.433865
 20
0.119141
 30
0.0
 40
0
 41
0
  0
VERTEX
  8
0
 10
0.433865
 20
0.127658
 30
0.0
 40
0
 41
0
  0
VERTEX
  8
0
 10
0.436199
 20
0.140842
 30
0.0
 40
0
 41
0
  0
VERTEX
  8
0
 10
0.437392
 20
0.143121
 30
0.0
 40
0
 41
0
  0
SEQEND
 8
0
  0
POLYLINE
  8
0
 62
     118
 66
     1
 10
0
 20
0
 30
0.0
 70
     1
 40
0
 41
0
  0
VERTEX
  8
0
 10
0.446615
 20
0.0482856
 30
0.0
 40
0
 41
0
  0
VERTEX
  8
0
 10
0.445475
 20
0.0482856
 30
0.0
 40
0
 41
0
  0
VERTEX
  8
0
 10
0.442111
 20
0.0496963
 30
0.0
 40
0
 41
0
  0
VERTEX
  8
0
 10
0.436578
 20
0.0559896
 30
0.0
 40
0
 41
0
  0
VERTEX
  8
0
 10
0.4324
 20
0.0705296
 30
0.0
 40
0
 41
0
  0
VERTEX
  8
0
 10
0.431424
 20
0.0900608
 30
0.0
 40
0
 41
0
  0
VERTEX
  8
0
 10
0.431858
 20
0.0965169
 30
0.0
 40
0
 41
0
  0
VERTEX
  8
0
 10
0.491157
 20
0.0965169
 30
0.0
 40
0
 41
0
  0
VERTEX
  8
0
 10
0.491049
 20
0.101237
 30
0.0
 40
0
 41
0
  0
VERTEX
  8
0
 10
0.488661
 20
0.124729
 30
0.0
 40
0
 41
0
  0
VERTEX
  8
0
 10
0.48329
 20
0.14464
 30
0.0
 40
0
 41
0
  0
VERTEX
  8
0
 10
0.481771
 20
0.147569
 30
0.0
 40
0
 41
0
  0
VERTEX
  8
0
 10
0.480035
 20
0.15115
 30
0.0
 40
0
 41
0
  0
VERTEX
  8
0
 10
0.467231
 20
0.164768
 30
0.0
 40
0
 41
0
  0
VERTEX
  8
0
 10
0.451824
 20
0.171278
 30
0.0
 40
0
 41
0
  0
VERTEX
  8
0
 10
0.446724
 20
0.171278
 30
0.0
 40
0
 41
0
  0
VERTEX
  8
0
 10
0.441569
 20
0.171278
 30
0.0
 40
0
 41
0
  0
VERTEX
  8
0
 10
0.426215
 20
0.164768
 30
0.0
 40
0
 41
0
  0
VERTEX
  8
0
 10
0.413465
 20
0.15115
 30
0.0
 40
0
 41
0
  0
VERTEX
  8
0
 10
0.411729
 20
0.147569
 30
0.0
 40
0
 41
0
  0
VERTEX
  8
0
 10
0.410101
 20
0.144532
 30
0.0
 40
0
 41
0
  0
VERTEX
  8
0
 10
0.401639
 20
0.103082
 30
0.0
 40
0
 41
0
  0
VERTEX
  8
0
 10
0.401639
 20
0.0981446
 30
0.0
 40
0
 41
0
  0
VERTEX
  8
0
 10
0.401639
 20
0.0977106
 30
0.0
 40
0
 41
0
  0
VERTEX
  8
0
 10
0.401639
 20
0.0928276
 30
0.0
 40
0
 41
0
  0
VERTEX
  8
0
 10
0.410101
 20
0.0513238
 30
0.0
 40
0
 41
0
  0
VERTEX
  8
0
 10
0.411729
 20
0.0482856
 30
0.0
 40
0
 41
0
  0
VERTEX
  8
0
 10
0.413465
 20
0.0447592
 30
0.0
 40
0
 41
0
  0
VERTEX
  8
0
 10
0.426215
 20
0.0311415
 30
0.0
 40
0
 41
0
  0
VERTEX
  8
0
 10
0.441569
 20
0.0245768
 30
0.0
 40
0
 41
0
  0
VERTEX
  8
0
 10
0.446724
 20
0.0245768
 30
0.0
 40
0
 41
0
  0
VERTEX
  8
0
 10
0.451824
 20
0.0245768
 30
0.0
 40
0
 41
0
  0
VERTEX
  8
0
 10
0.467231
 20
0.0311415
 30
0.0
 40
0
 41
0
  0
VERTEX
  8
0
 10
0.480035
 20
0.0447592
 30
0.0
 40
0
 41
0
  0
VERTEX
  8
0
 10
0.481771
 20
0.0482856
 30
0.0
 40
0
 41
0
  0
VERTEX
  8
0
 10
0.48291
 20
0.0504557
 30
0.0
 40
0
 41
0
  0
VERTEX
  8
0
 10
0.490886
 20
0.0787761
 30
0.0
 40
0
 41
0
  0
VERTEX
  8
0
 10
0.491049
 20
0.0821397
 30
0.0
 40
0
 41
0
  0
VERTEX
  8
0
 10
0.461751
 20
0.0821397
 30
0.0
 40
0
 41
0
  0
VERTEX
  8
0
 10
0.461751
 20
0.0775825
 30
0.0
 40
0
 41
0
  0
VERTEX
  8
0
 10
0.459961
 20
0.0639106
 30
0.0
 40
0
 41
0
  0
VERTEX
  8
0
 10
0.455729
 20
0.053711
 30
0.0
 40
0
 41
0
  0
VERTEX
  8
0
 10
0.450737
 20
0.0492622
 30
0.0
 40
0
 41
0
  0
VERTEX
  8
0
 10
0.447646
 20
0.0482856
 30
0.0
 40
0
 41
0
  0
VERTEX
  8
0
 10
0.446615
 20
0.0482856
 30
0.0
 40
0
 41
0
  0
SEQEND
 8
0
  0
POLYLINE
  8
0
 62
     33
 66
     1
 10
0
 20
0
 30
0.0
 70
     1
 40
0
 41
0
  0
VERTEX
  8
0
 10
0.418837
 20
0.0313043
 30
0.0
 40
0
 41
0
  0
VERTEX
  8
0
 10
0.41976
 20
0.0285374
 30
0.0
 40
0
 41
0
  0
VERTEX
  8
0
 10
0.430501
 20
0.0193143
 30
0.0
 40
0
 41
0
  0
VERTEX
  8
0
 10
0.442654
 20
0.0155707
 30
0.0
 40
0
 41
0
  0
VERTEX
  8
0
 10
0.446724
 20
0.0155707
 30
0.0
 40
0
 41
0
  0
VERTEX
  8
0
 10
0.452963
 20
0.0155707
 30
0.0
 40
0
 41
0
  0
VERTEX
  8
0
 10
0.471679
 20
0.0232747
 30
0.0
 40
0
 41
0
  0
VERTEX
  8
0
 10
0.487576
 20
0.0397136
 30
0.0
 40
0
 41
0
  0
VERTEX
  8
0
 10
0.489746
 20
0.0440539
 30
0.0
 40
0
 41
0
  0
VERTEX
  8
0
 10
0.490722
 20
0.0459526
 30
0.0
 40
0
 41
0
  0
VERTEX
  8
0
 10
0.499403
 20
0.0737847
 30
0.0
 40
0
 41
0
  0
VERTEX
  8
0
 10
0.499783
 20
0.0773113
 30
0.0
 40
0
 41
0
  0
VERTEX
  8
0
 10
0.495226
 20
0.0773113
 30
0.0
 40
0
 41
0
  0
VERTEX
  8
0
 10
0.494846
 20
0.0740018
 30
0.0
 40
0
 41
0
  0
VERTEX
  8
0
 10
0.486654
 20
0.0479601
 30
0.0
 40
0
 41
0
  0
VERTEX
  8
0
 10
0.485732
 20
0.046224
 30
0.0
 40
0
 41
0
  0
VERTEX
  8
0
 10
0.483724
 20
0.0422092
 30
0.0
 40
0
 41
0
  0
VERTEX
  8
0
 10
0.469293
 20
0.0271268
 30
0.0
 40
0
 41
0
  0
VERTEX
  8
0
 10
0.452365
 20
0.0200738
 30
0.0
 40
0
 41
0
  0
VERTEX
  8
0
 10
0.446724
 20
0.0200738
 30
0.0
 40
0
 41
0
  0
VERTEX
  8
0
 10
0.439725
 20
0.0200738
 30
0.0
 40
0
 41
0
  0
VERTEX
  8
0
 10
0.42079
 20
0.0295139
 30
0.0
 40
0
 41
0
  0
VERTEX
  8
0
 10
0.418837
 20
0.0313043
 30
0.0
 40
0
 41
0
  0
SEQEND
 8
0
  0
POLYLINE
  8
0
 62
     33
 66
     1
 10
0
 20
0
 30
0.0
 70
     1
 40
0
 41
0
  0
VERTEX
  8
0
 10
0.327636
 20
0.191081
 30
0.0
 40
0
 41
0
  0
VERTEX
  8
0
 10
0.327257
 20
0.191135
 30
0.0
 40
0
 41
0
  0
VERTEX
  8
0
 10
0.323406
 20
0.191189
 30
0.0
 40
0
 41
0
  0
VERTEX
  8
0
 10
0.323079
 20
0.191135
 30
0.0
 40
0
 41
0
  0
VERTEX
  8
0
 10
0.323079
 20
0.0536567
 30
0.0
 40
0
 41
0
  0
VERTEX
  8
0
 10
0.327692
 20
0.0536025
 30
0.0
 40
0
 41
0
  0
SEQEND
 8
0
  0
POLYLINE
  8
0
 62
     118
 66
     1
 10
0
 20
0
 30
0.0
 70
     1
 40
0
 41
0
  0
VERTEX
  8
0
 10
0.344726
 20
0.165365
 30
0.0
 40
0
 41
0
  0
VERTEX
  8
0
 10
0.344347
 20
0.0794271
 30
0.0
 40
0
 41
0
  0
VERTEX
  8
0
 10
0.344347
 20
0.0783421
 30
0.0
 40
0
 41
0
  0
VERTEX
  8
0
 10
0.343425
 20
0.0680881
 30
0.0
 40
0
 41
0
  0
VERTEX
  8
0
 10
0.340494
 20
0.0569119
 30
0.0
 40
0
 41
0
  0
VERTEX
  8
0
 10
0.339572
 20
0.0553928
 30
0.0
 40
0
 41
0
  0
VERTEX
  8
0
 10
0.339031
 20
0.054579
 30
0.0
 40
0
 41
0
  0
VERTEX
  8
0
 10
0.333117
 20
0.0493707
 30
0.0
 40
0
 41
0
  0
VERTEX
  8
0
 10
0.331164
 20
0.0493707
 30
0.0
 40
0
 41
0
  0
VERTEX
  8
0
 10
0.329372
 20
0.0493707
 30
0.0
 40
0
 41
0
  0
VERTEX
  8
0
 10
0.324001
 20
0.0494249
 30
0.0
 40
0
 41
0
  0
VERTEX
  8
0
 10
0.318576
 20
0.0494792
 30
0.0
 40
0
 41
0
  0
VERTEX
  8
0
 10
0.318576
 20
0.0494792
 30
0.0
 40
0
 41
0
  0
VERTEX
  8
0
 10
0.318576
 20
0.195638
 30
0.0
 40
0
 41
0
  0
VERTEX
  8
0
 10
0.32194
 20
0.195583
 30
0.0
 40
0
 41
0
  0
VERTEX
  8
0
 10
0.322917
 20
0.195692
 30
0.0
 40
0
 41
0
  0
VERTEX
  8
0
 10
0.33024
 20
0.195313
 30
0.0
 40
0
 41
0
  0
VERTEX
  8
0
 10
0.332682
 20
0.195313
 30
0.0
 40
0
 41
0
  0
VERTEX
  8
0
 10
0.334799
 20
0.195313
 30
0.0
 40
0
 41
0
  0
VERTEX
  8
0
 10
0.340549
 20
0.190213
 30
0.0
 40
0
 41
0
  0
VERTEX
  8
0
 10
0.341146
 20
0.189399
 30
0.0
 40
0
 41
0
  0
VERTEX
  8
0
 10
0.341906
 20
0.188206
 30
0.0
 40
0
 41
0
  0
VERTEX
  8
0
 10
0.344401
 20
0.177246
 30
0.0
 40
0
 41
0
  0
VERTEX
  8
0
 10
0.344943
 20
0.166504
 30
0.0
 40
0
 41
0
  0
VERTEX
  8
0
 10
0.344726
 20
0.165365
 30
0.0
 40
0
 41
0
  0
SEQEND
 8
0
  0
POLYLINE
  8
0
 62
     118
 66
     1
 10
0
 20
0
 30
0.0
 70
     1
 40
0
 41
0
  0
VERTEX
  8
0
 10
0.379286
 20
0.167372
 30
0.0
 40
0
 41
0
  0
VERTEX
  8
0
 10
0.378907
 20
0.174479
 30
0.0
 40
0
 41
0
  0
VERTEX
  8
0
 10
0.366917
 20
0.202636
 30
0.0
 40
0
 41
0
  0
VERTEX
  8
0
 10
0.340603
 20
0.217774
 30
0.0
 40
0
 41
0
  0
VERTEX
  8
0
 10
0.333171
 20
0.218317
 30
0.0
 40
0
 41
0
  0
VERTEX
  8
0
 10
0.275608
 20
0.218207
 30
0.0
 40
0
 41
0
  0
VERTEX
  8
0
 10
0.275608
 20
0.218207
 30
0.0
 40
0
 41
0
  0
VERTEX
  8
0
 10
0.279189
 20
0.213325
 30
0.0
 40
0
 41
0
  0
VERTEX
  8
0
 10
0.282824
 20
0.204536
 30
0.0
 40
0
 41
0
  0
VERTEX
  8
0
 10
0.282824
 20
0.201606
 30
0.0
 40
0
 41
0
  0
VERTEX
  8
0
 10
0.283094
 20
0.0409614
 30
0.0
 40
0
 41
0
  0
VERTEX
  8
0
 10
0.283094
 20
0.0378689
 30
0.0
 40
0
 41
0
  0
VERTEX
  8
0
 10
0.278971
 20
0.0285915
 30
0.0
 40
0
 41
0
  0
VERTEX
  8
0
 10
0.274903
 20
0.0257161
 30
0.0
 40
0
 41
0
  0
VERTEX
  8
0
 10
0.274903
 20
0.0257161
 30
0.0
 40
0
 41
0
  0
VERTEX
  8
0
 10
0.336372
 20
0.0257161
 30
0.0
 40
0
 41
0
  0
VERTEX
  8
0
 10
0.341471
 20
0.0257161
 30
0.0
 40
0
 41
0
  0
VERTEX
  8
0
 10
0.356879
 20
0.0321181
 30
0.0
 40
0
 41
0
  0
VERTEX
  8
0
 10
0.369629
 20
0.0455729
 30
0.0
 40
0
 41
0
  0
VERTEX
  8
0
 10
0.371365
 20
0.0490994
 30
0.0
 40
0
 41
0
  0
VERTEX
  8
0
 10
0.372885
 20
0.052029
 30
0.0
 40
0
 41
0
  0
VERTEX
  8
0
 10
0.377604
 20
0.0719401
 30
0.0
 40
0
 41
0
  0
VERTEX
  8
0
 10
0.379286
 20
0.0954318
 30
0.0
 40
0
 41
0
  0
VERTEX
  8
0
 10
0.379394
 20
0.100152
 30
0.0
 40
0
 41
0
  0
SEQEND
 8
0
  0
POLYLINE
  8
0
 62
     33
 66
     1
 10
0
 20
0
 30
0.0
 70
     1
 40
0
 41
0
  0
VERTEX
  8
0
 10
0.571018
 20
0.0173611
 30
0.0
 40
0
 41
0
  0
VERTEX
  8
0
 10
0.531847
 20
0.0173611
 30
0.0
 40
0
 41
0
  0
VERTEX
  8
0
 10
0.528429
 20
0.0218642
 30
0.0
 40
0
 41
0
  0
VERTEX
  8
0
 10
0.575575
 20
0.0218642
 30
0.0
 40
0
 41
0
  0
SEQEND
 8
0
  0
POLYLINE
  8
0
 62
     33
 66
     1
 10
0
 20
0
 30
0.0
 70
     1
 40
0
 41
0
  0
VERTEX
  8
0
 10
0.631293
 20
0.0173611
 30
0.0
 40
0
 41
0
  0
VERTEX
  8
0
 10
0.592122
 20
0.0173611
 30
0.0
 40
0
 41
0
  0
VERTEX
  8
0
 10
0.588704
 20
0.0218642
 30
0.0
 40
0
 41
0
  0
VERTEX
  8
0
 10
0.635851
 20
0.0218642
 30
0.0
 40
0
 41
0
  0
SEQEND
 8
0
  0
POLYLINE
  8
0
 62
     33
 66
     1
 10
0
 20
0
 30
0.0
 70
     1
 40
0
 41
0
  0
VERTEX
  8
0
 10
0.551921
 20
0.11952
 30
0.0
 40
0
 41
0
  0
VERTEX
  8
0
 10
0.54975
 20
0.11046
 30
0.0
 40
0
 41
0
  0
VERTEX
  8
0
 10
0.5389
 20
0.159289
 30
0.0
 40
0
 41
0
  0
VERTEX
  8
0
 10
0.5389
 20
0.160644
 30
0.0
 40
0
 41
0
  0
VERTEX
  8
0
 10
0.541721
 20
0.165147
 30
0.0
 40
0
 41
0
  0
VERTEX
  8
0
 10
0.541938
 20
0.165147
 30
0.0
 40
0
 41
0
  0
SEQEND
 8
0
  0
POLYLINE
  8
0
 62
     33
 66
     1
 10
0
 20
0
 30
0.0
 70
     1
 40
0
 41
0
  0
VERTEX
  8
0
 10
0.612631
 20
0.11952
 30
0.0
 40
0
 41
0
  0
VERTEX
  8
0
 10
0.61046
 20
0.11046
 30
0.0
 40
0
 41
0
  0
VERTEX
  8
0
 10
0.59961
 20
0.159289
 30
0.0
 40
0
 41
0
  0
VERTEX
  8
0
 10
0.59961
 20
0.160644
 30
0.0
 40
0
 41
0
  0
VERTEX
  8
0
 10
0.602485
 20
0.165147
 30
0.0
 40
0
 41
0
  0
VERTEX
  8
0
 10
0.602647
 20
0.165147
 30
0.0
 40
0
 41
0
  0
SEQEND
 8
0
  0
POLYLINE
  8
0
 62
     33
 66
     1
 10
0
 20
0
 30
0.0
 70
     1
 40
0
 41
0
  0
VERTEX
  8
0
 10
0.580567
 20
0.0707465
 30
0.0
 40
0
 41
0
  0
VERTEX
  8
0
 10
0.57845
 20
0.0811632
 30
0.0
 40
0
 41
0
  0
VERTEX
  8
0
 10
0.568197
 20
0.0354275
 30
0.0
 40
0
 41
0
  0
VERTEX
  8
0
 10
0.568251
 20
0.0354275
 30
0.0
 40
0
 41
0
  0
VERTEX
  8
0
 10
0.568414
 20
0.0322265
 30
0.0
 40
0
 41
0
  0
VERTEX
  8
0
 10
0.568576
 20
0.0318468
 30
0.0
 40
0
 41
0
  0
VERTEX
  8
0
 10
0.571615
 20
0.0291883
 30
0.0
 40
0
 41
0
  0
VERTEX
  8
0
 10
0.571615
 20
0.0291883
 30
0.0
 40
0
 41
0
  0
SEQEND
 8
0
  0
POLYLINE
  8
0
 62
     33
 66
     1
 10
0
 20
0
 30
0.0
 70
     1
 40
0
 41
0
  0
VERTEX
  8
0
 10
0.657389
 20
0.158311
 30
0.0
 40
0
 41
0
  0
VERTEX
  8
0
 10
0.630751
 20
0.038086
 30
0.0
 40
0
 41
0
  0
VERTEX
  8
0
 10
0.630317
 20
0.0361871
 30
0.0
 40
0
 41
0
  0
VERTEX
  8
0
 10
0.630371
 20
0.0361871
 30
0.0
 40
0
 41
0
  0
VERTEX
  8
0
 10
0.630317
 20
0.0360786
 30
0.0
 40
0
 41
0
  0
VERTEX
  8
0
 10
0.630533
 20
0.0329861
 30
0.0
 40
0
 41
0
  0
VERTEX
  8
0
 10
0.630697
 20
0.0326064
 30
0.0
 40
0
 41
0
  0
VERTEX
  8
0
 10
0.633735
 20
0.0298936
 30
0.0
 40
0
 41
0
  0
VERTEX
  8
0
 10
0.633735
 20
0.0298936
 30
0.0
 40
0
 41
0
  0
VERTEX
  8
0
 10
0.635092
 20
0.0363499
 30
0.0
 40
0
 41
0
  0
VERTEX
  8
0
 10
0.663519
 20
0.164876
 30
0.0
 40
0
 41
0
  0
VERTEX
  8
0
 10
0.662706
 20
0.164876
 30
0.0
 40
0
 41
0
  0
VERTEX
  8
0
 10
0.657715
 20
0.159451
 30
0.0
 40
0
 41
0
  0
VERTEX
  8
0
 10
0.657389
 20
0.158311
 30
0.0
 40
0
 41
0
  0
SEQEND
 8
0
  0
POLYLINE
  8
0
 62
     118
 66
     1
 10
0
 20
0
 30
0.0
 70
     1
 40
0
 41
0
  0
VERTEX
  8
0
 10
0.627442
 20
0.161404
 30
0.0
 40
0
 41
0
  0
VERTEX
  8
0
 10
0.61084
 20
0.0862631
 30
0.0
 40
0
 41
0
  0
VERTEX
  8
0
 10
0.594293
 20
0.16135
 30
0.0
 40
0
 41
0
  0
VERTEX
  8
0
 10
0.594293
 20
0.162435
 30
0.0
 40
0
 41
0
  0
VERTEX
  8
0
 10
0.597114
 20
0.169271
 30
0.0
 40
0
 41
0
  0
VERTEX
  8
0
 10
0.597547
 20
0.16965
 30
0.0
 40
0
 41
0
  0
VERTEX
  8
0
 10
0.561632
 20
0.16965
 30
0.0
 40
0
 41
0
  0
VERTEX
  8
0
 10
0.561794
 20
0.169488
 30
0.0
 40
0
 41
0
  0
VERTEX
  8
0
 10
0.564942
 20
0.16569
 30
0.0
 40
0
 41
0
  0
VERTEX
  8
0
 10
0.565158
 20
0.165365
 30
0.0
 40
0
 41
0
  0
VERTEX
  8
0
 10
0.565483
 20
0.160807
 30
0.0
 40
0
 41
0
  0
VERTEX
  8
0
 10
0.551921
 20
0.0992296
 30
0.0
 40
0
 41
0
  0
VERTEX
  8
0
 10
0.54975
 20
0.0895725
 30
0.0
 40
0
 41
0
  0
VERTEX
  8
0
 10
0.533908
 20
0.161404
 30
0.0
 40
0
 41
0
  0
VERTEX
  8
0
 10
0.534017
 20
0.161133
 30
0.0
 40
0
 41
0
  0
VERTEX
  8
0
 10
0.534017
 20
0.162218
 30
0.0
 40
0
 41
0
  0
VERTEX
  8
0
 10
0.537435
 20
0.169271
 30
0.0
 40
0
 41
0
  0
VERTEX
  8
0
 10
0.537815
 20
0.16965
 30
0.0
 40
0
 41
0
  0
VERTEX
  8
0
 10
0.498807
 20
0.16965
 30
0.0
 40
0
 41
0
  0
VERTEX
  8
0
 10
0.499078
 20
0.169379
 30
0.0
 40
0
 41
0
  0
VERTEX
  8
0
 10
0.504829
 20
0.162435
 30
0.0
 40
0
 41
0
  0
VERTEX
  8
0
 10
0.505208
 20
0.160861
 30
0.0
 40
0
 41
0
  0
VERTEX
  8
0
 10
0.533203
 20
0.0337999
 30
0.0
 40
0
 41
0
  0
VERTEX
  8
0
 10
0.533149
 20
0.0322808
 30
0.0
 40
0
 41
0
  0
VERTEX
  8
0
 10
0.530707
 20
0.0277235
 30
0.0
 40
0
 41
0
  0
VERTEX
  8
0
 10
0.528429
 20
0.0263672
 30
0.0
 40
0
 41
0
  0
VERTEX
  8
0
 10
0.528429
 20
0.0263672
 30
0.0
 40
0
 41
0
  0
VERTEX
  8
0
 10
0.568468
 20
0.0263672
 30
0.0
 40
0
 41
0
  0
VERTEX
  8
0
 10
0.568468
 20
0.0263672
 30
0.0
 40
0
 41
0
  0
VERTEX
  8
0
 10
0.565972
 20
0.027615
 30
0.0
 40
0
 41
0
  0
VERTEX
  8
0
 10
0.563368
 20
0.0321181
 30
0.0
 40
0
 41
0
  0
VERTEX
  8
0
 10
0.563368
 20
0.0336372
 30
0.0
 40
0
 41
0
  0
VERTEX
  8
0
 10
0.563531
 20
0.0350478
 30
0.0
 40
0
 41
0
  0
VERTEX
  8
0
 10
0.57845
 20
0.102105
 30
0.0
 40
0
 41
0
  0
VERTEX
  8
0
 10
0.593588
 20
0.0336372
 30
0.0
 40
0
 41
0
  0
VERTEX
  8
0
 10
0.593533
 20
0.0321724
 30
0.0
 40
0
 41
0
  0
VERTEX
  8
0
 10
0.591092
 20
0.0276693
 30
0.0
 40
0
 41
0
  0
VERTEX
  8
0
 10
0.588813
 20
0.0263672
 30
0.0
 40
0
 41
0
  0
VERTEX
  8
0
 10
0.588813
 20
0.0263672
 30
0.0
 40
0
 41
0
  0
VERTEX
  8
0
 10
0.629719
 20
0.0263672
 30
0.0
 40
0
 41
0
  0
VERTEX
  8
0
 10
0.629719
 20
0.0263672
 30
0.0
 40
0
 41
0
  0
VERTEX
  8
0
 10
0.627604
 20
0.0275065
 30
0.0
 40
0
 41
0
  0
VERTEX
  8
0
 10
0.625163
 20
0.0317383
 30
0.0
 40
0
 41
0
  0
VERTEX
  8
0
 10
0.625054
 20
0.0332032
 30
0.0
 40
0
 41
0
  0
VERTEX
  8
0
 10
0.653754
 20
0.16314
 30
0.0
 40
0
 41
0
  0
VERTEX
  8
0
 10
0.654025
 20
0.1639
 30
0.0
 40
0
 41
0
  0
VERTEX
  8
0
 10
0.657715
 20
0.169325
 30
0.0
 40
0
 41
0
  0
VERTEX
  8
0
 10
0.658094
 20
0.16965
 30
0.0
 40
0
 41
0
  0
VERTEX
  8
0
 10
0.623481
 20
0.16965
 30
0.0
 40
0
 41
0
  0
VERTEX
  8
0
 10
0.623969
 20
0.169271
 30
0.0
 40
0
 41
0
  0
VERTEX
  8
0
 10
0.627442
 20
0.163411
 30
0.0
 40
0
 41
0
  0
VERTEX
  8
0
 10
0.627442
 20
0.161404
 30
0.0
 40
0
 41
0
  0
SEQEND
 8
0
  0
ENDSEC
  0
EOF
