solid OpenSCAD_Model
  facet normal 0.866025 0.5 0
    outer loop
      vertex 5 0 18
      vertex 2.5 4.33013 0
      vertex 2.5 4.33013 18
    endloop
  endfacet
  facet normal 0.866025 0.5 0
    outer loop
      vertex 2.5 4.33013 0
      vertex 5 0 18
      vertex 5 0 0
    endloop
  endfacet
  facet normal 0 1 -0
    outer loop
      vertex 2.5 4.33013 0
      vertex -2.5 4.33013 18
      vertex 2.5 4.33013 18
    endloop
  endfacet
  facet normal 0 1 0
    outer loop
      vertex -2.5 4.33013 18
      vertex 2.5 4.33013 0
      vertex -2.5 4.33013 0
    endloop
  endfacet
  facet normal -0.866025 0.5 0
    outer loop
      vertex -5 6.12323e-16 0
      vertex -2.5 4.33013 18
      vertex -2.5 4.33013 0
    endloop
  endfacet
  facet normal -0.866025 0.5 0
    outer loop
      vertex -2.5 4.33013 18
      vertex -5 6.12323e-16 0
      vertex -5 6.12323e-16 18
    endloop
  endfacet
  facet normal -0.866025 -0.5 0
    outer loop
      vertex -2.5 -4.33013 0
      vertex -5 6.12323e-16 18
      vertex -5 6.12323e-16 0
    endloop
  endfacet
  facet normal -0.866025 -0.5 0
    outer loop
      vertex -5 6.12323e-16 18
      vertex -2.5 -4.33013 0
      vertex -2.5 -4.33013 18
    endloop
  endfacet
  facet normal 0 -1 0
    outer loop
      vertex -2.5 -4.33013 0
      vertex 2.5 -4.33013 18
      vertex -2.5 -4.33013 18
    endloop
  endfacet
  facet normal 0 -1 -0
    outer loop
      vertex 2.5 -4.33013 18
      vertex -2.5 -4.33013 0
      vertex 2.5 -4.33013 0
    endloop
  endfacet
  facet normal 0.866025 -0.5 0
    outer loop
      vertex 2.5 -4.33013 18
      vertex 5 0 0
      vertex 5 0 18
    endloop
  endfacet
  facet normal 0.866025 -0.5 0
    outer loop
      vertex 5 0 0
      vertex 2.5 -4.33013 18
      vertex 2.5 -4.33013 0
    endloop
  endfacet
  facet normal 0 0 -1
    outer loop
      vertex 2.5 -4.33013 0
      vertex 2.5 4.33013 0
      vertex 5 0 0
    endloop
  endfacet
  facet normal 0 0 -1
    outer loop
      vertex -2.5 -4.33013 0
      vertex 2.5 4.33013 0
      vertex 2.5 -4.33013 0
    endloop
  endfacet
  facet normal 0 0 -1
    outer loop
      vertex -2.5 -4.33013 0
      vertex -2.5 4.33013 0
      vertex 2.5 4.33013 0
    endloop
  endfacet
  facet normal 0 -0 -1
    outer loop
      vertex -2.5 4.33013 0
      vertex -2.5 -4.33013 0
      vertex -5 6.12323e-16 0
    endloop
  endfacet
  facet normal 0 0 1
    outer loop
      vertex 2.5 4.33013 18
      vertex 2.5 -4.33013 18
      vertex 5 0 18
    endloop
  endfacet
  facet normal -0 0 1
    outer loop
      vertex -2.5 4.33013 18
      vertex 2.5 -4.33013 18
      vertex 2.5 4.33013 18
    endloop
  endfacet
  facet normal 0 0 1
    outer loop
      vertex -2.5 4.33013 18
      vertex -2.5 -4.33013 18
      vertex 2.5 -4.33013 18
    endloop
  endfacet
  facet normal 0 -0 1
    outer loop
      vertex -2.5 -4.33013 18
      vertex -2.5 4.33013 18
      vertex -5 6.12323e-16 18
    endloop
  endfacet
endsolid OpenSCAD_Model
