solid OpenSCAD_Model
  facet normal 0.952568 0.189478 0.238142
    outer loop
      vertex 4.6194 1.91342 0
      vertex 0.5 0 18
      vertex 5 0 0
    endloop
  endfacet
  facet normal 0.952568 0.189478 0.238142
    outer loop
      vertex 4.6194 1.91342 0
      vertex 0.46194 0.191342 18
      vertex 0.5 0 18
    endloop
  endfacet
  facet normal 0.807548 0.539587 0.238142
    outer loop
      vertex 3.53553 3.53553 0
      vertex 0.46194 0.191342 18
      vertex 4.6194 1.91342 0
    endloop
  endfacet
  facet normal 0.807548 0.539587 0.238142
    outer loop
      vertex 3.53553 3.53553 0
      vertex 0.353553 0.353553 18
      vertex 0.46194 0.191342 18
    endloop
  endfacet
  facet normal 0.539587 0.807548 0.238142
    outer loop
      vertex 1.91342 4.6194 0
      vertex 0.353553 0.353553 18
      vertex 3.53553 3.53553 0
    endloop
  endfacet
  facet normal 0.539587 0.807548 0.238142
    outer loop
      vertex 1.91342 4.6194 0
      vertex 0.191342 0.46194 18
      vertex 0.353553 0.353553 18
    endloop
  endfacet
  facet normal 0.189478 0.952568 0.238142
    outer loop
      vertex 3.06162e-16 5 0
      vertex 0.191342 0.46194 18
      vertex 1.91342 4.6194 0
    endloop
  endfacet
  facet normal 0.189478 0.952568 0.238142
    outer loop
      vertex 3.06162e-16 5 0
      vertex 3.06162e-17 0.5 18
      vertex 0.191342 0.46194 18
    endloop
  endfacet
  facet normal -0.189478 0.952568 0.238142
    outer loop
      vertex -1.91342 4.6194 0
      vertex 3.06162e-17 0.5 18
      vertex 3.06162e-16 5 0
    endloop
  endfacet
  facet normal -0.189478 0.952568 0.238142
    outer loop
      vertex -1.91342 4.6194 0
      vertex -0.191342 0.46194 18
      vertex 3.06162e-17 0.5 18
    endloop
  endfacet
  facet normal -0.539587 0.807548 0.238142
    outer loop
      vertex -3.53553 3.53553 0
      vertex -0.191342 0.46194 18
      vertex -1.91342 4.6194 0
    endloop
  endfacet
  facet normal -0.539587 0.807548 0.238142
    outer loop
      vertex -3.53553 3.53553 0
      vertex -0.353553 0.353553 18
      vertex -0.191342 0.46194 18
    endloop
  endfacet
  facet normal -0.807548 0.539587 0.238142
    outer loop
      vertex -4.6194 1.91342 0
      vertex -0.353553 0.353553 18
      vertex -3.53553 3.53553 0
    endloop
  endfacet
  facet normal -0.807548 0.539587 0.238142
    outer loop
      vertex -4.6194 1.91342 0
      vertex -0.46194 0.191342 18
      vertex -0.353553 0.353553 18
    endloop
  endfacet
  facet normal -0.952568 0.189478 0.238142
    outer loop
      vertex -5 6.12323e-16 0
      vertex -0.46194 0.191342 18
      vertex -4.6194 1.91342 0
    endloop
  endfacet
  facet normal -0.952568 0.189478 0.238142
    outer loop
      vertex -5 6.12323e-16 0
      vertex -0.5 6.12323e-17 18
      vertex -0.46194 0.191342 18
    endloop
  endfacet
  facet normal -0.952568 -0.189478 0.238142
    outer loop
      vertex -4.6194 -1.91342 0
      vertex -0.5 6.12323e-17 18
      vertex -5 6.12323e-16 0
    endloop
  endfacet
  facet normal -0.952568 -0.189478 0.238142
    outer loop
      vertex -4.6194 -1.91342 0
      vertex -0.46194 -0.191342 18
      vertex -0.5 6.12323e-17 18
    endloop
  endfacet
  facet normal -0.807548 -0.539587 0.238142
    outer loop
      vertex -3.53553 -3.53553 0
      vertex -0.46194 -0.191342 18
      vertex -4.6194 -1.91342 0
    endloop
  endfacet
  facet normal -0.807548 -0.539587 0.238142
    outer loop
      vertex -3.53553 -3.53553 0
      vertex -0.353553 -0.353553 18
      vertex -0.46194 -0.191342 18
    endloop
  endfacet
  facet normal -0.539587 -0.807548 0.238142
    outer loop
      vertex -1.91342 -4.6194 0
      vertex -0.353553 -0.353553 18
      vertex -3.53553 -3.53553 0
    endloop
  endfacet
  facet normal -0.539587 -0.807548 0.238142
    outer loop
      vertex -1.91342 -4.6194 0
      vertex -0.191342 -0.46194 18
      vertex -0.353553 -0.353553 18
    endloop
  endfacet
  facet normal -0.189478 -0.952568 0.238142
    outer loop
      vertex -9.18485e-16 -5 0
      vertex -0.191342 -0.46194 18
      vertex -1.91342 -4.6194 0
    endloop
  endfacet
  facet normal -0.189478 -0.952568 0.238142
    outer loop
      vertex -9.18485e-16 -5 0
      vertex -9.18485e-17 -0.5 18
      vertex -0.191342 -0.46194 18
    endloop
  endfacet
  facet normal 0.189478 -0.952568 0.238142
    outer loop
      vertex 1.91342 -4.6194 0
      vertex -9.18485e-17 -0.5 18
      vertex -9.18485e-16 -5 0
    endloop
  endfacet
  facet normal 0.189478 -0.952568 0.238142
    outer loop
      vertex 1.91342 -4.6194 0
      vertex 0.191342 -0.46194 18
      vertex -9.18485e-17 -0.5 18
    endloop
  endfacet
  facet normal 0.539587 -0.807548 0.238142
    outer loop
      vertex 3.53553 -3.53553 0
      vertex 0.191342 -0.46194 18
      vertex 1.91342 -4.6194 0
    endloop
  endfacet
  facet normal 0.539587 -0.807548 0.238142
    outer loop
      vertex 3.53553 -3.53553 0
      vertex 0.353553 -0.353553 18
      vertex 0.191342 -0.46194 18
    endloop
  endfacet
  facet normal 0.807548 -0.539587 0.238142
    outer loop
      vertex 4.6194 -1.91342 0
      vertex 0.353553 -0.353553 18
      vertex 3.53553 -3.53553 0
    endloop
  endfacet
  facet normal 0.807548 -0.539587 0.238142
    outer loop
      vertex 4.6194 -1.91342 0
      vertex 0.46194 -0.191342 18
      vertex 0.353553 -0.353553 18
    endloop
  endfacet
  facet normal 0.952568 -0.189478 0.238142
    outer loop
      vertex 5 0 0
      vertex 0.46194 -0.191342 18
      vertex 4.6194 -1.91342 0
    endloop
  endfacet
  facet normal 0.952568 -0.189478 0.238142
    outer loop
      vertex 5 0 0
      vertex 0.5 0 18
      vertex 0.46194 -0.191342 18
    endloop
  endfacet
  facet normal 0 0 -1
    outer loop
      vertex 4.6194 -1.91342 0
      vertex 4.6194 1.91342 0
      vertex 5 0 0
    endloop
  endfacet
  facet normal 0 0 -1
    outer loop
      vertex 3.53553 -3.53553 0
      vertex 4.6194 1.91342 0
      vertex 4.6194 -1.91342 0
    endloop
  endfacet
  facet normal 0 0 -1
    outer loop
      vertex 3.53553 -3.53553 0
      vertex 3.53553 3.53553 0
      vertex 4.6194 1.91342 0
    endloop
  endfacet
  facet normal 0 0 -1
    outer loop
      vertex 1.91342 -4.6194 0
      vertex 3.53553 3.53553 0
      vertex 3.53553 -3.53553 0
    endloop
  endfacet
  facet normal 0 0 -1
    outer loop
      vertex 1.91342 -4.6194 0
      vertex 1.91342 4.6194 0
      vertex 3.53553 3.53553 0
    endloop
  endfacet
  facet normal 0 0 -1
    outer loop
      vertex 1.91342 -4.6194 0
      vertex 3.06162e-16 5 0
      vertex 1.91342 4.6194 0
    endloop
  endfacet
  facet normal 0 0 -1
    outer loop
      vertex -9.18485e-16 -5 0
      vertex 3.06162e-16 5 0
      vertex 1.91342 -4.6194 0
    endloop
  endfacet
  facet normal 0 0 -1
    outer loop
      vertex -1.91342 -4.6194 0
      vertex 3.06162e-16 5 0
      vertex -9.18485e-16 -5 0
    endloop
  endfacet
  facet normal 0 0 -1
    outer loop
      vertex -1.91342 -4.6194 0
      vertex -1.91342 4.6194 0
      vertex 3.06162e-16 5 0
    endloop
  endfacet
  facet normal 0 0 -1
    outer loop
      vertex -3.53553 -3.53553 0
      vertex -1.91342 4.6194 0
      vertex -1.91342 -4.6194 0
    endloop
  endfacet
  facet normal 0 0 -1
    outer loop
      vertex -3.53553 -3.53553 0
      vertex -3.53553 3.53553 0
      vertex -1.91342 4.6194 0
    endloop
  endfacet
  facet normal 0 0 -1
    outer loop
      vertex -4.6194 -1.91342 0
      vertex -3.53553 3.53553 0
      vertex -3.53553 -3.53553 0
    endloop
  endfacet
  facet normal 0 0 -1
    outer loop
      vertex -4.6194 -1.91342 0
      vertex -4.6194 1.91342 0
      vertex -3.53553 3.53553 0
    endloop
  endfacet
  facet normal 0 -0 -1
    outer loop
      vertex -4.6194 1.91342 0
      vertex -4.6194 -1.91342 0
      vertex -5 6.12323e-16 0
    endloop
  endfacet
  facet normal 0 0 1
    outer loop
      vertex 0.46194 0.191342 18
      vertex 0.46194 -0.191342 18
      vertex 0.5 0 18
    endloop
  endfacet
  facet normal 0 0 1
    outer loop
      vertex 0.353553 0.353553 18
      vertex 0.46194 -0.191342 18
      vertex 0.46194 0.191342 18
    endloop
  endfacet
  facet normal 0 0 1
    outer loop
      vertex 0.353553 0.353553 18
      vertex 0.353553 -0.353553 18
      vertex 0.46194 -0.191342 18
    endloop
  endfacet
  facet normal 0 0 1
    outer loop
      vertex 0.191342 0.46194 18
      vertex 0.353553 -0.353553 18
      vertex 0.353553 0.353553 18
    endloop
  endfacet
  facet normal 0 0 1
    outer loop
      vertex 0.191342 0.46194 18
      vertex 0.191342 -0.46194 18
      vertex 0.353553 -0.353553 18
    endloop
  endfacet
  facet normal 0 0 1
    outer loop
      vertex 3.06162e-17 0.5 18
      vertex 0.191342 -0.46194 18
      vertex 0.191342 0.46194 18
    endloop
  endfacet
  facet normal 0 0 1
    outer loop
      vertex 3.06162e-17 0.5 18
      vertex -9.18485e-17 -0.5 18
      vertex 0.191342 -0.46194 18
    endloop
  endfacet
  facet normal -0 0 1
    outer loop
      vertex -0.191342 0.46194 18
      vertex -9.18485e-17 -0.5 18
      vertex 3.06162e-17 0.5 18
    endloop
  endfacet
  facet normal 0 0 1
    outer loop
      vertex -0.191342 0.46194 18
      vertex -0.191342 -0.46194 18
      vertex -9.18485e-17 -0.5 18
    endloop
  endfacet
  facet normal -0 0 1
    outer loop
      vertex -0.353553 0.353553 18
      vertex -0.191342 -0.46194 18
      vertex -0.191342 0.46194 18
    endloop
  endfacet
  facet normal 0 0 1
    outer loop
      vertex -0.353553 0.353553 18
      vertex -0.353553 -0.353553 18
      vertex -0.191342 -0.46194 18
    endloop
  endfacet
  facet normal -0 0 1
    outer loop
      vertex -0.46194 0.191342 18
      vertex -0.353553 -0.353553 18
      vertex -0.353553 0.353553 18
    endloop
  endfacet
  facet normal 0 0 1
    outer loop
      vertex -0.46194 0.191342 18
      vertex -0.46194 -0.191342 18
      vertex -0.353553 -0.353553 18
    endloop
  endfacet
  facet normal 0 -0 1
    outer loop
      vertex -0.46194 -0.191342 18
      vertex -0.46194 0.191342 18
      vertex -0.5 6.12323e-17 18
    endloop
  endfacet
endsolid OpenSCAD_Model
