solid OpenSCAD_Model
  facet normal -0 -0 -1
    outer loop
      vertex 7.86518 4.70329 0.5
      vertex 8.04 3.04 0.5
      vertex 7.34836 6.29389 0.5
    endloop
  endfacet
  facet normal 0 0 -1
    outer loop
      vertex 7.34836 6.29389 0.5
      vertex 5.39304 8.98516 0.5
      vertex 6.51214 7.74228 0.5
    endloop
  endfacet
  facet normal -0 0 -1
    outer loop
      vertex 8.04 3.04 0.5
      vertex 7.86518 1.37671 0.5
      vertex 7.34836 6.29389 0.5
    endloop
  endfacet
  facet normal 0 0 -1
    outer loop
      vertex 7.34836 6.29389 0.5
      vertex 2.51214 10.6485 0.5
      vertex 5.39304 8.98516 0.5
    endloop
  endfacet
  facet normal 0 0 -1
    outer loop
      vertex 5.39304 8.98516 0.5
      vertex 2.51214 10.6485 0.5
      vertex 4.04 9.9682 0.5
    endloop
  endfacet
  facet normal 0 0 -1
    outer loop
      vertex -6.43214 7.74228 0.5
      vertex -7.26836 -0.213893 0.5
      vertex -7.96 3.04 0.5
    endloop
  endfacet
  facet normal 0 0 -1
    outer loop
      vertex 2.51214 10.6485 0.5
      vertex -0.796228 10.9962 0.5
      vertex 0.876228 10.9962 0.5
    endloop
  endfacet
  facet normal 0 0 -1
    outer loop
      vertex -5.31304 8.98516 0.5
      vertex -3.96 9.9682 0.5
      vertex -0.796228 10.9962 0.5
    endloop
  endfacet
  facet normal 0 0 -1
    outer loop
      vertex -0.796228 10.9962 0.5
      vertex -3.96 9.9682 0.5
      vertex -2.43214 10.6485 0.5
    endloop
  endfacet
  facet normal -0 0 -1
    outer loop
      vertex 2.51214 10.6485 0.5
      vertex -5.31304 8.98516 0.5
      vertex -0.796228 10.9962 0.5
    endloop
  endfacet
  facet normal 0 0 -1
    outer loop
      vertex -7.96 3.04 0.5
      vertex -7.26836 -0.213893 0.5
      vertex -7.78518 1.37671 0.5
    endloop
  endfacet
  facet normal 0 -0 -1
    outer loop
      vertex -6.43214 7.74228 0.5
      vertex -5.31304 8.98516 0.5
      vertex -7.26836 -0.213893 0.5
    endloop
  endfacet
  facet normal 0 0 -1
    outer loop
      vertex -6.43214 7.74228 0.5
      vertex -7.78518 4.70329 0.5
      vertex -7.26836 6.29389 0.5
    endloop
  endfacet
  facet normal 0 0 -1
    outer loop
      vertex -6.43214 7.74228 0.5
      vertex -7.96 3.04 0.5
      vertex -7.78518 4.70329 0.5
    endloop
  endfacet
  facet normal 0 0 -1
    outer loop
      vertex -7.26836 -0.213893 0.5
      vertex -5.31304 8.98516 0.5
      vertex -2.43214 -4.56845 0.5
    endloop
  endfacet
  facet normal 0 0 -1
    outer loop
      vertex -5.31304 -2.90516 0.5
      vertex -7.26836 -0.213893 0.5
      vertex -2.43214 -4.56845 0.5
    endloop
  endfacet
  facet normal 0 0 -1
    outer loop
      vertex -2.43214 -4.56845 0.5
      vertex -5.31304 8.98516 0.5
      vertex 2.51214 10.6485 0.5
    endloop
  endfacet
  facet normal 0 0 -1
    outer loop
      vertex -7.26836 -0.213893 0.5
      vertex -5.31304 -2.90516 0.5
      vertex -6.43214 -1.66228 0.5
    endloop
  endfacet
  facet normal 0 0 -1
    outer loop
      vertex -2.43214 -4.56845 0.5
      vertex -3.96 -3.8882 0.5
      vertex -5.31304 -2.90516 0.5
    endloop
  endfacet
  facet normal -0 0 -1
    outer loop
      vertex 7.34836 6.29389 0.5
      vertex -2.43214 -4.56845 0.5
      vertex 2.51214 10.6485 0.5
    endloop
  endfacet
  facet normal 0 0 -1
    outer loop
      vertex 7.34836 6.29389 0.5
      vertex 0.876228 -4.91618 0.5
      vertex -2.43214 -4.56845 0.5
    endloop
  endfacet
  facet normal 0 0 -1
    outer loop
      vertex -2.43214 -4.56845 0.5
      vertex 0.876228 -4.91618 0.5
      vertex -0.796228 -4.91618 0.5
    endloop
  endfacet
  facet normal 0 0 -1
    outer loop
      vertex 7.34836 6.29389 0.5
      vertex 4.04 -3.8882 0.5
      vertex 0.876228 -4.91618 0.5
    endloop
  endfacet
  facet normal 0 0 -1
    outer loop
      vertex 0.876228 -4.91618 0.5
      vertex 4.04 -3.8882 0.5
      vertex 2.51214 -4.56845 0.5
    endloop
  endfacet
  facet normal 0 -0 -1
    outer loop
      vertex 7.34836 6.29389 0.5
      vertex 7.86518 1.37671 0.5
      vertex 4.04 -3.8882 0.5
    endloop
  endfacet
  facet normal 0 0 -1
    outer loop
      vertex 4.04 -3.8882 0.5
      vertex 7.86518 1.37671 0.5
      vertex 5.39304 -2.90516 0.5
    endloop
  endfacet
  facet normal 0 0 -1
    outer loop
      vertex 5.39304 -2.90516 0.5
      vertex 7.86518 1.37671 0.5
      vertex 6.51214 -1.66228 0.5
    endloop
  endfacet
  facet normal 0 0 -1
    outer loop
      vertex 6.51214 -1.66228 0.5
      vertex 7.86518 1.37671 0.5
      vertex 7.34836 -0.213893 0.5
    endloop
  endfacet
  facet normal 0 0 1
    outer loop
      vertex 7.34836 6.29389 1.5
      vertex 8.04 3.04 1.5
      vertex 7.86518 4.70329 1.5
    endloop
  endfacet
  facet normal 0 0 1
    outer loop
      vertex 6.51214 7.74228 1.5
      vertex 5.39304 8.98516 1.5
      vertex 7.34836 6.29389 1.5
    endloop
  endfacet
  facet normal 0 0 1
    outer loop
      vertex 7.34836 6.29389 1.5
      vertex 7.86518 1.37671 1.5
      vertex 8.04 3.04 1.5
    endloop
  endfacet
  facet normal 0 0 1
    outer loop
      vertex 5.39304 8.98516 1.5
      vertex 2.51214 10.6485 1.5
      vertex 7.34836 6.29389 1.5
    endloop
  endfacet
  facet normal 0 0 1
    outer loop
      vertex 4.04 9.9682 1.5
      vertex 2.51214 10.6485 1.5
      vertex 5.39304 8.98516 1.5
    endloop
  endfacet
  facet normal -0 0 1
    outer loop
      vertex -7.96 3.04 1.5
      vertex -7.26836 -0.213893 1.5
      vertex -6.43214 7.74228 1.5
    endloop
  endfacet
  facet normal 0 0 1
    outer loop
      vertex 0.876228 10.9962 1.5
      vertex -0.796228 10.9962 1.5
      vertex 2.51214 10.6485 1.5
    endloop
  endfacet
  facet normal 0 0 1
    outer loop
      vertex -0.796228 10.9962 1.5
      vertex -3.96 9.9682 1.5
      vertex -5.31304 8.98516 1.5
    endloop
  endfacet
  facet normal -0 0 1
    outer loop
      vertex -2.43214 10.6485 1.5
      vertex -3.96 9.9682 1.5
      vertex -0.796228 10.9962 1.5
    endloop
  endfacet
  facet normal 0 0 1
    outer loop
      vertex -0.796228 10.9962 1.5
      vertex -5.31304 8.98516 1.5
      vertex 2.51214 10.6485 1.5
    endloop
  endfacet
  facet normal -0 -0 1
    outer loop
      vertex -7.78518 1.37671 1.5
      vertex -7.26836 -0.213893 1.5
      vertex -7.96 3.04 1.5
    endloop
  endfacet
  facet normal 0 0 1
    outer loop
      vertex -7.26836 -0.213893 1.5
      vertex -5.31304 8.98516 1.5
      vertex -6.43214 7.74228 1.5
    endloop
  endfacet
  facet normal -0 0 1
    outer loop
      vertex -7.26836 6.29389 1.5
      vertex -7.78518 4.70329 1.5
      vertex -6.43214 7.74228 1.5
    endloop
  endfacet
  facet normal -0 0 1
    outer loop
      vertex -7.78518 4.70329 1.5
      vertex -7.96 3.04 1.5
      vertex -6.43214 7.74228 1.5
    endloop
  endfacet
  facet normal 0 0 1
    outer loop
      vertex -2.43214 -4.56845 1.5
      vertex -5.31304 8.98516 1.5
      vertex -7.26836 -0.213893 1.5
    endloop
  endfacet
  facet normal 0 0 1
    outer loop
      vertex -2.43214 -4.56845 1.5
      vertex -7.26836 -0.213893 1.5
      vertex -5.31304 -2.90516 1.5
    endloop
  endfacet
  facet normal 0 0 1
    outer loop
      vertex 2.51214 10.6485 1.5
      vertex -5.31304 8.98516 1.5
      vertex -2.43214 -4.56845 1.5
    endloop
  endfacet
  facet normal -0 -0 1
    outer loop
      vertex -6.43214 -1.66228 1.5
      vertex -5.31304 -2.90516 1.5
      vertex -7.26836 -0.213893 1.5
    endloop
  endfacet
  facet normal 0 0 1
    outer loop
      vertex -5.31304 -2.90516 1.5
      vertex -3.96 -3.8882 1.5
      vertex -2.43214 -4.56845 1.5
    endloop
  endfacet
  facet normal 0 0 1
    outer loop
      vertex 2.51214 10.6485 1.5
      vertex -2.43214 -4.56845 1.5
      vertex 7.34836 6.29389 1.5
    endloop
  endfacet
  facet normal -0 0 1
    outer loop
      vertex -2.43214 -4.56845 1.5
      vertex 0.876228 -4.91618 1.5
      vertex 7.34836 6.29389 1.5
    endloop
  endfacet
  facet normal 0 -0 1
    outer loop
      vertex -0.796228 -4.91618 1.5
      vertex 0.876228 -4.91618 1.5
      vertex -2.43214 -4.56845 1.5
    endloop
  endfacet
  facet normal 0 0 1
    outer loop
      vertex 0.876228 -4.91618 1.5
      vertex 4.04 -3.8882 1.5
      vertex 7.34836 6.29389 1.5
    endloop
  endfacet
  facet normal 0 -0 1
    outer loop
      vertex 2.51214 -4.56845 1.5
      vertex 4.04 -3.8882 1.5
      vertex 0.876228 -4.91618 1.5
    endloop
  endfacet
  facet normal 0 0 1
    outer loop
      vertex 4.04 -3.8882 1.5
      vertex 7.86518 1.37671 1.5
      vertex 7.34836 6.29389 1.5
    endloop
  endfacet
  facet normal 0 -0 1
    outer loop
      vertex 5.39304 -2.90516 1.5
      vertex 7.86518 1.37671 1.5
      vertex 4.04 -3.8882 1.5
    endloop
  endfacet
  facet normal 0 -0 1
    outer loop
      vertex 6.51214 -1.66228 1.5
      vertex 7.86518 1.37671 1.5
      vertex 5.39304 -2.90516 1.5
    endloop
  endfacet
  facet normal 0 -0 1
    outer loop
      vertex 7.34836 -0.213893 1.5
      vertex 7.86518 1.37671 1.5
      vertex 6.51214 -1.66228 1.5
    endloop
  endfacet
  facet normal 0.994522 0.104528 0
    outer loop
      vertex 7.86518 4.70329 0.5
      vertex 8.04 3.04 1.5
      vertex 8.04 3.04 0.5
    endloop
  endfacet
  facet normal 0.994522 0.104528 -0
    outer loop
      vertex 7.86518 4.70329 0.5
      vertex 7.86518 4.70329 1.5
      vertex 8.04 3.04 1.5
    endloop
  endfacet
  facet normal 0.951057 0.309017 0
    outer loop
      vertex 7.34836 6.29389 0.5
      vertex 7.86518 4.70329 1.5
      vertex 7.86518 4.70329 0.5
    endloop
  endfacet
  facet normal 0.951057 0.309017 -0
    outer loop
      vertex 7.34836 6.29389 0.5
      vertex 7.34836 6.29389 1.5
      vertex 7.86518 4.70329 1.5
    endloop
  endfacet
  facet normal 0.866025 0.5 0
    outer loop
      vertex 6.51214 7.74228 0.5
      vertex 7.34836 6.29389 1.5
      vertex 7.34836 6.29389 0.5
    endloop
  endfacet
  facet normal 0.866025 0.5 -0
    outer loop
      vertex 6.51214 7.74228 0.5
      vertex 6.51214 7.74228 1.5
      vertex 7.34836 6.29389 1.5
    endloop
  endfacet
  facet normal 0.743145 0.669131 0
    outer loop
      vertex 5.39304 8.98516 0.5
      vertex 6.51214 7.74228 1.5
      vertex 6.51214 7.74228 0.5
    endloop
  endfacet
  facet normal 0.743145 0.669131 -0
    outer loop
      vertex 5.39304 8.98516 0.5
      vertex 5.39304 8.98516 1.5
      vertex 6.51214 7.74228 1.5
    endloop
  endfacet
  facet normal 0.587785 0.809017 0
    outer loop
      vertex 4.04 9.9682 0.5
      vertex 5.39304 8.98516 1.5
      vertex 5.39304 8.98516 0.5
    endloop
  endfacet
  facet normal 0.587785 0.809017 -0
    outer loop
      vertex 4.04 9.9682 0.5
      vertex 4.04 9.9682 1.5
      vertex 5.39304 8.98516 1.5
    endloop
  endfacet
  facet normal 0.406737 0.913545 0
    outer loop
      vertex 2.51214 10.6485 0.5
      vertex 4.04 9.9682 1.5
      vertex 4.04 9.9682 0.5
    endloop
  endfacet
  facet normal 0.406737 0.913545 -0
    outer loop
      vertex 2.51214 10.6485 0.5
      vertex 2.51214 10.6485 1.5
      vertex 4.04 9.9682 1.5
    endloop
  endfacet
  facet normal 0.207912 0.978148 0
    outer loop
      vertex 0.876228 10.9962 0.5
      vertex 2.51214 10.6485 1.5
      vertex 2.51214 10.6485 0.5
    endloop
  endfacet
  facet normal 0.207912 0.978148 -0
    outer loop
      vertex 0.876228 10.9962 0.5
      vertex 0.876228 10.9962 1.5
      vertex 2.51214 10.6485 1.5
    endloop
  endfacet
  facet normal 0 1 0
    outer loop
      vertex -0.796228 10.9962 0.5
      vertex 0.876228 10.9962 1.5
      vertex 0.876228 10.9962 0.5
    endloop
  endfacet
  facet normal 0 1 0
    outer loop
      vertex -0.796228 10.9962 0.5
      vertex -0.796228 10.9962 1.5
      vertex 0.876228 10.9962 1.5
    endloop
  endfacet
  facet normal -0.207912 0.978148 0
    outer loop
      vertex -2.43214 10.6485 0.5
      vertex -0.796228 10.9962 1.5
      vertex -0.796228 10.9962 0.5
    endloop
  endfacet
  facet normal -0.207912 0.978148 0
    outer loop
      vertex -2.43214 10.6485 0.5
      vertex -2.43214 10.6485 1.5
      vertex -0.796228 10.9962 1.5
    endloop
  endfacet
  facet normal -0.406737 0.913545 0
    outer loop
      vertex -3.96 9.9682 0.5
      vertex -2.43214 10.6485 1.5
      vertex -2.43214 10.6485 0.5
    endloop
  endfacet
  facet normal -0.406737 0.913545 0
    outer loop
      vertex -3.96 9.9682 0.5
      vertex -3.96 9.9682 1.5
      vertex -2.43214 10.6485 1.5
    endloop
  endfacet
  facet normal -0.587785 0.809017 0
    outer loop
      vertex -5.31304 8.98516 0.5
      vertex -3.96 9.9682 1.5
      vertex -3.96 9.9682 0.5
    endloop
  endfacet
  facet normal -0.587785 0.809017 0
    outer loop
      vertex -5.31304 8.98516 0.5
      vertex -5.31304 8.98516 1.5
      vertex -3.96 9.9682 1.5
    endloop
  endfacet
  facet normal -0.743145 0.669131 0
    outer loop
      vertex -6.43214 7.74228 0.5
      vertex -5.31304 8.98516 1.5
      vertex -5.31304 8.98516 0.5
    endloop
  endfacet
  facet normal -0.743145 0.669131 0
    outer loop
      vertex -6.43214 7.74228 0.5
      vertex -6.43214 7.74228 1.5
      vertex -5.31304 8.98516 1.5
    endloop
  endfacet
  facet normal -0.866025 0.5 0
    outer loop
      vertex -7.26836 6.29389 0.5
      vertex -6.43214 7.74228 1.5
      vertex -6.43214 7.74228 0.5
    endloop
  endfacet
  facet normal -0.866025 0.5 0
    outer loop
      vertex -7.26836 6.29389 0.5
      vertex -7.26836 6.29389 1.5
      vertex -6.43214 7.74228 1.5
    endloop
  endfacet
  facet normal -0.951057 0.309017 0
    outer loop
      vertex -7.78518 4.70329 0.5
      vertex -7.26836 6.29389 1.5
      vertex -7.26836 6.29389 0.5
    endloop
  endfacet
  facet normal -0.951057 0.309017 0
    outer loop
      vertex -7.78518 4.70329 0.5
      vertex -7.78518 4.70329 1.5
      vertex -7.26836 6.29389 1.5
    endloop
  endfacet
  facet normal -0.994522 0.104528 0
    outer loop
      vertex -7.96 3.04 0.5
      vertex -7.78518 4.70329 1.5
      vertex -7.78518 4.70329 0.5
    endloop
  endfacet
  facet normal -0.994522 0.104528 0
    outer loop
      vertex -7.96 3.04 0.5
      vertex -7.96 3.04 1.5
      vertex -7.78518 4.70329 1.5
    endloop
  endfacet
  facet normal -0.994522 -0.104528 0
    outer loop
      vertex -7.78518 1.37671 0.5
      vertex -7.96 3.04 1.5
      vertex -7.96 3.04 0.5
    endloop
  endfacet
  facet normal -0.994522 -0.104528 0
    outer loop
      vertex -7.78518 1.37671 0.5
      vertex -7.78518 1.37671 1.5
      vertex -7.96 3.04 1.5
    endloop
  endfacet
  facet normal -0.951057 -0.309017 0
    outer loop
      vertex -7.26836 -0.213893 0.5
      vertex -7.78518 1.37671 1.5
      vertex -7.78518 1.37671 0.5
    endloop
  endfacet
  facet normal -0.951057 -0.309017 0
    outer loop
      vertex -7.26836 -0.213893 0.5
      vertex -7.26836 -0.213893 1.5
      vertex -7.78518 1.37671 1.5
    endloop
  endfacet
  facet normal -0.866025 -0.5 0
    outer loop
      vertex -6.43214 -1.66228 0.5
      vertex -7.26836 -0.213893 1.5
      vertex -7.26836 -0.213893 0.5
    endloop
  endfacet
  facet normal -0.866025 -0.5 0
    outer loop
      vertex -6.43214 -1.66228 0.5
      vertex -6.43214 -1.66228 1.5
      vertex -7.26836 -0.213893 1.5
    endloop
  endfacet
  facet normal -0.743145 -0.669131 0
    outer loop
      vertex -5.31304 -2.90516 0.5
      vertex -6.43214 -1.66228 1.5
      vertex -6.43214 -1.66228 0.5
    endloop
  endfacet
  facet normal -0.743145 -0.669131 0
    outer loop
      vertex -5.31304 -2.90516 0.5
      vertex -5.31304 -2.90516 1.5
      vertex -6.43214 -1.66228 1.5
    endloop
  endfacet
  facet normal -0.587785 -0.809017 0
    outer loop
      vertex -3.96 -3.8882 0.5
      vertex -5.31304 -2.90516 1.5
      vertex -5.31304 -2.90516 0.5
    endloop
  endfacet
  facet normal -0.587785 -0.809017 0
    outer loop
      vertex -3.96 -3.8882 0.5
      vertex -3.96 -3.8882 1.5
      vertex -5.31304 -2.90516 1.5
    endloop
  endfacet
  facet normal -0.406737 -0.913545 0
    outer loop
      vertex -2.43214 -4.56845 0.5
      vertex -3.96 -3.8882 1.5
      vertex -3.96 -3.8882 0.5
    endloop
  endfacet
  facet normal -0.406737 -0.913545 0
    outer loop
      vertex -2.43214 -4.56845 0.5
      vertex -2.43214 -4.56845 1.5
      vertex -3.96 -3.8882 1.5
    endloop
  endfacet
  facet normal -0.207912 -0.978148 0
    outer loop
      vertex -0.796228 -4.91618 0.5
      vertex -2.43214 -4.56845 1.5
      vertex -2.43214 -4.56845 0.5
    endloop
  endfacet
  facet normal -0.207912 -0.978148 0
    outer loop
      vertex -0.796228 -4.91618 0.5
      vertex -0.796228 -4.91618 1.5
      vertex -2.43214 -4.56845 1.5
    endloop
  endfacet
  facet normal 0 -1 0
    outer loop
      vertex 0.876228 -4.91618 0.5
      vertex -0.796228 -4.91618 1.5
      vertex -0.796228 -4.91618 0.5
    endloop
  endfacet
  facet normal 0 -1 0
    outer loop
      vertex 0.876228 -4.91618 0.5
      vertex 0.876228 -4.91618 1.5
      vertex -0.796228 -4.91618 1.5
    endloop
  endfacet
  facet normal 0.207912 -0.978148 0
    outer loop
      vertex 2.51214 -4.56845 0.5
      vertex 0.876228 -4.91618 1.5
      vertex 0.876228 -4.91618 0.5
    endloop
  endfacet
  facet normal 0.207912 -0.978148 0
    outer loop
      vertex 2.51214 -4.56845 0.5
      vertex 2.51214 -4.56845 1.5
      vertex 0.876228 -4.91618 1.5
    endloop
  endfacet
  facet normal 0.406737 -0.913545 0
    outer loop
      vertex 4.04 -3.8882 0.5
      vertex 2.51214 -4.56845 1.5
      vertex 2.51214 -4.56845 0.5
    endloop
  endfacet
  facet normal 0.406737 -0.913545 0
    outer loop
      vertex 4.04 -3.8882 0.5
      vertex 4.04 -3.8882 1.5
      vertex 2.51214 -4.56845 1.5
    endloop
  endfacet
  facet normal 0.587785 -0.809017 0
    outer loop
      vertex 5.39304 -2.90516 0.5
      vertex 4.04 -3.8882 1.5
      vertex 4.04 -3.8882 0.5
    endloop
  endfacet
  facet normal 0.587785 -0.809017 0
    outer loop
      vertex 5.39304 -2.90516 0.5
      vertex 5.39304 -2.90516 1.5
      vertex 4.04 -3.8882 1.5
    endloop
  endfacet
  facet normal 0.743145 -0.669131 0
    outer loop
      vertex 6.51214 -1.66228 0.5
      vertex 5.39304 -2.90516 1.5
      vertex 5.39304 -2.90516 0.5
    endloop
  endfacet
  facet normal 0.743145 -0.669131 0
    outer loop
      vertex 6.51214 -1.66228 0.5
      vertex 6.51214 -1.66228 1.5
      vertex 5.39304 -2.90516 1.5
    endloop
  endfacet
  facet normal 0.866025 -0.5 0
    outer loop
      vertex 7.34836 -0.213893 0.5
      vertex 6.51214 -1.66228 1.5
      vertex 6.51214 -1.66228 0.5
    endloop
  endfacet
  facet normal 0.866025 -0.5 0
    outer loop
      vertex 7.34836 -0.213893 0.5
      vertex 7.34836 -0.213893 1.5
      vertex 6.51214 -1.66228 1.5
    endloop
  endfacet
  facet normal 0.951057 -0.309017 0
    outer loop
      vertex 7.86518 1.37671 0.5
      vertex 7.34836 -0.213893 1.5
      vertex 7.34836 -0.213893 0.5
    endloop
  endfacet
  facet normal 0.951057 -0.309017 0
    outer loop
      vertex 7.86518 1.37671 0.5
      vertex 7.86518 1.37671 1.5
      vertex 7.34836 -0.213893 1.5
    endloop
  endfacet
  facet normal 0.994522 -0.104528 0
    outer loop
      vertex 8.04 3.04 0.5
      vertex 7.86518 1.37671 1.5
      vertex 7.86518 1.37671 0.5
    endloop
  endfacet
  facet normal 0.994522 -0.104528 0
    outer loop
      vertex 8.04 3.04 0.5
      vertex 8.04 3.04 1.5
      vertex 7.86518 1.37671 1.5
    endloop
  endfacet
endsolid OpenSCAD_Model
