<?xml version="1.0" encoding="UTF-8" standalone="no"?>
<svg
   xmlns:dc="http://purl.org/dc/elements/1.1/"
   xmlns:cc="http://creativecommons.org/ns#"
   xmlns:rdf="http://www.w3.org/1999/02/22-rdf-syntax-ns#"
   xmlns:svg="http://www.w3.org/2000/svg"
   xmlns="http://www.w3.org/2000/svg"
   xmlns:sodipodi="http://sodipodi.sourceforge.net/DTD/sodipodi-0.dtd"
   xmlns:inkscape="http://www.inkscape.org/namespaces/inkscape"
   id="Vrstva_1"
   data-name="Vrstva 1"
   viewBox="0 0 637.73 562.89"
   version="1.1"
   sodipodi:docname="Splneneprani_logo.svg"
   inkscape:version="0.92.3 (2405546, 2018-03-11)">
  <metadata
     id="metadata15">
    <rdf:RDF>
      <cc:Work
         rdf:about="">
        <dc:format>image/svg+xml</dc:format>
        <dc:type
           rdf:resource="http://purl.org/dc/dcmitype/StillImage" />
        <dc:title>Splneneprani_logo_ruzova_CMYK</dc:title>
      </cc:Work>
    </rdf:RDF>
  </metadata>
  <sodipodi:namedview
     pagecolor="#ffffff"
     bordercolor="#666666"
     borderopacity="1"
     objecttolerance="10"
     gridtolerance="10"
     guidetolerance="10"
     inkscape:pageopacity="0"
     inkscape:pageshadow="2"
     inkscape:window-width="1920"
     inkscape:window-height="1141"
     id="namedview13"
     showgrid="false"
     inkscape:zoom="4.7434403"
     inkscape:cx="434.96614"
     inkscape:cy="56.619544"
     inkscape:window-x="1920"
     inkscape:window-y="34"
     inkscape:window-maximized="1"
     inkscape:current-layer="Vrstva_1" />
  <defs
     id="defs4">
    <style
       id="style2">.cls-1{fill:#ea148c;}</style>
  </defs>
  <title
     id="title6">Splneneprani_logo_ruzova_CMYK</title>
  <path
     class="cls-1"
     d="m 775.85,307.24 c -23.52,-49.71 -95.14,-93.12 -153.17,-92.57 -53.71,-1.5 -99.49755,29.55673 -121.36755,58.42673 -27.52,-34.42 -74.05408,-60.41327 -121.68408,-60.06327 C 321.69082,210.4561 245.02264,254.2451 224.05,312.77 204.31,358.84 206.08101,421.37409 249.68101,497.72409 235.21082,503.62654 230.82,537.67 265.27,554.03 c -14.9,30.49 20.77,68.67 50.3,64.23 -7.93,37.39 39.37,73.24 67.05,52.92 -2.47,34 32.52,59.78 56.85,46.38 41.27,36.56 72.16,59.05 74.9,59.94 2.85,-0.88 22.47773,-18.50692 29.39773,-25.17692 33.57799,4.36654 44.57881,-12.12812 42.68064,-39.68264 33.59654,9.16629 65.68879,-23.42717 57.42471,-57.56164 l 3.03245,-3.65327 c 41.81981,20.16226 69.7678,-26.76867 52.80654,-58.6393 1.23,-1.58 1.68405,-1.48044 2.89405,-3.03044 48.38943,15.59057 72.24821,-44.65868 48.02595,-86.86767 C 798.90207,416.63812 801.21,356.5 775.85,307.24 Z m -78.71,269.15 c -5.95,-1.62 -5.92372,-2.44 -11,-6.35 -5.64803,4.78378 -6.45347,3.03951 -5.09,8.8 16.18,38.07 -11.16,68.9 -42.74,57 -5.85,-2.21 -6.66,-3.56 -11.06,-7.67 -8.03661,0.42474 -6.27,6.34 -6.27,6.34 18.76,36.48 -9.11452,62.04302 -34.94654,62.24428 -5.1,-0.89 -3.12346,1.08981 -6.76346,-3.43428 -5.74666,-2.03106 -9.08,2.18 -9.08,2.18 13.9192,60.53034 -54.56166,36.37773 -55.69,38.91 -4.93246,5.20852 -8.90837,8.63464 -14.79428,12.7351 -17.05,-12 -31.49447,-28.74981 -47.66447,-41.95981 13.86,-10.52 22.40875,-14.49529 21.20875,-25.68529 1.09,-13.18 -19,-46.59 -36.13,-45.62 -6.76,-0.16 -12.93,3.68 -19.2,7.17 13.6,-18.29 -25.4,-76.19 -53,-57.32 13.88,-17.16 -20.91,-69.78 -45.22,-61 1.65,-11.45 -13.22,-36.32 -28.89,-40.41 -8.77837,0.22736 -3.45586,-0.0172 -17.28586,5.18284 C 151.38414,262.80284 397,173.09 483.9,285.74 c -64.86,61.52 -73.34,45 -112.61,84.63 -28.76,35 9.38,48.23 36.81,47.92 75.43,-3.07 119.28,-43.58 142.12,-64.75 35,26.19 161.85,121.72 180,153.44 25.02,36.46 0.93045,83.16769 -33.08,69.41 z"
     transform="translate(-212.72,-214.62)"
     id="path8"
     inkscape:connector-curvature="0"
     style="fill:#ea148c"
     sodipodi:nodetypes="cccccccccccccccccccccccccccccccccccccccccccc" />
</svg>
