solid OpenSCAD_Model
  facet normal -0 -0 -1
    outer loop
      vertex 23.4755 4.98988 -1
      vertex 24 0 -1
      vertex 21.9251 9.76168 -1
    endloop
  endfacet
  facet normal 0 0 -1
    outer loop
      vertex 21.9251 9.76168 -1
      vertex 16.0591 17.8355 -1
      vertex 19.4164 14.1068 -1
    endloop
  endfacet
  facet normal -0 0 -1
    outer loop
      vertex 24 0 -1
      vertex 23.4755 -4.98988 -1
      vertex 21.9251 9.76168 -1
    endloop
  endfacet
  facet normal 0 0 -1
    outer loop
      vertex 2.50868 23.8685 -1
      vertex 7.41641 22.8254 -1
      vertex 16.0591 17.8355 -1
    endloop
  endfacet
  facet normal 0 0 -1
    outer loop
      vertex 16.0591 17.8355 -1
      vertex 7.41641 22.8254 -1
      vertex 12 20.7846 -1
    endloop
  endfacet
  facet normal 0 0 -1
    outer loop
      vertex 21.9251 9.76168 -1
      vertex 2.50868 23.8685 -1
      vertex 16.0591 17.8355 -1
    endloop
  endfacet
  facet normal -0 -0 -1
    outer loop
      vertex 21.9251 9.76168 -1
      vertex 23.4755 -4.98988 -1
      vertex 2.50868 23.8685 -1
    endloop
  endfacet
  facet normal 0 0 -1
    outer loop
      vertex -12 20.7846 -1
      vertex -7.41641 22.8254 -1
      vertex -2.50868 23.8685 -1
    endloop
  endfacet
  facet normal -0 0 -1
    outer loop
      vertex 2.50868 23.8685 -1
      vertex -12 20.7846 -1
      vertex -2.50868 23.8685 -1
    endloop
  endfacet
  facet normal 0 0 -1
    outer loop
      vertex 2.50868 23.8685 -1
      vertex -21.9251 9.76168 -1
      vertex -12 20.7846 -1
    endloop
  endfacet
  facet normal 0 0 -1
    outer loop
      vertex -12 20.7846 -1
      vertex -19.4164 14.1068 -1
      vertex -16.0591 17.8355 -1
    endloop
  endfacet
  facet normal 0 0 -1
    outer loop
      vertex -12 20.7846 -1
      vertex -21.9251 9.76168 -1
      vertex -19.4164 14.1068 -1
    endloop
  endfacet
  facet normal 0 0 -1
    outer loop
      vertex -7.41641 -22.8254 -1
      vertex -12 -20.7846 -1
      vertex -21.9251 9.76168 -1
    endloop
  endfacet
  facet normal 0 0 -1
    outer loop
      vertex -21.9251 9.76168 -1
      vertex -24 1.35973e-14 -1
      vertex -23.4755 4.98988 -1
    endloop
  endfacet
  facet normal 0 0 -1
    outer loop
      vertex -21.9251 9.76168 -1
      vertex -23.4755 -4.98988 -1
      vertex -24 1.35973e-14 -1
    endloop
  endfacet
  facet normal 0 -0 -1
    outer loop
      vertex -21.9251 9.76168 -1
      vertex -12 -20.7846 -1
      vertex -23.4755 -4.98988 -1
    endloop
  endfacet
  facet normal 0 0 -1
    outer loop
      vertex -23.4755 -4.98988 -1
      vertex -12 -20.7846 -1
      vertex -21.9251 -9.76168 -1
    endloop
  endfacet
  facet normal 0 0 -1
    outer loop
      vertex -21.9251 -9.76168 -1
      vertex -16.0591 -17.8355 -1
      vertex -19.4164 -14.1068 -1
    endloop
  endfacet
  facet normal 0 0 -1
    outer loop
      vertex -21.9251 -9.76168 -1
      vertex -12 -20.7846 -1
      vertex -16.0591 -17.8355 -1
    endloop
  endfacet
  facet normal 0 0 -1
    outer loop
      vertex -2.50868 -23.8685 -1
      vertex -7.41641 -22.8254 -1
      vertex -21.9251 9.76168 -1
    endloop
  endfacet
  facet normal 0 0 -1
    outer loop
      vertex 2.50868 23.8685 -1
      vertex -2.50868 -23.8685 -1
      vertex -21.9251 9.76168 -1
    endloop
  endfacet
  facet normal 0 -0 -1
    outer loop
      vertex 2.50868 23.8685 -1
      vertex 23.4755 -4.98988 -1
      vertex -2.50868 -23.8685 -1
    endloop
  endfacet
  facet normal 0 0 -1
    outer loop
      vertex -2.50868 -23.8685 -1
      vertex 21.9251 -9.76168 -1
      vertex 2.50868 -23.8685 -1
    endloop
  endfacet
  facet normal 0 0 -1
    outer loop
      vertex 2.50868 -23.8685 -1
      vertex 21.9251 -9.76168 -1
      vertex 7.41641 -22.8254 -1
    endloop
  endfacet
  facet normal 0 0 -1
    outer loop
      vertex 7.41641 -22.8254 -1
      vertex 16.0591 -17.8355 -1
      vertex 12 -20.7846 -1
    endloop
  endfacet
  facet normal 0 0 -1
    outer loop
      vertex 21.9251 -9.76168 -1
      vertex 19.4164 -14.1068 -1
      vertex 16.0591 -17.8355 -1
    endloop
  endfacet
  facet normal 0 0 -1
    outer loop
      vertex 7.41641 -22.8254 -1
      vertex 21.9251 -9.76168 -1
      vertex 16.0591 -17.8355 -1
    endloop
  endfacet
  facet normal 0 0 -1
    outer loop
      vertex -2.50868 -23.8685 -1
      vertex 23.4755 -4.98988 -1
      vertex 21.9251 -9.76168 -1
    endloop
  endfacet
  facet normal 0 0 1
    outer loop
      vertex 21.9251 9.76168 1
      vertex 24 0 1
      vertex 23.4755 4.98988 1
    endloop
  endfacet
  facet normal 0 0 1
    outer loop
      vertex 19.4164 14.1068 1
      vertex 16.0591 17.8355 1
      vertex 21.9251 9.76168 1
    endloop
  endfacet
  facet normal 0 0 1
    outer loop
      vertex 21.9251 9.76168 1
      vertex 23.4755 -4.98988 1
      vertex 24 0 1
    endloop
  endfacet
  facet normal 0 0 1
    outer loop
      vertex 16.0591 17.8355 1
      vertex 7.41641 22.8254 1
      vertex 2.50868 23.8685 1
    endloop
  endfacet
  facet normal 0 0 1
    outer loop
      vertex 12 20.7846 1
      vertex 7.41641 22.8254 1
      vertex 16.0591 17.8355 1
    endloop
  endfacet
  facet normal 0 0 1
    outer loop
      vertex 16.0591 17.8355 1
      vertex 2.50868 23.8685 1
      vertex 21.9251 9.76168 1
    endloop
  endfacet
  facet normal 0 0 1
    outer loop
      vertex 2.50868 23.8685 1
      vertex 23.4755 -4.98988 1
      vertex 21.9251 9.76168 1
    endloop
  endfacet
  facet normal 0 0 1
    outer loop
      vertex -2.50868 23.8685 1
      vertex -7.41641 22.8254 1
      vertex -12 20.7846 1
    endloop
  endfacet
  facet normal 0 0 1
    outer loop
      vertex -2.50868 23.8685 1
      vertex -12 20.7846 1
      vertex 2.50868 23.8685 1
    endloop
  endfacet
  facet normal -0 0 1
    outer loop
      vertex -12 20.7846 1
      vertex -21.9251 9.76168 1
      vertex 2.50868 23.8685 1
    endloop
  endfacet
  facet normal -0 0 1
    outer loop
      vertex -16.0591 17.8355 1
      vertex -19.4164 14.1068 1
      vertex -12 20.7846 1
    endloop
  endfacet
  facet normal -0 0 1
    outer loop
      vertex -19.4164 14.1068 1
      vertex -21.9251 9.76168 1
      vertex -12 20.7846 1
    endloop
  endfacet
  facet normal 0 0 1
    outer loop
      vertex -21.9251 9.76168 1
      vertex -12 -20.7846 1
      vertex -7.41641 -22.8254 1
    endloop
  endfacet
  facet normal -0 0 1
    outer loop
      vertex -23.4755 4.98988 1
      vertex -24 1.35973e-14 1
      vertex -21.9251 9.76168 1
    endloop
  endfacet
  facet normal -0 0 1
    outer loop
      vertex -24 1.35973e-14 1
      vertex -23.4755 -4.98988 1
      vertex -21.9251 9.76168 1
    endloop
  endfacet
  facet normal -0 0 1
    outer loop
      vertex -23.4755 -4.98988 1
      vertex -12 -20.7846 1
      vertex -21.9251 9.76168 1
    endloop
  endfacet
  facet normal -0 -0 1
    outer loop
      vertex -21.9251 -9.76168 1
      vertex -12 -20.7846 1
      vertex -23.4755 -4.98988 1
    endloop
  endfacet
  facet normal -0 -0 1
    outer loop
      vertex -19.4164 -14.1068 1
      vertex -16.0591 -17.8355 1
      vertex -21.9251 -9.76168 1
    endloop
  endfacet
  facet normal -0 -0 1
    outer loop
      vertex -16.0591 -17.8355 1
      vertex -12 -20.7846 1
      vertex -21.9251 -9.76168 1
    endloop
  endfacet
  facet normal 0 0 1
    outer loop
      vertex -21.9251 9.76168 1
      vertex -7.41641 -22.8254 1
      vertex -2.50868 -23.8685 1
    endloop
  endfacet
  facet normal -0 0 1
    outer loop
      vertex -21.9251 9.76168 1
      vertex -2.50868 -23.8685 1
      vertex 2.50868 23.8685 1
    endloop
  endfacet
  facet normal 0 0 1
    outer loop
      vertex -2.50868 -23.8685 1
      vertex 23.4755 -4.98988 1
      vertex 2.50868 23.8685 1
    endloop
  endfacet
  facet normal 0 -0 1
    outer loop
      vertex 2.50868 -23.8685 1
      vertex 21.9251 -9.76168 1
      vertex -2.50868 -23.8685 1
    endloop
  endfacet
  facet normal 0 -0 1
    outer loop
      vertex 7.41641 -22.8254 1
      vertex 21.9251 -9.76168 1
      vertex 2.50868 -23.8685 1
    endloop
  endfacet
  facet normal 0 -0 1
    outer loop
      vertex 12 -20.7846 1
      vertex 16.0591 -17.8355 1
      vertex 7.41641 -22.8254 1
    endloop
  endfacet
  facet normal 0 0 1
    outer loop
      vertex 16.0591 -17.8355 1
      vertex 19.4164 -14.1068 1
      vertex 21.9251 -9.76168 1
    endloop
  endfacet
  facet normal 0 -0 1
    outer loop
      vertex 16.0591 -17.8355 1
      vertex 21.9251 -9.76168 1
      vertex 7.41641 -22.8254 1
    endloop
  endfacet
  facet normal 0 -0 1
    outer loop
      vertex 21.9251 -9.76168 1
      vertex 23.4755 -4.98988 1
      vertex -2.50868 -23.8685 1
    endloop
  endfacet
  facet normal 0.994522 0.104528 0
    outer loop
      vertex 23.4755 4.98988 -1
      vertex 24 0 1
      vertex 24 0 -1
    endloop
  endfacet
  facet normal 0.994522 0.104528 -0
    outer loop
      vertex 23.4755 4.98988 -1
      vertex 23.4755 4.98988 1
      vertex 24 0 1
    endloop
  endfacet
  facet normal 0.951057 0.309017 0
    outer loop
      vertex 21.9251 9.76168 -1
      vertex 23.4755 4.98988 1
      vertex 23.4755 4.98988 -1
    endloop
  endfacet
  facet normal 0.951057 0.309017 -0
    outer loop
      vertex 21.9251 9.76168 -1
      vertex 21.9251 9.76168 1
      vertex 23.4755 4.98988 1
    endloop
  endfacet
  facet normal 0.866025 0.5 0
    outer loop
      vertex 19.4164 14.1068 -1
      vertex 21.9251 9.76168 1
      vertex 21.9251 9.76168 -1
    endloop
  endfacet
  facet normal 0.866025 0.5 -0
    outer loop
      vertex 19.4164 14.1068 -1
      vertex 19.4164 14.1068 1
      vertex 21.9251 9.76168 1
    endloop
  endfacet
  facet normal 0.743145 0.669131 0
    outer loop
      vertex 16.0591 17.8355 -1
      vertex 19.4164 14.1068 1
      vertex 19.4164 14.1068 -1
    endloop
  endfacet
  facet normal 0.743145 0.669131 -0
    outer loop
      vertex 16.0591 17.8355 -1
      vertex 16.0591 17.8355 1
      vertex 19.4164 14.1068 1
    endloop
  endfacet
  facet normal 0.587785 0.809017 0
    outer loop
      vertex 12 20.7846 -1
      vertex 16.0591 17.8355 1
      vertex 16.0591 17.8355 -1
    endloop
  endfacet
  facet normal 0.587785 0.809017 -0
    outer loop
      vertex 12 20.7846 -1
      vertex 12 20.7846 1
      vertex 16.0591 17.8355 1
    endloop
  endfacet
  facet normal 0.406737 0.913545 0
    outer loop
      vertex 7.41641 22.8254 -1
      vertex 12 20.7846 1
      vertex 12 20.7846 -1
    endloop
  endfacet
  facet normal 0.406737 0.913545 -0
    outer loop
      vertex 7.41641 22.8254 -1
      vertex 7.41641 22.8254 1
      vertex 12 20.7846 1
    endloop
  endfacet
  facet normal 0.207912 0.978148 0
    outer loop
      vertex 2.50868 23.8685 -1
      vertex 7.41641 22.8254 1
      vertex 7.41641 22.8254 -1
    endloop
  endfacet
  facet normal 0.207912 0.978148 -0
    outer loop
      vertex 2.50868 23.8685 -1
      vertex 2.50868 23.8685 1
      vertex 7.41641 22.8254 1
    endloop
  endfacet
  facet normal 7.08083e-16 1 0
    outer loop
      vertex -2.50868 23.8685 -1
      vertex 2.50868 23.8685 1
      vertex 2.50868 23.8685 -1
    endloop
  endfacet
  facet normal 7.08083e-16 1 -0
    outer loop
      vertex -2.50868 23.8685 -1
      vertex -2.50868 23.8685 1
      vertex 2.50868 23.8685 1
    endloop
  endfacet
  facet normal -0.207912 0.978148 0
    outer loop
      vertex -7.41641 22.8254 -1
      vertex -2.50868 23.8685 1
      vertex -2.50868 23.8685 -1
    endloop
  endfacet
  facet normal -0.207912 0.978148 0
    outer loop
      vertex -7.41641 22.8254 -1
      vertex -7.41641 22.8254 1
      vertex -2.50868 23.8685 1
    endloop
  endfacet
  facet normal -0.406737 0.913545 0
    outer loop
      vertex -12 20.7846 -1
      vertex -7.41641 22.8254 1
      vertex -7.41641 22.8254 -1
    endloop
  endfacet
  facet normal -0.406737 0.913545 0
    outer loop
      vertex -12 20.7846 -1
      vertex -12 20.7846 1
      vertex -7.41641 22.8254 1
    endloop
  endfacet
  facet normal -0.587785 0.809017 0
    outer loop
      vertex -16.0591 17.8355 -1
      vertex -12 20.7846 1
      vertex -12 20.7846 -1
    endloop
  endfacet
  facet normal -0.587785 0.809017 0
    outer loop
      vertex -16.0591 17.8355 -1
      vertex -16.0591 17.8355 1
      vertex -12 20.7846 1
    endloop
  endfacet
  facet normal -0.743145 0.669131 0
    outer loop
      vertex -19.4164 14.1068 -1
      vertex -16.0591 17.8355 1
      vertex -16.0591 17.8355 -1
    endloop
  endfacet
  facet normal -0.743145 0.669131 0
    outer loop
      vertex -19.4164 14.1068 -1
      vertex -19.4164 14.1068 1
      vertex -16.0591 17.8355 1
    endloop
  endfacet
  facet normal -0.866025 0.5 0
    outer loop
      vertex -21.9251 9.76168 -1
      vertex -19.4164 14.1068 1
      vertex -19.4164 14.1068 -1
    endloop
  endfacet
  facet normal -0.866025 0.5 0
    outer loop
      vertex -21.9251 9.76168 -1
      vertex -21.9251 9.76168 1
      vertex -19.4164 14.1068 1
    endloop
  endfacet
  facet normal -0.951057 0.309017 0
    outer loop
      vertex -23.4755 4.98988 -1
      vertex -21.9251 9.76168 1
      vertex -21.9251 9.76168 -1
    endloop
  endfacet
  facet normal -0.951057 0.309017 0
    outer loop
      vertex -23.4755 4.98988 -1
      vertex -23.4755 4.98988 1
      vertex -21.9251 9.76168 1
    endloop
  endfacet
  facet normal -0.994522 0.104528 0
    outer loop
      vertex -24 1.35973e-14 -1
      vertex -23.4755 4.98988 1
      vertex -23.4755 4.98988 -1
    endloop
  endfacet
  facet normal -0.994522 0.104528 0
    outer loop
      vertex -24 1.35973e-14 -1
      vertex -24 1.35973e-14 1
      vertex -23.4755 4.98988 1
    endloop
  endfacet
  facet normal -0.994522 -0.104528 0
    outer loop
      vertex -23.4755 -4.98988 -1
      vertex -24 1.35973e-14 1
      vertex -24 1.35973e-14 -1
    endloop
  endfacet
  facet normal -0.994522 -0.104528 0
    outer loop
      vertex -23.4755 -4.98988 -1
      vertex -23.4755 -4.98988 1
      vertex -24 1.35973e-14 1
    endloop
  endfacet
  facet normal -0.951057 -0.309017 0
    outer loop
      vertex -21.9251 -9.76168 -1
      vertex -23.4755 -4.98988 1
      vertex -23.4755 -4.98988 -1
    endloop
  endfacet
  facet normal -0.951057 -0.309017 0
    outer loop
      vertex -21.9251 -9.76168 -1
      vertex -21.9251 -9.76168 1
      vertex -23.4755 -4.98988 1
    endloop
  endfacet
  facet normal -0.866025 -0.5 0
    outer loop
      vertex -19.4164 -14.1068 -1
      vertex -21.9251 -9.76168 1
      vertex -21.9251 -9.76168 -1
    endloop
  endfacet
  facet normal -0.866025 -0.5 0
    outer loop
      vertex -19.4164 -14.1068 -1
      vertex -19.4164 -14.1068 1
      vertex -21.9251 -9.76168 1
    endloop
  endfacet
  facet normal -0.743145 -0.669131 0
    outer loop
      vertex -16.0591 -17.8355 -1
      vertex -19.4164 -14.1068 1
      vertex -19.4164 -14.1068 -1
    endloop
  endfacet
  facet normal -0.743145 -0.669131 0
    outer loop
      vertex -16.0591 -17.8355 -1
      vertex -16.0591 -17.8355 1
      vertex -19.4164 -14.1068 1
    endloop
  endfacet
  facet normal -0.587785 -0.809017 0
    outer loop
      vertex -12 -20.7846 -1
      vertex -16.0591 -17.8355 1
      vertex -16.0591 -17.8355 -1
    endloop
  endfacet
  facet normal -0.587785 -0.809017 0
    outer loop
      vertex -12 -20.7846 -1
      vertex -12 -20.7846 1
      vertex -16.0591 -17.8355 1
    endloop
  endfacet
  facet normal -0.406737 -0.913545 0
    outer loop
      vertex -7.41641 -22.8254 -1
      vertex -12 -20.7846 1
      vertex -12 -20.7846 -1
    endloop
  endfacet
  facet normal -0.406737 -0.913545 0
    outer loop
      vertex -7.41641 -22.8254 -1
      vertex -7.41641 -22.8254 1
      vertex -12 -20.7846 1
    endloop
  endfacet
  facet normal -0.207912 -0.978148 0
    outer loop
      vertex -2.50868 -23.8685 -1
      vertex -7.41641 -22.8254 1
      vertex -7.41641 -22.8254 -1
    endloop
  endfacet
  facet normal -0.207912 -0.978148 0
    outer loop
      vertex -2.50868 -23.8685 -1
      vertex -2.50868 -23.8685 1
      vertex -7.41641 -22.8254 1
    endloop
  endfacet
  facet normal -7.08083e-16 -1 0
    outer loop
      vertex 2.50868 -23.8685 -1
      vertex -2.50868 -23.8685 1
      vertex -2.50868 -23.8685 -1
    endloop
  endfacet
  facet normal -7.08083e-16 -1 0
    outer loop
      vertex 2.50868 -23.8685 -1
      vertex 2.50868 -23.8685 1
      vertex -2.50868 -23.8685 1
    endloop
  endfacet
  facet normal 0.207912 -0.978148 0
    outer loop
      vertex 7.41641 -22.8254 -1
      vertex 2.50868 -23.8685 1
      vertex 2.50868 -23.8685 -1
    endloop
  endfacet
  facet normal 0.207912 -0.978148 0
    outer loop
      vertex 7.41641 -22.8254 -1
      vertex 7.41641 -22.8254 1
      vertex 2.50868 -23.8685 1
    endloop
  endfacet
  facet normal 0.406737 -0.913545 0
    outer loop
      vertex 12 -20.7846 -1
      vertex 7.41641 -22.8254 1
      vertex 7.41641 -22.8254 -1
    endloop
  endfacet
  facet normal 0.406737 -0.913545 0
    outer loop
      vertex 12 -20.7846 -1
      vertex 12 -20.7846 1
      vertex 7.41641 -22.8254 1
    endloop
  endfacet
  facet normal 0.587785 -0.809017 0
    outer loop
      vertex 16.0591 -17.8355 -1
      vertex 12 -20.7846 1
      vertex 12 -20.7846 -1
    endloop
  endfacet
  facet normal 0.587785 -0.809017 0
    outer loop
      vertex 16.0591 -17.8355 -1
      vertex 16.0591 -17.8355 1
      vertex 12 -20.7846 1
    endloop
  endfacet
  facet normal 0.743145 -0.669131 0
    outer loop
      vertex 19.4164 -14.1068 -1
      vertex 16.0591 -17.8355 1
      vertex 16.0591 -17.8355 -1
    endloop
  endfacet
  facet normal 0.743145 -0.669131 0
    outer loop
      vertex 19.4164 -14.1068 -1
      vertex 19.4164 -14.1068 1
      vertex 16.0591 -17.8355 1
    endloop
  endfacet
  facet normal 0.866025 -0.5 0
    outer loop
      vertex 21.9251 -9.76168 -1
      vertex 19.4164 -14.1068 1
      vertex 19.4164 -14.1068 -1
    endloop
  endfacet
  facet normal 0.866025 -0.5 0
    outer loop
      vertex 21.9251 -9.76168 -1
      vertex 21.9251 -9.76168 1
      vertex 19.4164 -14.1068 1
    endloop
  endfacet
  facet normal 0.951057 -0.309017 0
    outer loop
      vertex 23.4755 -4.98988 -1
      vertex 21.9251 -9.76168 1
      vertex 21.9251 -9.76168 -1
    endloop
  endfacet
  facet normal 0.951057 -0.309017 0
    outer loop
      vertex 23.4755 -4.98988 -1
      vertex 23.4755 -4.98988 1
      vertex 21.9251 -9.76168 1
    endloop
  endfacet
  facet normal 0.994522 -0.104528 0
    outer loop
      vertex 24 0 -1
      vertex 23.4755 -4.98988 1
      vertex 23.4755 -4.98988 -1
    endloop
  endfacet
  facet normal 0.994522 -0.104528 0
    outer loop
      vertex 24 0 -1
      vertex 24 0 1
      vertex 23.4755 -4.98988 1
    endloop
  endfacet
endsolid OpenSCAD_Model
