solid OpenSCAD_Model
  facet normal -1 0 0
    outer loop
      vertex 0 18 0
      vertex 0 1.5 35
      vertex 0 18 35
    endloop
  endfacet
  facet normal -1 0 0
    outer loop
      vertex 0 0 0
      vertex 0 1.5 35
      vertex 0 18 0
    endloop
  endfacet
  facet normal -1 0 0
    outer loop
      vertex 0 0 37
      vertex 0 1.5 35
      vertex 0 0 0
    endloop
  endfacet
  facet normal -1 0 0
    outer loop
      vertex 0 1.5 35
      vertex 0 0 37
      vertex 0 1.5 37
    endloop
  endfacet
  facet normal -0 0 1
    outer loop
      vertex 0 18 35
      vertex 20 1.5 35
      vertex 20 18 35
    endloop
  endfacet
  facet normal 0 0 1
    outer loop
      vertex 20 1.5 35
      vertex 0 18 35
      vertex 0 1.5 35
    endloop
  endfacet
  facet normal 1 0 0
    outer loop
      vertex 20 1.5 37
      vertex 20 0 37
      vertex 20 1.5 35
    endloop
  endfacet
  facet normal 1 -0 0
    outer loop
      vertex 20 1.5 35
      vertex 20 18 0
      vertex 20 18 35
    endloop
  endfacet
  facet normal 1 0 0
    outer loop
      vertex 20 0 0
      vertex 20 1.5 35
      vertex 20 0 37
    endloop
  endfacet
  facet normal 1 0 0
    outer loop
      vertex 20 1.5 35
      vertex 20 0 0
      vertex 20 18 0
    endloop
  endfacet
  facet normal 0 1 -0
    outer loop
      vertex 20 18 0
      vertex 0 18 35
      vertex 20 18 35
    endloop
  endfacet
  facet normal 0 1 0
    outer loop
      vertex 0 18 35
      vertex 20 18 0
      vertex 0 18 0
    endloop
  endfacet
  facet normal 0 0 -1
    outer loop
      vertex 0 0 0
      vertex 20 18 0
      vertex 20 0 0
    endloop
  endfacet
  facet normal -0 0 -1
    outer loop
      vertex 20 18 0
      vertex 0 0 0
      vertex 0 18 0
    endloop
  endfacet
  facet normal 0 -1 0
    outer loop
      vertex 0 0 0
      vertex 20 0 37
      vertex 0 0 37
    endloop
  endfacet
  facet normal 0 -1 -0
    outer loop
      vertex 20 0 37
      vertex 0 0 0
      vertex 20 0 0
    endloop
  endfacet
  facet normal -0 0 1
    outer loop
      vertex 0 1.5 37
      vertex 20 0 37
      vertex 20 1.5 37
    endloop
  endfacet
  facet normal 0 0 1
    outer loop
      vertex 20 0 37
      vertex 0 1.5 37
      vertex 0 0 37
    endloop
  endfacet
  facet normal 0 1 -0
    outer loop
      vertex 20 1.5 35
      vertex 0 1.5 37
      vertex 20 1.5 37
    endloop
  endfacet
  facet normal 0 1 0
    outer loop
      vertex 0 1.5 37
      vertex 20 1.5 35
      vertex 0 1.5 35
    endloop
  endfacet
endsolid OpenSCAD_Model
